<?xml version="1.0" standalone="no"?>
<!DOCTYPE svg PUBLIC "-//W3C//DTD SVG 20010904//EN"
 "http://www.w3.org/TR/2001/REC-SVG-20010904/DTD/svg10.dtd">
<svg version="1.0" xmlns="http://www.w3.org/2000/svg"
 width="512.000000pt" height="512.000000pt" viewBox="0 0 512.000000 512.000000"
 preserveAspectRatio="xMidYMid meet">

<g transform="translate(0.000000,512.000000) scale(0.100000,-0.100000)"
fill="#000000" stroke="none">
<path d="M2290 3864 c-14 -2 -92 -16 -175 -30 -542 -90 -1081 -331 -1516 -677
-201 -160 -517 -480 -542 -549 -8 -22 22 -58 277 -323 234 -245 1151 -1166
1203 -1209 l35 -30 42 45 c22 25 66 75 96 112 110 135 306 276 478 344 143 57
195 65 397 61 208 -5 233 -11 430 -107 175 -86 299 -187 430 -351 57 -71 83
-99 95 -100 7 0 1061 1056 1257 1260 223 232 263 276 263 288 0 29 -219 268
-400 437 -76 70 -252 207 -365 282 -402 270 -825 439 -1290 518 -129 22 -189
26 -420 30 -148 2 -281 2 -295 -1z m516 -104 c254 -21 559 -95 823 -200 287
-113 634 -321 873 -522 112 -95 441 -423 437 -436 -7 -19 -509 -534 -1072
-1099 l-320 -322 -49 62 c-173 216 -451 390 -720 451 -145 33 -370 25 -525
-19 -105 -30 -283 -117 -373 -182 -67 -48 -262 -237 -296 -286 l-20 -28 -485
493 c-819 832 -904 919 -907 927 -5 14 201 234 306 328 406 361 873 618 1372
752 92 25 311 68 405 80 100 12 400 13 551 1z"/>
<path d="M2310 3711 c-124 -11 -369 -61 -539 -112 -444 -133 -883 -383 -1236
-705 -106 -97 -275 -271 -275 -283 0 -3 301 -307 670 -676 l670 -670 98 105
c56 59 138 133 188 169 248 176 570 261 824 217 276 -48 485 -160 703 -377
l117 -117 665 671 c366 369 665 675 665 681 0 16 -270 279 -398 388 -178 152
-476 341 -698 443 -260 120 -590 219 -844 254 -102 14 -493 21 -610 12z m282
-585 c31 -16 72 -42 90 -58 l33 -29 -35 8 c-19 4 -73 8 -120 8 -107 -1 -177
-31 -244 -106 -72 -80 -91 -128 -91 -234 0 -76 4 -98 26 -145 37 -78 90 -134
159 -168 54 -28 57 -31 34 -36 -14 -4 -53 -1 -87 5 -312 59 -438 434 -224 666
83 90 169 124 307 120 81 -3 104 -7 152 -31z m92 -181 c131 -40 228 -134 270
-263 13 -39 17 -76 14 -140 -2 -74 -8 -98 -35 -152 -98 -200 -331 -283 -529
-189 l-49 24 55 2 c170 9 293 97 343 247 57 168 -36 361 -206 429 -37 15 -80
27 -95 28 -24 0 -22 2 13 14 55 18 160 18 219 0z"/>
</g>
</svg>
