<svg width="512" height="512" xmlns="http://www.w3.org/2000/svg" version="1.0" preserveAspectRatio="xMidYMid meet">
 <title>touhou-lite</title>

 <g class="layer">
  <title>Layer 1</title>
  <g stroke="null" id="svg_39">
   <path transform="rotate(-74.9076 64.7442 423.133)" fill="#bb34a8" stroke="null" id="svg_38" d="m129.91131,360.06323c4.92101,-6.40944 -1.34986,-14.74517 -9.00339,-12.04181c-70.24106,24.81118 -25.28866,61.0129 -43.48015,84.7067c-7.36549,9.5933 -21.04028,11.73001 -30.41336,4.69997c-9.22543,-6.91819 -10.57861,-20.21892 -3.30718,-29.68971l17.67676,-23.02338c4.48585,-5.84268 -0.35252,-13.79113 -7.56635,-12.44918c-12.9087,2.40134 -30.23302,9.99939 -42.36138,25.79616c-21.88561,28.50527 -16.86745,68.33791 11.1864,88.79449s68.68185,13.90862 90.56746,-14.59665c35.2026,-45.8502 -4.61903,-84.42772 16.70119,-112.19658l0,-0.00001z"/>
  </g>
  <g transform="rotate(5.67999 425.109 419.633)" stroke="null" id="svg_37">
   <path fill="#bb34a8" stroke="null" id="svg_36" d="m490.10335,354.03799c4.90797,-6.66607 -1.34628,-15.33555 -8.97954,-12.52395c-70.05499,25.80459 -25.22167,63.45577 -43.36497,88.09824c-7.34598,9.9774 -20.98454,12.19966 -30.33279,4.88814c-9.20099,-7.19517 -10.55058,-21.02846 -3.29842,-30.87844l17.62993,-23.9452c4.47397,-6.07661 -0.35159,-14.34331 -7.54631,-12.94763c-12.8745,2.49749 -30.15294,10.39976 -42.24916,26.82901c-21.82763,29.64657 -16.82277,71.07407 11.15677,92.3497s68.49991,14.46549 90.32754,-15.18108c35.10935,-47.68598 -4.60679,-87.80809 16.65695,-116.68879z"/>
  </g>
  <path transform="rotate(-145.628 258.588 248.191)" stroke="null" p-id="3347" fill="#FFF093" id="svg_1"/>
  <g id="svg_35">
   <g stroke="null" id="svg_9">
    <path stroke="null" id="svg_8" fill="#dda09e" d="m246.16956,14.04851s44.83633,14.82484 34.91549,60.64435c0,0 4.95968,-4.04285 9.92083,-12.12856c0,0 22.32225,18.86769 22.32225,45.82108c0,18.86769 -14.88199,35.0391 -44.64449,48.5158l-3.39401,-0.34214c9.70539,-15.11989 10.04479,-27.58274 1.01968,-37.39167c-19.84314,-20.21583 -11.16186,-33.69253 -11.16186,-33.69253s-21.00301,10.84162 -25.08467,31.04019c-2.19135,10.84162 0.49434,24.3811 13.92281,40.38615l11.92035,-0.20403l-13.93314,0.20403c-24.93268,-8.83903 -45.75123,-26.26284 -46.16589,-52.76424l-0.0059,-0.80512c0,-50.36772 46.94504,-41.95715 50.36856,-89.28331l-0.00001,0z"/>
   </g>
   <g stroke="null" id="svg_11">
    <path stroke="null" id="svg_10" fill="#cf73a3" d="m402.32504,91.2974c-12.0093,20.41794 -23.98146,28.30746 -35.90803,23.6542c0,0 27.25649,-32.4515 22.55731,-59.33627c0,0 -10.84706,20.09254 -36.60349,37.22686c-12.0754,8.0266 -23.33569,11.72797 -30.37074,27.3253c-10.04615,22.2732 8.4452,46.7635 25.27407,55.99297c16.82096,9.22513 43.94239,14.37633 56.24772,-12.90568c5.05947,-11.21729 4.66277,-35.19932 -1.19684,-71.95739l0,0.00001z"/>
   </g>
   <g transform="rotate(8.93634 453.016 175.712)" stroke="null" id="svg_13">
    <path stroke="null" id="svg_12" fill="#c452a6" d="m496.174,172.81161c-0.85661,-4.70663 -2.01012,-6.06907 -2.54418,-6.20461c-0.5375,-0.13063 -1.46569,1.27113 -1.46569,1.27113c-12.68027,16.99394 -23.75971,13.44616 -23.75971,13.44616c26.22606,-24.41605 16.86181,-49.56991 15.80804,-51.89871c-1.05085,-2.32687 -1.7376,-3.5996 -3.06831,-4.47744c-1.32779,-0.87592 -3.92847,2.31371 -3.92847,2.31371c-13.02339,17.25711 -19.63252,16.84637 -35.11713,18.63117c-15.18028,1.75157 -24.07667,14.46733 -24.07667,14.46733c-18.95276,27.08951 -1.53408,48.6262 -0.00111,49.47669c1.53572,0.84656 2.05633,-1.58778 2.05633,-1.58778c6.96785,-21.56765 18.76789,-25.65246 18.76789,-25.65246c-9.01308,17.61437 -5.03615,35.78194 -5.03615,35.78194c0.76468,6.22795 4.55851,6.43811 4.55851,6.43811c2.28952,0.45092 24.23896,7.39538 42.69574,-9.29637c18.46702,-16.69217 15.96827,-37.99314 15.11092,-42.70887l0,0l-0.00001,0z"/>
   </g>
   <g transform="rotate(-45.4506 131.097 123.586)" stroke="null" id="svg_15">
    <path stroke="null" id="svg_14" fill="#cf73a3" d="m170.32504,95.2974c-12.0093,20.41794 -23.98146,28.30746 -35.90803,23.6542c0,0 27.25649,-32.4515 22.55731,-59.33627c0,0 -10.84706,20.09254 -36.60349,37.22686c-12.0754,8.0266 -23.33569,11.72797 -30.37074,27.3253c-10.04615,22.2732 8.44521,46.7635 25.27407,55.99297c16.82096,9.22514 43.94239,14.37633 56.24772,-12.90567c5.05947,-11.21729 4.66277,-35.19932 -1.19684,-71.95739z"/>
   </g>
   <g transform="rotate(-75.7081 49.0155 176.712)" stroke="null" id="svg_29">
    <path stroke="null" id="svg_16" fill="#c452a6" d="m92.174,173.81161c-0.85661,-4.70664 -2.01011,-6.06907 -2.54417,-6.20461c-0.5375,-0.13064 -1.46569,1.27112 -1.46569,1.27112c-12.68027,16.99394 -23.75971,13.44616 -23.75971,13.44616c26.22606,-24.41605 16.8618,-49.56991 15.80804,-51.8987c-1.05085,-2.32688 -1.7376,-3.59961 -3.06831,-4.47745c-1.32779,-0.87592 -3.92847,2.31372 -3.92847,2.31372c-13.02339,17.2571 -19.63252,16.84637 -35.11713,18.63117c-15.18028,1.75157 -24.07667,14.46733 -24.07667,14.46733c-18.95276,27.08951 -1.53409,48.6262 -0.00111,49.47669c1.53572,0.84656 2.05632,-1.58778 2.05632,-1.58778c6.96786,-21.56765 18.76789,-25.65246 18.76789,-25.65246c-9.01308,17.61437 -5.03615,35.78194 -5.03615,35.78194c0.76468,6.22795 4.5585,6.4381 4.5585,6.4381c2.28952,0.45092 24.23896,7.39538 42.69575,-9.29637c18.46702,-16.69217 15.96826,-37.99313 15.11091,-42.70886l0,0z"/>
   </g>
  </g>
  <g id="svg_42">
   <g id="svg_23">
    <ellipse stroke-width="5" stroke="#ffffff" ry="20" rx="20" id="svg_19" fill="#000000" cy="367.69" cx="67.79"/>
    <ellipse stroke-width="5" stroke="#ffffff" ry="20" rx="20" id="svg_20" fill="#000000" cy="417.69" cx="67.79"/>
    <ellipse stroke-width="5" stroke="#ffffff" ry="20" rx="20" id="svg_21" fill="#000000" cy="467.69" cx="67.79"/>
    <line y2="412.11" y1="325.11" x2="67.79" x1="66.29" stroke-width="10" stroke="#000000" id="svg_22" fill="#000000"/>
   </g>
   <g id="svg_24">
    <ellipse stroke-width="5" stroke="#ffffff" ry="20" rx="20" id="svg_25" fill="#000000" cy="368.16" cx="433.79"/>
    <ellipse stroke-width="5" stroke="#ffffff" ry="20" rx="20" id="svg_26" fill="#000000" cy="418.16" cx="433.79"/>
    <ellipse stroke-width="5" stroke="#ffffff" ry="20" rx="20" id="svg_27" fill="#000000" cy="468.16" cx="433.79"/>
    <line y2="412.58" y1="325.58" x2="433.79" x1="432.29" stroke-width="10" stroke="#000000" id="svg_28" fill="none"/>
   </g>
   <g id="svg_83">
    <g id="svg_73" fill="#ffff00" stroke="null">
     <g transform="translate(0 512) scale(0.1 -0.1)" fill="#000000" id="svg_72" stroke="null">
      <path d="m2137.1911,3314.59005c-566.00675,-88.25926 -1052.53995,-304.11069 -1509.99746,-670.57846c-112.426,-89.21859 -387.67585,-361.67107 -382.82991,-377.97984c1.93838,-3.83736 294.63366,-296.43597 651.29543,-649.47299l648.38787,-641.79826l45.55191,53.72303c192.86874,230.24153 455.51913,377.97984 741.43007,419.23145c163.79305,23.98349 311.10988,9.5934 479.74888,-45.08896c192.86874,-62.35708 422.56668,-220.64813 558.25323,-384.69522l37.79839,-47.00765l647.41867,643.71693c355.6926,353.03701 646.44949,647.55431 646.44949,653.31034c0,33.5769 -378.95315,384.69522 -532.08511,493.10061c-415.78236,292.59861 -817.99606,462.40173 -1289.02221,543.94561c-168.639,28.7802 -580.5446,34.53624 -742.39927,9.59341l0.00002,0z" id="svg_71" fill="#ffff00" stroke="null"/>
     </g>
    </g>
    <g id="svg_18" stroke="null">
     <g id="svg_30" transform="translate(0 512) scale(0.1 -0.1)" fill="#000000" stroke="null">
      <path id="svg_31" d="m2261.58007,3405.05608c-699.2967,-76.5705 -1360.79357,-393.00041 -1853.13625,-885.63473c-145.52931,-144.83818 -197.50407,-207.57064 -197.50407,-234.32419c0,-30.44369 1355.1236,-1355.20564 1386.30845,-1355.20564c14.17493,0 38.74482,23.0634 81.26962,76.5705c154.03427,191.88752 345.86837,321.96512 578.33727,391.15534c77.48963,23.0634 98.27954,24.90848 240.97386,24.90848c141.74933,0 163.48423,-1.84507 240.97386,-24.90848c111.50947,-32.28877 275.9387,-112.54941 359.0983,-173.4368c81.26962,-60.88739 165.37422,-142.07057 226.79893,-220.48615c51.02976,-66.4226 59.53472,-73.80289 80.32462,-73.80289c18.89991,0 1383.47346,1332.14224 1387.25345,1354.2831c6.61497,37.82398 -274.04871,322.88766 -461.15782,469.57091c-454.54285,355.17643 -960.11546,570.12736 -1502.5429,640.24011c-128.51939,15.68311 -460.21283,23.0634 -566.99732,11.07043l0,0.00001zm606.68713,-104.24659c481.94772,-70.11275 924.20563,-258.31013 1354.1786,-574.74004c117.17945,-86.7184 458.32283,-407.76099 458.32283,-431.74693c0,-7.38029 -286.33365,-292.44397 -635.982,-633.78235l-635.982,-620.86685l-41.5798,51.66203c-120.95943,152.21847 -340.19839,303.5144 -537.70246,369.01447c-324.13347,107.0142 -667.16685,53.5071 -956.33548,-148.52832c-70.87467,-49.81695 -200.33905,-170.66919 -252.31381,-236.16926l-27.40487,-33.2113l-640.70697,625.47953l-639.76198,624.55699l74.65465,82.10572c284.44366,309.97215 700.24169,592.26822 1108.47976,752.78952c255.14879,100.55644 526.36251,166.97905 788.12628,191.88752c135.13436,12.91551 435.64294,3.69014 584.00724,-18.45072l0.00001,-0.00001z" stroke="null"/>
     </g>
    </g>
   </g>
   <g id="svg_41">
    <g id="svg_32" stroke="null">
     <g id="svg_33" transform="translate(0 512) scale(0.1 -0.1)" fill="#000000" stroke="null">
      <path id="svg_34" d="m2190.6058,3250.89271c-523.66983,-78.9074 -973.81068,-271.88747 -1397.05068,-599.52473c-104.01661,-79.76509 -358.67797,-323.34882 -354.19449,-337.92954c1.79339,-3.43076 272.59525,-265.02596 602.57898,-580.65557l599.8889,-573.79406l42.14466,48.03059c178.44229,205.8454 421.44661,337.92954 685.97161,374.81017c151.54144,21.44223 287.83907,8.57689 443.86398,-40.31139c178.44229,-55.7498 390.95898,-197.26851 516.49627,-343.93336l34.9711,-42.02677l598.9922,575.50944c329.08703,315.62962 598.09551,578.94019 598.09551,584.08633c0,30.01912 -350.60771,343.93336 -492.28551,440.85224c-384.68212,261.5952 -756.81051,413.40618 -1192.60424,486.30976c-156.02492,25.73068 -537.12025,30.87681 -686.86831,8.57689l0.00002,0z" stroke="null"/>
     </g>
    </g>
    <g stroke="null" id="svg_2">
     <g stroke="null" fill="#000000" transform="translate(0 512) scale(0.1 -0.1)" id="svg_3">
      <path stroke="null" fill="#ffff00" d="m2646.24791,2559.63743c-3.74758,-0.27668 -14.99032,-1.7984 -24.98387,-3.45846c-65.09686,-10.23703 -119.36738,-34.03122 -169.75152,-74.42601c-13.32473,-10.79039 -47.46935,-43.85324 -47.46935,-46.06665c0,-0.55335 4.16398,1.52172 9.43835,4.7035c14.57392,8.99199 39.2802,20.19739 57.1853,26.0076c29.70305,9.82202 55.65851,13.83383 88.13754,13.83383c32.47903,0 58.4345,-4.01181 88.13754,-13.83383c40.25179,-13.14214 75.78441,-34.58458 106.73664,-64.32731c25.26147,-24.34754 42.75018,-48.28007 57.8793,-78.85283c19.2931,-39.42642 28.31505,-78.43782 28.31505,-123.12109c0,-32.37116 -4.02518,-58.24043 -13.87993,-87.84482c-13.18593,-40.11811 -34.69982,-75.53271 -64.54166,-106.38215c-24.42867,-25.17757 -48.44095,-42.6082 -79.11559,-57.68707c-42.75018,-20.75075 -82.86317,-29.18938 -132.41451,-27.806c-39.1414,1.10671 -70.92643,8.16196 -104.65466,23.1025c-15.12912,6.77858 -15.26792,6.77858 -11.24274,2.49009c6.24597,-6.5019 29.70305,-25.03923 43.30537,-34.03122c45.38736,-30.43443 91.32992,-47.45004 153.6508,-57.27206c6.52357,-0.96837 24.28987,-1.66006 43.72177,-1.66006c19.4319,0 37.19821,0.69169 43.72177,1.66006c86.88835,13.69549 150.59722,44.82161 208.06012,102.09367c55.51971,55.47366 89.38673,124.2278 101.04587,205.98573c2.35959,16.04724 2.22079,70.69087 0,87.15313c-11.52034,81.20458 -45.52616,150.51207 -101.04587,205.98573c-54.54812,54.36695 -117.28539,86.46144 -194.87419,99.88025c-15.96192,2.76677 -26.09426,3.5968 -49.27374,3.87347c-15.96192,0.27668 -32.20143,0.27668 -36.08781,0l0.00002,0z" id="svg_4"/>
     </g>
    </g>
    <g stroke="null" id="svg_5">
     <g stroke="null" fill="#000000" transform="rotate(-161.527 229.229 267.212) translate(0 512) scale(0.1 -0.1)" id="svg_6">
      <path stroke="null" fill="#f20000" d="m2213.50209,2819.36194c-4.19423,-0.29099 -16.77694,-1.89144 -27.96157,-3.63738c-72.85541,-10.76665 -133.59415,-35.79185 -189.9833,-78.27649c-14.91283,-11.34864 -53.12697,-46.12202 -53.12697,-48.44994c0,-0.58198 4.66026,1.60045 10.56326,4.94684c16.31091,9.4572 43.96179,21.24232 64.00092,27.35312c33.24319,10.33017 62.29215,14.54953 98.64219,14.54953c36.35004,0 65.399,-4.21936 98.64219,-14.54953c45.04919,-13.82206 84.81675,-36.37383 119.45802,-67.65533c28.27225,-25.60718 47.84535,-50.77787 64.77763,-82.93234c21.59254,-41.46617 31.68977,-82.49585 31.68977,-129.49084c0,-34.04591 -4.50492,-61.25353 -15.5342,-92.38953c-14.75749,-42.19365 -38.83551,-79.44045 -72.23404,-111.88591c-27.3402,-26.48015 -54.21437,-44.81256 -88.54496,-60.67155c-47.84535,-21.8243 -92.73919,-30.69951 -148.1963,-29.24456c-43.80645,1.16396 -79.37978,8.58422 -117.12789,24.29772c-16.93228,7.12927 -17.08762,7.12927 -12.5827,2.61892c6.99039,-6.83828 33.24319,-26.33465 48.46671,-35.79185c50.79684,-32.00897 102.21506,-49.9049 171.96363,-60.23507c7.30108,-1.01847 27.18486,-1.74594 48.93274,-1.74594c21.74788,0 41.63166,0.72748 48.93274,1.74594c97.24411,14.40404 168.5461,47.14049 232.8577,107.37555c62.13681,58.34363 100.04027,130.65481 113.089,216.64254c2.64081,16.87746 2.48547,74.34811 0,91.66206c-12.89339,85.40576 -50.95219,158.29892 -113.089,216.64254c-61.04942,57.17966 -131.26402,90.93458 -218.10021,105.04763c-17.86433,2.90991 -29.2043,3.78288 -55.14642,4.07387c-17.86433,0.29099 -36.03935,0.29099 -40.38893,0l-0.00001,0z" id="svg_7"/>
     </g>
    </g>
   </g>
  </g>
 </g>
</svg>