<svg width="512" height="512" xmlns="http://www.w3.org/2000/svg" version="1.0" preserveAspectRatio="xMidYMid meet">
 <title>touhou-lite</title>

 <g class="layer">
  <title>Layer 1</title>
  <g id="svg_41">
   <g stroke="null" id="svg_39">
    <path transform="rotate(-74.9076 68.3156 424.562)" fill="#000000" stroke="null" id="svg_40" d="m133.48273,361.4918c4.92101,-6.40944 -1.34986,-14.74517 -9.00339,-12.04181c-70.24106,24.81118 -25.28866,61.0129 -43.48015,84.7067c-7.36549,9.5933 -21.04028,11.73001 -30.41336,4.69997c-9.22543,-6.91819 -10.57861,-20.21892 -3.30718,-29.68971l17.67676,-23.02338c4.48585,-5.84268 -0.35252,-13.79113 -7.56635,-12.44918c-12.9087,2.40134 -30.23302,9.99939 -42.36138,25.79616c-21.88561,28.50527 -16.86745,68.33791 11.1864,88.79449s68.68185,13.90862 90.56746,-14.59665c35.2026,-45.8502 -4.61903,-84.42772 16.70119,-112.19658l0,-0.00001z"/>
   </g>
   <g transform="rotate(5.67999 430.156 422.49)" stroke="null" id="svg_37">
    <path fill="#000000" stroke="null" id="svg_38" d="m495.15095,356.89513c4.90797,-6.66607 -1.34628,-15.33555 -8.97954,-12.52395c-70.05499,25.80459 -25.22167,63.45577 -43.36497,88.09824c-7.34598,9.9774 -20.98454,12.19966 -30.33279,4.88814c-9.20099,-7.19517 -10.55058,-21.02846 -3.29842,-30.87844l17.62993,-23.9452c4.47397,-6.07661 -0.35159,-14.34331 -7.54631,-12.94763c-12.8745,2.49749 -30.15294,10.39976 -42.24916,26.82901c-21.82763,29.64657 -16.82277,71.07407 11.15677,92.3497s68.49991,14.46549 90.32754,-15.18108c35.10935,-47.68598 -4.60679,-87.80809 16.65695,-116.68879z"/>
   </g>
  </g>
  <path transform="rotate(-145.628 258.588 248.191)" stroke="null" p-id="3347" fill="#FFF093" id="svg_1"/>
  <path stroke="null" p-id="3347" fill="#FFF093" id="svg_36"/>
  <g id="svg_25">
   <g stroke="null" id="svg_34">
    <path stroke="null" id="svg_35" fill="#000000" d="m249.03114,14.4183s44.83633,14.82484 34.91549,60.64435c0,0 4.95968,-4.04285 9.92083,-12.12856c0,0 22.32225,18.86769 22.32225,45.82108c0,18.86769 -14.88199,35.0391 -44.64449,48.5158l-2.31293,-0.34214c9.70539,-15.11989 8.96371,-27.58274 -0.0614,-37.39167c-19.84314,-20.21583 -11.16186,-33.69253 -11.16186,-33.69253s-21.00301,10.84162 -25.08467,31.04019c-2.19135,10.84162 -0.93423,24.3811 12.49424,40.38615l-0.43485,0.06624l-2.31153,0.20403c-24.93268,-8.83903 -43.58907,-26.53311 -44.00373,-53.03451l-0.0059,-0.80512c0,-50.36772 46.94504,-41.95715 50.36856,-89.28331l-0.00001,0z"/>
   </g>
   <g stroke="null" id="svg_32">
    <path stroke="null" id="svg_33" fill="#000000" d="m405.18662,91.66719c-12.0093,20.41794 -23.98146,28.30746 -35.90803,23.6542c0,0 27.25649,-32.4515 22.55731,-59.33627c0,0 -10.84706,20.09254 -36.60349,37.22686c-12.0754,8.0266 -23.33569,11.72797 -30.37074,27.3253c-10.04615,22.2732 8.4452,46.7635 25.27407,55.99297c16.82096,9.22513 43.94239,14.37633 56.24772,-12.90568c5.05947,-11.21729 4.66277,-35.19932 -1.19684,-71.95739l0,0.00001z"/>
   </g>
   <g transform="rotate(8.93634 455.878 176.082)" stroke="null" id="svg_30">
    <path stroke="null" id="svg_31" fill="#000000" d="m499.03558,173.1814c-0.85661,-4.70663 -2.01012,-6.06907 -2.54418,-6.20461c-0.5375,-0.13063 -1.46569,1.27113 -1.46569,1.27113c-12.68027,16.99394 -23.75971,13.44616 -23.75971,13.44616c26.22606,-24.41605 16.86181,-49.56991 15.80804,-51.89871c-1.05085,-2.32687 -1.7376,-3.5996 -3.06831,-4.47744c-1.32779,-0.87592 -3.92847,2.31371 -3.92847,2.31371c-13.02339,17.25711 -19.63252,16.84637 -35.11713,18.63117c-15.18028,1.75157 -24.07667,14.46733 -24.07667,14.46733c-18.95276,27.08951 -1.53408,48.6262 -0.00111,49.47669c1.53572,0.84656 2.05633,-1.58778 2.05633,-1.58778c6.96785,-21.56765 18.76789,-25.65246 18.76789,-25.65246c-9.01308,17.61437 -5.03615,35.78194 -5.03615,35.78194c0.76468,6.22795 4.55851,6.43811 4.55851,6.43811c2.28952,0.45092 24.23896,7.39538 42.69574,-9.29637c18.46702,-16.69217 15.96827,-37.99314 15.11092,-42.70887l0,0l-0.00001,0z"/>
   </g>
   <g transform="rotate(-45.4506 133.959 123.956)" stroke="null" id="svg_28">
    <path stroke="null" id="svg_29" fill="#000000" d="m173.18662,95.66719c-12.0093,20.41794 -23.98146,28.30746 -35.90803,23.6542c0,0 27.25649,-32.4515 22.55731,-59.33627c0,0 -10.84706,20.09254 -36.60349,37.22686c-12.0754,8.0266 -23.33569,11.72797 -30.37074,27.3253c-10.04615,22.2732 8.44521,46.7635 25.27407,55.99297c16.82096,9.22514 43.94239,14.37633 56.24772,-12.90567c5.05947,-11.21729 4.66277,-35.19932 -1.19684,-71.95739z"/>
   </g>
   <g transform="rotate(-75.7081 51.8771 177.082)" stroke="null" id="svg_26">
    <path stroke="null" id="svg_27" fill="#000000" d="m95.03558,174.1814c-0.85661,-4.70664 -2.01011,-6.06907 -2.54417,-6.20461c-0.5375,-0.13064 -1.46569,1.27112 -1.46569,1.27112c-12.68027,16.99394 -23.75971,13.44616 -23.75971,13.44616c26.22606,-24.41605 16.8618,-49.56991 15.80804,-51.8987c-1.05085,-2.32688 -1.7376,-3.59961 -3.06831,-4.47745c-1.32779,-0.87592 -3.92847,2.31372 -3.92847,2.31372c-13.02339,17.2571 -19.63252,16.84637 -35.11713,18.63117c-15.18028,1.75157 -24.07667,14.46733 -24.07667,14.46733c-18.95276,27.08951 -1.53409,48.6262 -0.00111,49.47669c1.53572,0.84656 2.05632,-1.58778 2.05632,-1.58778c6.96786,-21.56765 18.76789,-25.65246 18.76789,-25.65246c-9.01308,17.61437 -5.03615,35.78194 -5.03615,35.78194c0.76468,6.22795 4.5585,6.4381 4.5585,6.4381c2.28952,0.45092 24.23896,7.39538 42.69575,-9.29637c18.46702,-16.69217 15.96826,-37.99313 15.11091,-42.70886l0,0z"/>
   </g>
  </g>
  <g id="svg_2">
   <g stroke="null" id="svg_21">
    <g stroke="null" id="svg_22" transform="matrix(0.0923338 0 0 -0.0924043 13.9079 497.887)" fill="#000000">
     <path stroke="null" fill="#000000" id="svg_24" d="m2360.21803,3560.69802c-14,-2 -92,-16 -175,-30c-542,-90 -1081,-331 -1516,-677c-201,-160 -517,-480 -542,-549c-8,-22 22,-58 277,-323c234,-245 1151,-1166 1203,-1209l35,-30l42,45c22,25 66,75 96,112c110,135 306,276 478,344c143,57 195,65 397,61c208,-5 233,-11 430,-107c175,-86 299,-187 430,-351c57,-71 83,-99 95,-100c7,0 1061,1056 1257,1260c223,232 263,276 263,288c0,29 -219,268 -400,437c-76,70 -252,207 -365,282c-402,270 -825,439 -1290,518c-129,22 -189,26 -420,30c-148,2 -281,2 -295,-1zm516,-104c254,-21 559,-95 823,-200c287,-113 634,-321 873,-522c112,-95 441,-423 437,-436c-7,-19 -509,-534 -1072,-1099l-320,-322l-49,62c-173,216 -451,390 -720,451c-145,33 -370,25 -525,-19c-105,-30 -283,-117 -373,-182c-67,-48 -262,-237 -296,-286l-20,-28l-485,493c-819,832 -904,919 -907,927c-5,14 201,234 306,328c406,361 873,618 1372,752c92,25 311,68 405,80c100,12 400,13 551,1z"/>
     <path stroke="null" fill="#000000" id="svg_23" d="m2380.21803,3407.69802c-124,-11 -369,-61 -539,-112c-444,-133 -883,-383 -1236,-705c-106,-97 -275,-271 -275,-283c0,-3 301,-307 670,-676l670,-670l98,105c56,59 138,133 188,169c248,176 570,261 824,217c276,-48 485,-160 703,-377l117,-117l665,671c366,369 665,675 665,681c0,16 -270,279 -398,388c-178,152 -476,341 -698,443c-260,120 -590,219 -844,254c-102,14 -493,21 -610,12zm282,-585c31,-16 72,-42 90,-58l33,-29l-35,8c-19,4 -73,8 -120,8c-107,-1 -177,-31 -244,-106c-72,-80 -91,-128 -91,-234c0,-76 4,-98 26,-145c37,-78 90,-134 159,-168c54,-28 57,-31 34,-36c-14,-4 -53,-1 -87,5c-312,59 -438,434 -224,666c83,90 169,124 307,120c81,-3 104,-7 152,-31zm92,-181c131,-40 228,-134 270,-263c13,-39 17,-76 14,-140c-2,-74 -8,-98 -35,-152c-98,-200 -331,-283 -529,-189l-49,24l55,2c170,9 293,97 343,247c57,168 -36,361 -206,429c-37,15 -80,27 -95,28c-24,0 -22,2 13,14c55,18 160,18 219,0z"/>
    </g>
   </g>
   <g id="svg_16">
    <ellipse stroke-width="5" stroke="#ffffff" ry="20" rx="20" id="svg_20" fill="#000000" cy="373.88394" cx="74.2735"/>
    <ellipse stroke-width="5" stroke="#ffffff" ry="20" rx="20" id="svg_19" fill="#000000" cy="423.88394" cx="74.2735"/>
    <ellipse stroke-width="5" stroke="#ffffff" ry="20" rx="20" id="svg_18" fill="#000000" cy="473.88394" cx="74.2735"/>
    <line y2="418.30394" y1="331.30394" x2="74.2735" x1="72.7735" stroke-width="10" stroke="#000000" id="svg_17" fill="#000000"/>
   </g>
   <g id="svg_11">
    <ellipse stroke-width="5" stroke="#ffffff" ry="20" rx="20" id="svg_15" fill="#000000" cy="374.35394" cx="440.2735"/>
    <ellipse stroke-width="5" stroke="#ffffff" ry="20" rx="20" id="svg_14" fill="#000000" cy="424.35394" cx="440.2735"/>
    <ellipse stroke-width="5" stroke="#ffffff" ry="20" rx="20" id="svg_13" fill="#000000" cy="474.35394" cx="440.2735"/>
    <line y2="418.77394" y1="331.77394" x2="440.2735" x1="438.7735" stroke-width="10" stroke="#000000" id="svg_12" fill="none"/>
   </g>
  </g>
 </g>
</svg>