<?xml version="1.0" standalone="no"?>
<!DOCTYPE svg PUBLIC "-//W3C//DTD SVG 20010904//EN"
 "http://www.w3.org/TR/2001/REC-SVG-20010904/DTD/svg10.dtd">
<svg version="1.0" xmlns="http://www.w3.org/2000/svg"
 width="512.000000pt" height="512.000000pt" viewBox="0 0 512.000000 512.000000"
 preserveAspectRatio="xMidYMid meet">

<g transform="translate(0.000000,512.000000) scale(0.100000,-0.100000)"
fill="#000000" stroke="none">
<path d="M3350 5004 c-30 -71 -34 -91 -38 -198 -5 -117 5 -195 33 -261 48
-116 59 -187 48 -300 -7 -67 -11 -80 -27 -83 -29 -6 -46 25 -46 84 0 45 -31
150 -88 295 -12 29 -57 69 -78 69 -21 0 -27 -43 -15 -102 20 -101 31 -273 31
-503 l0 -230 -31 -62 c-49 -98 -55 -97 -62 11 -8 114 -34 246 -52 265 -18 19
-22 8 -28 -79 -3 -36 -14 -108 -26 -160 -11 -52 -24 -137 -27 -188 -6 -73 -11
-95 -23 -100 -9 -3 -21 -13 -28 -21 -10 -13 -12 -8 -13 31 0 25 -4 48 -9 50
-5 2 -14 37 -20 79 -11 79 -1 163 44 369 21 93 16 184 -15 267 -24 66 -33 71
-45 26 -18 -73 -81 -139 -113 -119 -5 3 -12 103 -16 223 -4 127 -13 241 -21
273 -17 71 -90 281 -110 320 -20 39 -35 38 -29 -2 3 -18 -2 -53 -10 -77 -9
-24 -16 -58 -16 -75 0 -18 -5 -37 -11 -43 -5 -5 -17 -38 -25 -73 -8 -35 -25
-76 -39 -92 -15 -18 -25 -42 -25 -61 0 -18 -4 -48 -9 -67 -5 -19 -12 -48 -16
-64 -9 -42 -25 -14 -25 45 0 25 -5 50 -11 56 -7 7 -15 67 -18 140 l-7 128 -17
-36 c-9 -21 -21 -61 -26 -90 -5 -30 -28 -126 -50 -214 -31 -123 -41 -179 -41
-244 0 -46 -7 -110 -15 -142 -17 -63 -111 -308 -125 -322 -7 -8 -22 44 -36
133 -4 25 -8 122 -8 217 -1 121 -5 176 -13 184 -10 10 -13 9 -16 -2 -3 -8 -14
-43 -26 -79 -12 -36 -25 -108 -30 -160 -13 -141 -31 -222 -54 -244 -18 -17
-19 -28 -13 -125 3 -58 6 -163 5 -233 0 -69 5 -144 11 -166 10 -40 10 -40 53
-35 23 3 61 11 85 19 24 8 76 19 115 24 40 6 124 19 187 29 245 40 570 15 777
-60 168 -60 292 -112 329 -137 23 -15 66 -44 95 -65 l54 -37 7 27 c4 16 12 47
18 71 6 24 17 53 24 65 8 12 24 54 36 92 21 63 92 181 145 241 11 12 32 46 47
75 24 49 107 220 117 243 8 20 -86 -7 -120 -34 -45 -36 -89 -49 -89 -27 0 8
16 66 36 129 27 82 38 134 39 188 1 41 10 103 19 136 9 34 16 91 16 127 0 37
5 89 11 117 6 28 8 54 5 57 -10 10 -56 -16 -56 -31 0 -8 -15 -43 -33 -78 -18
-35 -39 -94 -46 -133 -7 -38 -17 -75 -23 -82 -12 -15 -44 -17 -52 -4 -7 11 21
170 34 193 16 29 12 62 -16 124 -15 33 -37 87 -48 121 l-22 63 -23 -17 c-23
-16 -24 -18 -18 -134 6 -103 5 -118 -10 -123 -9 -4 -22 -1 -28 6 -19 21 -35
101 -35 177 0 38 -4 72 -9 76 -5 3 -15 31 -21 63 -7 31 -19 69 -26 84 -8 15
-23 75 -34 133 -32 162 -31 161 -70 69z m-1340 -1365 c0 -5 9 -28 21 -50 11
-23 17 -48 14 -57 -4 -10 -9 -43 -11 -74 -3 -32 -8 -67 -12 -77 -6 -18 -10
-19 -32 -8 -23 11 -26 20 -32 94 -3 44 -11 98 -17 120 -15 54 -14 93 4 99 8 4
15 13 15 21 0 9 11 -1 25 -21 14 -20 25 -41 25 -47z"/>
<path d="M1486 4600 c6 -101 4 -117 -11 -130 -27 -22 -50 -1 -50 48 0 76 -25
22 -45 -95 -11 -60 -28 -142 -39 -183 -24 -90 -51 -279 -58 -409 -4 -65 -8
-89 -15 -78 -5 10 -28 20 -51 24 -73 11 -145 111 -182 248 -12 48 -13 49 -20
22 -4 -17 0 -79 9 -145 17 -118 31 -153 86 -218 32 -37 64 -117 80 -201 12
-58 19 -74 63 -136 15 -21 17 -42 15 -138 l-3 -114 -32 55 c-17 30 -42 60 -55
65 -24 10 -88 100 -88 123 0 7 -11 37 -25 66 -14 29 -28 67 -31 85 -13 62 -19
17 -24 -167 -5 -181 -6 -186 -21 -152 -9 19 -23 41 -31 48 -13 10 -18 6 -32
-31 -9 -24 -14 -53 -10 -63 3 -11 2 -15 -3 -9 -4 6 -20 18 -35 28 -37 23 -45
63 -41 190 3 96 11 143 50 270 3 9 0 24 -8 33 -11 14 -14 12 -26 -11 -10 -18
-21 -25 -36 -23 -18 2 -22 10 -23 38 -1 83 -4 102 -16 98 -6 -2 -17 -28 -24
-57 -17 -79 -30 -83 -44 -15 -7 33 -18 73 -25 89 -28 65 -33 89 -49 225 -2 19
-7 51 -10 70 -5 23 0 63 13 115 26 99 26 97 0 93 -33 -5 -52 -55 -69 -181 -6
-43 -18 -97 -26 -120 -8 -23 -35 -140 -61 -262 -42 -201 -46 -235 -50 -397 -3
-98 -8 -178 -12 -178 -4 0 -18 11 -31 25 -16 17 -31 60 -51 141 -17 73 -35
124 -48 137 -11 12 -30 48 -42 81 -20 52 -24 56 -36 40 -7 -10 -13 -24 -13
-31 0 -17 46 -237 70 -338 11 -44 19 -98 18 -120 0 -22 8 -65 20 -95 37 -97
72 -218 72 -248 0 -16 -7 -35 -15 -42 -14 -12 -42 -6 -117 25 -14 6 -18 2 -18
-17 0 -25 42 -111 70 -143 14 -16 84 -151 189 -364 26 -52 77 -38 115 31 71
127 126 207 192 278 38 41 92 102 120 135 27 33 62 72 79 86 59 52 211 174
245 199 68 48 221 130 270 144 27 8 68 26 92 39 24 14 74 35 111 47 37 13 70
27 73 31 3 5 15 9 27 9 47 0 53 14 30 67 -12 26 -31 80 -42 119 -11 39 -30 83
-41 97 -11 14 -30 47 -41 72 -11 25 -24 43 -30 40 -23 -15 -7 86 27 164 19 46
46 135 60 204 29 142 52 227 66 245 17 20 -6 14 -36 -9 -15 -12 -35 -36 -44
-54 -25 -48 -70 -123 -110 -183 -25 -38 -38 -49 -43 -40 -12 17 -11 315 0 322
29 18 89 202 108 335 7 42 -10 35 -36 -17 -24 -46 -58 -77 -93 -86 -27 -6 -28
-5 -28 34 0 22 -7 52 -16 65 -9 14 -20 39 -24 57 -5 18 -16 51 -24 73 -16 39
-16 37 -10 -75z"/>
<path d="M4290 3990 c-11 -11 -20 -30 -20 -42 0 -21 -17 -105 -66 -323 -10
-44 -19 -82 -21 -84 -2 -2 -21 10 -42 27 -22 18 -45 32 -52 32 -18 0 -3 -92
27 -158 22 -51 24 -65 19 -132 -12 -133 -42 -252 -71 -277 -33 -30 -41 -29
-64 10 -21 33 -27 92 -11 102 21 13 92 165 77 165 -2 0 -15 -18 -30 -40 -14
-22 -38 -47 -52 -57 -25 -16 -27 -16 -37 3 -21 35 -37 88 -37 122 0 50 -15 31
-40 -50 -31 -101 -81 -215 -100 -233 -15 -14 -19 -13 -33 3 -15 16 -16 29 -7
95 5 42 12 89 15 104 3 15 -3 6 -14 -22 -34 -88 -61 -189 -61 -228 0 -30 -5
-40 -22 -47 -14 -5 -17 -9 -7 -9 8 -1 34 -15 58 -33 l43 -31 73 76 c40 43 78
77 84 77 6 0 18 -14 27 -31 22 -43 7 -69 -68 -121 -32 -23 -58 -47 -58 -54 0
-7 25 -32 55 -56 53 -41 164 -166 189 -212 40 -75 114 -166 129 -160 7 2 30
38 52 80 43 83 86 124 230 217 64 41 88 65 120 114 50 79 78 85 96 21 l11 -42
14 34 c8 19 25 48 37 65 48 65 66 131 67 235 0 76 -10 100 -34 81 -8 -7 -18
-25 -21 -41 -11 -49 -64 -98 -135 -124 -36 -13 -74 -27 -84 -31 -17 -8 -18 -5
-12 31 4 21 17 77 29 124 20 77 22 110 22 350 l0 265 -39 97 c-22 53 -43 95
-48 92 -4 -3 -8 -27 -8 -54 0 -30 -11 -77 -26 -117 -15 -38 -30 -78 -35 -90
-5 -13 -12 -23 -17 -23 -13 0 -42 68 -36 85 3 8 -6 53 -21 100 -15 47 -25 96
-23 110 6 30 4 31 -22 5z"/>
<path d="M2310 3230 c-44 -7 -146 -32 -205 -49 -16 -5 -52 -12 -80 -16 -79
-10 -167 -42 -316 -116 -76 -38 -141 -69 -144 -69 -9 0 -191 -107 -270 -158
-86 -56 -432 -400 -495 -493 -24 -35 -53 -78 -65 -96 -12 -17 -36 -49 -53 -70
-49 -62 -50 -85 -9 -127 22 -22 53 -40 81 -47 48 -12 75 -32 57 -43 -6 -4 -39
-1 -74 5 -58 11 -66 10 -86 -7 -46 -37 -62 -59 -72 -97 -17 -65 -3 -111 47
-156 42 -37 44 -41 44 -95 0 -31 -4 -56 -8 -56 -5 0 -18 -8 -29 -17 -39 -36
-53 -67 -53 -119 0 -56 30 -108 83 -139 23 -14 27 -23 27 -59 0 -34 -6 -48
-31 -72 -34 -32 -59 -80 -59 -116 0 -43 38 -103 81 -127 106 -60 226 20 216
142 -5 57 -29 93 -81 120 -37 20 -38 21 -33 65 4 35 12 50 35 69 44 34 68 103
53 152 -14 49 -43 85 -78 100 -25 10 -29 17 -28 54 0 54 9 67 45 67 23 0 35 8
56 39 27 41 33 86 19 148 -10 45 16 54 64 24 101 -62 578 -291 607 -291 21 0
47 12 80 38 61 47 193 130 256 159 48 22 193 57 308 74 219 32 480 30 605 -5
67 -18 213 -75 250 -97 59 -36 194 -144 200 -161 3 -9 46 -51 95 -93 49 -42
105 -95 125 -119 39 -47 95 -72 143 -63 46 9 216 79 227 93 9 11 30 21 155 70
19 7 58 19 85 25 28 7 59 18 71 26 25 16 92 22 95 8 1 -5 -16 -18 -37 -29 -48
-23 -52 -28 -60 -93 -9 -72 9 -118 57 -150 34 -22 39 -31 39 -64 0 -31 -5 -41
-29 -55 -45 -27 -74 -87 -68 -140 5 -51 46 -111 82 -120 39 -10 31 -44 -24
-101 -55 -57 -71 -108 -51 -167 23 -70 115 -119 182 -97 48 16 96 66 104 107
12 66 -1 106 -51 150 -56 50 -62 90 -16 116 40 22 63 60 68 112 7 57 -25 115
-78 145 -31 18 -39 28 -39 51 0 23 7 32 37 47 69 34 97 105 74 190 -9 31 -22
49 -51 70 -31 21 -40 34 -38 53 2 19 13 28 53 43 28 10 54 22 58 26 9 9 -86
229 -141 326 -19 33 -38 71 -43 84 -5 12 -24 46 -42 75 -35 53 -66 103 -131
208 -55 89 -89 140 -106 159 -8 8 -22 26 -30 39 -58 89 -172 200 -206 200 -6
0 -41 31 -77 70 -78 85 -180 164 -267 209 -36 18 -67 37 -70 41 -8 12 -108 60
-125 60 -8 0 -43 14 -77 30 -40 20 -95 35 -157 45 -53 8 -134 26 -180 40 -78
23 -98 25 -270 24 -102 -1 -206 -5 -231 -9z m482 -74 c21 -9 54 -16 75 -16 21
0 55 -9 76 -20 20 -11 45 -20 55 -20 10 0 35 -9 57 -20 22 -11 46 -20 55 -20
9 0 24 -6 35 -14 11 -7 31 -17 45 -21 14 -4 36 -16 49 -26 13 -11 30 -19 37
-19 7 0 29 -10 48 -22 19 -13 63 -41 98 -62 206 -129 496 -419 576 -576 6 -14
23 -43 36 -65 14 -22 32 -55 40 -73 9 -19 29 -53 45 -77 16 -24 32 -54 36 -67
4 -12 15 -32 25 -43 9 -11 21 -33 24 -50 4 -16 13 -37 20 -45 8 -8 16 -28 20
-44 4 -16 16 -41 27 -54 10 -14 19 -28 19 -33 0 -4 18 -34 40 -65 22 -31 37
-60 35 -64 -3 -5 -24 -11 -48 -15 -23 -4 -49 -13 -57 -20 -8 -7 -39 -15 -69
-19 -30 -4 -66 -13 -80 -20 -14 -7 -44 -17 -65 -20 -22 -4 -49 -14 -60 -22
-11 -8 -32 -14 -46 -14 -14 0 -39 -8 -55 -18 -17 -11 -47 -22 -67 -26 -20 -3
-41 -13 -48 -21 -7 -8 -22 -15 -33 -15 -11 0 -39 -11 -61 -24 -49 -28 -71 -23
-110 28 -25 33 -126 116 -142 116 -3 0 -34 26 -68 59 -135 130 -256 215 -387
271 -94 41 -113 46 -232 70 -157 32 -329 25 -524 -21 -45 -10 -105 -19 -132
-19 -94 0 -307 -92 -386 -165 -27 -26 -67 -56 -87 -66 -21 -11 -38 -24 -38
-29 0 -24 -107 10 -125 40 -3 5 -14 10 -23 10 -9 0 -28 7 -42 15 -14 7 -38 21
-55 29 -16 9 -42 24 -56 33 -76 52 -108 71 -149 90 -188 87 -294 145 -351 193
-43 36 -48 45 -43 68 4 15 15 35 25 45 11 10 19 22 19 27 0 12 144 191 197
245 21 22 58 56 81 75 24 19 57 48 75 64 18 15 43 35 57 44 14 9 63 46 110 82
47 37 111 82 143 101 32 19 75 44 95 56 20 12 69 38 109 58 39 19 75 39 78 45
3 5 17 10 29 10 13 0 35 9 49 20 14 11 31 20 39 20 7 0 27 9 43 20 17 11 38
20 47 20 10 0 37 9 60 19 55 24 116 40 198 52 56 8 154 27 225 43 11 3 94 3
185 2 125 -3 174 -7 202 -20z"/>
<path d="M2475 3120 c-27 -4 -74 -12 -104 -19 -29 -6 -71 -11 -91 -11 -21 0
-53 -6 -71 -14 -19 -7 -60 -16 -92 -20 -32 -3 -68 -12 -80 -20 -12 -7 -35 -17
-52 -20 -16 -4 -49 -16 -72 -27 -24 -10 -64 -28 -90 -40 -27 -11 -55 -25 -63
-30 -8 -5 -22 -12 -30 -15 -55 -21 -135 -66 -339 -189 -68 -42 -97 -61 -106
-71 -5 -6 -45 -37 -88 -69 -94 -69 -259 -236 -317 -320 -14 -20 -32 -44 -41
-53 -8 -9 -25 -33 -37 -54 l-22 -36 62 -36 c35 -20 70 -40 78 -45 8 -5 35 -15
60 -22 29 -9 49 -23 57 -39 13 -27 45 -42 69 -33 25 9 11 36 -24 45 -42 11
-41 31 3 79 30 33 35 46 35 87 0 67 -27 92 -98 92 -38 0 -52 4 -52 14 0 31 27
38 120 31 l91 -7 -20 33 c-14 23 -21 51 -21 85 0 67 41 122 130 174 74 43 126
60 188 60 37 0 48 -6 86 -44 54 -53 84 -106 62 -106 -8 0 -16 10 -18 22 -6 45
-112 72 -169 43 -83 -42 -99 -92 -58 -180 42 -89 94 -103 181 -49 22 14 42 23
45 21 7 -8 -25 -64 -41 -70 -8 -3 -42 -27 -75 -53 l-60 -47 -68 6 c-37 3 -78
9 -91 13 -20 6 -22 3 -22 -33 0 -25 -12 -64 -31 -102 l-32 -63 24 -24 c13 -13
42 -26 65 -30 34 -5 45 -2 72 21 36 30 43 73 16 99 -17 18 -10 39 13 34 19 -4
52 -82 52 -125 1 -40 -38 -88 -84 -103 -19 -6 -35 -15 -35 -19 0 -15 46 -50
75 -57 17 -3 37 -12 45 -19 8 -7 26 -16 39 -20 12 -4 39 -18 58 -31 42 -28 47
-29 62 -10 10 12 6 23 -18 57 -23 31 -31 53 -31 85 l0 42 37 -11 c24 -7 43
-23 56 -44 26 -45 56 -51 103 -19 22 15 59 40 84 56 24 17 88 44 142 62 l98
31 0 58 c0 70 -19 89 -91 89 -40 0 -50 -5 -82 -39 -20 -22 -39 -51 -43 -65 -3
-15 -10 -29 -15 -32 -5 -3 -15 -20 -23 -38 -13 -31 -95 -96 -121 -96 -10 0
-50 58 -43 64 1 2 26 17 53 34 35 21 64 51 95 99 36 55 56 73 99 96 35 17 70
27 98 27 37 0 49 -6 84 -41 40 -40 41 -43 36 -94 l-5 -53 36 9 c52 12 384 31
475 27 l76 -3 -1 50 c-2 60 13 86 66 117 32 18 56 23 111 23 64 0 73 -3 111
-33 39 -31 100 -129 88 -141 -3 -3 -10 1 -14 10 -5 9 -37 28 -71 44 -48 21
-72 26 -107 22 -24 -3 -48 -11 -53 -18 -10 -17 -23 -89 -16 -95 3 -3 32 -12
65 -19 61 -14 160 -55 243 -100 l45 -24 35 24 c19 14 56 27 85 31 51 6 52 6
58 -24 4 -16 22 -47 40 -68 18 -22 40 -53 49 -71 10 -17 27 -39 39 -47 29 -20
127 -21 173 -2 31 13 35 13 35 0 0 -18 -49 -48 -122 -76 -32 -11 -58 -25 -58
-29 0 -5 15 -15 33 -22 17 -8 38 -21 46 -30 15 -19 42 -22 57 -8 5 5 29 13 54
19 25 5 54 13 65 17 19 8 19 8 3 -11 -10 -11 -40 -28 -68 -38 -42 -15 -49 -21
-38 -33 15 -18 71 -9 109 18 15 10 33 19 41 19 7 0 27 9 43 20 17 11 38 20 49
20 10 0 35 9 55 19 20 11 45 22 55 25 18 6 18 8 -4 31 -15 16 -20 30 -16 42 7
17 8 16 24 -3 22 -29 79 -57 87 -44 3 6 20 10 36 10 36 0 129 28 146 44 9 8 7
19 -7 46 -11 19 -26 51 -35 70 -9 19 -22 49 -30 65 -50 110 -118 246 -126 251
-5 3 -16 20 -24 37 -15 32 -21 43 -62 108 -13 19 -23 40 -23 47 0 18 -53 91
-129 179 -38 45 -68 84 -65 87 2 3 1 4 -2 2 -5 -4 -68 50 -138 119 -71 68
-245 192 -307 218 -20 8 -40 20 -43 26 -4 6 -15 11 -25 11 -10 0 -30 9 -44 20
-14 11 -34 20 -45 20 -11 0 -25 7 -32 15 -7 8 -28 17 -49 21 -20 3 -45 12 -56
19 -11 6 -38 15 -60 19 -21 4 -51 13 -65 21 -14 7 -52 15 -85 19 -33 4 -78 13
-100 21 -42 15 -136 17 -220 5z m279 -303 c19 -10 16 -12 -29 -18 -138 -18
-183 -45 -192 -116 -8 -58 9 -93 68 -141 47 -38 48 -41 27 -48 -13 -4 -24 -2
-26 5 -2 6 -15 11 -28 11 -32 0 -100 63 -114 106 -26 77 24 170 110 209 39 17
147 13 184 -8z m-871 -76 c13 -5 29 -23 36 -39 18 -42 71 -70 105 -54 21 9 26
9 26 -3 0 -28 -72 -48 -95 -26 -6 4 -51 25 -101 45 l-90 37 -45 -17 c-24 -10
-63 -32 -87 -48 l-42 -30 -27 27 c-27 26 -27 27 -8 42 20 16 94 53 130 66 30
10 170 10 198 0z m928 -5 c70 -29 125 -122 115 -193 -15 -109 -99 -181 -196
-169 -69 8 -119 25 -141 47 -26 26 -21 31 22 19 57 -17 123 -12 152 10 37 29
61 99 53 152 -8 54 -38 105 -71 120 -59 27 4 40 66 14z m819 -222 c24 -21 30
-33 28 -57 -4 -41 -22 -45 -38 -7 -7 16 -15 30 -19 30 -15 1 -52 40 -46 50 11
18 42 11 75 -16z m-2121 -83 c11 -45 11 -55 0 -62 -22 -14 -27 -11 -44 21 -21
41 -20 97 3 103 23 5 26 0 41 -62z m224 -160 c6 -23 -34 -61 -64 -61 -38 0
-119 -48 -179 -106 -53 -52 -55 -53 -66 -31 -11 19 -8 25 24 54 21 18 55 43
77 55 22 11 51 29 64 39 13 11 31 19 40 19 28 0 63 39 55 62 -6 19 -5 19 19 3
14 -9 27 -24 30 -34z m1937 29 c0 -5 -4 -10 -9 -10 -17 0 -21 -33 -6 -56 13
-20 19 -22 41 -14 84 32 197 -20 245 -112 31 -60 24 -128 -13 -128 -17 0 -18
3 -8 14 15 19 -20 103 -47 113 -10 4 -21 11 -24 16 -11 15 -40 -1 -37 -20 4
-23 -66 -72 -70 -49 -2 8 4 26 13 40 20 30 14 42 -26 51 -42 9 -79 -16 -79
-55 0 -19 -5 -30 -14 -30 -22 0 -28 31 -11 56 19 30 19 88 0 104 -15 12 -21
71 -8 83 10 11 53 8 53 -3z m-2642 -162 c-4 -42 -38 -51 -62 -17 -20 29 -5 49
36 49 27 0 29 -2 26 -32z m2672 -157 c0 -21 -30 -51 -52 -51 -17 0 -17 2 2 37
11 21 20 47 20 58 1 18 2 17 15 -5 8 -14 14 -31 15 -39z m-605 -3 c14 -6 25
-17 25 -24 0 -11 -8 -10 -35 3 -19 9 -32 20 -29 25 7 10 8 10 39 -4z m789 -73
c-8 -47 13 -54 76 -25 26 12 54 20 61 17 10 -4 8 -6 -4 -6 -22 -1 -37 -39 -37
-94 0 -55 -31 -90 -68 -76 -37 14 -46 8 -73 -61 -17 -43 -32 -66 -51 -76 l-27
-14 14 41 c8 22 14 43 13 47 -2 4 10 29 26 55 25 43 28 55 23 105 -3 31 -9 66
-12 78 -5 15 0 23 17 31 41 20 50 16 42 -22z m-2404 -36 c0 -34 -3 -35 -34
-12 -22 16 -22 20 -8 41 19 29 42 13 42 -29z m2203 -6 c7 -6 -45 -33 -65 -33
-19 0 -1 25 23 31 34 10 35 10 42 2z m445 -25 c16 -16 15 -58 0 -58 -20 1 -48
26 -48 42 0 29 26 38 48 16z m-52 -108 c9 -22 20 -40 25 -40 5 0 9 -4 9 -10 0
-12 -57 -13 -64 -2 -3 5 -8 28 -12 50 -5 35 -4 42 10 42 10 0 23 -16 32 -40z"/>
<path d="M3251 1839 c-55 -22 -55 -29 1 -81 61 -57 84 -57 73 0 -5 20 -7 47
-7 60 1 12 -2 22 -7 22 -5 0 -15 2 -23 4 -7 3 -24 0 -37 -5z"/>
<path d="M4401 2527 c-18 -47 -147 -140 -192 -139 -28 1 -41 -20 -20 -32 11
-7 63 -118 73 -155 2 -7 28 30 57 83 29 53 57 99 62 102 20 12 49 86 49 124 0
44 -16 53 -29 17z"/>
<path d="M4759 2274 c-8 -10 -34 -55 -59 -102 -52 -99 -67 -112 -104 -92 -21
11 -38 11 -95 1 -59 -11 -76 -10 -115 3 -57 19 -61 20 -48 3 6 -7 30 -51 53
-97 23 -45 61 -116 85 -157 24 -40 44 -77 44 -82 0 -5 11 -29 25 -52 32 -56
33 -95 3 -104 -44 -14 -88 -37 -88 -48 0 -6 10 -31 22 -56 48 -98 27 -210 -49
-269 l-35 -26 24 -21 c37 -32 67 -88 74 -137 8 -55 -20 -124 -66 -166 l-30
-28 39 -42 c73 -76 78 -175 15 -258 -27 -34 -32 -49 -24 -59 8 -10 19 -10 45
-2 78 24 235 292 235 402 0 44 23 73 47 59 16 -10 18 -29 21 -153 l3 -141 59
40 c33 22 76 57 96 78 42 43 94 140 94 176 0 13 6 26 13 28 21 8 23 350 2 430
-9 34 -20 90 -25 123 -4 33 -13 95 -20 137 -10 57 -11 90 -3 123 6 25 8 45 6
45 -16 0 -83 -44 -106 -69 -49 -56 -57 -41 -57 105 0 88 -4 114 -26 171 -22
56 -27 84 -27 161 0 50 -3 92 -7 92 -4 0 -14 -7 -21 -16z"/>
<path d="M250 2215 c-17 -71 -19 -309 -3 -372 5 -23 18 -54 27 -68 23 -35 76
-175 76 -201 0 -26 -26 -50 -62 -59 -32 -8 -36 -34 -13 -75 19 -33 19 -94 0
-110 -21 -17 -112 -6 -137 17 -31 27 -50 71 -42 96 5 18 4 20 -7 9 -10 -9 -15
-52 -19 -145 l-5 -132 -27 -3 c-41 -5 -43 -33 -6 -93 18 -30 38 -58 45 -62 7
-4 17 -27 24 -50 6 -23 17 -49 24 -57 7 -8 18 -39 24 -68 6 -30 16 -62 21 -73
8 -14 6 -25 -5 -43 -15 -23 -15 -25 2 -34 10 -5 47 -17 82 -26 61 -16 113 -44
128 -70 12 -21 157 -176 165 -176 3 0 5 39 3 86 -5 132 33 267 88 311 l24 19
-33 24 c-45 34 -84 108 -84 158 0 50 29 119 64 151 34 32 33 41 -8 73 -43 34
-76 102 -76 156 0 55 34 127 76 160 42 33 47 78 12 91 -28 11 -61 46 -79 85
-8 16 -22 34 -33 40 -10 6 -40 32 -66 58 -38 37 -55 66 -79 130 -17 46 -38 97
-46 114 -12 28 -30 107 -38 174 -2 17 -7 7 -17 -35z"/>
<path d="M960 1771 c0 -5 -6 -16 -14 -24 -8 -8 -21 -31 -30 -51 -9 -21 -29
-44 -46 -54 -69 -38 -69 -37 -27 -79 21 -21 44 -47 51 -58 13 -19 16 -19 48
-3 25 12 39 13 53 6 13 -8 26 -7 49 5 17 8 39 18 48 21 9 3 28 23 42 44 15 25
34 41 50 44 14 3 26 4 26 3 0 -2 -11 -27 -24 -56 -18 -39 -27 -81 -31 -149
l-7 -95 28 32 c34 38 134 93 173 94 14 0 35 4 45 8 27 10 4 24 -42 25 -41 1
-63 26 -44 49 7 8 36 18 65 21 l52 7 -23 18 c-34 25 -96 55 -187 91 -44 18
-117 49 -162 71 -90 42 -93 43 -93 30z"/>
<path d="M990 1315 c-1 -76 -5 -108 -19 -134 l-18 -34 -17 33 c-9 18 -17 45
-17 59 -1 15 -5 5 -11 -23 -8 -44 -6 -57 16 -107 15 -31 26 -67 26 -80 0 -48
-22 -101 -58 -141 l-36 -40 37 -34 c20 -20 37 -41 38 -47 0 -7 4 -34 9 -62 5
-33 3 -102 -7 -205 -13 -128 -19 -159 -36 -178 -33 -36 -11 -46 121 -54 256
-16 519 -20 541 -9 30 16 21 25 -48 46 -71 21 -106 53 -96 85 8 25 9 25 165
-8 133 -28 266 -35 286 -14 14 14 11 17 -33 34 -87 33 -227 149 -238 197 -3
16 -21 49 -39 73 -39 51 -61 105 -72 173 -6 43 -8 46 -16 26 -5 -13 -13 -53
-18 -89 -5 -36 -13 -69 -18 -74 -6 -6 -23 2 -45 21 -19 17 -56 40 -81 52 -30
13 -56 34 -72 58 -16 24 -35 41 -52 44 -23 5 -32 17 -55 75 -15 39 -37 115
-48 169 -20 97 -63 244 -80 273 -5 9 -9 -24 -9 -85z"/>
<path d="M4075 1389 c-11 -4 -42 -15 -68 -25 -46 -17 -49 -19 -43 -48 23 -136
26 -162 16 -190 -15 -42 -13 -47 16 -36 14 6 44 10 67 10 37 0 45 4 61 30 9
17 30 40 46 52 l29 21 -35 39 c-39 44 -54 76 -54 118 0 34 -8 40 -35 29z"/>
<path d="M3670 1136 c0 -19 10 -65 21 -102 18 -58 21 -87 17 -190 l-4 -121
-43 -69 c-23 -38 -65 -100 -92 -139 -26 -38 -49 -80 -49 -92 0 -12 -16 -37
-35 -56 -19 -19 -35 -44 -35 -55 0 -27 48 -54 110 -62 34 -4 44 -9 42 -21 -2
-14 4 -15 40 -7 24 5 77 13 118 18 82 9 156 24 236 46 43 12 53 19 57 42 5 27
66 96 119 136 l25 19 -35 31 c-92 81 -94 222 -4 298 l31 26 -40 42 c-24 25
-44 59 -51 85 l-12 43 -86 -45 -87 -46 4 -41 c3 -27 -1 -48 -11 -61 -13 -17
-15 -17 -16 -4 0 9 -7 19 -15 22 -13 6 -32 41 -69 132 -29 69 -110 205 -123
205 -8 0 -13 -13 -13 -34z"/>
<path d="M705 813 c-38 -6 -50 -16 -83 -72 -23 -40 -28 -62 -35 -166 -14 -198
-14 -197 12 -239 21 -34 25 -36 34 -20 7 13 7 19 -1 22 -7 2 -12 10 -12 17 0
16 27 28 35 15 3 -6 15 -15 26 -21 19 -10 20 -8 18 25 -5 53 15 48 25 -6 6
-28 15 -48 22 -48 8 0 11 6 8 14 -3 8 0 24 6 37 10 17 14 19 21 8 6 -10 9 -7
9 11 0 29 16 58 26 48 3 -4 7 -33 8 -64 1 -60 17 -80 35 -45 20 36 41 241 35
326 -12 154 -42 179 -189 158z"/>
<path d="M4227 456 c-55 -20 -73 -40 -103 -117 -29 -75 -29 -138 1 -168 14
-14 17 -14 25 -1 10 17 11 16 38 -29 20 -33 20 -33 28 -10 4 13 6 36 5 52 -1
15 2 27 8 27 6 0 11 -7 11 -15 0 -8 9 -15 19 -15 10 0 22 -8 26 -17 6 -17 7
-17 21 1 13 19 14 19 33 2 19 -18 20 -17 27 8 3 15 4 40 0 57 -4 22 -2 29 7
27 17 -6 39 -77 34 -111 -3 -23 -1 -26 10 -15 32 33 54 198 34 267 -16 56
-138 87 -224 57z"/>
</g>
</svg>
