<?xml version="1.0" standalone="no"?>
<!DOCTYPE svg PUBLIC "-//W3C//DTD SVG 1.1//EN" "http://www.w3.org/Graphics/SVG/1.1/DTD/svg11.dtd" >
<svg xmlns="http://www.w3.org/2000/svg" xmlns:xlink="http://www.w3.org/1999/xlink" version="1.1">
<metadata></metadata>
<defs>
<font id="marisaregular" horiz-adv-x="1228" >
<font-face units-per-em="2048" ascent="1638" descent="-410" />
<missing-glyph horiz-adv-x="614" />
<glyph unicode="hakke" horiz-adv-x="2048" d="M1671 1278l273 -653l-271 -652l-651 -272l-651 270l-271 652l271 651l649 270zM1661 -12l262 637l-264 637l-637 262l-639 -262l-262 -639l266 -635l635 -264zM1577 1180l231 -555l-231 -555l-555 -232l-555 230l-231 555l231 555l555 231zM494 1169l198 -196l318 133 v276zM1034 1382v-280l320 -131l198 198zM987 1290l-192 -80l-19 50l211 86v-56zM1466 1120l-405 166v57l444 -184zM987 1210l-164 -69l-20 49l184 78v-58zM1221 1141l-160 65v58l180 -74zM750 1247l20 -47l-188 -80l-39 41zM987 1133l-293 -123l-37 37l330 141v-55z M1061 1130v52l332 -135l-39 -39zM778 1180l21 -50l-160 -67l-39 41zM1245 1130l21 50l184 -76l-41 -41zM475 1155l-211 -516h277l133 317zM1567 1155l-201 -201l131 -319h285zM526 1071l-77 -192l-48 20l88 213zM1642 899l-47 -20l-79 186l40 41zM1016 1034l-2 51l-307 -129 l49 -45l260 105v18zM1292 905l47 49l-305 127v-69zM518 850l-49 22l76 185l39 -43zM1606 662l-148 346l41 41l164 -387h-57zM584 823l-45 19l63 155l39 -39zM1020 256l256 106l6 7l109 258l-111 264l-262 106l-262 -106l-109 -264l111 -262zM1405 954l37 37l139 -329h-55z M1268 879l104 -252l-104 -250l-248 -105l-252 105l-102 250l102 250l250 106zM1255 393l97 234l-97 235l-237 96l-236 -96l-96 -235l96 -234l238 -100zM631 639l108 260l-49 49l-127 -309h68zM1477 635l-127 303l-50 -47l107 -256h70zM1022 905q116 0 197 -80.5t81 -197.5 q0 -116 -81.5 -197.5t-196.5 -81.5q-116 0 -197.5 82t-81.5 197q-1 116 81 197t198 81zM1206 442q76 79 76 185q0 108 -76 184q-79 76 -184 76q-108 0 -184 -76q-76 -79 -76 -184q0 -106 76 -185q82 -75 184 -75t184 75zM1200 807q76 -79 76 -180q0 -105 -74 -176 q-73 -76 -180 -76q-106 0 -178 69q-76 79 -76 181q0 103 74 180q73 76 180 76q101 0 178 -74zM391 874l47 -18l-76 -190h-57zM1686 662l-80 192l47 20l88 -212h-55zM508 825l-64 -159h-57l74 180zM844 475q43 -45 92.5 -65.5t94 -16.5t83 21t68.5 45q-56 -37 -99 -29 t-69 40.5t-27 72.5q0 28 11.5 52t25 38.5t23 37.5t6.5 50q-7 45 -43 78t-88 26q-43 -6 -78 -43.5t-51 -88t-4.5 -111t55.5 -107.5zM467 666l61 153l47 -20l-55 -133h-53zM915 731q9 9 21.5 9t21.5 -9q8 -9 8 -21t-8 -20q-9 -9 -21.5 -9t-21.5 9q-7 8 -7 20t7 21zM737 360 l-106 261h-70l127 -310zM1475 616h-68l-98 -239l-9 -17l50 -49zM1567 92l215 524l-287 -2l-131 -319zM475 98l199 197l-131 319h-281zM303 592h55l170 -406l-41 -39zM508 430l-47 -22l-80 184h57zM575 457l-47 -19l-65 154h55zM1524 588h53l-135 -332l-39 39zM1599 588h60 l-160 -389l-41 41zM1681 588h58l-185 -445l-38 39zM1081 567q-17 -24 2 -43q9 -9 21.5 -8.5t21.5 10.5q8 8 8 20t-8 21q-9 9 -22.5 9t-22.5 -9zM539 414l45 18l55 -131l-37 -37zM469 383l49 20l66 -157l-39 -41zM750 346l-48 -49l308 -125v66zM1032 172l303 125l-49 49 l-258 -106v-9zM1032 -135l520 217l-202 201l-318 -133v-285zM492 80l518 -215v282l-318 132zM823 193l-20 -48l-152 64l39 39zM1386 209l-149 -66l-18 47l131 56zM983 49v-57l-389 158l41 40zM1444 150l-387 -162v57l346 145zM983 125v-53l-154 65l19 43zM1192 180l18 -45 l-153 -67v55zM1057 -37l403 172l41 -43l-444 -184v55zM539 94l39 37l186 -76l-19 -45zM788 47l195 -80v-57l-215 88z" />
<glyph unicode="yukkuri" horiz-adv-x="2252" d="M2118 764q12 -22 -61 -68.5t-115 -58.5q1 -2 4.5 -6.5t3.5 -9.5q0 -6 -4 -13.5t-10 -14t-7 -9.5q69 -51 109 -62q-102 0 -137 21q22 -37 22 -70q10 -153 -61 -256q-10 101 -88 189q-8 -19 -9 -27t1.5 -22t2.5 -31q0 -8 -3.5 -22t-4.5 -22t4 -24q28 -51 58 -65 q49 -33 69 -58q7 -8 12 -16t9 -16.5t7 -14t4.5 -16t2.5 -14.5t1.5 -16.5t0.5 -16v-18.5v-19h-16q0 28 -26.5 70t-47.5 61q17 -30 22 -67t19 -64h-10q-12 22 -20.5 60t-25.5 63.5t-61 46.5q-2 -27 -43 -78q64 -20 54 -92h-13q3 7 0.5 25.5t-8.5 27.5q-24 33 -70 16 q45 45 62 88q14 25 -2 48q-2 2 -8.5 8t-11 9.5t-11 8t-9.5 4t-7 -3.5q-72 -70 -72 -170q-3 2 -4 3t-3.5 2t-3.5 1h-5h-6.5h-10h-14.5q0 -16 -6 -39t-6 -28h-17q0 5 5.5 28t5.5 41q-8 0 -15.5 6.5t-7.5 16.5l-37 -23q10 -9 14.5 -13.5t9.5 -19t5 -36.5h-19q0 41 -22 59 q-29 -16 -43 -20q6 -24 6 -39h-12q0 20 -8 32l-35 -10q10 -7 10 -22h-14q0 4 -4.5 12.5t-8.5 7.5q-105 -19 -170 -6q4 -2 4 -14h-10q0 10 -8 18l-92 23q5 -6 12 -41h-14q0 7 -5 20.5t-10 18.5q-18 24 -77 41q5 -7 7.5 -14.5t3.5 -17.5t1.5 -16t0 -17.5t-0.5 -14.5h-39 q0 6 -18 24q-6 6 -25.5 26.5t-26 27.5t-22 24.5t-21.5 26t-16 24t-14 26t-7.5 24t-3.5 26.5q0 28 11.5 52.5t15 43t-9.5 86.5q-16 -18 -42.5 -70.5t-27.5 -70.5q-27 31 -39 157.5t4 190.5q-9 -5 -6 23q1 3 1 7l1 5q-24 3 -41.5 -10t-35.5 -37.5t-27 -32.5q-18 -17 -37 -25 t-38.5 -3t-31.5 28q-19 -15 -26.5 -63t6.5 -95q31 -102 6 -159q-16 -32 -62.5 -75t-54.5 -52q-9 -10 -20 -27.5t-16.5 -30t-17.5 -38.5t-15 -33h-17q5 8 30.5 60t43.5 73q10 11 52.5 50t58.5 67q-17 -28 -66 -61.5t-64 -49.5q-57 -75 -57 -139h-12q6 74 32.5 114t86.5 84 q47 29 69 65t21 91q-3 -32 -51 -96q-27 -27 -97 -47q-47 -22 -79 -65t-37 -79q-4 -43 8 -67h-13q-28 73 18.5 140.5t133.5 94.5q24 8 42 22.5t25 36t-10 46.5q-26 41 -30 60t4 65q-2 -2 -3.5 -6.5t-3 -8t-5 -6t-9.5 -2.5q-10 0 -28.5 18t-24.5 33q-2 4 -4.5 14t-6 12.5 t-14.5 4.5q-7 2 -39 8t-57 13t-39 16q-88 64 246 208q6 2 16 7q11 4 15 6q-2 17 -6.5 61t-5.5 56.5t-4 48t-3.5 53t-1.5 51.5t0 62.5t2 68.5t4 86q-22 9 -81 29t-108 36t-50 17q-4 5 4 12.5t22 15.5t17 11q77 35 225.5 87t302.5 90t191 18q66 -27 156 -81t201.5 -145.5 t184.5 -187.5q215 145 215 82q0 -80 -2 -123q4 0 17 1.5t20 2t20 1.5t21.5 1h19.5t18.5 -1t14.5 -2.5t11.5 -4t5.5 -6.5q5 -32 -7.5 -65t-26 -55t-11.5 -29q4 -13 8 -20t13.5 -19t17.5 -23q210 -57 254 -135zM1391 1014q17 2 32.5 1.5t29 -2.5t23.5 -5t15 -6.5t4 -6.5 q-6 -5 -10.5 -3.5t-18.5 5.5t-26 4q-34 0 -43.5 -6.5t-12.5 -31.5q88 0 216 -15.5t239 -42.5q1 7 -8.5 21t-11.5 20q-7 15 9 50.5t27.5 61t-6.5 48.5q-23 14 -144.5 -3t-199.5 -69q-7 -7 -15 -5q-7 2 9 13q76 53 211 72q3 40 -0.5 84t-13.5 41q-91 -35 -196.5 -111.5 t-108.5 -113.5zM627 963q-18 -12 -17.5 -50.5t13.5 -50.5q20 -20 45 -14q132 42 184.5 57.5t154.5 38t201 31.5q-8 2 -90 3q-44 1 -43 9q3 8 25 10t59.5 0t38.5 -2q-25 13 -78 27.5t-90 19.5t-43 0q-1 -4 4.5 -7.5t15.5 -5.5t17 -3t18 -2q11 -2 10.5 -6t-12.5 -4 q-41 4 -47 6q-22 3 -27.5 14t4 20.5t25.5 8.5q118 -13 219 -57q-18 64 -81 121.5t-136 84.5t-123 15q-32 -7 -112.5 -37.5t-81.5 -38.5q0 -5 15 -20.5t16 -18.5q16 -29 8 -43q-2 -4 -5.5 -8t-4.5 -5.5t-1 -4t2.5 -4.5t8.5 -5q3 -1 7 -2.5t6 -2t4.5 -2.5t3.5 -5.5t1 -9.5 q0 -19 -12 -50.5t-29 -23.5q-16 9 -39.5 16.5t-33.5 0.5zM1370 1001q0 19 -12 35t-28.5 24.5t-34 14t-29.5 4.5t-15 -4q57 -36 78 -71q3 -5 5.5 -15t4.5 -12q15 -3 19 -1t7 12.5t5 12.5zM1317 977q1 28 -27 56t-53 28q5 -7 14.5 -20.5t13.5 -20.5t9 -19t6 -24q0 -7 18.5 -6 t18.5 6zM1223 1042q-3 -1 0 -7t8.5 -15t5.5 -16q0 -5 -0.5 -9t-0.5 -7t-0.5 -5.5t-0.5 -3.5v-2t1 -1.5t3 -0.5q24 0 14 33q-8 29 -23 34q-4 2 -7 0zM1016 834q19 30 96 59q41 10 43 -19q1 -5 -3 -16.5t-1.5 -17.5t18.5 -6q4 0 15.5 -4t17.5 -5t10 4q8 14 18 33.5t14 26 t15 12.5t27 2.5t43 -14.5q0 29 -33 43q-31 15 -65 -37l-1 -10q-2 -10 -7 -11q-10 -6 -19.5 1.5t-13.5 11.5t-16 -13q-4 -11 -11 -7q-3 2 -2 7q1 4 6 16t7.5 19t-0.5 13q-3 9 -39 2q-23 -5 -61.5 -25t-53.5 -31q-13 -14 -13.5 -19t9.5 -15zM1397 872q1 9 6 11t12.5 -1 t13.5 -6.5t11 -7.5q0 48 -13 54q-11 4 -39.5 -5.5t-37.5 -17.5q-1 -1 -4 -25q-1 -2 -11 -22.5t-10 -34.5q37 0 70 17q5 3 5 10.5t-2 16t-1 11.5zM1554 805q2 5 -3.5 26t-4.5 25q0 23 31.5 35t58.5 8q-33 12 -110 12q-26 0 -44 -9t-7 -28q3 -7 11 -20.5t11 -24t0 -24.5 q-18 37 -37 53q-2 -4 -2 -22q0 -3 -1.5 -9.5t-1.5 -9t0.5 -6.5t3 -7t7.5 -5q5 -4 13 -5t21.5 0t15.5 1q28 0 38 10zM1282 874q9 2 23.5 -2t19.5 -4q-6 14 -27.5 19.5t-33.5 -2.5q-2 -3 -7 -9q-16 -22 -6 -22q9 0 17.5 9t13.5 11zM1141 877q-18 15 -67 -13q-41 -23 -40 -41 q1 -7 10 -10q1 7 3 13.5t6.5 11.5t7.5 9t11 7.5t11 5.5t13.5 5t13.5 4t16 4t15 4zM1569 872q-9 -16 2.5 -24t23.5 -8q22 0 47 -25q6 -6 22 -18.5t22 -18.5q0 15 12.5 47t11.5 37q-12 20 -71.5 19t-69.5 -9zM1417 809q4 0 4.5 -12t-0.5 -25.5t0 -21.5q29 -61 53.5 -132 t24.5 -108h27q10 0 34.5 68t24.5 104q0 48 -20 84q-5 9 -10.5 10.5t-23.5 1.5h-11q-50 0 -70 8q-7 5 -8.5 14.5t-3.5 12.5l-8 15q-8 15 -13 20q4 -13 -5 -21.5t-18.5 -10.5t-25.5 -3q-6 0 -19 -5t-20.5 -7t-17.5 4q-8 8 -5.5 14.5t8.5 17.5t5 17q0 6 -11.5 11.5t-17.5 2.5 q-8 -2 -19 -13t-22 -11t-20 -27q-6 -6 -16.5 -6.5t-24.5 2t-19 2.5q-22 2 -28.5 10t0.5 31h-10h-10.5t-9.5 -0.5t-10.5 -2t-9 -4t-9.5 -6t-8.5 -9t-8.5 -13t-8 -16.5l-4 -17q5 18 43 29q-34 -49 -58.5 -129t-25.5 -176h28q88 172 150 254q51 -175 14 -350q58 40 110 124.5 t75 159.5q7 26 13.5 55.5t9 41.5t5.5 12zM1444 825q0 20 -10 31t-19 8q19 -10 29 -39zM973 745q2 3 0.5 5.5t-4 8t-2.5 9.5l6 12q3 3 10.5 12.5t11.5 12.5q5 2 18 -11t19 -8q8 8 -7 23.5t-24 13.5q-4 -2 -10 -11t-11.5 -20t-6.5 -12l-8 8l18 31q-11 -3 -16.5 -5t-15 -13 t-17.5 -31q-2 14 -10 14q6 14 13.5 22t12.5 10l4 3q1 10 -10 18.5t-20 8.5q-30 6 -67.5 -19.5t-68.5 -72.5q63 37 97 41q17 1 22.5 -8t6 -26t4.5 -26q11 -14 30.5 -8.5t24.5 18.5zM1716 322q61 117 76 169q29 99 -8 185q-7 5 -15 23.5t-14 25.5q-3 4 -5.5 6t-4.5 3.5t-6 2 t-5.5 1t-9 1t-10.5 0.5q-21 4 -47.5 34t-48.5 44q-11 9 -28 11.5t-27 7.5q15 -30 12 -39l-5 -7.5t-1 -5t0.5 -3.5t4 -5.5t5.5 -9.5q29 -39 8 -164q64 -71 95 -134t34 -146zM721 655q25 9 28 -4.5t-4 -29.5q20 4 42.5 18t29.5 23q-3 3 -21.5 17.5t-27.5 25.5 q-12 17 -11.5 21.5t11.5 18.5q39 55 57 70q-6 1 -9 3.5t-4 4t-4 1t-9 -4.5q-24 -11 -49.5 -34t-41.5 -42.5t-49 -62.5q-2 -3 -12.5 -17.5t-15.5 -19.5q18 43 20 45q-39 -39 -59 -55q22 40 63 76q-13 -1 -33.5 2.5t-31.5 4.5t-31 -5q-24 -8 -54.5 -27.5t-43.5 -36.5q6 0 18 5 t17.5 5.5t15.5 -8.5q4 -4 14.5 -38t16.5 -44q17 -35 63 -8q11 6 12.5 10.5t-2.5 18.5q-8 16 8.5 31.5t51.5 19.5q23 7 45 16zM1696 780q0 -12 8.5 -21t17.5 -9q12 0 21 9t18 27t11 21q-3 0 -18.5 4.5t-24 6t-19.5 -0.5q-14 -6 -14 -37zM1753 741q18 -9 21 -26q17 23 22 47 t-10 29q-3 2 -7 -1t-8 -10t-7 -14t-6.5 -15t-4.5 -10zM938 563q9 13 31 39t35.5 48t17.5 46q6 38 25 74q-12 -6 -21 -6q-6 0 -11 3.5t-11 13t-7 10.5q-12 -12 -14 -23q0 -5 4 -9l4 -5q0 -20 -31.5 -35.5t-46.5 2.5q-6 6 -9.5 21t-0.5 22q-18 -6 -36 -27t-23 -39 q-2 -6 -4 -16t-5 -17t-8 -14q-8 -9 -35.5 -26.5t-37.5 -18.5q-9 -53 -9 -117q0 -35 8.5 -100t16.5 -98q4 23 33.5 71t79 119.5t55.5 81.5zM889 780q-7 3 -21 -2t-30.5 -13.5t-20.5 -10.5q-1 0 -13.5 -6.5t-19 -12t-6.5 -10.5q-1 -12 13 -23t32 -20q7 54 66 98zM1882 756 q-11 11 -36 18t-36 -4q-3 -3 -3 -9.5t1.5 -11.5t4 -12t2.5 -8q12 -24 2 -23q-7 1 -15 21q-2 -5 -6.5 -11t-6 -9t-1 -7.5t5.5 -9.5q5 -8 14.5 -13t16.5 -1q4 2 13.5 16t21.5 34t22 30zM1892 739q-5 3 -14 -8t-15.5 -26.5t-4.5 -24.5l2 -41q33 20 57 47q4 14 -6 32.5t-19 20.5 zM1509 86q88 57 113 113q17 37 23.5 124t1.5 152q-1 9 -3.5 17.5t-4 14.5t-7 14.5t-7.5 12.5t-10 13.5t-10 12t-13 14t-13 14.5q-21 -58 -37 -78q29 0 48 -25t14 -55.5t-35 -44.5q-1 0 2.5 5t9 17t6.5 25q0 18 -8 32.5t-20 14.5q7 -49 -3 -88q-2 -15 -57 -13.5t-55 21.5v64 q0 26 -10 26h-17q-14 0 -27.5 14.5t-13.5 37.5q0 6 9.5 6.5t9.5 -6.5q0 -15 8 -23t16.5 -9t26.5 -1q29 0 41 2q0 36 -25.5 108t-46.5 109q-31 -110 -93 -201t-138 -135q23 107 23 174t-23 162q-79 -111 -129 -215h63q43 0 43 31q0 6 5 6t5 -6q0 -45 -47 -45l-2 -84 q-2 -19 -26.5 -27.5t-50.5 -6t-33 10.5q-19 19 -19 94q-36 -15 -39 -53q-1 -12 4.5 -25t9 -16.5t-0.5 -5.5q-31 20 -29.5 56.5t29.5 56.5q-23 0 -29 16q-1 4 0.5 7t4.5 3t5 -4q6 -8 49 -8q0 28 11 119q-16 -22 -38.5 -51.5t-31 -41t-19.5 -28t-15.5 -26.5t-6.5 -21 q1 -9 8.5 -29t7.5 -31q0 -41 -21 -84t-34.5 -72t-1.5 -48q38 -59 219 -142q102 -46 222 -39.5t212 68.5zM1911 451q-1 14 -2.5 25.5t-7 26t-9 22t-15 30.5l-17.5 35q-4 3 -10 8.5t-9 7.5q-5 10 0 31t0 31q-4 -12 -12 -13.5t-16 2.5t-15 11q19 -44 19.5 -91t-8.5 -79t-27 -74 q86 -115 86 -172q45 102 43 199zM1919 631q2 1 0 5t-5.5 7.5t-6.5 3.5q-7 2 -28.5 -9t-16.5 -22q4 -9 12.5 -9t16 5t16.5 11.5t12 7.5zM518 573q3 13 -14 48q-3 13 -9.5 16t-21 -0.5t-20.5 -3.5q-1 -16 9.5 -42.5t10.5 -41.5q6 1 24 11t21 13zM633 582q5 8 18 23t17 22 q-27 -4 -36.5 -17t1.5 -28zM1919 596q11 16 12 22l-20 -16q1 0 4 -2t4 -4zM444 598l-22 -16q2 -2 8 -8.5t10.5 -11t10.5 -9.5t10 -6q0 5 -6 28t-11 23zM1972 535h8q-36 17 -67 45q-13 10 -20.5 12.5t-9.5 0t-7 -3.5t-14 1q7 -7 12 -12.5t11.5 -10.5t10 -8t11 -6t10 -4.5 t12 -3.5t12 -3t15 -3.5t16.5 -3.5zM414 573q-10 -10 -14.5 -27.5t3.5 -25.5q12 -13 32 -10t20 20q0 4 -10.5 14.5t-20.5 19.5zM711 295q0 -27 -8.5 -86t-6.5 -80q2 -28 12 -72t23 -69h-14q-31 51 -31 127q-10 -57 -10 -127h-17q2 83 14 142.5t15.5 85t-6.5 146.5 q-3 -131 -66 -206q-19 -21 -52 -47t-58 -53t-41 -68h-14q13 40 40.5 71t55.5 53t55.5 51t45.5 82t20 130q0 20 -27 78t-18 90q6 -7 9 -25.5t5 -23.5q8 -23 28.5 -61.5t33 -71t12.5 -66.5zM498 367q2 7 -2.5 23.5t-10 33t-6.5 20.5q-6 19 -3.5 52t16.5 45 q-45 -31 -59.5 -91.5t9.5 -93.5q3 -6 8.5 -16.5t8 -16t6 -15.5t4.5 -21q8 20 13 38.5t7.5 27.5t8.5 14zM403 461q3 5 9 5t8 3q2 2 6 13.5t4 15.5q-4 0 -11 1t-9 1q0 -8 12 -17q-17 0 -21 2q-3 2 -5.5 11.5t-4.5 11.5q-16 6 -39 0q0 -15 9 -33t22 -24q5 -4 7.5 -5.5t4.5 -0.5 t2.5 2t2 5.5t3.5 8.5zM1006 469q11 -10 22 0t8 23h-28q-2 -2 -2.5 -11.5t0.5 -11.5zM1460 455q20 0 25 16q2 13 -10 14q-21 0 -22 -18q1 -11 7 -12zM1673 217q45 40 66 71.5t14 67.5q-12 -30 -47 -73q0 94 -39 176q0 -14 -2 -43t-2 -45q1 -17 7.5 -45.5t8 -46.5t-5.5 -62z M854 416q0 -6 4.5 -20t5.5 -19q12 -30 8 -70q38 77 11 146q-2 -4 -15 -19t-14 -18zM1004 381q3 -4 -14.5 -21.5t-22.5 -15.5q-3 6 14.5 22.5t22.5 14.5zM1022 373q2 -3 -2 -10.5t-9 -13t-7 -3.5q-2 1 -2 3.5t1 5t3 5.5t4 5.5t4.5 4.5t4.5 3t3 0zM971 373q1 -1 -7 -12 t-12 -15q-5 -2 -8 2t2 8q15 17 25 17zM944 371q1 0 -3.5 -7t-11.5 -14t-11 -6q-2 1 3.5 8t12.5 13.5t10 5.5zM1554 367q4 -1 -2 -10.5t-14.5 -18t-11.5 -6.5q-10 2 15 26q10 9 13 9zM1579 365q7 -2 -11 -21q-14 -15 -20 -12q-2 2 13 18t18 15zM1606 365q3 -1 -3 -10 t-14.5 -17t-11.5 -6q-8 2 16 24q10 9 13 9zM1597 326q-2 0 3 9t12.5 16.5t11.5 4.5q7 -2 -13 -21q-10 -10 -14 -9zM1624 139q59 73 39 185q-1 -8 -2.5 -24t-2.5 -21t-2.5 -16.5t-2.5 -15.5t-2.5 -13.5t-4 -14.5t-5 -13t-6.5 -15.5t-8.5 -16.5t-10.5 -20q0 -18 3 -18q2 0 5 3 zM1401 283q0 9 9 9t9 -9q0 -28 -20 -37q0 -20 -1.5 -34.5t-8 -34.5t-23 -31t-41.5 -11q-78 0 -143 123q-11 24 -2 31q7 7 14 -8q3 -6 4 -15q31 -3 96 -3.5t80 1.5q27 3 27 19zM1776 205q-22 25 -33 59q-3 -4 -8.5 -11.5t-7 -10t-3 -7.5t1 -9t7.5 -9q22 -17 36 -43 q12 -9 44 -24.5t56 -39.5t50 -75q-4 37 -26 70.5t-54 54.5q-10 8 -31 22t-32 23zM1319 154q21 0 43 18t8 35q-16 24 -34.5 29.5t-53.5 5.5q-68 -5 -68 -15q12 -20 44 -46t61 -27zM856 170q28 -48 67.5 -89t63.5 -73q-5 11 -10.5 31.5t-12 35t-18.5 25.5q-5 5 -36.5 26 t-53.5 44zM1612 68v8q0 44 -8 67q-3 -5 -20 -20t-27.5 -28.5t-2.5 -18.5q8 -8 58 -8zM973 88q8 -16 20.5 -48t12.5 -38q0 33 -6 51.5t-27 34.5z" />
<glyph horiz-adv-x="0" />
<glyph horiz-adv-x="682" />
<glyph unicode=" "  horiz-adv-x="614" />
<glyph unicode="&#x09;" horiz-adv-x="614" />
<glyph unicode="&#xa0;" horiz-adv-x="614" />
<glyph unicode="!" horiz-adv-x="491" d="M248 338q16 68 39.5 174.5t63.5 330t40 320.5q0 273 -143 273q-144 0 -144 -273q0 -99 36 -305.5t72 -363.5zM360 117q0 47 -32.5 80.5t-79.5 33.5t-81 -33.5t-34 -80.5q0 -46 34 -79.5t81 -33.5t79.5 33.5t32.5 79.5z" />
<glyph unicode="&#x22;" d="M954 1321h201q3 0 7 -1t5 -1l-2 -6l-24 -535l-463 142l-6 -136l-494 152l-10 4h2q-5 2 -2 14l63 193q5 10 0.5 24t-14.5 23l-164 121q-9 7 -6.5 12t14.5 4h203q12 0 23 8t14 19l66 196q3 12 8 12t10 -12l61 -196q10 -27 39 -31h201q4 0 8 -1l4 -1h35q12 0 23 8t14 19 l66 196q3 12 8 12t10 -12l61 -196q10 -27 39 -31zM1124 831l19 459h-2l-144 -106q-9 -7 -13 -20.5t-1 -24.5l59 -195zM655 838l4 88l-12 4l-10 4h2q-5 2 -2 14l27 80l6 172l-64 47l-78 -57q-9 -7 -13 -20.5t-1 -24.5l59 -195zM686 1098l14 43q11 22 -10 43zM559 842l68 -21 q4 4 8 4l-12 19l-70 98l-2 4l-4 4l-19 13l-82 63v-2q0 -4 -4 -8t-8 -4t-8 4t-4 8q0 9 10 12l-18 11q-5 -5 -8 -5q-13 0 -13 11q0 6 2 8q-15 15 -41 4q2 -2 2 -10q0 -11 -10 -11q-9 0 -12 9l-19 -15q5 0 9 -4t4 -8t-4 -8t-9 -4q-10 0 -10 14v4l-86 -63h-4l-12 -19l12 -2 q4 4 10 4q5 0 9 -4t4 -8l69 -22q2 2 6 2q9 0 13 -7l36 -12q0 1 -1 3t-1 3q0 13 13 13q12 0 12 -13q0 -7 -6 -10l24 -10h3l24 -6l19 -7v3q0 12 10 12q5 0 8.5 -3.5t3.5 -8.5t-2 -7l68 -22q3 8 12 8q10 0 10 -10v-4zM1028 836l68 -21q4 4 8 4l-12 19l-70 98l-2 4l-4 4l-19 12 l-82 64v-2q0 -4 -3.5 -8t-8.5 -4t-8.5 4t-3.5 8q0 9 10 12l-18 10q-4 -4 -9 -4q-12 0 -12 11q0 6 2 8q-15 15 -41 4q2 -2 2 -10q0 -11 -10 -11q-9 0 -12 9l-19 -15q5 0 9 -4t4 -8t-4 -8t-9 -4q-10 0 -10 14v4l-86 -63h-4l-4 -7v-14h4q4 4 10 4q5 0 9 -4t4 -8l69 -23q2 2 6 2 q10 0 13 -6l36 -12q0 1 -1 3t-1 3q0 12 13 12q12 0 12 -12q0 -7 -6 -10l24 -10h2l25 -7l19 -6v2q0 13 10 13q4 0 8 -4t4 -9q0 -4 -2 -6l68 -22q3 8 12 8q10 0 10 -10v-4zM375 1038q5 0 8.5 -4t3.5 -8t-3.5 -8t-8.5 -4t-9 4t-4 8t4 8t9 4zM844 1032q4 0 8 -4t4 -8t-4 -8 t-8 -4q-5 0 -9 4t-4 8t4 8t9 4zM287 1010q12 0 12 -11q0 -12 -12 -12q-13 0 -13 12q0 11 13 11zM346 1008q10 0 10 -11q0 -12 -10 -12q-12 0 -12 12q0 11 12 11zM406 1006q10 0 10 -11q0 -12 -10 -12q-13 0 -13 14q0 9 13 9zM463 1006q12 0 12 -11q0 -12 -12 -12 q-10 0 -10 12q0 11 10 11zM756 1004q12 0 12 -11q0 -12 -12 -12q-13 0 -13 12q0 11 13 11zM815 1001q10 0 10 -10q0 -12 -10 -12q-12 0 -12 12q0 10 12 10zM874 999q11 0 11 -10q0 -12 -11 -12q-12 0 -12 14q0 8 12 8zM932 999q12 0 12 -10q0 -12 -12 -12q-10 0 -10 12 q0 10 10 10zM252 981h10q4 -4 4 -12q0 -11 -10 -11q-12 0 -12 11q0 9 8 12zM311 979h11q4 -4 4 -12q0 -11 -13 -11q-10 0 -10 13q0 7 8 10zM371 979h8q6 -6 6 -12q0 -11 -12 -11q-13 0 -13 11q0 8 11 12zM428 977h8q8 -4 8 -12q0 -11 -12 -11t-12 11q0 8 8 12zM485 975h11 q6 -3 6 -12q0 -11 -10 -11q-13 0 -13 11q0 9 6 12zM721 975h10q4 -4 4 -12q0 -11 -10 -11q-12 0 -12 11q0 9 8 12zM780 973h11q4 -4 4 -12q0 -11 -13 -11q-10 0 -10 13q0 7 8 10zM840 973h8q6 -6 6 -12q0 -11 -12 -11q-13 0 -13 11q0 8 11 12zM897 971h8q8 -4 8 -13 q0 -10 -12 -10t-12 10q0 9 8 13zM954 969h11q6 -3 6 -13t-10 -10q-13 0 -13 10t6 13zM285 952q6 0 10 -8q2 -2 2 -4q0 -4 -2 -4q-4 -8 -10 -8q-5 0 -9 4t-4 8t4 8t9 4zM344 950q10 0 10 -12t-10 -12q-4 0 -8 4t-4 8t4 8t8 4zM403 948q11 0 11 -12t-11 -12q-12 0 -12 14 q0 10 12 10zM461 948q5 0 8.5 -4t3.5 -8t-3.5 -8t-8.5 -4q-10 0 -10 12t10 12zM520 946q10 0 10 -8q2 -2 2 -4q0 -4 -2 -4q0 -8 -10 -8q-4 0 -8 4t-4 8t4 8t8 4zM754 946q6 0 10 -8q2 -2 2 -4q0 -4 -2 -4q-4 -8 -10 -8q-5 0 -9 4t-4 8t4 8t9 4zM813 944q10 0 10 -12t-10 -12 q-5 0 -8.5 4t-3.5 8t3.5 8t8.5 4zM872 942q11 0 11 -12t-11 -12q-12 0 -12 14q0 10 12 10zM930 942q4 0 8 -4t4 -8t-4 -8t-8 -4q-10 0 -10 12t10 12zM989 940q10 0 10 -8q2 -2 2 -4q0 -4 -2 -4q0 -3 -3.5 -6t-6.5 -3q-4 0 -8 4t-4 9q0 4 3.5 8t8.5 4zM432 918q12 0 12 -13 q0 -10 -12 -10t-12 10q0 13 12 13zM492 915q10 0 10 -12q0 -10 -10 -10q-13 0 -13 10q0 12 13 12zM551 915q10 0 10 -12q0 -10 -10 -10q-12 0 -12 10q0 12 12 12zM901 911q12 0 12 -12q0 -10 -12 -10t-12 10q0 12 12 12zM961 909q10 0 10 -12q0 -10 -10 -10q-13 0 -13 10 q0 12 13 12zM1020 909q10 0 10 -12q0 -10 -10 -10q-12 0 -12 10q0 12 12 12zM518 887q4 0 8 -4t4 -9q0 -4 -4 -8t-8 -4t-8 4t-4 8q0 5 4 9t8 4zM578 885q4 0 8 -4t4 -9q0 -4 -4 -8t-8 -4q-5 0 -9 4t-4 8t4.5 8.5t8.5 4.5zM987 881q4 0 8 -4t4 -9q0 -4 -3.5 -8t-8.5 -4 t-8.5 4t-3.5 8q0 5 4 9t8 4zM1047 879q4 0 8 -4t4 -9q0 -4 -3.5 -8t-8.5 -4t-9 4t-4 8t4 8.5t9 4.5zM606 854q12 0 12 -10q0 -13 -12 -13q-10 0 -10 13q0 10 10 10zM1075 848q12 0 12 -10q0 -13 -12 -13q-10 0 -10 13q0 10 10 10z" />
<glyph unicode="#" horiz-adv-x="1433" d="M1473 1098h-308l-123 -574h332l-8 -39h-332l-102 -485h-180l100 485h-403l-103 -485h-184q45 218 104 485h-256l10 39h254q61 296 123 574h-280l10 39h279q70 343 73 362q6 33 29.5 57t53 35t58.5 17.5t48 7.5h20l-100 -479h399q80 363 92 397q10 29 34 48t51 26t52.5 9 t42.5 1l17 -2l-102 -479h307zM457 524h403l119 574h-399z" />
<glyph unicode="$" d="M1192 365q0 -105 -65.5 -190t-167 -133t-220.5 -60v-11h-32v9h-31q-52 0 -101 6v-15h-32v19q-165 24 -310 106q-79 -76 -180 -76q-70 0 -138.5 36t-121.5 96q-3 3 -2 4t4 -2q25 -22 63.5 -39t71.5 -17q52 0 87.5 14t53.5 35t30 57.5t17 71t14.5 86t21.5 91.5 q22 69 89.5 115t145.5 46q35 0 62 -8q6 -2 0 -4q-67 -19 -115.5 -97.5t-48.5 -172.5q0 -108 72.5 -182.5t183.5 -108.5v750q-51 21 -82.5 35t-75.5 36t-71 40.5t-57.5 44.5t-47 52.5t-28 61t-11.5 72.5q0 132 100 215t273 102v35h32v-33l58 2q24 0 74 -4v35h32v-41 q153 -29 245.5 -133t92.5 -219q0 -23 -3 -40.5t-6 -23.5l-3 -6q-115 -64 -205 -82l-10 -1l4 1q51 10 75.5 48.5t24.5 92.5q0 109 -54 191.5t-161 111.5v-600h2q112 -39 194.5 -82.5t131 -83t77.5 -85t38.5 -84t9.5 -84.5zM633 1397q-31 0 -58 -6v-537q106 -46 132 -55v592 q-34 6 -74 6zM379 1135q0 -93 31.5 -150t132.5 -113v510q-77 -26 -120.5 -92t-43.5 -155zM686 20h21v695q-54 30 -97 47l-35 14v-743q60 -13 111 -13zM739 696v-671q69 12 118.5 52.5t72.5 96t32.5 104.5t8.5 95q-3 186 -232 323z" />
<glyph unicode="%" d="M305 1290q127 0 217 -90t90 -217q0 -125 -90 -215t-217 -90q-126 0 -215.5 90t-89.5 215q0 127 89.5 217t215.5 90zM70 78l1038 1212h51l-1040 -1212h-49zM305 688q73 0 124.5 87t51.5 210q0 122 -51.5 209.5t-124.5 87.5q-72 0 -123 -87.5t-51 -209.5q0 -123 51 -210 t123 -87zM924 674q126 0 215.5 -89.5t89.5 -215.5q0 -127 -89.5 -217.5t-215.5 -90.5q-128 0 -218 90.5t-90 217.5q0 126 90.5 215.5t217.5 89.5zM924 72q72 0 123 87t51 210t-51 209t-123 86t-124 -86.5t-52 -208.5q0 -123 52 -210t124 -87z" />
<glyph unicode="&#x26;" horiz-adv-x="1433" d="M1356 324q24 -29 28 -71t-19.5 -81.5t-72.5 -56.5q-83 -26 -258 65q-68 -90 -168.5 -143t-208.5 -53q-225 0 -368.5 108t-143.5 289q0 248 174 364q35 27 72 39q-102 172 -102 320q0 74 24 135.5t62 101t88.5 67t101 39t101.5 11.5q62 0 124 -22.5t115.5 -64t87 -108 t33.5 -145.5q0 -143 -94 -231t-252 -94h-23q-33 0 -84 -23q69 -156 170 -298.5t209 -227.5q61 196 -78 485q116 -58 185 -24q30 14 43.5 42.5t11.5 50.5l-2 21q46 -24 69 -47.5t24 -41.5t-8.5 -34.5t-28 -28.5t-35.5 -20.5t-30 -12.5l-13 -5q46 -127 31 -239t-81 -204 q52 -33 115 -36q-3 2 -6.5 7t-12 20.5t-12 32.5t-0.5 43.5t17 53.5q23 45 65.5 60t83.5 1.5t66 -44.5zM670 1434q-48 0 -76.5 -6.5t-52.5 -25t-35 -56.5t-17 -95t-6 -147q0 -113 72 -287q41 2 102 2q15 0 37.5 9.5t50.5 32t52 55.5t40.5 86t16.5 116q0 175 -37.5 245.5 t-146.5 70.5zM653 0q32 0 72 13t83.5 38.5t81.5 71.5t58 104q-132 86 -261.5 204.5t-225.5 248.5q-123 -137 -123 -299q0 -101 29.5 -178t78 -119.5t101 -63t106.5 -20.5z" />
<glyph unicode="'" horiz-adv-x="819" d="M485 1327h201q4 0 8 -1l4 -1l-2 -6l-24 -535l-494 152l-10 4h2q-5 2 -2 14l63 193q5 10 0.5 24t-14.5 23l-164 121q-9 7 -6.5 12t14.5 4h203q12 0 23 8t14 19l66 196q3 12 8 12t10 -12l61 -196q10 -27 39 -31zM655 838l19 458h-2l-144 -106q-9 -7 -13 -20.5t-1 -24.5 l59 -195zM559 842l68 -21q4 4 8 4l-12 19l-70 98l-2 4l-4 4l-19 13l-82 63v-2q0 -4 -4 -8t-8 -4t-8 4t-4 8q0 9 10 12l-18 11q-5 -5 -8 -5q-13 0 -13 11q0 6 2 8q-15 15 -41 4q2 -2 2 -10q0 -11 -10 -11q-9 0 -12 9l-19 -15q5 0 9 -4t4 -8t-4 -8t-9 -4q-10 0 -10 14v4 l-86 -63h-4l-12 -19l12 -2q4 4 10 4q5 0 9 -4t4 -8l69 -22q2 2 6 2q9 0 13 -7l36 -12q0 1 -1 3t-1 3q0 13 13 13q12 0 12 -13q0 -7 -6 -10l24 -10h3l24 -6l19 -7v3q0 12 10 12q5 0 8.5 -3.5t3.5 -8.5t-2 -7l68 -22q3 8 12 8q10 0 10 -10v-4zM375 1038q5 0 8.5 -4t3.5 -8 t-3.5 -8t-8.5 -4t-9 4t-4 8t4 8t9 4zM287 1010q12 0 12 -11q0 -12 -12 -12q-13 0 -13 12q0 11 13 11zM346 1008q10 0 10 -11q0 -12 -10 -12q-12 0 -12 12q0 11 12 11zM406 1006q10 0 10 -11q0 -12 -10 -12q-13 0 -13 14q0 9 13 9zM463 1006q12 0 12 -11q0 -12 -12 -12 q-10 0 -10 12q0 11 10 11zM252 981h10q4 -4 4 -12q0 -11 -10 -11q-12 0 -12 11q0 9 8 12zM311 979h11q4 -4 4 -12q0 -11 -13 -11q-10 0 -10 13q0 7 8 10zM371 979h8q6 -6 6 -12q0 -11 -12 -11q-13 0 -13 11q0 8 11 12zM428 977h8q8 -4 8 -12q0 -11 -12 -11t-12 11q0 8 8 12z M485 975h11q6 -3 6 -12q0 -11 -10 -11q-13 0 -13 11q0 9 6 12zM285 952q6 0 10 -8q2 -2 2 -4q0 -4 -2 -4q-4 -8 -10 -8q-5 0 -9 4t-4 8t4 8t9 4zM344 950q10 0 10 -12t-10 -12q-4 0 -8 4t-4 8t4 8t8 4zM403 948q11 0 11 -12t-11 -12q-12 0 -12 14q0 10 12 10zM461 948 q5 0 8.5 -4t3.5 -8t-3.5 -8t-8.5 -4q-10 0 -10 12t10 12zM520 946q10 0 10 -8q2 -2 2 -4q0 -4 -2 -4q0 -8 -10 -8q-4 0 -8 4t-4 8t4 8t8 4zM432 918q12 0 12 -13q0 -10 -12 -10t-12 10q0 13 12 13zM492 915q10 0 10 -12q0 -10 -10 -10q-13 0 -13 10q0 12 13 12zM551 915 q10 0 10 -12q0 -10 -10 -10q-12 0 -12 10q0 12 12 12zM518 887q4 0 8 -4t4 -9q0 -4 -4 -8t-8 -4t-8 4t-4 8q0 5 4 9t8 4zM578 885q4 0 8 -4t4 -9q0 -4 -4 -8t-8 -4q-5 0 -9 4t-4 8t4.5 8.5t8.5 4.5zM606 854q12 0 12 -10q0 -13 -12 -13q-10 0 -10 13q0 10 10 10z" />
<glyph unicode="(" horiz-adv-x="614" d="M358 973v-590q0 -115 15.5 -203.5t38 -137.5t52.5 -81.5t53 -43.5t46 -15q-70 3 -126.5 19.5t-95.5 49.5t-67.5 65t-45.5 86.5t-27.5 93.5t-14.5 106t-5 103.5t-1 105.5v8v278v8q0 69 1 105t5 103t14.5 106t27.5 93.5t45.5 86.5t67.5 65t95.5 49t126.5 19 q-23 -4 -46 -14.5t-53 -43t-52.5 -81.5t-38 -137t-15.5 -203z" />
<glyph unicode=")" horiz-adv-x="614" d="M113 1473q265 -12 343 -242q39 -114 40 -341v-46v-8v-279v-8q0 -69 -1 -105t-5 -103t-14.5 -106t-27.5 -93.5t-45.5 -86.5t-67.5 -65t-95.5 -49t-126.5 -19q23 4 45.5 14.5t53 43t52.5 81.5t37.5 137t15.5 203v590q0 115 -15.5 203.5t-37.5 138t-52.5 82t-53 43.5 t-45.5 15zM113 -78l-31 -2q5 0 15.5 1t15.5 1z" />
<glyph unicode="*" horiz-adv-x="1024" d="M532 1513l68 -196q3 -10 14.5 -18.5t22.5 -8.5l201 4q12 0 13.5 -5t-7.5 -13l-158 -123q-10 -7 -14.5 -21t0.5 -26l63 -191q5 -11 0.5 -14t-14.5 4l-166 117q-9 6 -23.5 5.5t-23.5 -7.5l-164 -121q-9 -8 -13 -5t-1 15l59 193q3 12 -1 25.5t-13 19.5l-164 119 q-10 8 -8.5 13t12.5 5l201 2q11 0 22.5 9t16.5 20l59 198q3 7 6.5 9.5t6.5 0t5 -9.5zM532 1059q48 0 79.5 31t31.5 81q0 46 -32.5 78.5t-78.5 32.5q-47 0 -79.5 -32.5t-32.5 -78.5q0 -47 32.5 -79.5t79.5 -32.5z" />
<glyph unicode="+" d="M618 1249q0 -127 -11 -216.5t-39.5 -160.5t-72 -114.5t-114.5 -72t-160.5 -39.5t-216.5 -11q127 0 217 -11t160.5 -39.5t114 -72t72 -114.5t39.5 -161t11 -217q0 127 11 217t39.5 161t72 114.5t114.5 72t161 39.5t217 11q-127 0 -217 11t-161 39.5t-114.5 72t-72 114 t-39.5 160.5t-11 217z" />
<glyph unicode="," horiz-adv-x="512" d="M319 193l130 2q6 0 8 -2v-5l-8 -335l-316 88l-6 2q-4 0 0 8l37 123q5 19 -8 28l-105 76q-4 2 -5 4.5t1.5 4t7.5 1.5l125 2q7 0 15 5.5t10 11.5l39 127q1 5 3 6.5t4 0t3 -6.5l43 -125q8 -16 22 -16zM436 -115l6 289h-2l-88 -68q-8 -1 -11 -12t1 -18l41 -121zM377 -115 l41 -12q4 4 6 4l-8 10l-47 62v2l-2 2l-13 8l-53 39q0 -8 -6 -8q-8 0 -8 8q0 6 6 6l-12 8q-4 -4 -7 -4q-6 0 -6 6q0 5 2 7q-12 6 -28 2q4 -4 4 -9q0 -6 -8 -6q-6 0 -9 6l-10 -8q8 0 8 -8t-8 -8q-6 0 -6 8v2l-53 -41h-2l-2 -2l-9 -10l9 -2q4 4 8 4q8 0 8 -8l25 -6q-4 0 -4 6 q0 8 8 8q2 0 6 -4v-6l-2 -3q-2 -4 -4 -4l14 -4q0 2 4 2q6 0 6 -6l25 -6q0 1 -1 3t-1 3q0 6 8 6t8 -6q0 -8 -4 -8l19 -6l16 -2l10 -4q0 8 6 8q8 0 8 -8v-4l41 -13q2 5 9 5q8 0 8 -7v-2zM256 8q8 0 8 -8t-8 -8t-8 8t8 8zM201 -12q6 0 6 -6q0 -9 -6 -9q-8 0 -8 9q0 6 8 6z M238 -12q8 0 8 -6q0 -9 -8 -9q-9 0 -9 9q0 6 9 6zM274 -12q9 0 9 -6q0 -9 -9 -9q-6 0 -6 9q0 6 6 6zM311 -12q8 0 8 -6q0 -9 -8 -9q-6 0 -6 9q0 2 2.5 4t3.5 2zM184 -33q4 0 4 -6t-6 -6q-8 0 -8 6t6 6q0 2 2 2t2 -2zM221 -33q6 0 6 -6t-8 -6q-6 0 -6 6t2 6l4 2q2 0 2 -2z M260 -33q4 0 4 -6t-8 -6t-8 6t6 6q0 2 2 2t4 -2zM295 -31l2 -2q4 0 4 -6q0 -1 -2.5 -3.5t-3.5 -2.5q-8 0 -8 6t4 6q2 2 4 2zM334 -33q4 0 4 -6t-8 -6q-2 0 -4 2.5t-2 3.5q0 6 4 6l2 2q4 0 4 -2zM238 -49q8 0 8 -8q0 -9 -8 -9q-3 0 -6 3t-3 6q0 8 9 8zM274 -49q9 0 9 -8 q0 -3 -3 -6t-6 -3q-6 0 -6 9q0 8 6 8zM311 -49q8 0 8 -8q0 -9 -8 -9q-6 0 -6 9q0 8 6 8zM342 -57q0 8 8 8q2 0 6 -4v-6q-1 -1 -2 -2.5l-2 -3t-2 -1.5q-8 0 -8 9zM295 -68q1 0 3.5 -2t2.5 -4q0 -8 -6 -8q-8 0 -8 8q0 6 8 6zM330 -68q8 0 8 -6q0 -8 -8 -8q-6 0 -6 8q0 2 2 4 t4 2zM369 -68q8 0 8 -6q0 -8 -8 -8q-9 0 -9 8q0 6 9 6zM350 -86q6 0 6 -8q0 -6 -6 -6q-8 0 -8 6q0 8 8 8zM387 -86q6 0 6 -8q0 -6 -6 -6q-8 0 -8 6q0 8 8 8zM406 -106q8 0 8 -7q0 -8 -8 -8q-9 0 -9 8q0 7 9 7z" />
<glyph unicode="-" d="M1047 700l-54 -125h-739l53 125h740z" />
<glyph unicode="." horiz-adv-x="512" d="M301 203l-39 116q-7 17 -10 0l-37 -118q-9 -17 -22 -17l-121 -2q-14 0 -4 -10l98 -72q14 -10 10 -26l-37 -117q-2 -6 1.5 -8t9.5 2l98 74q4 5 13 5t13 -5l101 -70q6 -4 8.5 -2t-0.5 8l-39 115q-4 18 8 26l97 76q13 10 -5 10l-120 -2q-16 0 -23 17z" />
<glyph unicode="/" d="M1010 1636l-713 -1638h-94q618 1436 657 1520q16 34 37.5 58.5t40.5 35.5t35.5 17t26.5 7h10z" />
<glyph unicode="0" horiz-adv-x="921" d="M461 1446q218 0 312.5 -168.5t94.5 -562.5q0 -193 -29 -335t-84.5 -227.5t-129 -126t-168.5 -40.5q-191 0 -297.5 178.5t-106.5 556.5q0 390 95 557.5t313 167.5zM465 0q61 0 108.5 40t83.5 123.5t55 223t19 328.5q0 260 -27.5 417.5t-85 229.5t-151.5 72 q-142 0 -204 -165.5t-62 -547.5q0 -188 18.5 -328t53.5 -225.5t83 -126.5t109 -41z" />
<glyph unicode="1" horiz-adv-x="716" d="M653 4v-4h-616v4q29 0 113 4q107 5 131 182v1051q0 21 -4 28t-17 7h-154v4l304 174v-1245q21 -197 131 -201zM418 33l-29 76l21 16l-7 31h-30l-27 75l-22 -77h-35l-6 -27l26 -21l-22 -75l63 49z" />
<glyph unicode="2" horiz-adv-x="942" d="M942 0h-993q42 158 101 283t122 204t130.5 141.5t133 110.5t123 95.5t106 113t76.5 146.5q23 61 10 121.5t-46 109t-90.5 79t-125.5 30.5q-62 0 -119 -30t-94 -73.5t-59 -90t-24 -83.5q38 51 100 51q51 0 87 -36t36 -87t-36.5 -86.5t-88.5 -35.5q-81 0 -126.5 51.5 t-45.5 132.5q0 110 112 204.5t263 94.5q81 0 157 -29.5t132.5 -84t79.5 -132t-1 -174.5q-16 -59 -41 -106.5t-56.5 -81.5t-68.5 -65t-78 -63.5t-84 -70t-88.5 -91.5t-88.5 -120.5t-87 -164t-82 -216.5h588q31 0 31.5 43.5t-14.5 112.5zM195 434l43 -12l6 -45l24 37l43 -13 l-28 37l24 41l-43 -18l-31 39l3 -49zM215 193l-10 61l51 25q2 0 2 4l-57 10l-8 63l-31 -57l-53 10l-3 -2l37 -43l-28 -53l57 27z" />
<glyph unicode="3" horiz-adv-x="983" d="M625 772q290 -70 290 -385q0 -41 -7.5 -82t-25 -88.5t-51 -87.5t-80.5 -73.5t-118.5 -52.5t-159.5 -19q-89 0 -162.5 23.5t-118.5 59.5t-75.5 82t-43 87.5t-12.5 78.5q0 129 127 129q50 0 83 -24.5t41 -59.5t0.5 -70.5t-39 -61t-76.5 -27.5q-11 0 -4 -11q15 -30 27 -50.5 t37 -49.5t52 -46.5t70 -30.5t94 -13q94 0 142.5 29t72 112t23.5 246q0 175 -62 274t-157 99h-138v24h138q93 0 159 90.5t66 229.5q0 170 -57.5 250t-182.5 80q-144 0 -227 -160q-10 -19 0 -19q45 -3 73.5 -32.5t28.5 -73.5q0 -46 -25.5 -75.5t-78.5 -29.5q-50 0 -80 29.5 t-31 81.5q0 26 10 60t35.5 74.5t62 74t97.5 56t135 22.5q106 0 188 -40t126 -103t58.5 -141t-5 -151.5t-76.5 -137.5t-143 -97zM739 569l-32 -20q0 -2 2 -6t2 -6l41 -2l16 -60l20 57l60 -2l-45 35l20 58l-49 -35l-49 41zM858 373l43 14v4l-41 17l2 55l-35 -45l-51 20l29 -45 l-33 -43l53 15l29 -48zM788 174l52 -24q1 1 2 5.5t2 6.5l-23 47l49 55l-73 -12l-37 65l-8 -75l-33 -6q0 -19 -2 -27l26 -14l-8 -74z" />
<glyph unicode="4" horiz-adv-x="1064" d="M1059 432h-299v-217q0 -44 12 -88t44.5 -80.5t78.5 -38.5l113 -4v-4h-627v4h4l115 4q61 3 96 70.5t35 136.5v217h-594l592 952l131 70v-987h239q0 -16 15 -24.5t30 -9.5zM684 1290l-55 45l24 -63l-16 -12l2 -23h25l14 -55l20 53l54 -2v2l-41 33l20 57zM96 467h535v833 q0 9 -5.5 11.5t-11.5 -6.5zM741 1083l7 2v23l-5 2l2 45l-26 -33l-39 15l22 -39l-26 -33l41 12l22 -35zM682 344l29 -49l-33 -41l49 14l21 -28v106l-19 -20zM750 55l-33 64l37 39q0 4 -1 8t-1 6l-58 -14l-32 67l-11 -75l-14 -3q-4 -24 -12 -34l20 -9l-8 -69l49 51z" />
<glyph unicode="5" horiz-adv-x="1003" d="M281 768h264q69 0 125.5 -8.5t113 -33.5t95 -65.5t62.5 -108.5t24 -159q0 -87 -28 -157t-75.5 -115.5t-112 -76t-134 -43.5t-146.5 -13q-79 0 -144.5 21t-109 54t-79 82t-56 95t-39.5 104q-10 26 16 50t66 38q13 5 13 -2q1 -4 -8 -27q-37 -95 -19 -165l8 -25 q36 -89 126.5 -151t225.5 -62q131 0 217 112t86 277q0 133 -51 220t-138.5 119.5t-200.5 21.5t-239 -66v700l-22 50h776l-256 -185l34 42q68 93 -5 93h-389v-616zM158 1366v-10l28 -13l-4 -43l29 33l39 -16l-23 37l31 32l-43 -8l-22 37l-5 -43zM162 1268l43 -41l-23 -53 l51 28l31 -26v79l-8 2l-12 60l-25 -57zM895 389l-27 47l35 41l-53 -10l-27 45l-4 -53l-35 -8v-15l31 -12l-6 -53l37 41zM903 248l17 -17q17 46 22 82l-8 2l-16 72l-31 -68l-72 7l55 -50l-30 -67zM758 121l24 -47q2 0 2 2l9 49l55 8l-49 27l8 53l-37 -39l-22 12 q-7 -14 -11 -20l6 -14l-28 -31q-6 -3 -6 -6z" />
<glyph unicode="6" horiz-adv-x="1024" d="M524 823q92 0 160.5 -20.5t110.5 -55t67.5 -89t35 -114t9.5 -138.5q0 -83 -18 -151t-46 -111t-66.5 -75.5t-73.5 -49t-74.5 -26t-62 -11.5t-42.5 -2q-69 0 -134.5 24t-122.5 73t-91.5 134t-34.5 195v428v6q0 48 0.5 76t4 83t9.5 91t19.5 88t32 86t48 72.5t66.5 61 t89 37.5t114 15q65 0 118.5 -20t87 -50t56.5 -66.5t32.5 -68t8.5 -55.5q0 -55 -27 -88t-77 -33q-51 0 -82 30t-33 67.5t24 72t75 41.5q3 3 0 16q-5 17 -9 29t-18 34.5t-32 37t-50.5 26t-73.5 11.5q-111 0 -164 -97t-53 -321v-248q10 6 28.5 15t75.5 24.5t113 15.5zM743 1229 l-28 22l10 -34l-31 -19l37 -6l10 -33l13 33l39 -2l-31 24l16 33zM711 1122l28 4l-26 17l4 24l-19 -18l-24 12l12 -28l-16 -19l24 4l13 -22zM524 0q140 0 187 94q32 66 34 233v73v6q0 185 -59 288t-162 103q-92 0 -223 -113v-244q0 -440 223 -440zM731 629l19 -39l8 57l55 10 l-51 23l10 51l-41 -37l-41 19q30 -46 41 -84zM754 518v-8l53 -31l-12 -73l51 53l47 -29v35l-12 24l8 9q0 17 -4 37l-25 -3l-33 64l-12 -70zM862 260l19 12q0 7 4 19l-31 6l-14 49l-21 -49l-51 4l41 -37l-18 -51l43 31l32 -27q0 4 4 16zM254 172l55 -14l-37 41l29 41 q0 2 -2 4l-47 -19l-33 43l2 -55l-26 -10q1 -3 4 -8.5t4 -8.5l20 -6l2 -33q2 -2 6 -10z" />
<glyph unicode="7" horiz-adv-x="1003" d="M6 1434h973q-8 -12 -22.5 -34.5t-55 -99t-78 -160t-83.5 -213t-79 -262t-56.5 -303.5t-24.5 -342q0 -20 -15 -20h-166q-12 0 -12 16q23 218 43 338q89 523 301 1030h-493q-28 0 -38 -37t-4 -90t16 -106t20 -90l10 -37zM881 1290v2l-17 33l27 35l-43 -12l-21 36l-4 -43 l-43 -8l41 -16l-4 -45l27 35zM682 1219h-6l4 -2l43 -29l-14 -60l47 37l49 -30l-21 55l45 37l-59 -4l-18 57l-19 -57zM616 553l2 10l-12 25l27 28v5l-41 -9l-25 39l-4 -45l-45 -10l41 -21l23 11l-25 -41l-2 -13l33 33zM504 545l-15 14q-3 -12 -8 -39.5t-8 -40.5l6 -57l33 57 l66 -16l-46 49l19 35v10l2 8zM573 334l9 4q1 3 2 10.5t2 11.5l-15 5l-2 43l-24 -37l-45 12l30 -37l-26 -37l43 15l31 -35zM504 186l-21 37l31 37l-45 -10l-23 37l-6 -45l-8 -2q0 -4 -1 -11.5t-1 -11.5l8 -4l-4 -45l29 35l41 -19v2zM549 102l16 11q2 10 2 32l-28 2l-15 74 l-14 -31l2 -4l12 -16l-20 8l-10 -26l-60 6l-2 -4l-2 -2l45 -43l-31 -66l64 35l55 -47v2zM422 160l4 -6v4z" />
<glyph unicode="8" horiz-adv-x="901" d="M610 702q98 -67 161.5 -136.5t87.5 -131t22.5 -120t-29 -106.5t-72 -89t-101 -68.5t-121 -43t-128.5 -15.5q-76 0 -149.5 26t-132 72t-94.5 116.5t-36 153.5q0 58 17 110.5t42 90.5t67 77t77.5 65t87.5 59q-241 151 -241 325q0 74 18.5 136t59 114t113.5 81.5t173 29.5 q81 0 150.5 -31.5t115 -82.5t71 -119t25 -137.5t-29 -141t-84.5 -127.5q-1 -2 -96 -90q10 -5 26 -17zM90 1130q-1 -42 15.5 -76.5t60.5 -72.5t95.5 -71.5t146.5 -88.5q54 33 89 58.5t69.5 60t51.5 73.5t17 83q0 135 -56 236.5t-147 101.5q-168 0 -254 -83.5t-88 -220.5z M645 1182l6 -2v-72l43 57l70 -24l-43 59l22 31q-8 12 -10 18l-39 -12l-41 59l-2 -71l-12 -4zM735 1065l2 45l-28 -35l-43 19l26 -39l-28 -35l43 12l24 -39l2 45l41 13zM668 958l-2 41l-21 -34l-31 10l-4 -8l21 -23l-23 -35l39 17l25 -33l-2 41l39 14zM332 786l-2 29l22 12 l-24 4l-6 25v2l-3 -2l-10 -22l-26 6l18 -21l-12 -22l24 12zM379 727l41 6l16 -37l8 41l39 4l-32 19l6 41l-31 -29l-35 19l19 -35zM240 627l32 6l9 -15h2l8 3l2 16l33 8l-31 12l2 35l-21 -26l-32 14l16 -29zM430 0q52 0 105.5 20t97 57t75.5 85t38 107.5t-12 121.5t-79 130 t-159 130q-24 -18 -82.5 -61t-81.5 -61t-63 -53t-56.5 -58t-30.5 -55t-14 -64q0 -123 74 -211t188 -88zM215 563v-43l25 35l43 -14l-29 37l27 32l-41 -12l-25 35v-43l-43 -15zM289 604l2 14l-4 -8zM70 479l-17 -16q-6 -12 -6 -23l19 2v19l12 -19l10 2l21 -47l6 -8l10 60 l63 8l-55 28l12 64l-47 -43l-24 14q-11 -27 -11 -28zM119 262l33 -14q-5 45 -5 51q0 26 11 59l-33 -8l-6 8l-2 -6l-13 31l-28 41l-6 -86l-29 -8l6 -41l21 -6l-5 -50q8 -12 13 -22z" />
<glyph unicode="9" horiz-adv-x="983" d="M492 1448q71 0 137.5 -21t124 -63t92.5 -115t35 -168v-512q0 -200 -18 -290q-42 -216 -214 -273q-68 -22 -155 -22q-79 0 -144 21.5t-108.5 58t-73.5 87t-43.5 107t-13.5 119.5q0 52 30 84.5t80 32.5q41 0 69 -21t35.5 -51t2 -60.5t-32 -51.5t-66.5 -21q-13 0 -9 -46 q8 -88 66 -155q76 -88 208 -88q115 0 162 72q48 74 57 286q4 95 4 387q-11 -5 -30.5 -12.5t-78.5 -20t-116 -12.5q-201 0 -293.5 91t-92.5 270q0 95 28.5 168t70 113t97.5 65.5t100.5 33t89.5 7.5zM717 868v160v6q0 91 -1.5 134.5t-13 105.5t-34 89.5t-66.5 49t-110 21.5 q-65 0 -109 -20t-66.5 -45.5t-34 -83.5t-13 -97.5t-1.5 -123.5v-3q0 -171 59.5 -254.5t164.5 -83.5q163 0 225 145zM758 1114l-33 -10q0 -17 2 -25l31 -10v-74l43 60l57 -23v19l-29 39l21 26q-1 4 -2 12t-2 11l-43 -13l-43 62zM860 930v16l-14 6l2 45l-33 -34l-41 16l25 -37 l-27 -35l41 11l29 -39l2 47zM729 840l8 -11l-8 -14v-14l25 10l26 -33l-2 41l37 15l-39 10l-2 41l-22 -35l-23 6v-16zM797 602l2 19l35 6l-33 16l2 31l-21 -25l-32 15l16 -31l-21 -27l33 10l19 -30v16zM862 569l-39 -12l-22 31v-39l-37 -12l39 -13v-41l22 35l37 -10v2l-20 27 zM858 442l-33 -18l-45 45l11 -61l-43 -23l6 -12l43 -8l8 -54h4l31 49l14 -4zM213 399l41 4l-37 21l10 39l-30 -27l-39 21l20 -39l-31 -27l41 4l17 -39zM250 369l-25 8l17 -23l-11 -22l23 10l18 -18l-4 24l27 12l-29 5l-4 30zM842 268l6 37l-55 -12l-48 69h-2l-4 -81l-18 -7 l-6 -45l20 -6l-6 -86l57 66l27 -10l16 38l-10 15z" />
<glyph unicode=":" horiz-adv-x="819" d="M483 1251l-65 197q-3 7 -6.5 9.5t-7 0t-5.5 -9.5l-61 -199q-7 -24 -37 -28l-201 -2q-12 0 -13.5 -5.5t7.5 -13.5l164 -119q10 -6 14.5 -19.5t1.5 -25.5l-59 -192q-4 -12 0.5 -15t13.5 5l164 120q21 17 47 2l166 -116q9 -8 14.5 -4t0.5 14l-64 192q-4 11 -0.5 24t12.5 21 l160 123q9 8 7.5 13.5t-13.5 5.5l-201 -4q-12 0 -23 7.5t-16 18.5zM483 385l-65 197q-3 7 -6.5 9.5t-7 0t-5.5 -9.5l-61 -199q-3 -10 -14 -18.5t-23 -10.5l-201 -2q-12 0 -13.5 -5t7.5 -13l164 -119q10 -6 14.5 -19.5t1.5 -25.5l-59 -193q-4 -12 0.5 -15t13.5 5l164 121 q21 17 47 2l166 -117q9 -7 14.5 -3.5t0.5 14.5l-64 192q-4 11 -0.5 24t12.5 21l160 123q9 8 7.5 13t-13.5 5l-201 -4q-12 0 -23 8t-16 19z" />
<glyph unicode=";" horiz-adv-x="819" d="M233 1075l-163 119q-9 8 -7.5 13t13.5 5l200 2q12 2 23 10.5t14 18.5l62 199q2 7 5 9.5t6.5 0t6.5 -9.5l66 -197q5 -11 16 -18.5t23 -7.5l200 4q12 0 14 -5.5t-7 -13.5l-160 -123q-9 -8 -13 -21t0 -24l64 -192q5 -11 0 -14t-14 4l-166 116q-26 15 -47 -2l-164 -121 q-9 -8 -14 -4.5t-1 15.5l60 192q3 12 -2 25.5t-15 19.5zM498 365l200 4q4 0 8 -1t5 -1v-7l-13 -534l-497 139l-11 4h3q-6 3 -3 15l60 194q3 11 -2 24.5t-15 20.5l-163 119q-9 6 -7.5 11t13.5 5l200 4q12 0 23 8t14 19l62 199q3 12 8 12t10 -12l66 -195q11 -28 39 -28z M680 -121l8 459h-2l-141 -111q-9 -8 -13 -21t0 -24l64 -192zM584 -121l67 -18q4 4 8 4l-12 18l-72 97l-2 4l-4 4l-18 12l-84 61v-2q0 -5 -3.5 -8.5t-8.5 -3.5t-9 4t-4 8q0 9 11 13l-19 10q-4 -4 -8 -4q-12 0 -12 10q0 6 2 8q-19 12 -43 2q4 -2 4 -10q0 -10 -10 -10t-13 8 l-18 -14q4 0 8 -4t4 -9t-4 -8.5t-8 -3.5q-10 0 -10 12v4l-84 -63l-4 -2l-13 -18l13 -3q7 7 10 7q4 0 8 -4t4 -9l70 -20q2 2 6 2q9 0 12 -6l37 -13q0 1 -1 3.5t-1 3.5q0 12 12 12q13 0 13 -12q0 -7 -7 -11l27 -8h2l25 -6l18 -6v2q0 12 10 12q5 0 9 -4t4 -8t-2 -6l67 -21 q3 9 12 9q11 0 11 -11v-4zM395 72q5 0 9 -4t4 -9q0 -4 -4 -8t-9 -4t-8.5 3.5t-3.5 8.5t4 9t8 4zM307 41q12 0 12 -10q0 -13 -12 -13t-12 13q0 10 12 10zM367 41q10 0 10 -10q0 -13 -10 -13q-13 0 -13 13q0 10 13 10zM426 41q10 0 10 -10q0 -13 -10 -13q-12 0 -12 13 q0 10 12 10zM483 41q13 0 13 -10q0 -13 -13 -13q-10 0 -10 13q0 10 10 10zM272 12h11q6 -3 6 -12q0 -10 -10 -10q-13 0 -13 10q0 9 6 12zM332 12h10q6 -3 6 -12q0 -10 -12 -10q-10 0 -10 10q0 9 6 12zM391 12h8q9 -4 9 -12q0 -10 -13 -10q-12 0 -12 10q0 8 8 12zM451 12h8 q8 -4 8 -12q0 -10 -12 -10q-13 0 -13 10q0 8 9 12zM508 12h10q6 -3 6 -12q0 -10 -10 -10q-12 0 -12 10q0 9 6 12zM307 -16q5 0 10 -9q2 -2 2 -4q0 -4 -2 -4q-4 -8 -10 -8q-5 0 -8.5 3.5t-3.5 8.5t4 9t8 4zM367 -16q10 0 10 -13q0 -12 -10 -12q-5 0 -9 4t-4 8q0 5 4 9t9 4z M426 -16q10 0 10 -13q0 -12 -10 -12q-12 0 -12 12q0 13 12 13zM483 -16q5 0 9 -4t4 -9q0 -4 -4 -8t-9 -4q-10 0 -10 12q0 13 10 13zM543 -16q3 0 6.5 -3t3.5 -6q2 -2 2 -4q0 -4 -2 -4q0 -8 -10 -8q-5 0 -9 4t-4 8q0 5 4 9t9 4zM455 -47q12 0 12 -12q0 -11 -12 -11 q-13 0 -13 11q0 12 13 12zM514 -47q10 0 10 -12q0 -11 -10 -11q-12 0 -12 11q0 12 12 12zM573 -47q11 0 11 -12q0 -11 -11 -11q-12 0 -12 11q0 12 12 12zM543 -76q5 0 8.5 -4t3.5 -8t-3.5 -8t-8.5 -4t-9 4t-4 8t4 8t9 4zM602 -76q4 0 8 -4t4 -8t-4 -8t-8 -4t-8 4t-4 8t4 8 t8 4zM631 -106q12 0 12 -11q0 -12 -12 -12q-10 0 -10 12q0 11 10 11z" />
<glyph unicode="=" d="M1159 842l-12 -49h-903l12 49h903zM1026 481l-12 -49h-903l12 49h903z" />
<glyph unicode="?" horiz-adv-x="983" d="M506 1427q213 0 325 -137q88 -107 81 -252q-6 -141 -98 -233.5t-236 -93.5v-437q-25 19 -72 19q-22 0 -42 -6t-29 -11l-9 -6v451q3 -1 8.5 -2.5t24 -4t39.5 -1.5l30 6q24 8 48.5 20t58 38.5t58.5 61.5t43 91t18 123q0 107 -18 179.5t-53.5 111t-79.5 54t-105 15.5 q-106 0 -189.5 -81.5t-95.5 -196.5q32 21 79 11.5t83 -54.5q19 -23 23.5 -55.5t-6 -63t-35.5 -55.5t-65.5 -33.5t-96.5 4.5q-51 14 -82 70.5t-31 142.5q0 57 25 112.5t74 104t133.5 78.5t191.5 30zM504 223q47 0 79.5 -33.5t32.5 -80.5q0 -46 -32.5 -79.5t-79.5 -33.5 t-81 33.5t-34 79.5q0 47 34 80.5t81 33.5z" />
<glyph unicode="@" horiz-adv-x="1740" d="M883 1315q145 0 278 -57t228.5 -153.5t152.5 -229.5t57 -279q0 -86 -11.5 -159.5t-30.5 -125t-44 -93.5t-52 -67.5t-54.5 -44.5t-52.5 -27.5t-44 -13.5t-30 -5l-12 -1h-19q-122 0 -188 134q-98 -134 -273 -134q-73 0 -129 15.5t-103.5 54t-78.5 100.5t-48 157t-17 222 q0 156 29.5 267.5t83 172t116.5 87t141 26.5q161 0 248 -78v78h172v-856q0 -127 72 -164q7 2 20.5 -0.5t32.5 3t40.5 11t44.5 22.5t45.5 38t42.5 57t34.5 80t23.5 107t9 137q0 193 -89.5 350t-246 246.5t-348.5 89.5q-193 0 -350 -89.5t-246.5 -246.5t-89.5 -350 q0 -192 89.5 -348.5t246.5 -246t350 -89.5q206 0 301 39l4 1q-1 -1 -4 -3q-139 -68 -301 -68q-146 0 -278.5 56.5t-228.5 152.5t-153 228.5t-57 277.5q0 146 57 279t153 229.5t229 153.5t278 57zM1030 551v127q-6 236 -64 344t-186 108q-241 0 -241 -522q0 -150 16.5 -253 t49.5 -160.5t76 -82t103 -24.5q110 0 174.5 116t71.5 347z" />
<glyph unicode="A" d="M1255 8l115 -4v-4h-717v4l115 4q62 3 97.5 63t35.5 138v381h-375q-30 -99 -59.5 -175.5t-73.5 -157t-93 -133t-117 -86.5t-146 -34q-151 0 -238.5 76.5t-87.5 185.5q0 83 42.5 133t76.5 50q7 0 -2 -4q-70 -37 -95 -96q-16 -37 -16 -83q0 -99 86 -169t207 -70 q76 0 144 53.5t114 146.5q49 100 141.5 381.5t157.5 417.5q60 124 127.5 208t159.5 134q27 14 27 33q0 7 -13 12.5t-37.5 8.5t-49 5t-59.5 2.5t-56.5 1t-52.5 0t-35 -0.5v4h552v-4h-8v-1223q0 -82 32.5 -139t100.5 -60zM901 662v708q-49 -30 -85.5 -73t-79.5 -127.5 t-99 -229.5q-26 -70 -88 -278h352zM1098 1077v281q-4 -2 -17 -15q-37 -40 -69 -102q-29 -51 -60 -141q-8 -33 19 -39q11 -2 104 12q11 0 23 4zM1075 1294q5 19 23 19q-7 0 -13.5 -7t-5.5 -22q0 -8 5.5 -32.5t-1.5 -26.5q-8 -11 -22 -15q1 -1 8 -7.5t8 -12.5v-2q0 -6 -6 -10 t-14 -4q-5 0 -10 5t-5 9q0 -3 6 -7.5t13 -4.5q9 0 13 6t-1 12q-2 2 -5.5 5t-5.5 5t-3 6l-12 -4t-13.5 -5t-10 -5.5t-9.5 -7.5q-10 -12 -6.5 -28.5t14.5 -22.5q16 -7 28 -6t20 5l7 5l-7.5 -5t-20 -7t-29.5 4q-16 7 -20.5 24.5t10.5 40.5q13 14 37 21t30 22q2 7 2 29 q-1 -4 -10 -13q-4 -1 -15 0.5t-12 -2.5q-8 -3 -6.5 -13.5t6.5 -12.5q-12 5 -11 18t13 15q5 1 12.5 -1.5t12.5 -0.5q8 3 8 14q-4 12 -2 20zM1083 1188q-2 -2 -6 2h6l2 2q0 -2 -2 -4zM1098 973v96q-11 0 -27 -4q-72 -15 -139 -25h-4h-4h-2v-45q32 -45 59 -137q0 -1 1 -2t1 -2 v-2q10 -30 10 -37q-2 4 -6.5 16.5t-7.5 18.5v4l-2 2q-27 68 -55 127v-57l65 -158l6 10v2q2 0 4 2q4 2 20 11t27 16q10 3 28 10.5t26 9.5v127q-5 15 -13 31l-2 2l-2 4l-16 35q4 -4 7.5 -9.5t7.5 -12.5t7 -11q3 -2 3 -4t2 -2zM1040 979l2 -2q0 -1 1 -2t1 -2q21 -46 31 -84 l2 -4l6 -35q-2 6 -5 17t-5 16v4q-2 0 -2 4q-5 19 -35 80v6l-22 45q18 -22 26 -43zM1028 874q0 -2 2 -6q6 -21 6 -37q0 16 -12 37v4q-15 40 -35 82v4q-2 2 -2 5l-22 51q13 -16 28 -49q2 -2 2 -4l2 -3q26 -62 31 -84zM1098 694v117q-52 -16 -54 -16q-30 -16 -38 -31 q15 -48 24 -59l6 -9q6 -2 23 -2h24h15zM1098 629v53q0 -4 -2 -6q-4 -16 -4 -25q0 -13 6 -22zM1098 510v84h-4q-6 -11 -15 -30.5t-10 -22.5v-2q-4 -4 -4 -15q4 0 6 -2zM1098 23v464q-13 0 -19 -2q-12 -1 -35.5 -12t-35.5 -20q-45 -60 -56 -107q-3 -20 -6 -72 q-9 -101 -16 -251h168z" />
<glyph unicode="B" d="M844 815q158 -31 235.5 -126t77.5 -265q0 -209 -120 -316.5t-339 -107.5h-651v4l115 4q45 2 74.5 36t40 72.5t14.5 84.5v991q0 96 -32.5 164.5t-96.5 68.5l-113 5v4h649q89 0 164.5 -33.5t124.5 -103.5t49 -164q0 -50 -3.5 -87t-15.5 -76t-32.5 -66.5t-56 -51 t-84.5 -37.5zM426 1192v-361q23 0 84.5 -1t97.5 -1q27 0 39 2q187 21 187 285q0 69 -16 122t-40 83.5t-56.5 50.5t-61 26.5t-58.5 6.5h-61q-35 0 -59 -16.5t-35.5 -48.5t-16 -66.5t-4.5 -81.5zM778 1391l37 -97q22 -32 31 -80l4 -10v-2h2l18 2l-16 -8h-2q29 -119 66 -287 q8 -10 14 -26l24 22l-10 6l-20 2l22 2l10 -2l3 -2q2 2 2 4v7l-2 2v2l-3 4q-1 1 -2 4.5t-2 5.5l-10 33l-29 98l-38 143l-52 164zM530 33h72q21 0 39.5 1.5t53 9t62 21t59.5 41t53.5 65t36 97t14.5 133.5q0 81 -20 148t-50.5 109.5t-70 72.5t-75 44t-69.5 18q-10 2 -27 2h-182 v-586q0 -3 1.5 -26.5t2.5 -33t5 -32t11 -33.5t17.5 -25t27.5 -20t39 -6zM907 774l11 -18l4 -2h8l2 -2l-4 10l-4 6q-1 0 -3 1t-3 1zM938 762q-2 2 -6 2l6 -8v6zM946 752h10q-2 2 -2 4l-8 4v-8zM977 743l-10 2q-12 -3 -27 0q-9 0 -18 3q0 -2 -1 -6t-1 -5q2 -2 8 -2q27 -9 57 4 q-4 4 -8 4zM993 729l4 2q0 1 -2 2t-2 2l-32 -10h-21l-18 4v-2q2 0 5.5 -1t4.5 -1q22 -9 61 4zM1008 725q-1 0 -3 1l-4 1q-1 0 -5 -2t-11.5 -4.5t-15.5 -3.5q-13 -2 -39 2h-4v-6h26q28 0 56 12zM1020 717q-2 0 -6 4q-7 -3 -25 -8q-30 -6 -61 -6v-7h14q33 0 62 13q12 0 16 4z M1120 305q2 2 2 6q0 2 1 6.5t1 6.5q-34 74 -43 108q-33 117 -53 232q-8 33 -10 47l-6 -4h-4q4 -16 4 -27q38 -176 51 -227l6 -25q5 -12 12 -37q8 -22 39 -86zM1014 623l-6 47q-2 2 -2 8q-1 4 -2.5 13t-2.5 14q-2 -1 -2 -3h-4v-6l6 -20q1 -7 11 -47zM1057 164l12 18 q0 8 1 24.5t1 24.5q0 12 -1 34t-1 30q0 16 -2 24q0 21 -2 29q-6 42 -18 96q-1 4 -7 27t-8 37q-4 26 -8 37q0 3 -1 7.5t-1 6.5l-6 27q-21 80 -23 88q0 6 -4 22q0 2 -2 4q-2 -2 -8 -2q-2 0 -2 -2v-4l6 -20q5 -26 8 -33q0 -2 1 -6t1 -6t1 -5t1 -4q2 -10 7.5 -30.5t7.5 -30.5 l6 -29q1 -2 2 -6t2 -6l6 -4l-4 -6q4 -22 8 -33v-6q0 -9 4 -29q20 -88 21 -92v-6q4 -46 4 -86v-23q0 -47 -2 -67zM989 537l8 4q-4 17 -8 59q-2 4 -2 16q-1 3 -2 10.5t-2 10.5q0 8 -4 20q0 2 -1 6.5t-1 6.5l-6 22v4h-4v-2q0 -4 1 -13t1 -13q1 -6 2 -19.5t2 -19.5l12 -92h4z M942 694h-2q2 -4 2 -12v12zM963 641v8q0 13 -2 19v26h-9q-2 0 -4 -2q0 -7 1 -21.5t1 -21.5t1 -23t1 -24q0 -12 1 -38t1 -38l7 15l2 4l4 -2l-2 20v4q0 14 -1 38.5t-1 35.5zM971 592q0 -5 1 -15t1 -14t1 -12t1 -12l4 -2q-4 17 -8 55zM1114 281q4 8 4 14q-42 82 -55 133 q-25 94 -35 145q16 -89 27 -137q18 -61 30 -84q3 -7 13.5 -32.5t15.5 -38.5zM1006 530l2 -10q-1 6 -2 18t-2 17l-3 10zM1001 518l-4 17l-16 -7l-16 11l-7 -19l-18 -4l6 -16l-8 -17l16 -6l4 -18l17 6l16 -8l8 16l17 4l-6 19l10 14zM1016 492l4 -9q0 2 -1 7t-1 8l-2 -2v-4z M942 436v-57q4 11 8 37v57l-4 2q-2 -10 -2 -29q-2 -4 -2 -10zM1018 473v-45q0 -3 8 -55q0 8 2 12v23q0 2 1 4.5t1 3.5v22l-6 29q0 1 -1 3t-1 3h-4zM1010 362v-18l2 -2v-27q0 -29 -2 -43h4v2l6 2h2q0 4 1 11t1 10v18q0 19 -2 29q0 12 -2 18q0 3 -1 9.5t-1 9.5l-2 14 q-1 5 -2 16t-2 17l-6 41h-2l-5 -6v-4l-4 -6q2 -6 2 -17q1 -8 4 -21.5t4.5 -23.5t2.5 -18q0 -9 2 -11zM924 127l2 -8l8 24q18 75 20 86l7 27v2h2q8 37 20 111l6 34q0 7 1 18t1 15q0 3 -1 8.5t-1 8.5l-6 4l-2 -2q0 -4 -1 -13.5t-1 -13.5q0 -9 -4 -29v-57q-2 -23 -21 -74 q-1 -1 -2 -4t-2 -4l-6 -29q-5 -18 -12 -49.5t-8 -34.5l10 -4zM952 305l4 -8q2 2 5 8q1 4 8 37v115l-6 -2l-5 -2h-2v-109l-2 -14l4 -2l7 -2l-11 -17l-2 -2v-2zM995 408l-6 -39q0 -2 1 -5t1 -4q0 -3 -1 -8.5t-1 -7.5q0 -12 -1 -25.5t-2.5 -29.5t-2.5 -25l6 19l6 -2q0 3 1 9.5 t1 10.5q4 28 4 43v16zM1051 250v4q0 52 -4 92q0 15 -13 62v-39q8 -47 8 -78v-6q0 -4 -1 -14t-1 -15zM1100 238l6 14q-28 73 -33 90q0 -5 1 -20t1 -25zM954 291l-4 6l-2 8l-2 2l4 6l6 11l-4 2l-12 4q-1 -8 -4 -24.5t-4 -24.5q0 -2 -1 -5.5t-1 -5.5l6 17h6zM1001 276l3 -2v17z M944 262q5 20 4 23l-8 -2l-8 -21q-4 -6 -8 -18q-9 -31 -33 -78l6 2l14 27q23 45 33 67zM1014 197l6 -2l2 4l2 8l2 4h2l6 2l8 2l-6 14l-2 2l2 5l8 12l-12 4l-2 2v2l-2 6l-2 10h-4l-2 -2l-8 -2l-2 -2h-2l-2 2h-2l-3 2l-6 4l-2 2l-8 -18h-4l-12 -4l4 -12l2 -4l-4 -7l-6 -10 l4 -2l12 -4l2 -8l2 -6l2 -4h2l2 2l4 2h2l4 2h5l2 -2zM1040 231l7 -14q4 20 4 31zM963 84v10q0 1 1 3.5t1 4.5q2 5 6 31l10 62l-4 16h-2l-6 -39q-5 -31 -13 -59l-4 -25l-2 -6h6q1 0 3.5 1t3.5 1zM1032 139q11 53 12 72l-12 -4q-1 -5 -1.5 -15t-1.5 -18.5t-3 -15.5l-6 -33 q7 5 12 14zM1014 190l-6 5l-4 2l-3 2q0 -15 -4 -35l-10 -55q-2 -4 -2 -11q2 2 4 2q0 2 2 2q6 6 8 7zM977 94q0 3 4 15l10 55q0 11 4 31l-4 -2h-4q-10 -61 -10 -62l-6 -31q0 -6 -2 -8v-4l2 2q2 0 6 4zM924 111l-6 16l10 16h-6l-13 4v3l-4 16h-2l-10 -6h-4q-14 -23 -35 -47 l6 -2l2 -2l2 -5l2 -12l17 6l16 -10v2l8 16h4zM918 84l2 4q0 6 4 16l-15 -2l-2 -10l-2 -6z" />
<glyph unicode="C" horiz-adv-x="983" d="M907 1042q2 -12 48 -14t91 2l46 4q-1 -3 -4 -7.5t-11.5 -18.5t-17.5 -24.5t-22.5 -24.5t-26 -19.5t-28.5 -9.5t-30 6q-58 30 -125.5 38t-114 1t-97 -18.5t-62.5 -12.5q-25 -1 -62 30t-61 62l-24 31q13 -4 35 -10t74.5 -15t88.5 -6q30 3 70 13q15 30 20 41t16.5 39.5 t12 45.5t0 41.5t-12.5 46.5t-32 44q-74 80 -165.5 81t-160.5 -71q-168 -168 -168 -582q0 -59 1 -96t5.5 -99.5t15.5 -107.5t29 -97t48.5 -93t70.5 -72q170 -128 357 -8q194 128 194 487q0 3 2 3t2 -3q0 -74 -3 -132.5t-12.5 -129.5t-26.5 -125t-48 -108t-72.5 -88.5 t-103.5 -56t-139 -21.5q-222 0 -356 199.5t-134 547.5q0 318 132.5 511.5t357.5 193.5q97 0 172.5 -34.5t116.5 -81.5t68.5 -107t35.5 -101t10 -74zM801 1030l4 4q0 1 1 2t1 2v2v2h-4q-6 0 -10 -4l-15 -10q2 6 6 10q1 0 3.5 1t3.5 1l18 9v4q0 1 -1 3t-1 3h-14q-7 0 -15 8 q-2 5 0 10h2q13 0 23 -10l-2 2v2l-4 4q0 1 -1 2t-1 2h-2q0 6 -11 13q-15 15 -41 18q-2 -4 -2 -12q0 -5 6 -17l5 -6v-6q0 -1 1 -3.5t1 -4.5q0 -4 -2 -6v-17v-2v-8q2 -5 5.5 -9t6 -6t2.5 -3q27 8 35 16q0 1 1 2t1 2zM829 1081l-2 -4q9 -9 9 -14q7 7 8 10q0 1 1 3t1 3q4 8 8 2 q2 0 2 -6l-6 -8q-6 -6 -14 -8q2 -4 2 -8q0 2 5 2.5t7 -0.5h2q8 -8 12 -6q-6 -3 -12 -3q-1 0 -2.5 2t-3.5 3q-4 2 -8 -5v-6h4q6 -2 14 -2h8l4 2q4 0 4 17q0 8 -2 14q-6 15 -24 39q-2 0 -8 -6l-7 -15q0 -1 -1 -3t-1 -3zM748 1057v4q0 6 -3 6q-1 2 -2 5.5t-2 4.5q-21 7 -45 19 q0 -33 -8 -43q6 -17 55 -17v2q0 11 2 15q-14 0 -30 8q-4 0 -6 2q2 -2 8 -2q10 -4 31 -4zM874 1081l3 -14l2 -4v-16h14l4 6l4 2l-6 41zM821 1073h-4q-8 0 -10 -2q0 -4 2 -4v-2q0 -1 1 -2t1 -2l4 -8v-11q-2 0 -2 -4l-2 -2l-2 -2q8 0 12 2q1 0 4 1t6 1t3 2q2 0 2 4q0 2 -5 17 q-2 6 -6 10h-2h-2v2zM864 1047q0 4 2 4q-2 -2 -2 -4zM807 1028q0 -15 20 -22q4 -2 46 -8t63 -23q-2 4 -8.5 9t-12.5 8l-6 3q-11 7 -51 11q-23 3 -35 26q-8 -4 -14 -4h-2zM967 954q17 1 29.5 7.5t15.5 12.5l4 7q-7 5 -19.5 12t-43 18.5t-52.5 10.5q-35 -3 -41 8h-4h-10 q12 -18 47 -20q25 -1 49 -8t37 -16t10 -15q-5 -14 -22 -17zM946 965q2 -1 5 2t5 7l2 3q-1 0 -2 -1t-4.5 -2.5t-6 -2.5t-5.5 -2t-4 0q-2 0 -3 1l-4.5 4.5t-8.5 6.5q-4 1 -9 3.5t-8.5 4t-7.5 2.5q25 -12 27 -20l18 -15q0 9 6 9zM956 965q-1 -4 3.5 -5t9.5 1q16 5 16 10 q1 3 -2 4.5t-10 3.5q-4 1 -8 -2.5t-7 -7.5z" />
<glyph unicode="D" horiz-adv-x="1085" d="M8 1434h332q98 0 173.5 -7t153.5 -26.5t134.5 -53t108 -88.5t83 -131t50 -182t18.5 -239q0 -189 -48.5 -326t-143.5 -220t-224.5 -122t-300.5 -39h-336v4q72 0 116 62.5t44 201.5q0 30 -4 453t-4 545q0 164 -105 164h-47v4zM297 1317q0 7 -1.5 15.5t-3.5 17t-3 12.5 q0 8 6 14q4 4 14 4h17q-9 15 -21 15q-6 0 -18 -6q-7 -5 -13 -10.5t-9.5 -9.5t-6.5 -10.5t-3.5 -9t-2.5 -9t-2 -7.5q-1 -1 -2.5 -4.5t-3.5 -5.5q-1 0 -2 -1t-2 -1v12q4 8 4 10l-4 -8q-7 -7 -9 -8h-2q-5 0 -8 6q-2 0 -2 10q0 13 8 21q11 12 9 14q0 6 -3 6q-5 5 -8 5 q-11 0 -39 -17l-2 -2h4q18 6 19 6q2 0 3.5 -1t2.5 -1q4 -4 4 -8l-2 -4q-2 -4 -4 -12q-9 -13 -14 -29q-19 -44 -19 -86q0 -4 1 -12.5t1 -12.5q6 -36 31 -65q31 -36 35 -45q12 -27 12 -56q0 -14 -2 -22q10 20 10 41q0 49 -41 94q-14 14 -14 35q0 23 14 37q13 16 29 16h8 q4 -2 10 -2q20 0 35 12q19 11 19 31q0 4 -2 4l-7 -6q-22 -22 -49 -22q-12 0 -14 6q-2 2 -2 6l4 4q1 0 4.5 -1t5.5 -1q16 0 27 18q4 8 4 23zM342 1382v-1321q7 -1 19.5 -2.5t50.5 -1t75 5t87.5 19t94 38t87.5 65.5t75 97.5t50.5 138t19.5 183.5l-2 264q-2 106 -25.5 190.5 t-55.5 137.5t-85.5 90.5t-95 55.5t-104.5 28t-94 11t-83 1h-14zM182 1364v-2q6 -6 11 -6v2q-7 0 -7 4zM248 1356l-2 -4zM252 973q-2 5 2 31q-4 -25 -8 -29q-6 -11 -13 -6q-18 12 -26 20q18 -18 22 -24q7 -7 -2 -13q-5 -5 -14 -8q6 2 14 2q13 3 13 -6v-8l4 6q3 9 12 6l2 -2 q1 0 2 -1t2 -1q2 0 2 -2q2 -1 4 -3t4 -3q-4 2 -8 10l-2 2l-2 2q-2 0 -2 2q-3 3 0 6q0 5 4 7l12 4q-6 -2 -12 -2h-2h-4q-2 0 -2 4q-2 0 -2 6zM281 932l2 -2q4 4 24 16q-20 -12 -26 -14zM211 944l-8 -2q6 0 8 2zM236 928v2q-19 6 -25 10q5 -3 13.5 -6.5t11.5 -5.5zM242 905 l-11 -8q3 1 5.5 2.5t4.5 2.5t3 1q10 0 12 -2q0 -1 1 -3t1 -3q4 -8 4 -23v17q0 4 2 6v4q3 6 12 4h5q1 0 3.5 -1t4.5 -1l-10 6q-8 8 -5 11q0 4 2 6h-2q0 2 -2 2q0 2 -2 2q-6 -3 -10 8q-1 0 -2 1t-2 1v-4q-3 -8 -12 -8q0 -2 -2 -6q8 -3 0 -15zM225 618l21 -14q14 -7 22 -20 q13 -15 21 -56l6 -28q2 -12 2 -35v-4v-2v-4v-6v-5h8h2q4 0 6 2v13v2v8v4q-2 8 -2 29q-1 4 -2 12.5t-2 13.5q-13 49 -24 66q-8 14 -25 25t-18 12q-9 3 -15 12q-6 18 -6 31v4q0 18 10 35q4 7 12 14t19 16t16 13q20 20 21 22q12 20 12 33v8q0 34 -18 70l-6 8q-4 4 -13 4h-4v-8 q25 -38 25 -74v-6q-3 -20 -14 -33q-4 -6 -12.5 -13t-19 -15t-16.5 -13l-20 -24q-10 -20 -10 -37v-4q3 -20 10 -39q3 -10 14 -17zM311 889l-16 10q4 -4 16 -10zM326 430v41q-5 -2 -7 -2v-8v-2l3 -8v-7h-5q-8 -4 -12 -4l-12 4v2v5v2v6q-13 -3 -21 -15q-2 0 -6 -4q0 -4 -2 -4 q0 -4 -2 -4v-6l6 -6q6 -2 17 -2q18 0 34 8q7 0 7 4zM326 283v141l-4 -4q-18 -6 -37 -6q-13 0 -17 2q-2 0 -4 2z" />
<glyph unicode="E" horiz-adv-x="1085" d="M371 49h444q74 0 -10 94l-39 39l235 -182h-1073v4q248 0 248 166v1073q0 105 -28.5 146t-104.5 41h-115v4h1073l-235 -181l40 40q79 90 9 91h-444v-616h313q21 0 34.5 2.5t34.5 12.5t32.5 38t11.5 72q0 3 2 3t2 -3q0 -137 127 -137q6 0 6 -2t-6 -2q-127 0 -127 -142 q0 -4 -2 -4t-2 4q0 45 -11.5 74t-32.5 39.5t-34.5 13t-34.5 2.5h-313v-690z" />
<glyph unicode="F" horiz-adv-x="942" d="M901 756q6 0 6 -2t-6 -2q-127 0 -127 -142q0 -4 -2 -4t-2 4q0 45 -11.5 74t-32.5 39.5t-34.5 13t-34.5 2.5h-290v-573q0 -70 -70.5 -118t-136.5 -48h-236v4h115q36 0 63 20.5t41 53.5t20.5 64.5t8.5 64.5v973q0 47 -2 79.5t-10 67t-22 55.5t-39 34.5t-60 13.5h-115v4 h1084l-217 -185l40 41q83 92 11 92h-475v-614h290q21 0 34.5 2.5t34.5 12.5t32.5 38t11.5 72q0 3 2 3t2 -3q0 -137 127 -137zM274 750l7 -7l16 -16q-11 18 -14 35q0 2 -1 7.5t-1 8.5q-3 21 0 31l2 6q0 -34 10 -57q2 -5 6.5 -11t12 -13t10.5 -11l-11 33q-2 14 -1 25.5t3 18.5 l2 7q-2 -32 4 -55q3 0 7 -9q0 -4 2 -6v361l-11 -27l-20 31l-16 10q-1 -1 -5 -2.5t-6 -3.5q-2 -3 -11 -13t-15 -18q-28 -40 -33 -90q0 -2 -2 -4q-2 -14 -2 -39v-16q7 -119 18 -148q12 -45 49 -59l9 -2l-9 6q-54 68 -34 143q0 -82 34 -116zM270 668q4 21 2 43l-14 8 q-28 17 -43 57q-8 34 -18 148v18q0 19 4 47q-6 9 -8 15v-383l2 -39q2 10 2 28q0 9 8 28.5t16 34.5l8 15q-20 -47 -20 -86v-22q1 2 3.5 12t8 19t19.5 26q18 28 18 82q0 -3 1 -16t1 -24t-2 -15q-1 -4 -11.5 -29.5t-13.5 -44.5q-1 -6 -4 -15l-4 -12q21 30 31 60q12 30 14 45z M301 684l2 -592q31 21 31 55l-8 480v6l-7 -25v47q0 17 -18 29zM223 63l2 482q-2 -4 -8 -10q-10 -17 -10 -33v-47l-10 24v-211q-4 -208 -7 -229h9q8 5 24 24z" />
<glyph unicode="G" horiz-adv-x="1024" d="M1077 1032q20 15 19 7q0 -4 -6 -13q-16 -23 -36 -38.5t-51 -23.5t-63 11q-43 19 -79 14.5t-60.5 -20.5t-24.5 -31q0 -3 -1 -3t-1 3q0 30 21 48t46.5 24.5t46.5 17t21 27.5q0 81 -80 182q-62 80 -155 110.5t-188.5 4.5t-163.5 -103q-73 -84 -106.5 -223.5t-33.5 -284.5 q0 -163 47.5 -336t135.5 -260q56 -59 160.5 -67.5t181.5 31.5q54 23 98 79v408q0 13 -1.5 21t-7 16t-19 12t-34.5 4h-61v4h381v-4h-45q-60 0 -60 -53v-608q-4 3 -11.5 8t-28 22t-39 36t-39.5 48t-35 60q-47 -63 -111 -109q-81 -56 -184 -54t-213 60q-85 44 -148.5 136 t-93.5 196q27 -1 33 -8.5t6 -34.5q0 28 7.5 35.5t35.5 7.5q-28 0 -35.5 7t-7.5 36q0 -30 -6 -36.5t-33 -6.5q-47 164 -45 350q2 145 53.5 294t167.5 268q128 131 308.5 138t304.5 -112q117 -114 117 -274q0 -33 42.5 -40t73.5 17zM70 928h18q-2 -23 -10 -30t-35 -7 q30 0 37.5 -7.5t7.5 -37.5q0 25 5 34.5t20 10.5h18q-12 0 -18 2q1 23 9 29t36 6q-30 0 -37.5 7.5t-7.5 37.5q0 -25 -5 -33t-20 -10q-3 0 -8.5 -1t-9.5 -1zM113 893q-15 1 -20 8.5t-5 26.5q14 -2 19.5 -9.5t5.5 -25.5zM61 813l-20 -35l20 -37h41l19 37l-19 35h-41zM135 700 h31q-1 12 -2 36t-2 34h-27l-20 -35zM61 727l-20 -37l20 -37h41l19 37l-19 37h-41zM176 610l-8 72h-29l-18 -37l18 -35h37zM41 602l20 -35h43l19 35l-19 35h-43zM121 453q0 29 7 36t36 7q-29 0 -36 7.5t-7 35.5q0 -28 -7.5 -35.5t-35.5 -7.5q28 0 35.5 -7t7.5 -36zM207 426 h-37l-20 -35l20 -35h41l12 19q-11 31 -16 51zM197 246q0 30 7.5 36.5t37.5 6.5q-28 0 -36.5 8t-8.5 35q0 -28 -7.5 -35.5t-37.5 -7.5q32 0 38.5 -6t6.5 -37zM225 152q0 29 7.5 37t35.5 8q-28 0 -35.5 7.5t-7.5 37.5q0 -31 -7 -38t-36 -7q29 0 36 -7.5t7 -37.5z" />
<glyph unicode="H" horiz-adv-x="1331" d="M1100 1161v-952q0 -53 12 -95.5t44.5 -74t82.5 -31.5l115 -4v-4h-637v4l114 4q47 0 78 32t43 75t13 96v459h-559v-465q-1 -44 10.5 -87t43.5 -76.5t79 -33.5l114 -4v-4h-635v4l115 4q48 3 80.5 39t43.5 78t11 86v954q0 33 -5 68t-17 76.5t-39.5 70t-65.5 33.5 q-76 11 -141.5 27.5t-130.5 42t-103 63.5t-38 84q0 41 22 73t56.5 52t83.5 34.5t96 21t101.5 9t93.5 2t77 -2.5v-2q-87 4 -172 -2.5t-164.5 -24.5t-128.5 -56.5t-49 -91.5q0 -41 28.5 -74.5t74 -54.5t100.5 -37t110 -23.5t100.5 -12t74.5 -5.5l28 -1h395v-4q-75 0 -129 -5 q-120 -8 -120 -260v-389h559v385q-2 2 0 27t-5.5 64.5t-19 77t-41.5 65.5t-72 30l-114 5v4h641v-4l-115 -5q-34 -1 -58.5 -12.5t-39.5 -34t-23.5 -43.5t-12 -57t-4.5 -57t-1 -60zM311 647q-19 -6 -20 -25t8 -36t18 -25q6 -7 11.5 -23.5t7.5 -29.5l2 -12q31 46 33 55 q1 3 4 7.5t4 7t2.5 7t1.5 9t-1 10.5t-3 14q-3 20 -17 22q-16 2 -21 -20l-1 -12q0 17 -8 36t-21 15zM297 551q-10 7 -13 -2q-1 -9 7 -10q5 0 11 -3.5t10 -7.5l3 -4q4 38 -14 41q-7 0 -5 -11q1 -2 1 -3zM393 524q5 3 1 7.5t-11 -1.5q-3 -1 -8 -6.5t-9 -10.5l-4 -5 q8 5 17.5 -3.5t11.5 -8.5t4 3t0 7q-1 4 -5 6.5t-8 3.5h-3q12 0 14 8zM393 432q9 35 -10.5 53.5t-37.5 -10.5q-9 -14 -15 -37q14 57 -9 72q-15 11 -28 -8q-7 -12 -8 -31q-1 -65 14 -125t31 -76v13q5 51 24 90q7 16 20.5 27t18.5 32zM406 39q-20 26 -27.5 70t-6 78t6.5 87 q10 41 10 82q0 25 -6 25q-20 0 -43 -100q-8 -36 -8 -80q0 18 -2 28q-2 5 -15 50q-4 5 -8.5 12t-7 9.5t-6.5 2.5q-5 0 -8 -33v-20q0 -68 44.5 -132t76.5 -79z" />
<glyph unicode="I" horiz-adv-x="614" d="M377 1147v-940q0 -194 127 -199l110 -4v-4h-618v4l115 4q131 5 131 201v952q-2 2 0.5 27.5t-5 65.5t-18.5 78t-40 65.5t-70 27.5q-37 0 -66 1.5t-39 2.5l-10 1v4h620v-4l-129 -5q-27 0 -47.5 -9.5t-32 -29.5t-18.5 -40t-9 -51t-2.5 -51t0.5 -52.5t1 -44.5zM315 1159l23 6 q18 14 20 45l-1 3q0 -2 -1 -5q-4 -16 -41 -22h-10l10 33l7 22q-5 -4 -7 -8q-8 -8 -12 -10h-4q-5 1 -3.5 14.5t7.5 26.5q4 4 4 10q8 8 -4 20q-4 9 -11 12v-1q1 -1 3 -2q10 -11 6 -17.5t-33 -28.5q-3 -2 -6 -6.5t-8.5 -18.5t2.5 -28q1 -6 2 -22.5t2 -24.5q0 -9 -1 -23t-1 -18 q5 30 35 37q2 0 5.5 1t4.5 1q2 1 6 2t6 2zM326 1087q-20 -15 -25 -20q-12 -4 -14 -12q6 6 14 12q4 2 21 4.5t22 9.5q13 15 8 54q-1 11 -2 2q-3 -33 -24 -50zM330 758q25 44 26 91t-26 81q-29 32 -43.5 61t-15 49.5t6.5 37t19.5 25t26.5 11.5q-39 -1 -56 -19t-14 -35l2 -18 l2 -67q0 -2 2 -2l12 -12q21 -17 29 -58q14 -41 14 -86q0 -39 -6 -59q-4 -17 -11.5 -30t-20 -26.5t-13.5 -15.5q33 17 66 72zM258 961l6 -254l4 4q20 17 31 51q6 54 6 55q0 33 -14 82q-11 40 -33 62zM330 633q-9 -3 -10 -1.5t6 11.5q19 27 22 45q3 16 -8 3l-12 -16 q-21 -30 -27 -30q-6 1 -8 7.5t3.5 18t18.5 23.5l-17 -16q-23 -27 -28 -55q-8 -37 4.5 -108.5t38.5 -111.5q30 -53 2 -108q-15 -26 -45 -45q50 29 62.5 82t-15.5 119q-42 101 -2 112q10 1 19.5 -3t13.5 -8l4 -5q0 2 -0.5 5t-2.5 11t-5 12t-9.5 8t-15.5 -1q-9 -4 -9 0 q0 3 12 21q27 41 30 61l-1 -2q-10 -26 -21 -29z" />
<glyph unicode="J" horiz-adv-x="901" d="M446 1425q-38 0 -66.5 1.5t-37.5 2.5l-10 1v4h626v-4q-28 -5 -114 -5q-27 0 -48 -7.5t-34.5 -17t-23.5 -30.5t-15 -34.5t-8 -43t-3.5 -42.5t-0.5 -47.5v-43.5v-577q0 -14 1 -56t1 -69.5t-2.5 -74.5t-7.5 -80t-16.5 -77t-28 -74.5t-42.5 -63t-59 -52.5t-79.5 -32.5 t-102.5 -12.5q-110 0 -184 23t-112 68.5t-53.5 96t-19.5 123.5v137q8 1 22 1.5t52 -3.5t69.5 -15t65.5 -38.5t51 -68.5t13.5 -110.5t-35.5 -158.5q0 -5 18.5 -15.5t48 -17.5t65.5 -7t72 23t65.5 65t48 126.5t18.5 200.5v741q0 41 -1.5 71t-9 69t-21 64t-40 42.5t-62.5 17.5z M606 1393l19 -23h43l18 23h-80zM696 1386l-18 -24v-43l18 -10v77zM598 1374l4 -6l6 -8q6 0 10 -4v4l-20 22v-8zM635 1321l6 8l4 8l4 -4l19 -10v37h-39v-39h6zM596 1335v-4l2 -2q2 -2 4 -2q2 -2 4 -2q1 0 2 1t2 1q6 3 6 6v2q0 3 -3 5.5t-5 2.5l-2 7q-1 0 -2 -3.5t-2 -3.5 t-2 -1t-2 -1l-2 -2v-4zM641 1135q2 0 5 1t5 1q18 9 19 10q1 0 2 1t2 1l2 4q8 8 8 23q0 10 -4 22q-2 5 -6.5 16.5t-5.5 14.5q-1 1 -3.5 4.5t-2.5 5.5q-4 4 -7 10l-6 13q-6 12 -8 18h-2l-4 6q0 1 -1 3t-1 3l-4 8v5q-4 4 -4 6l-7 8q-8 -4 -12 -4q-2 0 -4 2v-139q0 -14 6 -23 q0 -5 6 -8q16 -12 27 -12zM698 1292l-2 4l-28 15l-11 6l-8 2h-2v-2l-4 -6l-2 -6h-2q2 0 2 -2q3 -3 6 -11v-6l2 -2q0 -1 1 -2t1 -2q18 -26 23 -39l22 39l2 6l4 6h-4zM610 1217q0 -45 31 -54q2 -2 8 -2q-1 -3 -8 -6q-15 0 -25 14q-6 9 -6 48zM676 1108q12 0 12 16q0 13 -10 13 q-1 -1 -16 -11l-3 -2q0 -6 5.5 -11t11.5 -5zM639 1075q12 0 12 17q0 14 -12 14q-14 0 -14 -14q0 -17 14 -17zM604 1047q0 -21 17 -21q12 0 12 21q0 12 -12 12q-17 0 -17 -12zM637 985q12 0 12 12q0 15 -12 15q-14 0 -14 -15q0 -12 14 -12zM672 868q14 0 14 19q0 14 -14 14 q-5 0 -10 -5t-5 -9q0 -8 5 -13.5t10 -5.5zM616 598q15 0 15 14q0 5 -4.5 10t-10.5 5t-10 -5t-4 -10q0 -14 14 -14zM102 387l2 -2v-8l13 -35l49 -10l24 28l5 7l6 4zM23 307h10l37 -8l34 39l-14 37l-2 6l-2 4zM207 360l-6 -8l-27 -26l16 -47l37 -9h11zM164 322l-49 8l-35 -39 l20 -49l47 -9l33 41zM61 211l23 27l-16 51l-37 6h-6l-5 2l35 -96zM174 180l64 74l-5 2h-8l-37 12l-30 -41l12 -37zM162 180l-2 6l-17 37l-45 6l-28 -26l-4 -6l-3 -4l99 -17v4zM115 141l-4 9l-15 -17h6l2 -2zM139 141l4 9h-20v-5zM162 121l-8 20l-2 -4l-5 -4l7 -10zM123 133 l-8 -10l4 -12l12 -2l10 10l-6 12zM106 106l-2 13l-6 2h-8l12 -25zM160 111h-4l-4 2l-11 -17v-6zM133 86l-2 4l-2 2l-12 2l-4 -2l-2 -2z" />
<glyph unicode="K" horiz-adv-x="1310" d="M1096 0h-336v4q13 0 28.5 2t31.5 7t24 13.5t2 20.5q-7 15 -137.5 281t-169.5 348q-43 -65 -112.5 -170.5t-82.5 -124.5v-172q0 -82 32.5 -141.5t100.5 -59.5l113 -4v-4h-625v4l115 4q70 3 101.5 61.5t31.5 141.5v954q0 30 -0.5 46.5t-4 52.5t-12 59t-22.5 48.5t-38.5 39 t-57.5 14.5l-115 5v4h629v-4l-113 -5q-29 -1 -52 -13.5t-36.5 -26.5t-23.5 -43t-14.5 -44t-6.5 -51.5t-2 -43v-38.5v-540q474 644 496 700q17 46 -16.5 75.5t-80.5 29.5v4h498v-4q-90 0 -138.5 -18t-113.5 -83q-47 -47 -387 -559q67 -139 165 -324.5t181 -306.5 q84 -114 150 -114q89 2 151 60t62 148q0 81 -47.5 136.5t-149.5 56.5q-4 0 -4 1t4 1q118 0 185 -57.5t67 -137.5q0 -93 -71 -163t-199 -70zM291 664l18 -23v244l-18 -27v-194zM270 705l17 -35v182l-17 -29v-118zM250 745l16 -34v108l-16 -26v-48zM236 770l8 -16v30zM309 508 v94l-26 49l-39 -82v-34zM315 489v5l-71 28v-18zM315 469v10l-71 13v-15zM315 451v6l-71 8v-12zM315 430v6l-71 4v-10h71zM244 410l71 2v6zM317 377h-73v-8h73v8zM317 358h-73v-8h73v8zM317 338h-73v-6h73v6zM317 319h-73v-8zM317 293h-73v-8zM317 272h-73v-8zM317 254h-73 v-8zM317 236h-73v-9zM317 193h-73v-9zM317 172h-73v-8zM317 154h-73v-9zM317 135h-73v-8zM317 106h-73v-6zM317 88h-73v-8zM317 70h-73v-9zM317 49h-73v-6z" />
<glyph unicode="L" horiz-adv-x="1187" d="M584 1434v-4l-115 -5q-39 0 -66.5 -22t-41 -59t-19.5 -73.5t-6 -76.5v-989q5 -42 28.5 -98t51.5 -84h520q46 0 73.5 8.5t42.5 30t20.5 47t8.5 71.5q3 85 59 149.5t146 61.5v-2q-76 -4 -111 -54.5t-37 -136.5t1 -204q1 -51 -18 -94t-47.5 -70.5t-67.5 -49t-70 -32.5 t-62 -18q-6 -2 -6 -1t6 3q87 21 142 94q51 67 33 119q-20 55 -113 55h-979v4l117 4q35 1 62 22.5t41 53.5t21 65t7 64v981q-1 50 -17 102t-47 90.5t-69 38.5l-115 5v4h627zM307 1255l-33 -53l-10 -16l-6 -12v-21l6 14l10 15l29 45zM307 1212l-2 -2l-31 -51l-8 -14l-8 -12 v-13l-2 -10l45 68l2 12zM244 1171h-15v-962q1 -10 7 -10q4 0 6 2.5t2 4.5v3v962zM307 1163l-4 -2l-8 -12l-4 -8l-33 -49l-2 -9v-12l43 59l4 19zM305 1118l-49 -65v-23l41 53l6 25zM305 1075l-49 -63v-23l39 47l8 35zM303 1028l-39 -49l-8 -8v-21l37 47zM303 983l-47 -53v-19 l37 43zM252 305v-96q0 -8 -4 -14q-10 -5 -12 -5t-6.5 2t-6.5 3l-4 14v96q-4 0 -4 -2v-94l-2 -186h170q-55 91 -55 145q-29 -6 -52 -21q-6 -4 -12 -10l-6 -2l6 8q1 5 6 16t6 13q26 71 9 104q-3 9 -9 15q-16 12 -24 14z" />
<glyph unicode="M" horiz-adv-x="1515" d="M1591 1434v-4l-110 -5q-36 -1 -62.5 -18t-39.5 -39.5t-20.5 -56.5t-9 -57t-1.5 -54v-987q0 -30 0.5 -42.5t3 -43t9 -46.5t17.5 -35.5t30.5 -28.5t45.5 -9l143 -4v-4h-561v4l47 4q47 4 78 40.5t42 79.5t11 87v963q0 32 -3 31l-3 -7l-317 -1018q-8 -28 -9.5 -54t3.5 -53 t25 -45.5t53 -23.5l28 -4v-4h-446v4l41 4q62 6 86 49.5t8 110.5q-14 53 -91.5 346.5t-126 468.5t-69.5 229q-35 91 -62.5 129.5t-58.5 38.5q-20 0 -24 -13.5t-4 -57.5v-1094q0 -35 5.5 -67t18.5 -65.5t41 -54t68 -20.5q27 0 50 -1t36.5 -2t17.5 -1v-4h-520v4q29 4 113 4 q37 0 63.5 20.5t40 54.5t19.5 65.5t8 66.5v905q0 1 0.5 31t0 40.5l-2 42t-5.5 46.5t-10 41.5t-16 41t-23 30.5t-32.5 23.5t-42.5 8.5l-115 5v4h823v-4l-112 -5q-79 -3 -113.5 -58t-15.5 -118q235 -866 276 -1026q13 -43 22.5 -43t22.5 41l312 996q9 30 11 59.5t-4 65 t-37 58.5t-85 25l-111 5v4h643zM1288 881q-12 0 -28 -4q22 -6 22 -33q0 -13 -9.5 -23t-21.5 -10t-20 8v-125h2q4 0 8 4q2 1 12 11q5 2 12 9.5t9 8.5q-14 0 -24.5 10t-10.5 23t10.5 23t24.5 10t23.5 -9.5t9.5 -23.5q0 -3 -4 -15q2 1 2 3h4l16 6q8 0 12 2v39q-9 -9 -20 -9 q-13 0 -23 10t-10 23t10 23t23 10q12 0 20 -8v26q-12 4 -18 4q-18 7 -31 7zM1323 737h-12v-2q-4 0 -8 -4q-11 -11 -15 -22q4 -4 4 -17q0 -14 -10 -41q6 0 16 1t13 1q14 0 16 -2zM1331 643h-20q-21 0 -33 -4h-8l6 -4q12 -12 12 -27q0 -14 -10 -23.5t-23 -9.5h-4q-3 3 -8 3 l-4 4q-5 0 -8 6v-35q4 0 6 2t4 2q2 2 6 2h4q17 0 27 -16l4 -4v-23l-4 -4q-10 -16 -27 -16q-1 0 -3 1t-3 1h-6q-4 2 -6 2q0 1 -1 2t-1 2v-35q4 0 8 2h4q5 0 17 1t20 1h4q-4 12 -4 14v5q0 8 2 12q0 4 2 6l4 4q11 8 23 8q16 0 24 -8v31q-6 -6 -14 -6q-6 0 -8 2q-4 0 -6 2 q-3 0 -7 4q-14 11 -14 26q0 14 10 23.5t25 9.5h4q2 -2 6 -2l4 -2v39q-1 0 -2 1t-2 1zM1294 432l-12 31q-6 -1 -20 -2t-19 -2l-2 -23q0 -8 1 -22t1 -19h8q33 0 49 -4q10 -3 13 -6q-1 4 -8.5 20t-10.5 27zM1251 387h-12q-4 -2 -6 -2h-4v-41q6 6 14 6l2 -2h8q15 -7 19 -18l2 -4 q2 -4 2 -11q0 -13 -9.5 -22.5t-23.5 -9.5q-10 0 -14 4v-31q5 10 22 10q15 0 23 -8q8 -5 8 -18v-13q0 -2 -4 -10h12q40 -4 43 -4v33q-9 -6 -22 -6t-23 10q-8 8 -8 18q0 9 2 13q2 9 10.5 15.5t18.5 6.5t22 -8v37q-17 -13 -26 -13q-2 0 -17 5l-8 4q0 6 -2 8q-6 6 -6 16 q0 21 20 31q-28 4 -43 4zM1280 205h-14q-8 -4 -15 -4q-2 0 -4.5 1t-3.5 1q0 -1 1 -6.5t1 -10.5q0 -29 -14 -59t-24.5 -50t-4.5 -30q16 -20 37.5 -12t34.5 33q6 14 7 40t-1 97z" />
<glyph unicode="N" d="M1356 1430l-115 -5q-25 0 -45.5 -11t-34 -25.5t-23.5 -41.5t-15 -44t-8.5 -50t-4 -43.5t-2.5 -38.5v-1003q1 -35 5.5 -58t17 -48t40 -38.5t70.5 -15.5l72 -4v-4h-613v4q73 0 116.5 28t25.5 72l-445 1156q-15 43 -45 43q-23 0 -29 -25.5t-6 -85.5v-987q0 -83 31 -138.5 t101 -58.5l112 -4v-4h-581v4l69 4q49 3 80 34t42 72t11 93v960q0 51 -6.5 93.5t-21.5 80t-42.5 60t-64.5 24.5l-67 5v4h577v-4q-19 0 -38 -4.5t-37.5 -22.5t-18.5 -47q0 -51 200.5 -574t239.5 -602q13 -28 22.5 -38.5t20.5 -10.5t20 9.5t9 29.5v1004q-2 2 0.5 25.5t-5 61 t-18.5 73.5t-40 62.5t-70 28.5q-78 5 -115 5v4h629v-4zM371 1374q13 -10 18 -22q-2 6 -16 24q-11 11 -17 15q-28 22 -65 22q-5 0 -35 -6q-4 0 -12 -4q-16 -8 -33 -25q-19 -19 -29 -45q-4 -24 -4 -35q0 -8 4 -32q17 -51 62 -70q8 -4 12 -4q15 -6 35 -6q10 0 14 2q0 2 1 10 t1 12q-28 3 -51 19l-12 8q-29 29 -29 70q0 34 29 67q4 4 6 4l6 4q27 19 53 19q19 0 43 -12q12 -8 19 -15zM430 1362l25 -21l-21 23h8l-6 4l27 39l-4 -4l-25 -31q-2 0 -4 2l-6 17l4 -19l-2 -2l-27 4l27 -8l2 -2l-10 -25l10 23h2zM440 1272l-2 16l2 2l-2 2l-8 17l4 -17v-2 l-16 -14l18 12zM260 1108l-16 -2l6 4l-8 -2l-2 -2v-4l2 -2l8 -19l-6 21v2zM287 1018l-15 6q0 2 -2 2l6 16l-8 -14h-2l-12 16l10 -16v-2l-6 2l4 -4l-20 -25l22 23h2l4 -14l-2 14h2zM258 795l43 18v107l-31 -50q-4 -20 -12 -75zM258 856l-65 -96q-3 -53 -3 -98q3 0 3 2l16 26 q27 44 35 78q11 50 14 88zM250 760l47 6l4 6v33l-45 -21q-4 -8 -4 -18q-2 0 -2 -6zM240 733l30 -12q18 26 21 35l-45 -4q-4 -17 -6 -19zM225 700l25 -12l16 25l-28 12q-2 -2 -13 -25zM246 680l-27 12q-4 -12 -8 -16l18 -25q2 5 8.5 14.5t8.5 14.5zM223 645l-18 23 q-11 -21 -15 -21q0 -51 3 -51q10 10 30 49zM309 580v49l-76 8h-4l-34 -51l2 -31zM197 358l34 -28q28 -20 72 -35v29l-27 30l-79 23v-19zM197 338l8 2l-8 8v-10zM213 334l-16 -6v-33l36 24q-1 0 -6 5q-8 4 -14 10zM246 283l12 22q-12 4 -16 8l-39 -24l16 -4t19 -4l6 -5l2 5v2 zM256 283l-4 -9q1 0 3 -1t3 -1q3 -2 21 -6l4 4l2 6l6 13q-2 2 -11.5 5.5t-13.5 6.5zM293 274l-6 -12l16 -6v31h-2l-6 -6zM190 137l115 64l-2 43q-9 5 -39 14l-6 -4l-14 -12l-45 -31v-23q0 -27 -9 -51z" />
<glyph unicode="O" horiz-adv-x="1105" d="M1143 1534q-45 -76 -108 -159t-120 -134q81 -110 122 -248.5t39.5 -279.5t-40.5 -273q-28 -94 -79 -179t-121 -152.5t-163.5 -100.5t-193.5 -18q-78 12 -147.5 52.5t-121 97t-92 128t-65 145.5t-35.5 150q-33 210 22.5 417.5t199.5 342.5q70 67 158 101.5t182 25.5 q93 -9 175.5 -59.5t145.5 -130.5q126 113 207 244.5t97 253t-52 210.5q-20 26 -63.5 39.5t-84.5 12.5t-75 -7q-10 -3 -12 -2l10 4q49 15 96 17q69 5 115.5 -13t68 -50.5t28 -78t-1 -93t-23 -98.5t-33 -91t-35.5 -74zM504 1343l45 21h-2v49h6v-51l43 -19v60l-18 6v-55l-7 2 v55q-10 4 -30 4q-2 0 -5.5 -1t-5.5 -1l-4 -2v-55l-4 -2v57l-18 -8v-60zM600 1341l21 -6v58l-21 8v-60zM477 1333l21 8v58l-19 -6zM455 1325l20 6v60l-20 -9v-57zM625 1331l20 -8v53l-20 15v-60zM440 1376l-10 -22v-41l19 8v59zM651 1321l19 -8v41l-19 18v-51zM549 1350 l-133 -56q-2 -12 -2 -41q1 -3 2 -10t2 -10l131 55l225 -96q-17 44 -39 80zM674 1313l20 -8v24l-20 21v-37zM424 1311v28q-6 -15 -6 -30zM698 1303l25 -11l-4 2v4l-21 25v-20zM782 1169q0 7 -2 9l-231 98l-127 -55q15 -34 37 -56l90 37l170 -69q41 20 63 36zM362 1272l-20 -8 q-32 -58 -41 -80l70 30q-12 27 -9 58zM375 1202l-80 -33q-15 -41 -27 -84l150 62q-31 25 -43 55zM526 1161v-33l-8 -4l25 -12v74l-76 -31l18 -12zM571 1124v35l109 -45q4 1 12.5 5t12.5 5l-148 62v-78q6 0 14 -4v4l17 -6q6 -2 18 -2h25zM811 1094l-18 55q-4 -2 -23.5 -11.5 t-30.5 -13.5zM274 1020l-18 18q-1 -3 -2 -10t-2 -10l92 -92l199 84v86q-3 1 -9 2t-8 2v-25l-217 -90l-24 25l223 94q-9 0 -21 4l-79 -31l-13 29l49 22q-8 2 -16 11l-164 -68l-6 -20l119 49l12 -31zM815 1079l-92 37q-4 -2 -13.5 -5t-13.5 -5l125 -49zM825 1020l-184 76 q-10 -2 -31 -2l205 -84l-24 -25l-220 88v21q-10 0 -14 2v-88l197 -82l80 78q-5 15 -5 20zM344 950l-22 25l204 86v-35zM571 1059l207 -84l-24 -27l-183 76v35zM219 719h33l82 201l-86 86q-1 -8 -4 -26.5t-4 -29.5l10 31l24 -27l-43 -102l-6 2q0 -2 -1 -7.5t-1 -8.5h2l-2 -9 q-2 -14 -2 -43l64 158l24 -24l-76 -183h-14v-18zM383 889l160 63v43l-191 -77zM715 887l30 28l-190 80v-45zM860 737l-33 82l27 12l2 -6q0 15 -4 43l-33 80l21 23q-1 3 -2 9.5t-2 10.5l-74 -73l82 -201h16v20zM547 477l166 70l65 162l-65 161l-4 4l-162 68l-164 -70 l-66 -163l66 -162zM848 846l-27 -12l-35 81l23 25zM547 487l-152 66h-6l-61 156l61 157l158 66l155 -66l66 -157l-66 -156zM401 563l146 -59l147 59l62 146l-62 147l-147 62l-146 -62l-61 -147zM342 911l-78 -192h41l68 160zM831 717l-77 190l-31 -30l68 -160h40zM723 711 q0 -71 -51.5 -122.5t-124.5 -51.5q-72 0 -123 51.5t-51 122.5q0 73 51 124.5t123 51.5q73 0 124.5 -51.5t51.5 -124.5zM432 598q46 -49 115 -49t115 49q49 49 49 113t-49 116q-47 47 -115 47t-115 -47q-47 -50 -47 -116t47 -113zM705 711q0 -65 -46 -111.5t-112 -46.5 t-112 46.5t-46 111.5q0 66 46 111.5t112 45.5t112 -45.5t46 -111.5zM434 616q36 -38 78.5 -48t76 1t58.5 35l-6 -4q-50 -24 -82.5 -2.5t-34.5 61.5q0 26 23 56t20 57q-3 29 -27.5 49.5t-56.5 16.5l-20 -7q-49 -24 -63.5 -90.5t34.5 -124.5zM481 776q4 6 12.5 6.5t12.5 -4.5 q6 -6 6 -14t-6 -12q-4 -6 -12.5 -6t-12.5 6q-7 5 -7 12.5t7 11.5zM250 449l-8 20q1 -7 4 -21.5t4 -21.5l82 82l-82 199h-31v-17h12l76 -180l-22 -27l-64 152q0 -15 4 -43v-23l6 6l43 -102zM262 707l78 -191l31 29l-68 162h-41zM754 514l77 191h-40l-68 -162zM860 705h-14 l-82 -197l70 -72l4 17l-19 16l33 80q0 19 4 47l-2 -4l-29 12l35 84v17zM586 674q-10 -13 0 -29q13 -10 26 0q10 16 0 29q-15 11 -26 0zM819 588l29 -13l-39 -96l-23 27zM348 506l191 -80v43l-162 68zM553 426l192 80l-30 29l-162 -68v-41zM268 352l271 -112v172l-197 84 l-88 -88l4 -17l10 12l121 -47l-12 -32l-115 49zM821 403l4 -6q4 16 4 23l-75 76l-197 -84v-174l254 106l6 23l-248 -103v33zM414 410l-97 41l23 22l86 -33zM752 473l22 -22l-94 -41l-12 30zM395 369l-116 47l26 24l103 -43zM686 397l100 43l25 -24l-113 -49zM440 434l82 -35 v-32l-94 36zM666 403l-97 -38v32l84 37zM424 391l98 -39v-37l-110 47zM670 391l12 -31l-113 -49v37zM406 350l116 -49v-35l-131 51zM549 150l225 94q21 40 33 84l-258 -105l-277 115q2 -8 29 -86zM549 74l176 71q25 44 43 82l-219 -90l-242 99q8 -16 23 -43t20 -37zM401 90 v33l-39 16l13 -18v12l6 -2v-16l-2 2zM713 129l-15 -6v-10zM424 113h4l-22 8v-35l18 -16v43zM694 121l-20 -8v-27l20 23v12zM596 80l-47 -19l-74 31l-20 8v-53l-6 4v51l-19 9v-48q16 -13 45 -26v55l4 -2v-55l19 -4v51l4 -2h2v-53l18 -4v49l4 -2v-47l15 -3l6 3v38h6v-38 q6 0 22 4h-4v43l7 2v-45l18 6v47zM670 111l-19 -9v-39l19 19v29zM645 100l-20 -8l-25 -10v-47l-2 -2q20 10 23 12v45l4 2v-45l20 12v41z" />
<glyph unicode="P" horiz-adv-x="983" d="M303 1425h340q181 0 260.5 -80t79.5 -233q0 -54 -5.5 -96t-19.5 -86.5t-41.5 -76.5t-69 -58t-105 -39t-146.5 -13h-307v-522q0 -52 12 -99t43 -82.5t76 -35.5h115v-4h-623v4h113q122 0 131 219v936q-2 2 0.5 24t-4.5 59t-17.5 73.5t-39 68t-68.5 41.5q-174 51 -249 93 q-73 42 -95 88q-15 31 -16.5 61.5t13.5 59.5t45 51t84 35.5t125 13.5q96 0 190.5 -21t168.5 -52.5t139.5 -63.5t128.5 -57.5t111 -30.5q58 -5 114.5 19.5t92.5 78.5q14 23 24.5 55t12.5 73t-8.5 78.5t-45 72t-90.5 53.5q-9 3 -9.5 4t9.5 -2q85 -27 132.5 -71.5t55 -92.5 t-12 -98t-59.5 -89t-95.5 -63t-112.5 -23q-91 -3 -254 50q-30 10 -103 35t-121 40.5t-119.5 36t-123 27.5t-106 8.5t-93 -14.5t-61.5 -47q-58 -80 73 -165q123 -80 332 -122q109 -21 199 -21zM553 780q31 0 65.5 7.5t75.5 29.5t73 55t53.5 91.5t21.5 132.5q0 69 -16.5 123 t-42 87t-60.5 54t-68 29t-67 8h-189q-105 0 -110 -234v-381q53 -2 264 -2zM227 1341h-10q-16 -6 -16 -22q0 -18 16 -21h10q17 3 17 21q0 15 -17 22zM227 1270h-10q-16 -3 -16 -23q0 -17 16 -20h10q17 3 17 20q0 20 -17 23zM227 1198h-10q-16 -3 -16 -20q0 -20 16 -23h10 q7 1 12 8t5 15q0 17 -17 20zM223 1128q-9 0 -15.5 -6.5t-6.5 -15.5t6.5 -16t15.5 -7t15 7t6 16t-6 15.5t-15 6.5zM223 1063q-9 0 -15.5 -7t-6.5 -16t6.5 -14.5t15.5 -5.5q21 0 21 20q0 9 -6 16t-15 7zM223 997q-9 0 -15.5 -6.5t-6.5 -15.5t6.5 -15t15.5 -6t15 6t6 15 t-6 15.5t-15 6.5zM223 934q-9 0 -15.5 -7t-6.5 -16t6.5 -15.5t15.5 -6.5t15 6.5t6 15.5t-6 16t-15 7zM223 868q-9 0 -15.5 -5.5t-6.5 -14.5t6.5 -16t15.5 -7t15 7t6 16q0 20 -21 20zM223 805q-9 0 -15.5 -7t-6.5 -16t6.5 -15.5t15.5 -6.5t15 6.5t6 15.5t-6 16t-15 7z M223 741q-9 0 -15.5 -6.5t-6.5 -15.5t6.5 -16t15.5 -7t15 7t6 16t-6 15.5t-15 6.5zM223 676q-9 0 -15.5 -7t-6.5 -16t6.5 -14.5t15.5 -5.5q21 0 21 20q0 9 -6 16t-15 7zM223 612q-9 0 -15.5 -6.5t-6.5 -15.5t6.5 -16t15.5 -7t15 7t6 16t-6 15.5t-15 6.5zM223 547 q-9 0 -15.5 -6t-6.5 -15t6.5 -15.5t15.5 -6.5t15 6.5t6 15.5t-6 15t-15 6zM223 483q-9 0 -15.5 -6.5t-6.5 -15.5t6.5 -16t15.5 -7t15 7t6 16t-6 15.5t-15 6.5zM223 420q-9 0 -15.5 -7t-6.5 -16t6.5 -15.5t15.5 -6.5t15 6.5t6 15.5t-6 16t-15 7zM223 354q-9 0 -15.5 -6.5 t-6.5 -15.5t6.5 -16t15.5 -7t15 7t6 16t-6 15.5t-15 6.5zM229 242l-6 34l-2 15h-2l-2 -12v-3l-2 -6l-8 -47h26zM240 274l-7 17l3 -17l10 -55l18 -18zM182 207l13 14l8 45zM242 172l18 16l-22 23h-35l-21 -18l21 -21h39zM266 178l-16 -16l-4 -60zM207 104l-8 56l-17 16z M238 160h-27l4 -35l6 -49h12z" />
<glyph unicode="Q" horiz-adv-x="1085" d="M1225 305q13 -168 -73 -254q-64 -65 -179 -65q-114 0 -182 61q-103 -61 -213 -61q-144 0 -266 97.5t-192.5 265t-70.5 364.5t70.5 364.5t192.5 265t266 97.5t266 -97.5t193 -265t71 -364.5q0 -188 -66.5 -350t-177.5 -261q50 -79 137 -79q62 0 107 24.5t67 57.5t34 76 t14 71t0 51q0 5 1 4zM260 713q0 -122 19 -242q143 172 333 94q45 -19 78 -49t56.5 -80t33.5 -79t28 -94q3 -11 5 -17q84 206 84 467q0 189 -42.5 348t-116 251.5t-160.5 92.5q-86 0 -159 -92.5t-116 -252t-43 -347.5zM238 852q3 3 6 12l24 174l41 265l-47 -41l-26 -191 l-21 -147l6 -115q14 33 17 43zM240 594q-7 63 -4 145l6 74q0 4 1 11t1 10q-1 -3 -4 -9.5t-4 -9.5l-37 -104l-9 -25l-6 55q-4 48 -8 70q-2 31 -10 113l-6 71q0 -18 -2 -26l-8 -125q0 -10 -3.5 -54.5t-3.5 -68.5v-21l-2 -10q-19 26 -39 51q-6 10 -13.5 20.5l-12.5 17.5t-6 9 q-2 -35 2 -94q39 -110 47 -159q3 -3 8 -3q36 -14 80 7q3 2 9 5.5t9 4.5q19 9 19 18q-4 16 -4 27zM188 823l5 -49l4 -35l14 41l-6 86v29l-2 29v12l-15 -100v-13zM131 750l-49 155q0 -4 -2 -6l14 -125q7 -9 15.5 -20.5t13.5 -18.5t8 -12v27zM217 637q0 -4 2 -4v-10 q0 -12 -10 -29q-1 -2 -3 -4t-3 -4q-15 -15 -39 -15q-1 0 -2 1t-2 1h-10q-15 5 -25 19t-10 33v8q0 1 1 3.5t1 4.5q6 23 30 33q2 0 6.5 1t6.5 1h4l2 2h2q2 -2 4 -2h6q24 -7 33 -27q2 0 2 -2q2 -2 2 -6zM205 616v17q-6 24 -29 31h-20q-25 -10 -31 -35v-11q1 -1 2 -5.5t2 -6.5 q3 -10 16 -16l11 -4l4 -2h6q15 0 26 9t13 23zM176 657q13 -3 19 -12q4 -8 4 -18q0 -9 -2 -15q-1 -5 -11 -14q-2 -4 -10 -8q4 2 8 10q4 4 4 8q0 8 -6 17l-6 6l-2 2h-8l-4 -2q-17 0 -19 2q-3 3 -4 6t0 5.5t2 4t4.5 4.5t4.5 4q2 2 8 2h12zM166 600l14 2q-4 -4 -12 -8l-6 -2 l-2 2h-4l-4 2q-7 4 -7 6q-6 2 -6 10l4 9q-2 -7 0 -13l4 -4q0 -1 9 -4h10zM164 328l29 194q-4 -4 -13 -4q-4 0 -12.5 -1t-11.5 -1l-4 -14l-21 -133zM578 23q86 0 155 90q-17 26 -45 79.5t-48 87.5t-58.5 71.5t-85.5 56.5q-115 48 -203 -5q42 -172 118 -276t167 -104z" />
<glyph unicode="R" horiz-adv-x="1146" d="M1190 84q5 3 6 3l-6 -5q-4 -3 -34 -22t-43 -26t-39.5 -19.5t-51.5 -17.5t-51 -5q-64 0 -101.5 5t-77 24t-71 55.5t-68.5 99.5q-28 47 -138.5 233t-149.5 253v-494q0 -46 -35.5 -81t-86 -52.5t-91.5 -26t-66 -8.5h-127v4h82q55 0 93 49t38 135v1067q0 79 -35 127t-106 48 h-72v4h766q71 0 120.5 -8.5t94.5 -32t71.5 -65.5t42 -110.5t15.5 -164.5q0 -92 -26.5 -156.5t-60 -96t-94 -48.5t-96 -19t-98.5 -2h-8h-188q26 -48 340 -555q18 -28 33.5 -47.5t39.5 -44t53 -38t60 -13.5q29 0 81 14t85 37zM236 1368v-39l14 -8h4v49q-12 0 -18 -2zM258 1370 v-47l21 2v43zM213 1364v-27q9 0 18 -6v37q-3 -1 -9 -2t-9 -2zM283 1368v-41h18v37q-3 1 -9 2t-9 2zM190 1358v-23q4 2 17 2v27zM307 1364v-37h19v31zM346 1331v19l-14 6v-29q6 0 14 4zM365 1335v-516h315q84 0 129 65.5t45 164.5q0 56 -4.5 99t-17 89.5t-41 72t-70.5 25.5 h-356zM190 1323v-63l3 2l6 4q0 13 8 26q17 17 31 23q-11 8 -25 8h-6h-17zM346 1255v64q-12 -4 -22 -4q-13 0 -21 2h-4q-13 0 -37 -6h-6q-2 -2 -6 -2q-23 -11 -33 -25q-4 -4 -4 -12q9 6 20 6q23 0 27 -12q8 4 16 4q0 6 11 6q2 0 7.5 1t8.5 1v-2q17 0 35 -12q4 -4 6 -4 q0 -3 2 -5zM190 1241v-141q2 -2 9 -2q2 -4 6 -4h2l-2 4q-2 6 -2 20q0 13 2 17q0 8 4 24q11 31 47 49q1 0 3 1t3 1t3 1t3 1q3 2 13 7l-9 8q-3 2 -5 4t-4 4.5t-3 3.5l-6 12q-2 2 -2 4q0 1 -1 3.5t-1 3.5l-6 1q-6 1 -11 1q-8 0 -24 -4l-6 -5l-10 -10q-3 -3 -3 -4zM346 1104v131 q0 2 -6 8l-6 10q-4 1 -10 5l-7 4q-8 2 -26 2q-2 -1 -6 -2t-6 -2l-15 -5q4 -8 10 -10q1 -1 5.5 -4.5t5.5 -5.5q6 -4 18 -16q18 -21 23 -37q3 -3 8 -23v-22q8 -8 8 -21q0 -1 -1 -4.5t-1 -5.5q0 -8 -4 -8q1 0 3 1t3 1zM322 1137v16q-3 28 -23 51l-2 2h-4q-6 0 -10 -2 q-5 0 -7 -2l-10 -2h-2q4 -8 4 -12q17 -28 19 -31l20 -20q4 -4 6 -4q1 0 2 1t2 1q2 2 5 2zM217 1137q4 -1 17 -6t20 -7q3 0 7.5 -1t6.5 -1h13q1 0 4.5 1t5.5 1t5 1t5 1l-18 19l-4 4q-12 12 -21 35q0 2 -1 5t-1 5q-18 -9 -31 -29q-4 -8 -4 -16q-2 -2 -2 -4q0 -4 -2 -8z M248 1114l-31 10q-3 -11 0 -22q7 -14 8 -15q5 -5 11 -8l12 -6q8 -4 12 -8q2 0 6 -4l6 -4q2 0 6.5 1t6.5 1q18 12 20 14l8 8q8 8 13 23q2 4 2 12l-2 10q-3 -2 -10.5 -5.5t-10.5 -4.5q-12 -4 -18 -4q-14 -2 -39 2zM190 1085v-53l17 -22q0 -1 2 -7t4 -8l10 6q2 2 9 5l6 2 q32 5 38 8q21 14 29 33q4 4 4 8l2 6q-2 0 -2 -2q-30 -17 -35 -17q-8 0 -12 7q-4 4 -12.5 9t-9.5 5q-18 9 -23 14q-8 0 -24 4zM303 1024h12q5 0 16 1t15 1l-2 59q-2 -2 -18 -10q0 -6 -2 -10q-2 -13 -19 -39zM190 1014v-27q1 0 5 -1t6 -1v4q0 7 -4 15q-4 4 -7 10zM283 1008 v-29q3 0 9 1t9 1v33h-8zM307 983l19 6v25q-2 0 -5.5 -1t-5.5 -1q-6 0 -8 2v-31zM346 997v17h-14v-23zM258 999v-24q15 0 21 4v27q-2 -2 -5 -2q-15 -5 -16 -5zM236 975h18v24q-2 -1 -7 -2t-7 -2h-4v-20zM215 981q3 0 8 -1t8 -1v14q-6 -2 -16 -12zM254 905v49q-3 0 -9 -1 t-9 -1v-39l14 -8h4zM279 952l-21 2v-49q12 4 21 4v43zM231 915v37q-3 -1 -9 -2t-9 -2v-26q7 0 18 -7zM301 911v37q-3 1 -9 2t-9 2v-41h18zM190 942v-22q2 0 8 1t9 1v26zM326 942l-19 6v-37h19v31zM346 915v19l-14 6v-29q6 0 14 4zM190 905v-61l3 2l6 4q0 13 8 24 q14 18 31 25q-11 8 -25 8h-6q-11 0 -17 -2zM346 840v63q-12 -4 -22 -4q-4 0 -12.5 1t-12.5 1q-13 0 -37 -6q-4 0 -6 -2h-4q-2 0 -2 -2q-22 -8 -33 -23q-4 -8 -4 -12q6 4 20 4q24 0 27 -10q8 4 16 4q0 2 5 2q4 0 6 4h16q17 0 35 -12zM190 815v-20v-47v-46v-18q2 -2 9 -2 q2 -4 6 -4l2 -2q0 1 -1 2.5t-1 3.5q-4 13 0 39q0 18 8 29q1 2 10 16q7 9 25 20q4 3 8.5 5t11.5 5t11 5q-2 2 -5.5 7t-5.5 7l-12 14q0 5 -4 9l-2 8q-2 0 -6 1t-6 1q-22 0 -35 -10q-7 -4 -10 -9q-5 -5 -5 -6q0 -2 1 -4.5t1 -3.5zM346 688v131q0 4 -5 10.5t-9 8.5q-8 6 -25 10 q-14 0 -22 -2l-21 -6q4 -6 33 -29q31 -39 37 -63v-25q0 -2 2 -4.5t2 -3.5q4 -8 4 -13q0 -2 -1 -5t-1 -5l-2 -10q2 2 4 2zM317 719q5 3 5 18l-7 21q0 4 -2 4q-3 16 -16 29q-5 0 -25 -5q-8 -3 -4 -14q17 -28 19 -31l12 -12l4 -4l4 -4q4 -4 6 -4q1 0 2 1t2 1zM217 721 q7 -3 37 -12q3 0 7.5 -1t6.5 -1h13q6 0 10 2q2 0 5 1t5 1l-22 22q-14 14 -21 35q0 2 -1 5t-1 5q-18 -9 -31 -28l-6 -21q0 -4 -2 -8zM287 645q48 24 41 60v4l-2 2l-4 -2l-3 -2q-12 -6 -24 -9q-14 -5 -41 0q-3 0 -20 5t-17 6v-4q-6 -23 14 -39l23 -13q2 -2 10 -6l8 -6 q7 0 15 4zM289 610q19 19 22 39q0 -1 -1 -2t-1 -2q-22 -16 -35 -16q-8 0 -12 4q-2 4 -5.5 6t-8 4.5t-6.5 3.5q-13 5 -25 17l-27 6v-54l17 -22q4 -12 6 -14q8 8 25 12l28 4q15 6 23 14zM303 608h12q23 0 31 2l-2 60q-4 -4 -18 -11q0 -6 -2 -10q-2 -13 -19 -39zM190 598v-27 h11q0 9 -4 17q-4 4 -7 10zM283 592v-29q3 0 9 1t9 1v33h-8zM307 567l19 6v25q-4 -2 -11 -2h-8v-29zM346 582v16h-14v-23zM258 559h21v31q-2 -2 -5 -2q-12 -4 -16 -4v-25zM236 559h18v23q-10 0 -14 -2h-4v-21zM215 565q6 -2 16 -2v15q-5 -2 -16 -13zM236 496l14 -9l2 -2l2 2 v50q-6 -2 -18 -2v-39zM231 498v37q-3 -1 -9 -2.5t-9 -2.5v-26zM279 535h-21v-48q15 5 21 5v43zM301 494v36q-3 1 -9 2.5t-9 2.5v-43q6 2 18 2zM207 504v24q-9 0 -17 -4v-24q2 0 8 2t9 2zM326 494v30q-12 4 -19 4v-34h19zM346 498v18l-14 6v-28q6 0 14 4zM207 457 q13 16 31 24q-16 8 -25 8h-6q-11 0 -17 -2v-63q0 1 1.5 2t1.5 2l6 4q0 14 8 25zM346 422v63q-12 -4 -22 -4h-25q-21 0 -37 -4q-4 0 -6 -2h-4l-2 -2q-23 -9 -33 -22q-4 -8 -4 -13q6 2 20 2q23 0 27 -8l16 4q3 2 5 2q4 0 6 2h16q20 0 35 -10l6 -6q0 -2 2 -2zM209 328 q18 42 72 53q-1 0 -10 10t-9 12q-8 8 -12 23q-15 9 -37 0q-4 -1 -8.5 -4.5t-5.5 -3.5q-9 -9 -9 -10v-142q1 -2 9 -6h6q0 -2 2 -2q-6 14 -2 39q0 11 4 31zM346 270v131q0 5 -14 19q-17 8 -23 10q-16 0 -22 -2l-23 -6q0 -2 4 -6q2 -2 6 -4.5t5 -3.5q2 -1 5 -4.5t5 -4.5 q10 -10 16 -18q16 -20 21 -35q8 -8 8 -20v-23q8 -12 8 -18q0 -2 -1 -6.5t-1 -6.5l-2 -8q2 2 4 2zM313 299q3 0 5.5 1.5t3 4.5t0.5 5v6.5v5.5q-1 3 -2.5 9t-2.5 9l-2 4q-7 18 -16 27q-2 2 -10 2q-21 -7 -23 -8q2 -16 25 -48q1 -1 4 -3.5t5.5 -5t4.5 -5.5q4 -4 8 -4zM217 305 v-2q7 -3 37 -12q3 0 7.5 -1t6.5 -1h13q6 0 10 2q2 0 5 1t5 1l-8 8q-2 2 -4 2q-3 7 -10 10q-14 17 -21 37q0 2 -1 5t-1 5q-22 -15 -31 -28l-6 -23q0 -2 -2 -4zM293 229q45 28 35 58v4q-2 2 -4 0q-1 0 -3.5 -1t-3.5 -1l-12 -6l-26 -7h-5q-1 0 -4.5 1.5t-5.5 1.5h-8 q-14 2 -39 12v-4q-6 -22 16 -41q3 -2 10.5 -5t10.5 -5l10 -7l8 -8q1 0 2 1t2 1q3 0 5.5 1t6 2.5t5.5 2.5zM207 174l6 -12q8 4 10 6q4 4 13 4q5 2 18.5 4.5t21.5 5.5l13 11q4 2 14 18q2 2 6 10v6q-1 -1 -7 -5t-10.5 -6.5t-10.5 -5t-11 -1.5t-8 6q-2 4 -5.5 6t-8 4.5t-6.5 3.5 q-13 5 -25 17q0 2 -12 2q-2 0 -5 1t-5 1l-5 2v-53q14 -18 17 -25zM303 190h12q19 0 31 3l-2 59q-7 -7 -18 -10q0 -7 -2 -11q-2 -12 -19 -38zM190 180v-26h11q0 4 -4 16q-4 4 -7 10zM301 147v33h-8l-10 -6v-31q3 0 9 2t9 2zM346 164v16q-10 0 -14 -2v-20zM326 156v22h-19v-28 zM279 141v31l-5 -4q-3 0 -8.5 -1t-7.5 -1v-25h21zM254 141v23q-8 0 -14 -2h-4v-21h18zM231 143v17q-5 -2 -16 -13q4 -4 14 -4h2z" />
<glyph unicode="S" d="M1221 365q0 -115 -76.5 -205t-192.5 -135t-247 -45q-238 0 -443 116q-79 -76 -180 -76q-70 0 -138.5 36t-121.5 96q-3 3 -2 4t4 -2q25 -22 63.5 -39t71.5 -17q52 0 87.5 14t53.5 35.5t30 57.5t16.5 70.5t14 86t21.5 91.5q22 69 90 115t146 46q34 0 61 -8q6 -2 0 -4 q-67 -19 -115.5 -97.5t-48.5 -172.5q0 -60 24.5 -111.5t65 -88t93 -62t108 -38t109.5 -12.5q70 0 123.5 26.5t83 65t48 89t24.5 92t5 80.5q-1 55 -19 106.5t-57.5 103.5t-111.5 98t-172 81q-64 23 -108.5 40.5t-100.5 44t-93 54t-71 62.5t-50.5 78t-16.5 92q0 149 126 235 t337 86q101 0 187 -33t141 -86t85.5 -116.5t30.5 -126.5q0 -23 -3 -40.5t-6 -23.5l-3 -6q-115 -64 -205 -82l-10 -1l4 1q51 10 75.5 48.5t24.5 92.5q0 135 -81 225.5t-240 90.5q-118 0 -186 -74t-68 -188q0 -62 10.5 -101t47 -82.5t110 -82.5t194.5 -85q112 -39 194.5 -82.5 t131 -83t77.5 -85t38.5 -84t9.5 -84.5zM346 1317q-4 -6 -8 -27l8 -4l10 10q-4 -8 -4 -14q0 -2 2 -4q4 -8 4 -10h25q4 0 4 -4l14 -2l-2 2q0 4 4 4q5 0 5 -2q6 6 6 8v2q0 4 4 4q12 25 14 27h-4q-4 0 -4 4t4 4t4 -6q0 2 2 4q-2 6 -8 6q-1 0 -2 1t-2 1q0 -4 -4 -4t-4 4t2 6 q-6 6 -6 8q0 -4 -7 -4q-4 0 -4 4t7 4q-1 1 -4 2t-5 2h-2q0 -2 -2 -2t-2 2l-2 3q0 4 2 4q0 1 1 3t1 3q2 2 2 4v2q0 2 -2 2q-4 0 -4 4q-1 1 -2.5 2t-2.5 2t-1 2l-12 -24q4 0 4 -4q0 -5 -4 -5t-4 5v2q-7 -7 -7 -9q0 -1 2.5 -2t2.5 -2q0 -4 -7 -4h-4l-4 -8v-2q0 -4 -4 -4z M383 1354q-6 0 -6 4t6 4q4 0 4 -4t-4 -4zM383 1331q-6 0 -6 4t6 4q4 0 4 -4t-4 -4zM371 1317q-4 0 -4 4q0 6 4 6t4 -6q0 -4 -4 -4zM393 1317q-4 0 -4 4q0 6 4 6t4 -6q0 -4 -4 -4zM358 1307q-4 0 -4 4t4 4q7 0 7 -4t-7 -4zM383 1307q-6 0 -6 4t6 4q4 0 4 -4t-4 -4zM403 1307 q-4 0 -4 4t4 4q7 0 7 -4t-7 -4zM367 1276v2q-4 -4 -13 0q9 0 15 6q3 2 5 8.5t7 10.5q6 5 6 1v-4l-2 -10l-1 11l-1 -1q-3 -4 -6.5 -11t-5.5 -9q4 0 4 -4t-4 -4t-4 4zM350 1300q0 -8 -4 -8t-4 8l2 3l2 2q4 0 4 -5zM365 1305l-9 -9q3 6 9 9zM371 1292q-4 0 -4 8q0 3 2 3l2 2 q4 0 4 -5q0 -8 -4 -8zM393 1292l-2 2q-2 0 -2 6v3q2 2 4 2q4 0 4 -5q0 -8 -4 -8zM418 1292q-4 0 -4 8q0 5 4 5t4 -5q0 -8 -4 -8zM248 1247q-8 -16 -8 -26h8l2 2l2 -2q4 0 10 -2l2 2q4 0 4 -4v-3q4 -4 4 -8q0 2 4 2q3 0 5 -2h6l2 2q-2 -4 -8 -4q-4 -4 -5 -4q-4 0 -4 4 q-2 -2 -2 -16q2 -2 11 -2q13 0 26 8q0 4 4 4q2 0 4 -2l7 4l-3 2l-2 2q0 4 5 4q6 0 6 -4q4 4 10 8l-4 -2q-4 0 -4 7q0 4 4 4q6 0 6 -4v-3l6 9q-4 0 -4 4t4 4q2 0 4 -2q3 9 4 10q0 3 1 8t1 8q0 5 -2 9v4l-2 2l-2 -2q0 -2 -2 -4q-1 -2 -5.5 -7t-6.5 -8l10 17l2 2q0 4 2 4h-4 q-4 0 -4 4v2h2l2 2h-8q-4 0 -6 -2q-4 0 -4 -2q0 -4 -6 -4q-3 0 -5 2l-16 -8q7 7 18 10q0 4 3 4q2 0 2 -2l10 4h4q2 0 4 2h-2q-1 0 -2.5 -1t-3.5 -1q-4 0 -4 4v2q-2 0 -6.5 1t-6.5 1l-2 -2v-2q0 -4 -4 -4t-4 4v2q-8 0 -16 -4q-2 -2 -4 -2l-8 -4l2 -2q0 -4 -5 -4q-4 0 -4 2 l-6 -6q2 0 2 -4t-4 -4q-1 0 -1.5 0.5t-2 1.5t-4.5 2l-4 -7q2 -2 2 -6t-4 -4h-2zM354 1290h4q7 0 7 -4t-7 -4q-4 0 -4 4v4zM377 1286q0 1 1 2t1 2h6q0 -1 1 -2t1 -2q0 -2 -2 -2q0 -2 -2 -2q-6 0 -6 4zM403 1282q-4 0 -4 4t4 4q7 0 7 -4t-7 -4zM301 1272q-8 0 -8 4t8 4 q2 0 2 -2l2 -2q0 -4 -4 -4zM393 1272q-4 0 -4 6q2 2 4 2q4 0 4 -4t-4 -4zM287 1260q-4 0 -4 4t4 4t4 -4t-4 -4zM311 1260q-4 0 -4 4t4 4t4 -4t-4 -4zM334 1260q-4 0 -4 4t4 4q6 0 6 -4t-6 -4zM276 1247q-4 0 -4 4q0 6 4 6q5 0 5 -6q0 -4 -5 -4zM301 1247h-6q0 1 -1 2t-1 2 q0 6 8 6q4 0 4 -6q0 -4 -4 -4zM322 1247q-5 0 -5 4q0 6 5 6q6 0 6 -6q0 -4 -6 -4zM346 1247h-2q-2 2 -2 4q0 4 2 4l2 2q4 0 4 -6q0 -4 -4 -4zM336 1249l-8 -6q4 4 8 6zM262 1237l-6 2q0 6 8 6q4 0 4 -4v-2q0 -4 -4 -4zM270 1229l6 14q-4 0 -8 -2q11 7 12 2q1 -2 -1 -4z M287 1235q-4 0 -4 4q0 6 4 6t4 -6q0 -4 -4 -4zM311 1235q-4 0 -4 4q0 6 4 6t4 -6q0 -4 -4 -4zM334 1235q-4 0 -4 4q0 6 4 6q6 0 6 -6q0 -4 -6 -4zM250 1231q2 0 4 -2l-4 -6q-4 0 -4 4t4 4zM276 1231q5 0 5 -4t-5 -4q-4 0 -4 4t4 4zM301 1223q-8 0 -8 4l2 2v2h6q4 0 4 -4 t-4 -4zM322 1223q-5 0 -5 4t5 4q6 0 6 -4t-6 -4zM287 1210q-4 0 -4 7q0 4 4 4t4 -4q0 -7 -4 -7zM311 1210q-4 0 -4 7q0 4 4 4t4 -4q0 -7 -4 -7zM250 1106q-4 0 -4 6q0 4 4 4q2 0 2 -2q7 40 10 49q0 1 -3 2t-3 2t3 2t3 2q2 6 2 13v4q-8 0 -8 6q0 4 10 4v14l-2 -2q-8 0 -8 4 q0 3 -4 3q0 -5 -2 -9q4 0 4 -4t-4 -4q-2 0 -4 2v-2l-4 -4l2 -2q0 -6 -6 -6h-2l-5 -6v-2q0 -6 -6 -6v4q-2 -4 -2 -9l2 5q-2 -4 -2 -13q-2 -8 -2 -28v-17q2 -2 2 -4q0 4 4 4q2 0 6 -2q5 0 7 -2l8 -6q2 -2 4 -2v4zM229 1200q-3 -5 0 -16l4 4l3 4q-3 0 -3 2q0 4 5 4h2l2 2 q0 2 2 4v2q4 8 4 11h-4q0 -7 -6 -7q-5 0 -5 7q0 -2 -1 -5.5t-1 -5.5v-2q0 -2 -2 -4zM301 1200q-8 0 -8 4t8 4q4 0 4 -4t-4 -4zM287 1198q4 0 4 -4q0 -6 -4 -6t-4 6q0 4 4 4zM250 1174q-4 0 -4 6q0 4 4 4t4 -4q0 -6 -4 -6zM238 1171q6 0 6 -4t-6 -4q-5 0 -5 4t5 4zM227 1161 q4 0 4 -6q0 -4 -4 -4t-4 4q0 6 4 6zM250 1151q-4 0 -4 4q0 6 4 6t4 -6q0 -4 -4 -4zM238 1149q6 0 6 -4t-6 -4q-5 0 -5 4t5 4zM227 1139q4 0 4 -4q0 -7 -4 -7t-4 7q0 4 4 4zM250 1128q-4 0 -4 7q0 4 4 4t4 -4q0 -7 -4 -7zM385 1130h-4q-15 5 -29 5q-43 0 -67 -35zM238 1126 q6 0 6 -4t-6 -4q-5 0 -5 4t5 4zM385 1116l-109 -37q-4 -7 -10 -20.5t-10 -20.5l72 21l2 2q14 18 30 18h11q12 -4 14 -4h2q-2 14 -2 41zM256 1004q2 -1 14 -13l52 15q-5 10 -5 16q0 5 5 20l-66 -16l-2 -6q0 -3 1 -8t1 -8zM307 946l78 25q-10 6 -26.5 13.5t-20.5 10.5l-59 -18 zM403 963l-86 -29q42 -18 52 -21l75 21l-10 16zM457 924l-68 -19q7 -3 26 -9.5t29 -10.5l48 12q-19 11 -35 27zM504 887l-37 -10q5 -3 55 -25l21 6q-8 4 -21 15t-18 14zM598 823l10 4q-8 4 -24.5 11.5t-24.5 11.5l-18 -6q39 -13 57 -21zM618 815l60 -20q-7 5 -51 24z M748 760l8 4q-6 2 -26 9.5t-30 12.5l-8 -4q9 -3 28 -11t28 -11zM821 731l13 4q-51 19 -58 21l-10 -4q20 -6 55 -21zM883 705l2 2q1 0 5.5 1t6.5 1l-45 18l-12 -4l41 -18h2zM1020 561l20 2l-10 21l12 14l-18 6v2l-6 17l-17 -9l-18 11l-6 -17h-2l-17 -4l9 -16l-11 -17l17 -8 l4 -18l16 6l19 -10zM1065 524l-8 -14l16 -8l4 -21l15 6l20 -8l8 21l17 4l-7 16l9 15l-17 8l-4 18l-16 -8l-19 10l-8 -18l-16 -4zM1171 393l-12 15l2 2l4 18h-18l-8 16l-15 -12l-2 2l-16 4v-18l-21 -10l11 -15l-4 -16l22 -2l8 -17l15 13l2 -2l14 -4l2 18zM1118 207l-10 14v2 l4 17l-20 2l-11 16l-12 -10h-2l-16 4l-2 -19l-17 -10l12 -14l-4 -19l17 -2l8 -18l14 12h2l21 -6l2 21z" />
<glyph unicode="T" d="M1284 1434l-235 -181l41 41q79 90 8 90h-295q-37 -1 -64 -31.5t-38 -69.5t-11 -77v-1016q0 -42 12.5 -82.5t43 -71.5t73.5 -32h115v-4h-686v4h114q69 3 101.5 59t32.5 127v1022q0 63 -29 117.5t-88 54.5h-287q-73 0 12 -93l39 -38l-237 181h1378zM637 754q8 33 8 77 q0 73 -19.5 149t-45.5 122l-11 22q-23 45 -34 60l-11 18v-84q6 -429 6 -573q22 13 54 65q2 2 2 4l2 -4v4q33 69 49 140zM586 614l-11 25l-18 -31l4 47l-16 17l16 6l14 22l5 -32h20l-16 -27zM596 514q2 -7 4 -15l3 -12t1 -8q0 -6 -2 -8v-4l2 -2h2l4 2q8 0 8 8v4q0 2 1.5 12.5 t1.5 18.5q0 6 -5 16q-9 9 -16 9h-2q-4 -4 -4 -11q0 -6 2 -10zM614 455q-17 0 -26 18l-8 14q-7 -14 -7 -20q0 -7 7 -14q1 0 22 -13q6 -2 16 -2h9q2 2 2 11q0 6 -2 12q-6 -6 -13 -6zM604 231v9q0 4 1 8t3 11.5t4 14.5q0 2 1 5.5t1 5.5q0 6 -4 10h-2q-13 0 -16 -8q-4 -8 -4 -19 q0 -5 1 -15.5t1 -14.5v-2q0 -5 4 -9t8 -4h2v2l2 2zM629 213q6 6 6 14q0 9 -6 21q-5 -11 -8 -12q-4 -8 -9 -13q-8 -8 -18 -8q-6 0 -12 6q-2 -6 -2 -12q0 -8 2 -10t8 -2q7 0 16 6q1 0 3 1t3 1q3 2 8.5 4t8.5 4z" />
<glyph unicode="U" d="M709 1430v4h626q-36 0 -112 -4q-39 -2 -67 -27.5t-41.5 -67.5t-19 -84t-5.5 -90v-729q0 -49 -3.5 -89.5t-15 -89.5t-31 -87.5t-54 -76t-81 -62.5t-115.5 -40.5t-155 -15.5q-85 0 -155.5 15t-121 41t-89 62.5t-62.5 76.5t-39 87t-21 90t-6 89l-2 733q0 260 -133 262 l-112 3v4h626v-4q-30 -1 -114 -5q-39 -2 -67 -26t-41 -60.5t-18.5 -69.5t-5.5 -65v-772q0 -193 101 -302.5t254 -109.5q141 0 234 109.5t93 302.5v733q-2 2 0.5 27t-4 64t-16.5 76.5t-35.5 64.5t-62.5 28q-39 1 -78.5 3t-50.5 2z" />
<glyph unicode="V" d="M1284 1432v-5q-6 0 -55 -2t-60 -2q-75 -4 -116 -40t-60 -101l-327 -1282h-72l-381 1198q-2 9 -7 24t-23 53t-39.5 67.5t-58.5 55t-79 27.5l-112 5v4h675v-4l-112 -5q-42 -3 -64 -28t-21 -58t9 -69q9 -28 92.5 -281.5t210.5 -636.5l244 940q15 52 -5.5 93.5t-76.5 44.5 l-111 2v2zM383 1149q-6 -12 -6 -29q0 -23 12 -47l2 -4q0 -4 2 -6l-2 6l12 -20q0 28 -6 36l23 -36l4 14q-12 31 -14 49q-15 40 -17 47q-7 -3 -10 -10zM293 1030l20 -16l-12 18l23 -14q-7 8 -23 43q3 -5 12 -13.5t17 -13.5l8 -6q-4 6 -4 41q3 -17 16 -33v27q-3 25 -18 47 q-17 20 -37 20q-6 0 -12 -2q-10 -3 -17 -14zM426 1053l-4 -29l-12 33l-7 -23l-8 17q8 -21 8 -45q0 -13 -2 -15h7q2 -2 14 -2h8q2 1 7.5 2t8.5 2q0 4 -2 4q-2 5 -5 17.5t-5 19.5l-8 -10l2 27zM309 977l13 -10q-7 0 -11 2q12 -6 27 -6h10l14 6q5 0 5 2l8 6q2 1 5 4t5 4 q-2 0 -2 2q-21 32 -27 51l2 -14l-16 14l6 -32l-24 22l20 -24l-25 10l15 -19l-27 17l21 -25l-25 10l16 -20h-10zM295 1018l2 -10q2 0 10 -4zM457 946h6q-9 21 -12 39l-8 -2t-6.5 -1.5t-4.5 -0.5q-4 -2 -10 -2h2q6 -4 20 -18q3 -3 7 -8.5t6 -6.5zM473 913l-4 7q-2 0 -6 8l-2 2 l-6 4l-11 4v-4l2 -6l5 -27l-15 25l4 -25l-16 27l6 -31l-10 21l4 -29l-14 22l4 -28l-19 37l-2 -2l-8 -13l4 13q1 2 2 7.5t2 8.5l2 2v-4l13 -27l-5 29l13 -25l-2 19l10 -13l-12 33l22 -28l-10 26l18 -24l-4 12v12l-4 10l2 -2q-11 14 -18 19l-4 4h-19l-4 -4l-2 -4v-6 q-2 0 -2 -2q0 -5 -1 -11t-1 -8v-35q0 -1 -1 -4.5t-1 -5.5v-6q0 -5 1 -11t1 -8q0 -16 6 -28q9 -22 27 -33q13 -8 31 -8q26 0 38 28q5 8 9 19zM367 930v-19l10 17l2 14v19l2 2v6h-2q-2 -2 -6.5 -4.5t-5.5 -3.5q-2 0 -8.5 -3t-8.5 -4q-2 0 -6 -1t-6 -1v-2q-15 -4 -19 -8l3 -4h2 l-2 -4l2 -4l6 4l6 6l-8 -27l6 7l16 14l-4 -8l-2 -11l18 17l-10 -31v19l-16 -21l4 19v2l-10 -11l2 -8l14 -45q19 19 23 27q3 8 8 16v25l-12 -27v14l-13 -18v8zM385 733l12 -12q38 -30 80 -88l4 4v8q-27 38 -75 86l-27 23zM502 729q-4 -4 -4 -8q0 -1 1 -2.5t1 -3.5 q4 -12 4 -19q0 -19 -12 -51q0 -2 -1.5 -4.5t-1.5 -3.5q-2 -2 -2 -4q-4 -4 -4 -10l-2 -5l-2 -2h2q4 -4 11 -4v-2q8 4 12 4l6 2q6 1 19 2.5t20 2.5q8 20 8 38q-5 18 -20 64q-10 10 -25 10q-6 0 -10 -4zM465 545q1 0 3 -1t3 -1t3 -1t3 -1l35 -6l-2 2l-14 10l-9 6l-8 8h39l4 -2 l-12 8l-29 23h23l14 2h10v-2l-8 -2l-12 -2h-12l10 -8l12 -11l6 -4l15 -10h-4l-9 2h-32l2 -2l6 -4q2 -2 4 -2t20 -6q1 0 5 -1t6 -1q1 0 3 -1t3 -1q6 0 8 -2h16q20 0 29 6q-20 61 -23 71h-32q-4 -1 -12.5 -2t-12.5 -2l-6 -2q-1 0 -3 -1t-3 -1h6l8 -4h4q2 -2 6 -2v-6l-2 2h-2 q-4 0 -8 2q-2 0 -4.5 1t-3.5 1l-12 6q-5 0 -7 2q-1 0 -2 1t-2 1h-2l-6 4h-4q-4 0 -6 2h-4q-9 0 -17 -3t-12 -6l-4 -3q0 -1 -1 -3t-1 -3l12 -39q9 -9 25 -12zM498 430q0 -2 4 -10q4 -2 12 -2q6 0 8 2q30 7 35 49v33l-6 26h-10q-1 1 -4 2t-5 2h-8l6 -4l-18 2l-33 5l3 -7l5 -10 q17 -38 17 -63q0 -3 -1 -7.5t-1 -7.5q0 -1 -1 -2t-1 -2v-4zM639 264q4 36 4 49q0 53 -29 107q-14 31 -51 94q4 -16 4 -25v-2q6 -13 19.5 -36.5t17.5 -34.5q27 -53 27 -103q0 -11 -4 -47q0 -2 -1 -6.5t-1 -7.5l6 -21q8 20 8 33zM492 424v6q0 6 2 10l-9 6q-2 1 -6.5 6.5 t-5.5 6.5l8 -25zM633 145l8 19q0 4 -1 8l-1 4l-6 29q-4 8 -4 12q-1 1 -6 23q-5 10 -5 12q-3 7 -8.5 20.5t-7.5 18.5q-21 52 -80 119h-10q-4 0 -8 2q65 -69 88 -123l20 -60q0 -4 4 -12l7 -20q2 -4 2 -11q1 -7 4 -18.5t4 -15.5v-7zM580 123l4 -17q19 40 34 80q-1 2 -3.5 10 t-2.5 9q-7 -26 -32 -82z" />
<glyph unicode="W" d="M1540 1434v-4q-100 -3 -125 -5q-52 -4 -90 -59.5t-57 -134.5l-166 -686q-82 -339 -127 -537h-2q-34 99 -100 283.5t-93 261.5q-17 48 -223 629q-177 -725 -283 -1174h-2q-54 165 -225.5 654.5t-218.5 601.5q-70 166 -260 166v4h1397v-4l-144 -5q-111 -6 -114 -120 q0 -55 18 -105l270 -733l25 92l172 688q11 62 -4.5 113t-69.5 65q-20 5 -61 5v4h483zM297 467l192 762q28 119 -13.5 160t-166.5 41h-200q-154 0 -101 -177zM297 342q1 19 -3 39t-15.5 52t-12.5 36q-36 108 -125 346l-110 297q-5 12 -14.5 37t-17.5 44t-17 36q-25 42 -58 37 q-17 -2 -69 -15l12 -37q59 14 78 -10q13 -15 35 -59q38 -86 53 -127q21 -51 56.5 -146.5t47.5 -126.5l48 -138l48 -138q36 -97 39 -131q6 -61 -8 -117q33 61 33 121zM967 223q31 57 34 123q0 14 -4 33.5t-7 28t-13 35.5t-10 28q-48 145 -127 346q-81 215 -113 295 q-28 78 -49 117q-22 42 -57 37q-19 -2 -70 -15q9 -27 14 -37q58 15 76 -10q9 -10 35 -57q35 -75 55 -129q55 -135 105 -270q11 -29 100 -277q4 -12 14.5 -40t16.5 -49t8 -42q8 -54 -8 -117zM567 1204l6 -14q3 -4 25 -4l47 -6q-14 22 -24 26q-21 5 -54 -2zM-129 1204l6 -14 q1 -4 25 -4q30 -4 47 -8q-12 24 -25 26q-21 7 -53 0zM-111 1153q0 -3 8 -6.5t19.5 -6.5t23 -5.5t22 -4.5t11.5 -2q-3 9 -10 23t-22 18q-45 5 -60 5q8 -12 8 -21zM586 1153q2 -8 86 -25l-13 23q-7 14 -22 18q-45 5 -57 5q6 -18 6 -21zM-104 1135l6 -13q2 -7 5.5 -10.5 t5.5 -4.5t10 -3.5t11 -3.5q45 -13 62 -25q-10 35 -23 39q-15 8 -53 16q-2 0 -5.5 1.5t-4.5 1.5zM598 1122q2 -5 4 -8.5t6 -5.5t6.5 -2.5t9 -1.5t9.5 -2q27 -8 61 -25q-2 3 -5 13t-7 16.5t-10 9.5q-14 5 -56 14q-2 0 -5 1.5t-5 1.5t-6 1t-6 1q0 -5 4 -13zM-90 1096 q2 -4 5 -13.5t5 -13.5q6 0 15 -3.5t21 -9.5t15 -7l47 -25l-12 31q-4 7 -31 18q-43 17 -65 23zM608 1096l8 -27q7 0 16.5 -3t22.5 -9.5l15 -7.5q9 -3 25.5 -13t21.5 -12l-12 31q-5 11 -31 18q-24 12 -66 23zM-76 1055q4 -7 8 -25q8 -6 26.5 -13.5t23.5 -10.5q40 -20 57 -35 l-12 30q-12 12 -27 21q-32 17 -76 33zM623 1055q1 -4 4 -12.5t4 -12.5q4 -3 49 -22q34 -17 57 -37l-12 33q-12 9 -27 18q-41 23 -75 33zM-53 989q4 -5 14.5 -11t23.5 -12t17 -8q33 -20 59 -43q-14 32 -22 39q-1 1 -31 25q-61 32 -69 35q2 -4 4 -12.5t4 -12.5zM645 991 q4 -6 14 -12t23.5 -12.5t17.5 -8.5q46 -28 60 -40q-13 29 -23 38q-25 20 -30 23q-34 20 -70 35q2 -4 4 -12t4 -11zM657 956q1 -8 11 -15t23.5 -13.5t17.5 -9.5q46 -27 71 -56q-8 26 -18 35q-16 19 -37 31q-48 34 -72 45q4 -12 4 -17zM-41 954q1 -7 10.5 -14t23.5 -13.5 t17 -8.5q39 -25 72 -58q-14 32 -19 37q-18 18 -36 31q-39 27 -72 43q4 -8 4 -17zM-29 920q9 -17 15 -21q23 -15 37 -27q40 -25 79 -67q-11 27 -35.5 52.5t-43 38t-54.5 34.5q0 -2 1 -5t1 -5zM672 922q3 -17 12 -21q6 -5 39 -27q51 -35 78 -67q-9 26 -33.5 51t-45.5 39 t-54 33zM692 864q2 -4 6.5 -7.5t11 -7t9.5 -5.5l39 -31q33 -23 61 -59q-10 37 -49 67q-47 43 -86 66q4 -18 8 -23zM-8 862q6 -8 26 -18q13 -9 39 -31q30 -24 62 -59q-6 28 -47 65q-43 40 -88 66q2 -3 4 -11t4 -12zM8 819q2 -2 19 -14l43 -37q35 -28 67 -68q-2 8 -5 15t-9 15 t-9 11.5t-11.5 13t-10.5 11.5q-39 39 -92 76q4 -18 8 -23zM707 819q2 -4 18 -14q15 -10 45 -35q52 -47 68 -68q-2 8 -5 15t-9 15t-9 11.5t-11.5 13t-10.5 11.5q-51 47 -95 74q2 -3 4.5 -11t4.5 -12zM723 776q11 -13 35.5 -32t32.5 -27q29 -24 65 -68q-7 28 -59 80 q-24 24 -82 70q2 -4 4 -12.5t4 -10.5zM16 797q7 -21 9 -23q12 -12 35.5 -32t29.5 -25q38 -35 66 -70q-2 6 -4.5 12.5t-7 13.5t-7.5 11t-10.5 12t-9.5 10.5t-11 11t-10 9.5q-48 48 -80 70zM737 737q1 -5 4.5 -9.5t11.5 -9t9 -5.5l37 -35q48 -48 75 -82q-2 8 -6.5 16.5 t-11 17.5t-11.5 14.5t-14 16t-12 13.5q-34 36 -88 80q0 -1 3 -7t3 -10zM37 737q1 -5 5 -9.5t10.5 -9.5t8.5 -7l37 -35q34 -31 74 -82q-2 8 -5.5 16.5t-10.5 17.5t-11 14t-14 16t-12 14q-28 30 -86 80q0 -2 2 -7.5t2 -7.5zM47 707l4 -9q4 -13 15 -24.5t25.5 -24t21.5 -20.5 q38 -35 77 -88q-2 8 -6 16.5t-11 18t-11.5 15t-14 16.5t-12.5 14q-42 49 -88 86zM748 707l4 -7q4 -13 14 -24t26.5 -25t22.5 -20q41 -41 76 -88q-2 8 -6 16.5t-11 18t-11.5 15t-14 16.5t-12.5 14q-44 51 -88 84zM766 662l6 -23q5 -6 17.5 -17t15.5 -14q15 -12 39 -41 q39 -39 65 -78q-5 25 -55 82q-30 37 -88 91zM66 659l6 -20q2 -3 32 -33q27 -27 39 -41q43 -47 66 -80q-3 11 -10 24t-13 20.5t-17.5 22t-14.5 17.5q-38 43 -88 90zM782 614l6 -20q5 -8 19 -20.5t18 -16.5q27 -27 39 -41q30 -32 64 -82q-3 14 -12.5 29t-25.5 34t-20 25 q-34 41 -88 92zM82 612q0 -1 2 -8.5t4 -11.5q4 -5 10 -11.5t14.5 -14t12.5 -11.5q13 -13 37 -41q37 -40 63 -82q-2 11 -9.5 24.5t-12.5 20.5t-19.5 24t-15.5 19q-40 49 -86 92zM799 567q9 -24 22 -35l49 -55q53 -60 76 -96q-2 11 -9.5 24t-14 21.5t-19 23t-16.5 19.5 q-43 56 -88 98zM186 467q-34 44 -88 98q8 -22 21 -35l51 -55q35 -41 74 -96q-3 14 -12.5 29t-25.5 34t-20 25zM907 414q-38 52 -90 104q5 -17 15 -30.5t31.5 -34.5t25.5 -25q36 -44 76 -100q-2 7 -19 32q-26 40 -39 54zM205 412q-38 52 -90 104q6 -17 17 -31.5t29.5 -33 t24.5 -25.5q44 -54 74 -102q-2 13 -16 34q-18 27 -39 54zM944 336l-31 43q-46 57 -79 90q5 -15 15 -28.5t25.5 -30t22.5 -25.5q34 -39 70 -88q0 5 -4 12.5t-10.5 15.5t-8.5 11zM195 383q41 -47 67 -88q0 11 -22 39q-7 12 -29 43q-37 47 -78 90q5 -15 14.5 -28t25.5 -30.5 t22 -25.5zM903 350q22 -24 62 -78q0 5 -4 12.5t-10.5 15.5t-8.5 11l-24 33q-26 33 -66 76q4 -13 12 -24.5t21 -25.5t18 -20zM260 270q2 10 -22 39q-6 8 -23 33q-33 41 -65 76q4 -13 12 -24.5t21 -25.5t18 -20q42 -52 59 -78z" />
<glyph unicode="X" d="M1235 233q44 -1 76 -14.5t46 -33.5t19.5 -36.5t5.5 -29.5q0 -27 -5 -45t-21 -36.5t-51.5 -28t-90.5 -9.5h-1331v4l144 4q66 1 120.5 35.5t85.5 81.5l60 104l4 9h2l238 405l-263 569q-32 69 -129.5 141.5t-205.5 76.5q-100 4 -144 4h821v-4l-137 -5q-132 -5 -67 -153 l219 -465l256 436q26 44 27 84t-29.5 67.5t-91.5 30.5l-138 2v7h686v-4l-141 -5q-67 -3 -109.5 -22.5t-72.5 -69.5l-350 -606q26 -54 115.5 -235.5t127.5 -260.5q4 -7 11 -19.5t30 -45t47.5 -59t61 -51t72.5 -31.5q54 -11 106.5 -11.5t92 23.5t42.5 69q0 49 -35 86.5 t-104 38.5q-6 0 -6 1t6 1zM311 1364q-8 0 -8 -10q0 -8 8 -8t8 8q0 10 -8 10zM311 1337q-3 0 -5 -2.5t-1 -5.5v-2q0 -2 4 -6h4q9 0 9 8t-11 8zM307 1307v-4q0 -9 8 -9q9 4 9 11q0 3 -9 8h-2q-3 0 -6 -6zM309 1278q0 -8 10 -8q3 0 5.5 4t1.5 8q0 2 -2 2q0 2 -3 2.5t-4 -0.5 q-8 0 -8 -8zM313 1251q3 -6 11 -6q9 0 6 10q0 7 -11 7q-6 0 -6 -11zM319 1227q0 -2 3 -3.5t6 -0.5q8 0 8 8q-3 6 -10 6q-10 -3 -7 -10zM326 1202q0 -9 10 -6q6 0 6 10h-2q0 6 -10 6q-7 -4 -4 -10zM332 1178q3 -10 10 -7q9 5 6 11q-4 9 -10 6q-9 -4 -6 -10zM340 1155 q0 -4 2 -6q1 0 3 -1t3 -1t3 1t3 1q0 1 1 3t1 3t-1 3t-1 3q-2 2 -6 2t-6 -2t-2 -6zM348 1130q0 -4 2 -4q4 -4 6 -4t6 4q3 2 3 4l-3 7q-4 4 -6 4t-6 -4q-2 0 -2 -7zM356 1108q0 -4 2 -6t7 -2q4 0 6 2q0 1 1 3t1 3t-1 3t-1 3q-1 0 -3 1t-3 1t-3.5 -1t-3.5 -1q-2 -2 -2 -6z M365 1083q0 -4 2 -6t6 -2t6 2q4 2 4 6q0 5 -4 7q-2 2 -6 2t-6 -2t-2 -7zM375 1051q1 0 3.5 -1t4.5 -1q1 0 3 1t3 1q2 2 2 6q0 6 -2 6q-2 2 -6 2q-6 0 -8 -2q-2 -4 -2 -6q0 -1 1 -3t1 -3zM387 1028q2 -2 6 -2t6 2q0 1 1 3t1 3t-1 3t-1 3q-2 2 -6 2t-6 -2t-2 -6t2 -6z M395 1008h2q0 -4 6 -4q5 0 5 4q4 0 4 4q0 6 -4 6q0 4 -5 4q-6 0 -6 -4q-5 0 -2 -6v-4zM408 985v-2q1 0 3 -1t3 -1t3 1t3 1q0 1 1 3t1 3t-1 3t-1 3q-2 2 -6 2t-6 -2t-2 -6v-2zM418 961q3 -3 6 -3t6 3q2 2 2 6t-2 6t-6 2t-6 -2q0 -1 -1 -3t-1 -3t1 -3t1 -3zM432 938q2 -2 4 -2 l6 2q4 4 4 6t-4 6q0 2 -6 2q-4 0 -4 -2q-4 -4 -4 -6t4 -6zM451 913q4 0 6 2t2 7q0 4 -2 8q-2 2 -6 2q-5 0 -7 -2q0 -2 -1 -4.5t-1 -3.5t1 -3.5t1 -3.5q2 -2 7 -2zM473 895q4 8 0 12q-6 6 -12 0q-7 -7 0 -10v-2q4 -4 12 0zM492 879q3 6 -3 12q-1 2 -5 1.5t-5 -3.5 q-8 -4 0 -12q7 -4 13 2zM512 866q4 7 -4 11t-12 -3q-4 -8 4 -12q5 -3 12 4zM516 741l21 -41q18 9 30 13l4 4l2 -6q0 -2 2 -2v-4q18 -54 23 -103v-10v-8l59 18q-12 16 -28 57l-21 56v6l-2 6h6q12 3 35 8v4l17 29l-9 29q-11 -11 -14 -15l-33 -16q-2 -2 -6 -2l-6 -4l-2 8 q-12 52 -12 76l-21 -6q4 4 4 10v4q0 1 -1 3t-1 3q0 8 -8 8h-2q-2 0 -4 -2q-4 0 -12 -4q1 3 -1.5 5.5t-5.5 2.5q-7 4 -12 -6q0 -7 8 -10h2q5 0 7 2q0 -1 -1.5 -3t-1.5 -3t1.5 -3t1.5 -3q0 -4 4 -4q4 -4 6 -4l-27 -9q23 -23 39 -69l4 -6l-8 -2q-25 -7 -37 -7zM580 856l-7 12 q-5 -5 -2 -8q0 -2 4 -6zM541 844v4q0 7 6 10l12 -10q0 -4 -2 -4q-2 -4 -10 -4q-2 0 -6 4zM434 8h262q45 0 70 5.5t32 17.5t4 26.5t-16 38.5l-213 467l-243 -426q-32 -57 -2 -91.5t106 -37.5z" />
<glyph unicode="Y" d="M1370 389q0 3 2 3t2 -3q0 -123 -82 -218t-215 -144.5t-293 -51.5q-151 -2 -255.5 23.5t-206.5 107.5q-108 -129 -226 -129q-58 0 -100.5 17t-64 44.5t-34.5 59t-14 64t1 55.5t7 37v-18q0 -61 38.5 -113t89 -77.5t94.5 -25.5q49 0 104 24t96 69q18 18 29 37l2 2 q57 91 66 180q4 35 10 49q4 16 35 37q90 53 131 147q16 47 20 70l10 12l-6 8q8 44 8 93v43q0 2 -1 5.5t-1 4.5q-6 25 -30 43v-2q23 -23 26 -43q2 -2 2 -8q0 -5 1 -18t1 -21q0 -2 -1 -5.5t-1 -5.5q0 -39 -6 -82l-20 35l-13 23l-20 -17l18 -32l25 -45l4 6q-2 -13 -18 -60 q-43 -98 -129 -149q-25 -13 -39 -37q-5 -14 -8 -48t-17 -80t-49 -101l-2 -2q-8 -16 -29 -37q-41 -44 -96 -68t-102 -24q-68 0 -143.5 63t-75.5 150q0 44 39.5 86t105.5 43q24 0 44.5 -3.5t41.5 -13.5t34 -17t36 -26.5t32 -28t36.5 -36.5t37.5 -37q15 22 28 45t19 35l6 12 l201 342l-231 555q-2 6 -12 30t-15.5 36.5t-19 37t-25.5 38.5t-32 33.5t-41.5 30t-51.5 19.5t-64 10q-76 3 -145 3v4h748v-4q-12 0 -55.5 -2t-73.5 -3q-121 -4 -72 -148q5 -14 18 -48q38 -93 97.5 -234t76.5 -184l248 426q19 34 26.5 64.5t3.5 58t-30.5 45t-73.5 20.5 q-76 5 -98 5v4h637v-4q-22 0 -145 -5q-67 -3 -111.5 -22.5t-75.5 -71.5q-212 -371 -450 -787q-145 -255 -176.5 -308t-51.5 -78q78 -65 190 -108.5t234 -47.5q121 -5 229.5 17.5t176.5 70.5q48 33 84.5 75.5t53.5 80.5t27.5 71t12.5 53zM266 1389l31 -76l10 6l-33 70l-14 26 l-8 4zM311 1257l15 3l18 10v6q-2 2 -2 8l-8 14l4 7q6 8 14 14q2 0 6.5 1t6.5 1h2q8 0 12 -2q12 -2 22 -23q1 -2 6 -10t7 -14l4 -4l-2 -2q4 -8 4 -11l4 5q-9 24 -18 36q-13 23 -25 25q-12 4 -14 4h-2q-14 -5 -15 -6q-13 -3 -16 -16q-8 15 -21 10q-22 -6 -20 -10zM381 1249 l-45 11l-8 -7l55 -12h2l4 8h-8zM389 1229l-43 -58q4 -4 4 -8l19 25l26 33l4 8l9 10q-1 0 -3.5 1t-3.5 1l-2 2l-4 -4zM324 1231l45 -8l6 6l-58 12zM383 1186l-27 -35q4 -4 4 -10l35 43l4 12l11 12l14 19q0 2 -4 2l-2 2l-12 -12l-11 -13zM362 1212l-32 9q0 -3 4 -11l22 -6z M371 1118l47 64v2l2 2l12 16l6 6l-4 4l-2 5h-2l-14 -21l-10 -12l-41 -56zM434 1186l-59 -80q2 -4 6 -8l57 76l4 4l7 8l4 6q-6 6 -7 8l-6 -8zM340 1188l8 8l-12 2l2 -8zM442 1161l-55 -78l4 -8l53 72l5 4l14 20q-4 8 -4 9l-13 -17zM449 1130l-54 -69q0 -8 2 -10l54 67l2 4 l24 35l-6 6l-20 -28zM453 1102l-50 -64q3 -6 5 -8l47 60l34 51q-3 0 -6 6l-28 -41zM457 1073l-43 -55q1 -2 2 -6t2 -6l41 53v4l45 57q-4 4 -6 8l-39 -51zM473 1059l51 14q-2 6 -7 18.5t-7 18.5zM528 1061l-65 -17h-2l-2 -2l-4 -10l6 2h4l67 17zM469 1014l74 18l-4 8l-74 -16 l-2 -2l-21 -4l-10 -14l33 10h4zM467 999l-43 -8q0 -2 4 -10l41 10h4l80 19q-4 8 -4 12l-78 -21zM473 979l-41 -8q4 -8 6 -10l39 8l4 2l76 16v4q0 1 -1 3t-1 3l-78 -18h-4zM483 958l-41 -10q4 -4 7 -10l36 10h4l74 17q0 2 -1 5t-1 5l-76 -14zM494 936l-41 -8q2 -4 2 -10 l45 10h4l67 14q0 2 -1 4.5t-1 3.5t-1 2t-1 2l-69 -16zM463 897l51 10h4l55 13v12l-61 -14l-4 -3l-49 -8zM522 899l-53 -14q0 -1 1 -3.5t1 -4.5h100q2 10 2 30l-47 -8h-4zM567 866h-90q0 -1 1 -3t1 -3l82 2h6v4zM582 850l-7 -2q3 0 3 -2h6q-2 2 -2 4zM563 848h-80l2 -4z M578 838l-3 6l-4 -6l-2 -4l-14 -15l-39 -43l14 -33l15 -28l57 41l-10 26zM551 836l-59 -5q2 -2 2 -4zM524 817l2 -4q1 0 13 6zM500 813l18 4l-18 -2v-2zM518 805l-12 -4q0 -4 2 -4q2 1 5 4t5 4zM92 45q79 0 174 111q-14 13 -58 54.5t-61.5 56.5t-49 40t-54 34t-43.5 9 q-54 0 -73 -63q-21 -68 12 -141q39 -87 127 -99z" />
<glyph unicode="Z" d="M330 49h647q77 0 6 90q-18 22 -37 41l238 -180h-1096l432 705q-12 9 -44.5 36t-44.5 36.5t-40 31.5t-42 30.5t-38.5 24.5t-41 22.5t-38.5 14.5t-42.5 11t-41.5 3q-57 0 -100 -27t-60.5 -72.5t-13.5 -99t44 -113t110 -107.5q4 -3 2.5 -3.5t-4.5 1.5q-11 6 -27 17t-42.5 36 t-47.5 54.5t-37 75t-16 93.5q0 73 53.5 119.5t136.5 46.5q178 0 396 -195l399 652l-645 2q-74 0 10 -101l39 -43l-235 183l1052 -2l-475 -791q62 -57 129 -96t126.5 -55t112.5 -15t90 26.5t57 67.5t14 109.5t-39 150.5q-4 9 -2 10l4 -5q20 -38 36.5 -74t32 -81.5t21.5 -84 t0.5 -76t-25 -64t-61.5 -42.5t-103 -15q-81 1 -193 59.5t-222 147.5z" />
<glyph unicode="[" horiz-adv-x="614" d="M319 1405v-1385h181v-24h-359v1434h359v-25h-181z" />
<glyph unicode="\" d="M881 -16l-668 1656q2 -2 11 0.5t26.5 -3.5t36 -15.5t38.5 -34t33 -59.5l619 -1534z" />
<glyph unicode="]" horiz-adv-x="614" d="M313 27v1382h-178v25h359v-1434h-359v27h178z" />
<glyph unicode="_" d="M969 -315l10 45h-739l-11 -45h740z" />
<glyph unicode="`" horiz-adv-x="819" d="M258 1559l25 28v37h39l26 27l27 -27h39l204 -301h-129l-206 172v35zM283 1559l18 -21v-27h29l18 -20l19 20h28v27l19 21l-19 20v25l-28 2l-19 18l-18 -18l-29 -2v-25z" />
<glyph unicode="a" horiz-adv-x="860" d="M741 1024v-729q0 -163 38 -218t149 -20q13 4 14 3t-10 -7q-81 -47 -151 -57t-114.5 9t-70.5 58q-78 -71 -225 -71q-135 0 -219 72.5t-84 197.5v336q0 175 84 259.5t231 84.5q98 0 182 -41q-29 112 -125 115l-123 4v4h424zM373 4q65 0 116 42t84 120v604q0 67 -58.5 105 t-129.5 38q-31 0 -56 -7t-43.5 -17t-33 -30.5t-23.5 -37t-15.5 -48t-9.5 -52.5t-5 -60.5t-2 -62v-68.5v-6q0 -93 3.5 -163.5t14.5 -141t30 -115t51.5 -72.5t76.5 -28z" />
<glyph unicode="b" horiz-adv-x="983" d="M899 449q0 -225 -95.5 -337t-275.5 -112h-616v4l125 4q48 3 81.5 36.5t46.5 76t13 88.5v1094q0 87 -34.5 143t-106.5 59l-125 6v5h414v-574h153q211 0 315.5 -126t104.5 -367zM397 35h41q24 0 49.5 5t66.5 29.5t71.5 65t53.5 122.5t23 192q0 97 -19.5 178t-49 130.5 t-65.5 83.5t-67 48t-57 14h-118v-694q0 -61 16 -99.5t55 -74.5z" />
<glyph unicode="c" horiz-adv-x="1024" d="M887 657q23 -23 68.5 -25.5t79.5 6.5l34 9q-1 -2 -3 -4.5t-8 -10.5t-12 -15.5t-16 -17.5t-19.5 -18.5t-21 -15.5t-22.5 -11t-23.5 -4t-23.5 5q-49 21 -75 24.5t-49.5 -3.5t-41.5 -7q-29 0 -56 11t-46 26.5t-33.5 31.5t-21.5 27l-7 11q58 -17 110 6q17 42 14 89t-20 86.5 t-63.5 65t-116.5 25.5q-54 0 -96.5 -16t-71 -40.5t-49.5 -63.5t-32 -75.5t-18 -86.5t-8.5 -87t-2.5 -85q-1 -88 15.5 -172t49.5 -158t91 -119t134 -45q70 0 125 21.5t91 56.5t62.5 86t40 104t21.5 117q1 4 2 6q2 5 2 -1q1 -2 0 -7q-45 -399 -344 -399q-201 0 -320.5 128.5 t-119.5 381.5q0 234 111.5 355.5t316.5 121.5q68 0 125.5 -16t95 -41t66.5 -57.5t44.5 -63.5t25.5 -61.5t13 -48t3 -26.5zM741 623q24 7 35 18q4 4 10 16h-6q-4 0 -11 -3.5t-12 -7.5l-5 -3l14 14l20 9v14q-2 -2 -14 -2q-5 0 -10.5 3.5t-8.5 8t-1 6.5q2 3 7 1t9 -4t8.5 -5.5 t5.5 -3.5q0 2 -2 4l-6 8q0 7 -2 9l-10 8q-30 20 -45 20q0 -2 -1 -5.5t-1 -4.5q0 -4 2.5 -11.5t3.5 -11.5q0 -1 4 -8t4 -12q0 -4 -2 -6q-2 -8 -2 -21q0 -22 16 -30zM803 696q8 -3 8 -14q6 6 8 12q5 19 15 11q3 -6 -0.5 -11.5t-8.5 -7.5q-4 -6 -12 -8v-10l3 2q4 1 7 1t6 -3 q1 -1 4 -3t4 -2t5 1q-11 -6 -21 0q-6 3 -6 0v-5q0 -4 -2 -4v-2q12 -4 23 -4q1 0 3.5 1t4.5 1h4l1 9q1 8 1 14q0 2 -1 6t-1 6q0 11 -27 45q-3 0 -6 -6q-2 -2 -4 -7.5t-2 -6.5q-6 -12 -6 -15zM786 692h-2q0 -1 3.5 -7.5t5.5 -20.5q0 -8 -7 -15q13 0 25 6q0 25 -10 37 q-2 2 -6 2zM842 664l2 2q-2 0 -2 -2zM803 616q2 -1 45.5 -7t64.5 -27q-2 4 -8.5 10t-12.5 10l-5 4q-17 10 -51 10q-24 2 -37 29l-13 -2q-2 0 -2 -2q4 -18 19 -25zM946 561q17 1 29 7t15 12l3 6q-7 6 -19.5 14.5t-42.5 22.5t-52 12q-33 -3 -43 10h-15q16 -20 49 -22 q25 -1 50 -9.5t38.5 -19t10.5 -16.5q-8 -13 -23 -17zM924 569q2 -1 5 3t5 8l2 4q-1 0 -2 -1t-4.5 -2.5t-6.5 -3t-6 -2.5t-4 0q-2 0 -3 1.5t-4.5 5t-8.5 6.5q-15 12 -23 12q21 -14 27 -22l17 -17q2 8 6 8zM934 569q0 -8 12 -4q15 5 15 13q1 3 -2 4.5t-11 3.5q-3 1 -6.5 -3.5 t-5.5 -8.5z" />
<glyph unicode="d" horiz-adv-x="880" d="M336 1516h350q28 0 46 -19t18 -55v-1211q-2 -98 33.5 -158.5t107.5 -64.5l127 -4v-4h-615q-92 0 -157.5 22.5t-116 77t-75.5 152.5t-25 242q0 236 102 342t318 106h153v352q0 108 -33 159t-110 54l-123 4v5zM602 903h-119q-28 0 -62 -10t-77.5 -40t-78.5 -75.5t-59 -126 t-24 -182.5q0 -85 14.5 -154.5t36.5 -113t53 -76t58.5 -48.5t60 -25.5t50 -11t34.5 -1.5h41q42 37 57 73.5t15 123.5v667z" />
<glyph unicode="e" horiz-adv-x="917" d="M508 0q66 0 129.5 24t118.5 71.5t89 128.5t34 184q0 3 1 3t1 -3q0 -53 -9.5 -106.5t-35.5 -112t-66 -102t-108 -72.5t-154 -29q-447 0 -447 516q0 234 113 349.5t320 115.5q76 0 138 -24.5t101 -63t68 -86t43.5 -94.5t23 -85.5t10.5 -63.5l1 -24h-619q4 0 9.5 0.5t21 2.5 t27 5.5t21 10.5t9.5 16h375q0 32 -0.5 54t-5 65t-13 74t-25.5 68.5t-40.5 61t-60.5 40t-84 16.5q-56 0 -100 -15t-72.5 -37.5t-49 -60t-31 -71t-16.5 -84t-7 -85t-1 -85.5q0 -54 4 -103.5t14 -110.5t31 -109t51.5 -90t79.5 -65.5t111 -23.5z" />
<glyph unicode="f" horiz-adv-x="819" d="M936 1286q0 -72 -51 -123t-123 -51t-123 51t-51 123q0 61 38 108.5t95 61.5l29 4q-5 3 -13.5 7t-34 13t-51 13t-59.5 1t-63.5 -16.5t-59 -45.5t-50.5 -80t-34.5 -126t-13.5 -179v-105h239q26 0 40.5 -13t15.5 -27l2 -13h-297v-670q2 -74 41 -141t104 -70l141 -4v-4h-639 v4q33 0 84 4q36 3 61 24t37.5 54t17.5 65t5 68v670h-203v53h203v107q0 69 11 132.5t38 125.5t68.5 107.5t107 73.5t148.5 28q157 0 248.5 -68.5t91.5 -161.5z" />
<glyph unicode="g" horiz-adv-x="921" d="M795 948v-608q0 -20 1 -66q-1 -50 1 -105.5t-5.5 -112.5t-19 -111t-39.5 -101t-66 -82.5t-100 -56t-141 -20.5q-103 0 -181 53.5t-75 132.5q3 62 43 96.5t92 34.5q54 0 93.5 -39.5t39.5 -93.5t-39.5 -93.5t-93.5 -39.5q17 -9 39 -16t56.5 -10t66.5 3.5t66 33t59 70.5 t41 122.5t16 183.5v219q-109 -72 -229 -72q-96 0 -182.5 43.5t-140.5 119t-54 163.5q0 150 108 248t269 98q120 0 229 -72v154q106 0 126 -10t20 -66zM649 571v70q-6 123 -69 203t-166 80q-109 0 -167.5 -90t-58.5 -238q0 -134 59 -221.5t167 -87.5q103 0 166 80t69 204z " />
<glyph unicode="h" horiz-adv-x="999" d="M1010 8l125 -4v-4h-301q-54 6 -95 43.5t-41 116.5v305q0 98 -20 176.5t-51 126t-71.5 79.5t-79.5 44t-77 12l-77 -2v-665q0 -35 7 -71t22.5 -72.5t45.5 -60t70 -24.5l125 -4v-4h-684v4q33 0 125 4q47 2 81.5 43t48 90.5t13.5 96.5v985q0 76 -36.5 137.5t-106.5 64.5 l-125 5v4h414v-492h155q199 0 293 -106.5t94 -346.5v-253q0 -223 146 -228z" />
<glyph unicode="i" horiz-adv-x="552" d="M383 1274l6 160l-98 -127l-146 55l84 -131l-96 -125l152 43l88 -131l6 158l149 45zM520 8l84 -4v-4h-627v4l84 4q46 3 78 28t45.5 62t19 66.5t5.5 56.5v803q2 -3 6 -8.5t18.5 -20t32 -25t47.5 -19.5t64 -9v-721q0 -27 6.5 -58.5t21 -67t44.5 -60t71 -27.5z" />
<glyph unicode="j" horiz-adv-x="935" d="M463 1196l129 84l-41 154l125 -101l129 84l-53 -145l120 -101l-155 9l-58 -148l-41 152zM768 1024v-745v-29v-71t-3.5 -77t-9.5 -84.5t-19.5 -81.5t-32.5 -79.5t-49.5 -67t-68.5 -56t-92 -34.5t-118 -14q-81 0 -148 28t-106 71t-59.5 90t-20.5 91v19q3 74 56 125t128 51 q77 0 131 -54t54 -131q0 -76 -54 -130t-131 -54q-22 0 -32 2q24 -33 79.5 -63.5t130.5 -30.5q124 0 165 144q28 96 28 336v52v48v663q33 0 63 8.5t49 20.5t33.5 24t20.5 21z" />
<glyph unicode="k" horiz-adv-x="983" d="M821 326q53 0 92 -13t58.5 -30.5t31.5 -41.5t14.5 -39t2.5 -30q0 -29 -12 -57.5t-36 -55t-67.5 -43t-99.5 -16.5h-287v4q13 0 24 1.5t26 6.5t16.5 14.5t-4.5 26.5l-244 416l-70 -84v-117q0 -127 28.5 -192t100.5 -72v-4h-407v4q37 2 53 4q94 6 94 260l2 903q-2 2 0 25.5 t-5 61.5t-18 74t-39.5 63.5t-68.5 29.5q-95 5 -110 5v4h370v-977l324 379q33 43 -6 72.5t-90 29.5v4h413v-4q-7 0 -19 -0.5t-45.5 -5t-63.5 -13.5t-66 -29.5t-60 -49.5l-235 -271l289 -460q53 -84 100 -84q72 2 125 45.5t53 101.5q0 66 -37.5 108.5t-126.5 43.5q-3 0 -3 1 t3 1z" />
<glyph unicode="l" horiz-adv-x="573" d="M485 8l88 -4v-4h-573v4q49 -2 98 4q28 4 48.5 33.5t30.5 73t14 82.5t4 75v1162q2 -3 6.5 -8.5t20.5 -19.5t34.5 -24.5t49.5 -19t65 -8.5v-1084q0 -38 4.5 -77t16 -82t35.5 -71.5t58 -31.5z" />
<glyph unicode="m" d="M1329 57q13 6 13.5 4t-9.5 -8q-90 -63 -169 -66t-123 42t-44 118v558q0 37 -5 69.5t-19 68t-44.5 56.5t-74.5 21q-36 0 -62 -13.5t-40 -33t-21.5 -51t-9.5 -58t-2 -62.5v-552q0 -59 40 -102.5t126 -43.5v-4h-475v4q84 0 130 46t46 102v553q0 31 -1.5 54.5t-9.5 56 t-22.5 53.5t-42 36t-66.5 15q-37 0 -64 -18.5t-41.5 -50.5t-21 -67.5t-6.5 -76.5v-707h-309v4q83 0 123.5 45t40.5 103v557q0 53 -10 90.5t-27.5 57t-38.5 29.5t-47 8.5t-49 -7t-47 -15.5q-3 -1 -3.5 -0.5t1.5 2.5q61 41 99.5 54.5t88.5 13.5q100 0 154 -70q67 70 157 70 q68 0 123 -19.5t82 -50.5q30 31 85.5 50.5t119.5 19.5q83 0 142.5 -21t90 -57.5t43.5 -75t13 -83.5v-410q0 -43 0.5 -71t2.5 -59.5t6 -50.5t10.5 -38.5t16.5 -28t23.5 -15.5t32 -5t42 9t52.5 21z" />
<glyph unicode="n" horiz-adv-x="1024" d="M1051 57q13 6 13.5 4t-9.5 -8q-90 -63 -169 -66t-123 42t-44 118v553q0 27 -5 54.5t-18 58t-33 54t-53 38.5t-75 15q-41 0 -74 -14.5t-54 -37t-35 -52t-20 -58t-6 -56.5v-552q0 -59 40 -102.5t126 -43.5v-4h-475v4q83 0 123.5 45t40.5 103v557q0 53 -10 90.5t-27.5 57 t-38.5 29.5t-47 8.5t-49 -7t-47 -15.5q-3 -1 -3.5 -0.5t1.5 2.5q61 41 99.5 54.5t88.5 13.5q100 0 154 -82q102 82 213 82q83 0 149 -22t103.5 -58.5t57 -77.5t19.5 -84v-405q0 -55 1 -89.5t5 -71t12 -55t21.5 -34t33.5 -17t48 4.5t66 24z" />
<glyph unicode="o" horiz-adv-x="1208" d="M602 989q268 0 406.5 -142t138.5 -382q0 -109 -48.5 -204.5t-126 -158t-173.5 -98t-193 -35.5q-94 0 -192 33.5t-182 94t-137.5 157.5t-53.5 211q0 234 148 379t413 145zM573 954v19q-4 -1 -12.5 -2t-11.5 -2v-25zM596 965h8l-2 8h-22v-15zM635 952v19q-10 2 -27 2v-10z M664 938v27q-9 6 -25 6v-23zM516 932l25 10v27q-2 -4 -11 -4q-1 -1 -3 -1.5t-5.5 -1t-5.5 -1.5v-29zM694 926v32l-22 7v-29zM485 920l27 8v30l-27 -8v-30zM602 954l-256 -106q-100 -109 -129 -260l82 194l303 127l297 -125q-19 40 -47 68zM702 926l25 -11v31l-25 8v-28z M457 905l22 13v30q-2 -1 -9.5 -6t-12.5 -6v-31zM731 911l27 -12v29l-27 16v-33zM426 893l25 8v31l-25 -14v-25zM762 899l24 -10v20l-24 17v-27zM395 881l23 10v24q-8 -10 -23 -18v-16zM793 885l24 -11v11q-3 5 -24 20v-20zM897 182l84 197q8 58 8 86q0 63 -12 125l-80 184 l-295 125l-301 -125l-92 -229q-8 -36 -8 -86q0 -25 2 -37l102 -240l297 -123zM389 879v12q-5 -4 -13.5 -12.5t-13.5 -12.5zM825 874l13 -4q-13 8 -13 9v-5zM862 739l105 -260l-105 -262l-260 -106l-260 106l-106 260l104 262l262 107zM352 733l92 -90l152 62v129zM606 834 v-132l152 -61l90 92zM496 754l-11 18l99 45v-26zM618 788v25l209 -84l-16 -16zM584 776v-22l-78 -31l-8 20zM618 750v24l87 -31l-11 -20zM483 748l-88 -35l-18 18l98 37zM911 766l52 -123q-20 74 -52 123zM449 659l-19 17l154 65v-24zM618 741l156 -65l-16 -17l-140 56v26z M496 717l-74 -33l-21 18l84 37zM713 739l90 -37l-19 -16l-79 31zM248 485h129l61 150l-92 92zM954 485l-98 242l-94 -94l63 -148h129zM332 596l-21 10l39 101l19 -19zM852 705l37 -99l-19 -10l-39 90zM596 696l-143 -61l24 -21l119 48v34zM750 633l-144 61v-32l121 -50z M342 594l35 86l20 -18l-30 -76zM825 678l74 -182h-27l-65 163zM377 580l26 75l19 -20l-25 -66zM721 356l2 4l51 119l-53 125l-121 51l-123 -53l-51 -123l51 -123l123 -49zM799 649l63 -153h-24l-56 137zM764 479l-47 -117l-117 -49l-121 49l-47 117l47 115v2l121 49l117 -49 zM756 479l-47 111l-109 45l-113 -45l-45 -111l45 -110l113 -45l109 45zM418 487l51 119l-25 25l-59 -146zM815 485l-59 140l-21 -21l47 -119h33zM602 612q54 0 91.5 -39.5t37.5 -93.5q3 -53 -35.5 -91t-93.5 -38q-54 0 -93.5 37.5t-39.5 91.5t39.5 93.5t93.5 39.5zM686 391 q37 40 37 88t-37 88q-35 35 -84 35q-48 0 -88 -35q-35 -44 -35 -88t35 -88q40 -35 88 -35q49 0 84 35zM684 561q33 -33 33 -81.5t-33 -82.5q-35 -34 -82.5 -34t-81.5 34t-34 82t34 82q32 34 80.5 34t83.5 -34zM326 588l-33 -90h-27l41 96zM872 588l23 6l41 -98h-25zM360 571 l-30 -73h-25l31 86zM516 410q28 -28 59.5 -35.5t56 0t44.5 24.5q-38 -22 -65 -5.5t-27 46.5q0 20 16.5 42.5t13.5 41.5q-3 22 -19.5 36.5t-41.5 10.5q-26 -2 -45 -29.5t-19 -65.5t27 -66zM393 561l-26 -63h-25l29 71zM551 530q3 3 9 3t9 -3q11 -11 0 -22q-7 -7 -18 0 q-5 11 0 22zM467 354l-51 123h-31l59 -147zM344 231l94 95l-61 147h-129zM782 473l-51 -119l25 -20l55 139h-29zM954 473h-133l-59 -147l94 -97zM369 389l-29 76h22l31 -66zM291 463l78 -189l-19 -18l-84 207h25zM336 379l-35 84h25l34 -74zM780 324l58 139h24l-63 -156z M807 299l63 164h27l-72 -182zM831 270l78 193h27l-84 -209zM631 451q-11 -11 0 -19q3 -4 9 -4t9 4q9 10 0 19q-3 6 -9 6t-9 -6zM602 0l246 104q29 26 55 70l-301 -125l-303 125l-92 215q25 -167 143 -285zM422 326l-19 -17l-30 70l22 10zM367 375l30 -74l-20 -18l-35 82z M453 326l143 -62v33l-121 49zM606 264l142 62l-21 20l-123 -47v-35h2zM971 336l-64 -154q46 68 64 154zM852 221l-96 96l-150 -61v-133zM596 123v133l-147 59l-99 -94zM498 254l-72 29l18 18l62 -27zM756 301l16 -18l-70 -29l-10 20zM582 184l-183 72l19 18l164 -65v-25z M618 205l162 69l19 -18l-181 -74v23zM582 219l-72 29l10 22l62 -26v-25zM690 248l-72 -31v27l64 26zM393 248l86 -37l-8 -18l-98 36zM618 170l191 78l16 -19l-207 -84v25zM582 170v-25l-103 41l15 23zM831 86l-6 -2v-4zM389 78l-16 6q8 -8 16 -10v4zM817 80l-24 -10v-17 q12 9 24 21v6zM418 66l-23 10v-8q3 -3 11.5 -9t11.5 -10v17zM786 68l-24 -9v-26q19 11 24 18v17zM451 53l-25 8v-14l25 -14v20zM758 57l-27 -14v-27l27 15v26zM479 41l-22 10v-24q7 -2 22 -13v27zM727 41l-25 -8v-27l10 3l15 5v27zM512 27l-27 12v-27q6 -1 15 -4l12 -4v23z M694 31l-22 -11v-24q11 0 22 8v27zM541 14l-25 11v-25l25 -6v20zM664 16l-25 -8v-20q23 5 25 6v22zM573 4l-24 8v-18l24 -6v16zM635 6l-27 -12v-8h6q15 0 21 2v18zM602 -10l-22 10v-12q4 -2 14 -2h10v4h-2z" />
<glyph unicode="p" horiz-adv-x="880" d="M256 199v-369q0 -43 0.5 -71t2.5 -59.5t6 -50.5t10.5 -38.5t16.5 -28t23.5 -15.5t32 -5t42 9t52.5 21q13 6 13.5 4t-9.5 -8q-67 -47 -130 -60.5t-106.5 3t-70.5 54.5t-28 91v1045q0 32 -8.5 67t-26 69.5t-50 57t-73.5 23.5v4h498q180 0 281.5 -94.5t101.5 -267.5 q0 -169 -108 -275t-312 -106h-158zM256 240l121 -2q18 0 29.5 0.5t34 3.5t38.5 9t37.5 18t37 28.5t32 43t26.5 59.5t16.5 79t6.5 101q0 327 -184 327h-66q-37 0 -63.5 -18t-40 -47.5t-19.5 -60.5t-6 -64v-477z" />
<glyph unicode="q" horiz-adv-x="921" d="M940 -408q13 6 13.5 4t-9.5 -8q-67 -47 -130 -60.5t-107 3t-71 54.5t-28 91v523h-157q-204 0 -312 106t-108 275q0 173 101.5 267.5t281.5 94.5h497v-4q-41 -1 -73.5 -23.5t-49.5 -57t-25.5 -69.5t-8.5 -67v-891q0 -43 0.5 -71t2.5 -59.5t6 -50.5t10.5 -38.5t16.5 -28 t23.5 -15.5t32 -5t42 9t52.5 21zM608 240v477q0 33 -6 64t-19.5 60.5t-40 47.5t-63.5 18h-65q-185 0 -185 -327q0 -55 6.5 -101t16.5 -79t26.5 -59.5t32 -43t37 -28.5t37.5 -18t38.5 -9t34 -3.5t29.5 -0.5z" />
<glyph unicode="r" horiz-adv-x="819" d="M174 295v729q2 -3 6 -8.5t19 -20t32.5 -25t46 -19.5t60.5 -9v-53q68 53 162 53q62 0 111.5 -21t76.5 -53.5t41 -65t14 -61.5q0 -55 -31.5 -85.5t-80.5 -30.5q-51 0 -84 32.5t-33 83.5q0 52 32.5 85.5t84.5 33.5h6q-34 68 -137 66q-49 -1 -81.5 -22.5t-49 -64t-23 -91 t-6.5 -115.5v-338v-45.5t1.5 -43t4 -44t8 -39t13 -37t20 -29.5t28 -25.5t37.5 -15.5t48 -8l123 -4v-4h-697v4q39 0 94 4q32 2 57 12.5t41 23t27.5 36.5t17 41t8 50.5t3 51t0.5 54.5v18z" />
<glyph unicode="s" horiz-adv-x="901" d="M465 989q60 0 108 -11t79.5 -31t54 -41.5t36.5 -51t20.5 -50.5t12.5 -48q5 -18 10 -24.5t20.5 -4t43.5 22.5q8 5 9.5 12.5t-3 17t-10.5 18t-17 19.5t-18.5 18t-18.5 16.5t-14 12.5q-2 2 -4 5l4 -3q3 -3 11 -9t14 -11.5t15 -13.5t15.5 -14.5t14 -15t11.5 -16t7 -15t2 -14 t-6 -12.5q-6 -8 -18.5 -16.5t-23 -14t-36.5 -17t-39 -17.5q-68 -31 -137 -53q-6 -1 -6.5 -0.5t2.5 2.5q17 11 25.5 19t16 26.5t11.5 50.5q7 68 -7 122.5t-61 92t-124 37.5q-88 0 -146.5 -32.5t-58.5 -104.5q0 -70 54 -121.5t190 -128.5q217 -128 287.5 -198t70.5 -159 q0 -81 -57.5 -138.5t-139.5 -82.5t-176 -24q-88 3 -168.5 21.5t-132.5 47.5q-74 -65 -172.5 -52t-165.5 83q-6 6 3 0q35 -23 83.5 -28t92.5 20q26 20 39.5 58.5t21.5 92t14 72.5q13 58 58 107t108 59l10 1q-1 -1 -10 -3q-40 -7 -68 -57t-28 -109q-1 -74 26.5 -133t73 -94 t100.5 -53.5t115 -18.5q71 0 119.5 13t71 36.5t31 49.5t6.5 59q-3 154 -238 274q-74 38 -117.5 62t-87 54.5t-64.5 57.5t-34.5 61.5t-13.5 75.5q0 103 82.5 173.5t220.5 70.5z" />
<glyph unicode="t" horiz-adv-x="614" d="M330 891v-598q0 -43 0.5 -71t2.5 -59.5t6 -50.5t10.5 -38.5t16.5 -28t23.5 -15.5t32 -5t42 9t52.5 21q13 6 13.5 4t-9.5 -8q-67 -46 -133 -60t-113.5 2.5t-78 54.5t-31.5 91v752h-137v51h137v258q0 225 -88 230v4h336v-4q-22 -1 -38 -17.5t-24.5 -38.5t-13 -56t-5.5 -59 t-1 -59v-258h243q26 0 40.5 -13t16.5 -25l1 -13h-301z" />
<glyph unicode="u" horiz-adv-x="1105" d="M1020 942v-4q-33 -4 -57.5 -26t-35.5 -50.5t-17 -56.5t-6 -47l-1 -19v-469q0 -134 54 -198.5t184 -67.5v-4h-600q-77 0 -138 14t-100.5 34.5t-68 54t-43 63.5t-22.5 72.5t-9.5 70.5t-1.5 68v291q0 90 -15 145.5t-42.5 74.5t-57.5 18.5t-70 -17.5q-3 -1 -3 0t3 2 q58 38 99 50.5t88 12.5q145 0 145 -180v-397q0 -55 3.5 -98t18 -94.5t38.5 -85t69 -56.5t107 -23q117 0 170 61t53 191v467q0 4 -0.5 10.5t-3.5 26t-8 37.5t-16.5 40.5t-27 39t-40.5 29.5t-56 16v4h408z" />
<glyph unicode="v" horiz-adv-x="921" d="M1053 942v-4q-62 -1 -109 -13t-74 -27.5t-48 -42t-29 -45t-19 -48.5l-274 -782l-344 804q-32 69 -74 108t-86 42l-82 4v4h1139zM461 934q-47 -2 -73 -16t-30.5 -38t-1 -45.5t14.5 -52.5l176 -467l164 449q12 31 16 59t0 53.5t-23 41t-53 16.5q-95 5 -190 0z" />
<glyph unicode="w" d="M1333 942v-4q-59 -1 -105 -22t-74.5 -56.5t-44 -66t-28.5 -68.5l-237 -745l-273 696l-223 -696l-297 768q-32 90 -89.5 138t-151.5 52v4h1523zM358 934h-10q-96 0 -117 -46.5t15 -152.5l143 -385l133 391q3 19 5.5 43t-8 50.5t-27.5 48.5t-52 36.5t-82 14.5zM895 934h-70 q-43 0 -71 -13t-37.5 -34t-9 -44t9.5 -48l166 -445l127 381q11 27 8 62t-13 66.5t-39.5 53t-70.5 21.5z" />
<glyph unicode="x" d="M1028 250q-3 0 -3 1t3 1q102 0 147 -68q37 -55 13 -111q-28 -64 -111 -72q-11 -1 -22 -1h-467v4l88 2q47 1 67.5 17.5t6.5 39.5l-213 326l-181 -242q-18 -25 -26 -46t-6 -42t27.5 -34.5t72.5 -16.5l68 -4v-4h-482v4l64 4q89 5 170 94l258 338l-236 361q-20 28 -34.5 45 t-39 39t-55.5 34t-69 15l-58 4v4h426v-4q-123 -5 -41 -121l183 -278l188 243q20 27 30 50.5t9 48t-29.5 40t-83.5 17.5v4h395v-4q-47 -1 -84.5 -12t-66.5 -33.5t-41 -34.5t-33 -38q-4 -5 -6 -7l-244 -326l275 -389q55 -71 134 -89.5t136 32.5q29 31 30.5 79.5t-39 89 t-120.5 40.5z" />
<glyph unicode="y" d="M1235 938l-156 -4q-113 -3 -159 -96q-276 -555 -451 -881q33 -35 80 -75.5t113 -86t145 -75t149 -29.5q32 0 66.5 5t72.5 18.5t67.5 33.5t46.5 53t15 74t-32 100.5t-90 128.5l-5 7q1 -1 5 -3l4 -4q68 -54 112.5 -115t61.5 -117.5t8.5 -108t-41 -90t-92 -61t-139.5 -22.5 q-78 0 -158 28t-155 79.5t-134 102.5t-125 118q-127 -233 -344 -233q-71 0 -124 20.5t-80 55t-38.5 76t0 86t36 83.5t68 69.5t97.5 43.5q181 43 347 -111l51 98l-211 601q-8 23 -21 48.5t-37 58t-53 57.5t-71 43t-89 20l-116 4h2v4h1374v-4zM553 307l199 461 q75 158 -117 166q-61 3 -105 0q-45 -1 -72.5 -17t-37 -41t-9 -51.5t8.5 -56.5zM70 -281q69 0 152.5 62.5t156.5 189.5q-35 32 -54.5 49t-49 39.5t-51 32.5t-50 19t-57.5 8.5t-62 -8.5q-47 -11 -86 -38t-62 -62t-35 -75t-4 -78t29.5 -69t66.5 -50.5t106 -19.5z" />
<glyph unicode="z" horiz-adv-x="1044" d="M784 199l258 -199h-1015l411 518q-78 72 -141.5 102t-130.5 23q-70 -10 -100 -52.5t-20.5 -97.5t41.5 -112.5t79 -99.5q14 -11 9 -9q-2 1 -9 4t-17.5 9.5t-38 30t-48.5 50t-38.5 71t-17.5 93.5q0 38 12 68.5t34.5 50.5t53 31t70 7.5t83 -19t94.5 -48t102 -79.5l282 354 h-440q-79 0 8 -104q22 -26 45 -48l-258 197l897 2v-2l-407 -522q74 -63 138.5 -88.5t131.5 -18.5q78 11 114.5 56.5t30 101.5t-45 114t-99.5 95q-3 2 -3 3t3 -1q6 -3 17 -9.5t38 -30t48 -50.5t38 -72t17 -94q0 -62 -35.5 -103t-94 -51.5t-143.5 20t-174 103.5l-264 -338h539 q79 0 -9 98q-22 25 -45 46z" />
<glyph unicode="{" horiz-adv-x="614" d="M547 1401q-56 -3 -102 -17.5t-79 -34t-59.5 -53.5t-43 -63.5t-28.5 -75.5t-17.5 -78t-8.5 -83.5t-3.5 -79t-0.5 -76.5v-4q0 -24 -16.5 -45t-40 -34.5t-47 -24t-39.5 -14.5l-17 -5q7 -1 17.5 -4t38 -13.5t48.5 -23.5t38.5 -35.5t17.5 -48.5q0 -195 20 -289 q52 -232 260 -269q29 -5 62 -7q-21 4 -41 13.5t-47 38.5t-46.5 72.5t-33.5 122t-14 179.5v118q0 34 -14.5 61.5t-35.5 42.5t-42 25t-35 14l-15 3h15.5t34 5t43 15.5t34 35.5t15.5 60v146q0 102 14 180.5t33.5 122t46 72.5t47 38.5t41.5 12.5z" />
<glyph unicode="|" horiz-adv-x="819" d="M627 -246l-33 -6l-25 82l17 -88l-31 -12l-8 39l2 -17l-12 -14l-23 12l4 17l-20 83l-6 70q-1 -8 -5.5 -21.5t-5.5 -21.5q-18 -89 -39 -127l-12 -24l-12 -11l-19 25l-14 -29l-25 10h-4l-2 -2l-20 19h-6v-8l-31 20l18 37q19 28 29 63q49 124 53 140l-43 -86l-69 -142l-4 -12 l-33 12l16 29q0 2 3 5.5t8 9.5t8 12q2 9 11.5 24.5t12.5 22.5l-6 -2v10q-18 -17 -35.5 -35.5t-25.5 -28.5l-9 -10l-12 -16l-29 20l17 17q2 0 4 4q5 0 8 10l33 31q5 5 22.5 23t28.5 31t19 26v2l-19 -4l-27 -31q-20 -26 -42 -51t-34 -37l-12 -12l-4 -19l-30 33l14 10l6 6 q5 1 12.5 10t10.5 11q42 48 59 71q4 4 15 17.5t18 19.5l-8 6l18 17l-4 24h20l15 19l-2 6q41 79 51 100l29 115q19 71 24 143l-12 7l2 14h-2l6 14l-8 8l4 2l-4 3l6 12l-16 45l28 14v15l31 4q3 39 1 53t-11 41l2 325l-35 232l12 221l-2 227q0 3 3 7t13 8t25 4q39 0 39 -19 l-10 -448l28 -225l-4 -64q-5 -40 2 -141q3 -73 7 -113l2 -4l-2 -41q-1 -13 -5 -63l15 -4l-6 -46v-12h8l6 -28l-4 -3l2 -18l2 -2l-4 -2v-10l2 -8l-12 -5v-57l2 -250l35 -178q19 -70 40 -133l3 -10zM473 1642q-27 0 -27 -4t1.5 -5.5t5.5 -2.5l4 -2h16q19 0 21 2l2 8q0 4 -23 4 zM467 981l4 -18v-13q2 -37 2 -315q10 -36 10 -96h15l10 12l10 -8q1 14 2 39.5t2 38.5l2 -5v15h-2v10h-2v4q0 6 -2 10q0 7 -1 19t-1 18l-6 115q-2 41 -1 76t3 57l2 23l-31 219l-39 8q7 6 23 6l6 2q3 1 10 16l13 410q-7 -2 -23 -2l-27 2q6 -96 0 -211q0 -52 -2 -107.5 t-4 -85.5l-2 -30l31 -211zM504 518h2q0 -10 -1 -29.5t-1 -29.5h10q2 0 2 2q0 9 1 28t1 29v2l-2 4v2l-6 4l-4 -6l-2 -4v-2zM528 524l-4 -4h13l2 2zM446 522v-20l13 -39q0 29 2 35v24h-15zM479 459l2 -2q13 0 15 2v61h-17v-61zM522 463q6 0 6 4l4 4v39h-8q0 -31 -2 -47z M430 496l4 -21l4 -2l6 -6h2l-2 10l-6 23v4l-10 -2zM471 504v-6q0 -4 -2 -17t-2 -22h8q0 9 -1 24t-1 21h-2zM518 444q7 1 13 3t8 4l2 2l-6 8l-3 -2l-16 -4q-2 -2 -12 -2h-4q-24 -4 -54 6l-10 2l-4 -8q15 -7 35 -13q21 -6 51 4zM516 428l25 6q0 2 -1 5t-1 5q-6 -6 -11 -6 q-20 -10 -49 -10v4q-21 0 -45 12l4 -4q4 -4 6 -4q4 -1 7.5 -3t5 -3t4.5 -1.5t6 -0.5q2 0 4 -2h6zM436 432l-4 -6q12 -6 41 -12q14 -1 30 2t25 6l9 4q-7 0 -19 -4l-24 -2h-17h-10q-23 8 -31 12zM489 403q12 0 24.5 1.5t18.5 3.5l7 2l-2 8q-20 -6 -45 -8q-12 -1 -26.5 1 t-23.5 5l-8 2l-2 -6l4 -2h2l9 -2q9 -2 21 -4t21 -1zM561 -111l35 -125l2 -6l16 4l-2 7l-16 34q-2 8 -16.5 59.5t-22.5 82.5t-16 75.5t-9 73.5q-2 61 -2 250q0 10 1 28.5t1 28.5q-2 -2 -8 -2h-6q0 -20 -2 -32q0 -176 2 -250q0 -4 1 -12t1 -11q0 -15 4 -51q14 -75 31 -139 q0 -1 2 -7t4 -8zM434 301q-8 -69 -31 -151q-2 -6 -8 -50q-1 -2 -2 -7.5t-2 -8.5l-10 -55q-3 -13 -14 -21v-2h8l6 -12l8 29q2 2 2 8q2 7 10 51v4q10 24 31 123v2q0 3 6 45q0 4 2 8l13 76q4 2 4 6l4 19q0 5 2 11t2 7q2 4 2 12v4h-16q-2 -9 -4.5 -26t-4.5 -25q-1 -4 -4 -20 t-4 -27zM352 -258l2 2q59 119 82 219q1 3 2 9.5t2 9.5l6 32v19q0 12 5 20v15q0 2 2 15t4 19l16 189q0 10 2 14q0 21 2 25v24q-2 4 -2 13v22q0 6 -2 6l-6 -30q0 -27 -2 -39l-19 -144q0 -17 -4 -67l-6 -66v-14l-2 -21q-1 -4 -2 -14.5t-2 -13.5q-12 -61 -29 -90l-20 -68 q-23 -41 -29 -59q-1 -5 -3.5 -11t-2.5 -8l-2 -2l-2 -4l6 -2l4 -2v2zM489 -49q0 12 5 22q0 9 4 33v389h-17v-86q0 -11 1 -33t1 -34v-133q0 -28 -1 -63.5t-1 -37.5q-2 -2 -2 -8q0 -18 -12 -92l-6 -19q-5 -21 -14.5 -56.5t-10.5 -39.5l-12 -35q-9 -14 -10 -14l-8 -2l12 -16l4 4 q10 17 12 26q28 63 39 127q2 7 6.5 32.5t9.5 35.5zM504 395v-30q0 -8 1 -25t1 -25v-10q0 19 4 55v7q0 2 1.5 14.5t-1.5 13.5h-6zM377 -43l10 31q25 58 27 61l12 35q1 4 3 11t3.5 11.5t3.5 8.5q2 21 7.5 80.5t7.5 91.5l-7 -31q-3 -43 -10 -92l-2 -17q0 -4 -2 -6l-6 -30 q-2 -5 -5 -14t-5 -13l-6 -6q-2 -10 -6.5 -30t-4.5 -28l-12 -30l2 -2l-10 -15l-2 -2zM477 260l-8 -90q5 28 8 74v16zM344 211v14l-8 6l6 9v8h8l6 10l11 -8l12 2v-10l8 -9l-6 -6l2 -12h-16l-7 -8l-8 6zM573 -248v4q-1 1 -1.5 4.5t-1.5 11.5t-3 15l-20 117q-31 141 -33 188 q-4 43 -4 162q-2 -49 -2 -152q3 -51 10 -96q6 -29 15 -85t14 -79l6 -59q7 -29 8 -29l2 -6zM342 231l6 -4v-12l6 2l6 -4l7 4h12l-2 12l6 4l-8 7v8h-13l-6 4l-4 -6h-6l2 -8zM389 141q-7 -27 -51 -108l8 -10h2q5 12 20.5 38t20.5 43q16 86 19 109q-13 -56 -19 -72zM477 182 l-2 -18q-1 -7 -4 -24t-4 -27q0 -9 -2 -11q-6 -38 -6 -59q0 9 6 12l4 23q2 4 2 8l6 25v71zM231 66l-20 12l18 18l-4 19h23l14 22l19 -20l22 6v-23l19 -10l-17 -20l4 -19h-24l-13 -20l-20 16l-14 -4l-5 -4zM231 111l7 -17l-19 -16l19 -10v-17l18 2l14 -16l15 16h18l-2 19 l12 14l-14 14v15h-23l-14 14l-12 -16zM324 -244l4 4q0 3 6 9q1 2 2 8t3 12t5 10l41 101q18 51 29 71l12 47q4 4 4 17h2v51q-2 -20 -12 -39q0 -10 -2 -12q0 -11 -4 -17q-30 -99 -64 -174q-14 -45 -26 -61l-11 -27l-4 -4l13 -4zM385 -276v6q47 110 74 182q13 59 16 96 q2 10 2 66h-2l-6 -37v-2q-3 -66 -10 -86q0 -2 -2 -4q-24 -78 -51 -129q-3 -9 -11 -29.5t-10 -28.5l-10 -18l-2 -12zM350 -49h23l-6 12v10l16 15l-4 2h-2l-10 4l-5 6v18h-18l-10 13l-19 -15h-14l2 -24l-16 -15l8 -2l6 -4l2 -2l2 -12v-8h2l17 2l16 -12zM541 -244v2q0 7 -2 11 q-1 5 -9.5 52.5t-15.5 93t-10 81.5l-8 -47q3 -44 18 -96q3 -42 10 -66q0 -7 2 -14.5t2 -8.5q1 -2 0 -4t-2 -3l-2 -1l13 -6zM184 -51l-12 6l10 8l-2 10h8l9 13l6 -11l14 2v-10l8 -8l-8 -8l2 -10h-12l-4 -7l-8 5h-11v10zM184 -31l2 -8l-6 -6l6 -4v-8h9l6 -4l4 6h8l-2 6l8 8 l-8 4v8h-8l-4 6l-9 -8h-6zM301 -51v18l-2 2q-3 -4 -17 -21t-20 -26q-10 -13 -21.5 -25.5t-22.5 -24.5t-15 -17l-19 -21l-6 -8l-10 -2l14 -12l4 6q56 53 115 131zM336 -254l2 6l4 4q0 1 1 3.5t2.5 6.5t2.5 7l27 61l43 129v4q-18 -38 -29 -69l-39 -101q-6 -11 -12 -33 q-2 -2 -2 -8h-2v-2l-4 -6h4zM342 -111l8 17q7 23 23 43h-17l-6 -8q-8 -24 -10 -27l-4 -14v-6zM219 -201l4 4q29 35 72 74l-8 6l12 6l-2 13h10l6 6l2 -2l11 11t12 17l-8 7l-33 -39l-12 -11q-44 -49 -47 -53l-19 -18l-8 -6l-4 -9zM334 -121l2 10l-6 2v9h-6l-5 -2v2l-6 4l-4 -4 v-2h-8l2 -9l-6 -6l6 -6v-8l6 2h2l4 -8l7 8h12v8zM274 -240l2 4q27 42 58 105h-10l-9 -12l-2 4l-26 -45l-21 -43l-4 -9zM414 -150v7l-8 -25zM379 -240l12 33q-10 -25 -18 -41zM414 -227l-13 -29l5 4l8 8v17z" />
<glyph unicode="}" horiz-adv-x="614" d="M61 1405q11 2 29 -2q-10 2 -29 2zM90 1403q71 -3 126 -25.5t90.5 -52t60 -81t37 -91.5t18.5 -106t7 -101.5t1 -100.5v-7q0 -36 40 -67t80 -43l40 -13q-3 -1 -9 -2t-22.5 -6.5t-31.5 -11.5t-33.5 -16.5t-32 -22.5t-22.5 -29t-9 -35q0 -193 -19 -284q-48 -232 -248 -273 q-34 -6 -73 -8q20 3 40.5 12.5t47 38.5t46.5 72.5t34 122t14 180.5v118q0 34 14.5 61t35.5 42t42 25t36 13l14 3h-15.5t-34 6t-43 17t-34 36t-15.5 60v143q0 102 -14 180.5t-34 122t-46.5 72.5t-47 38.5t-40.5 12.5z" />
<glyph unicode="~" d="M193 561q2 3 5.5 8.5t18.5 20t35 25t57 19.5t82 9q43 0 80 -16t67.5 -38.5t65 -45t87 -38.5t118.5 -16q58 0 105.5 18.5t74 45.5t44.5 53.5t24 45.5l6 18q-1 -3 -3.5 -8t-16 -18.5t-33 -23.5t-57.5 -18t-87 -8q-52 0 -92 15t-66.5 37t-54 43.5t-70.5 36.5t-100 15 q-58 0 -109 -18.5t-83 -45t-55 -53t-33 -44.5z" />
<glyph unicode="&#xa1;" horiz-adv-x="491" d="M139 1315q0 -47 33 -81t80 -34t81 34t34 81q0 46 -34 79t-81 33t-80 -33t-33 -79zM252 1094q-16 -68 -39.5 -175t-63.5 -330.5t-40 -320.5q0 -272 143 -272t143 272q0 99 -35.5 305.5t-71.5 363.5z" />
<glyph unicode="&#xa5;" d="M733 1434h637v-4q-46 0 -125 -5q-65 -5 -98 -22.5t-62 -71.5l-335 -631h305v-127h-307v-98h307v-127h-307v-78q0 -38 4.5 -77t16 -82t35.5 -71.5t58 -31.5l88 -4v-4h-573v4q49 -2 98 4q28 4 48.5 33.5t30 73.5t13.5 82.5t4 74.5v76h-307v127h307v98h-307v127h305 l-204 492q-11 27 -25 52.5t-40.5 59.5t-57.5 58.5t-78 43.5t-101 21q-76 3 -145 3v4h748v-4q-12 0 -55.5 -2t-73.5 -3q-121 -4 -72 -148q5 -14 18 -48q44 -106 104 -263.5t70 -183.5l248 455q19 34 26.5 64.5t3.5 58t-30.5 45t-73.5 20.5q-76 5 -98 5v4z" />
<glyph unicode="&#xa8;" horiz-adv-x="819" d="M346 1362l-31 29v43h-43l-30 30l-29 -30h-43v-43l-29 -29l29 -31v-43h43l29 -28l30 28h43v43zM715 1362l-31 29v43h-43l-31 30l-28 -30h-43v-43l-29 -29l29 -31v-43h43l28 -28l31 28h43v43z" />
<glyph unicode="&#xad;" d="M1047 700l-54 -125h-739l53 125h740z" />
<glyph unicode="&#xaf;" horiz-adv-x="819" d="M748 1477l53 125h-740l-53 -125h740z" />
<glyph unicode="&#xb0;" d="M604 1016l86 98h135v129l86 92l-86 95v120l-135 6l-86 93l-88 -93l-133 -6v-120l-86 -95l86 -92v-129h133zM449 1184v86l-62 65l62 70v84l98 2l57 61l60 -61l98 -2v-84l61 -70l-61 -65v-86h-98l-60 -64l-57 64h-98z" />
<glyph unicode="&#xb1;" d="M618 1374q0 -127 -11 -216.5t-39.5 -160.5t-72 -114.5t-114.5 -72t-160.5 -39.5t-216.5 -11q127 0 217 -11t160.5 -39.5t114 -72t72 -114.5t39.5 -161t11 -217q0 127 11 217t39.5 161t72 114.5t114.5 72t161 39.5t217 11q-127 0 -217 11t-161 39.5t-114.5 72t-72 114 t-39.5 160.5t-11 217zM1122 8l15 41h-1045l-14 -41h1044z" />
<glyph unicode="&#xb4;" horiz-adv-x="819" d="M584 1585l24 -29l-24 -28v-35l-207 -172h-129l205 301h39l26 27l27 -27h39v-37zM565 1536l19 20l-19 21v25l-28 2l-19 18l-18 -18l-29 -2v-25l-18 -21l18 -20v-27h29l18 -20l19 20h28v27z" />
<glyph unicode="&#xb7;" d="M1034 559q-52 -16 -92 2q2 -4 2 -14q0 -24 -13 -44.5t-34 -29.5q6 -15 6 -29q0 -35 -24.5 -59.5t-59.5 -24.5q-32 0 -55 23q-26 -23 -57 -23q-27 0 -49 16.5t-31 41.5h-4q-34 0 -58 24.5t-24 59.5q0 36 24 57q-24 24 -24 59q0 34 24 59t58 25q3 0 7.5 -1t6.5 -1 q0 35 24 59.5t58 24.5h8q-8 25 -0.5 50t25.5 32q-11 -7 -13.5 -18t3.5 -22.5t14.5 -23t21.5 -23t23 -19.5t20 -15q6 3 13 3q29 0 55 -23q8 49 0 88l55 -20q-6 -54 -37 -95q8 -13 8 -32q0 -4 -1 -11t-1 -10q63 -103 121 -86zM700 762q-20 0 -34.5 -14.5t-14.5 -34.5 q0 -7 4 -19q11 -25 37 -28h8q20 0 34 13.5t14 33.5t-14 34.5t-34 14.5zM813 725l-14 -2q-14 -5 -24.5 -18t-10.5 -29q0 -19 14 -33l2 -2q6 -5 19 -10q4 -2 14 -2q20 0 33.5 13.5t13.5 33.5t-13.5 34.5t-33.5 14.5zM555 631q0 -20 14.5 -34.5t34.5 -14.5h2q4 0 8 2 q16 3 26.5 16t10.5 31q0 20 -13.5 33.5t-33.5 13.5t-34.5 -13.5t-14.5 -33.5zM778 575q0 17 -10.5 30t-26.5 18q-20 -5 -22 -5h-6q-1 0 -3 -1t-3 -1q-25 -14 -25 -41q0 -10 2 -14q0 -1 1 -3.5t1 -4.5l8 -12q19 -15 35 -15q20 0 34.5 14.5t14.5 34.5zM862 514q27 14 27 45 q0 16 -15 35q-18 -12 -40 -12h-5q-14 0 -26 6q-10 -13 -10 -29q0 -17 14 -35q4 2 12 2h4q21 0 39 -12zM604 465q13 0 25 6q5 18 22 35v6q0 16 -8 27q-6 -2 -20 -2q-31 0 -48 14q-20 -13 -20 -39q0 -20 14.5 -33.5t34.5 -13.5zM686 408q20 0 34.5 13.5t14.5 33.5q0 18 -12 30 q-5 8 -16 15q-2 0 -6.5 1t-6.5 1q-2 2 -8 2q-20 0 -33.5 -14.5t-13.5 -34.5q0 -19 12 -31q13 -16 35 -16zM801 408q20 0 33.5 13.5t13.5 33.5v10q-10 34 -43 37q-2 2 -4 2q-6 0 -10 -2q-7 0 -19 -8l-12 -13q-8 -16 -8 -26q0 -32 30 -45q4 -2 19 -2z" />
<glyph unicode="&#xb8;" horiz-adv-x="819" d="M360 0h95l-84 -127q1 0 15 0.5t26.5 0.5t32.5 -1t37 -5.5t37 -11t35.5 -19t28.5 -28.5t20 -40t7 -54q0 -52 -29 -85t-69 -43.5t-89 -10.5t-81 5t-55 11l-15 78q217 -39 217 49q0 52 -74.5 65t-195.5 -1z" />
<glyph unicode="&#xbf;" horiz-adv-x="983" d="M489 795q-47 0 -79.5 33.5t-32.5 80.5q0 46 32.5 79.5t79.5 33.5t81 -33.5t34 -79.5q0 -47 -34 -80.5t-81 -33.5zM487 -410q-212 0 -325 137q-88 107 -81 252q7 140 98 233q92 94 237 95v436q24 -18 71 -18q22 0 42 5.5t29 11.5l9 6v-451q-3 1 -8 2.5t-23.5 4t-39.5 1.5 l-31 -6q-24 -8 -48 -20t-57.5 -38.5t-58.5 -61.5t-43 -91t-18 -123q0 -107 18 -179.5t53.5 -111t79.5 -54t105 -15.5q106 0 189 81.5t95 196.5q-32 -21 -79 -11.5t-83 54.5q-19 23 -23.5 55.5t6.5 63t36 55.5t65.5 33.5t96.5 -4.5q51 -14 81.5 -70.5t30.5 -142.5 q0 -57 -25 -112.5t-74 -104.5t-133.5 -79t-191.5 -30z" />
<glyph unicode="&#xc0;" d="M762 1802v35l-25 29l25 28v37h39l26 27l27 -27h39l205 -301h-129zM780 1886l-18 -20l18 -21v-26h29l18 -21l19 21h28v26l19 21l-19 20v25l-28 2l-19 18l-18 -18l-29 -2v-25zM1255 8l115 -4v-4h-717v4l115 4q62 3 97.5 63t35.5 138v381h-375q-30 -99 -59.5 -175.5 t-73.5 -157t-93 -133t-117 -86.5t-146 -34q-151 0 -238.5 76.5t-87.5 185.5q0 83 42.5 133t76.5 50q7 0 -2 -4q-70 -37 -95 -96q-16 -37 -16 -83q0 -99 86 -169t207 -70q76 0 144 53.5t114 146.5q49 100 141.5 381.5t157.5 417.5q60 124 127.5 208t159.5 134q27 14 27 33 q0 7 -13 12.5t-37.5 8.5t-49 5t-59.5 2.5t-56.5 1t-52.5 0t-35 -0.5v4h552v-4h-8v-1223q0 -82 32.5 -139t100.5 -60zM901 662v708q-49 -30 -85.5 -73t-79.5 -127.5t-99 -229.5q-26 -70 -88 -278h352zM1098 1077v281q-4 -2 -17 -15q-37 -40 -69 -102q-29 -51 -60 -141 q-8 -33 19 -39q11 -2 104 12q11 0 23 4zM1075 1294q5 19 23 19q-7 0 -13.5 -7t-5.5 -22q0 -8 5.5 -32.5t-1.5 -26.5q-8 -11 -22 -15q1 -1 8 -7.5t8 -12.5v-2q0 -6 -6 -10t-14 -4q-5 0 -10 5t-5 9q0 -3 6 -7.5t13 -4.5q9 0 13 6t-1 12q-2 2 -5.5 5t-5.5 5t-3 6l-12 -4 t-13.5 -5t-10 -5.5t-9.5 -7.5q-10 -12 -6.5 -28.5t14.5 -22.5q16 -7 28 -6t20 5l7 5l-7.5 -5t-20 -7t-29.5 4q-16 7 -20.5 24.5t10.5 40.5q13 14 37 21t30 22q2 7 2 29q-1 -4 -10 -13q-4 -1 -15 0.5t-12 -2.5q-8 -3 -6.5 -13.5t6.5 -12.5q-12 5 -11 18t13 15q5 1 12.5 -1.5 t12.5 -0.5q8 3 8 14q-4 12 -2 20zM1083 1188q-2 -2 -6 2h6l2 2q0 -2 -2 -4zM1098 973v96q-11 0 -27 -4q-72 -15 -139 -25h-4h-4h-2v-45q32 -45 59 -137q0 -1 1 -2t1 -2v-2q10 -30 10 -37q-2 4 -6.5 16.5t-7.5 18.5v4l-2 2q-27 68 -55 127v-57l65 -158l6 10v2q2 0 4 2 q4 2 20 11t27 16q10 3 28 10.5t26 9.5v127q-5 15 -13 31l-2 2l-2 4l-16 35q4 -4 7.5 -9.5t7.5 -12.5t7 -11q3 -2 3 -4t2 -2zM1040 979l2 -2q0 -1 1 -2t1 -2q21 -46 31 -84l2 -4l6 -35q-2 6 -5 17t-5 16v4q-2 0 -2 4q-5 19 -35 80v6l-22 45q18 -22 26 -43zM1028 874 q0 -2 2 -6q6 -21 6 -37q0 16 -12 37v4q-15 40 -35 82v4q-2 2 -2 5l-22 51q13 -16 28 -49q2 -2 2 -4l2 -3q26 -62 31 -84zM1098 694v117q-52 -16 -54 -16q-30 -16 -38 -31q15 -48 24 -59l6 -9q6 -2 23 -2h24h15zM1098 629v53q0 -4 -2 -6q-4 -16 -4 -25q0 -13 6 -22zM1098 510 v84h-4q-6 -11 -15 -30.5t-10 -22.5v-2q-4 -4 -4 -15q4 0 6 -2zM1098 23v464q-13 0 -19 -2q-12 -1 -35.5 -12t-35.5 -20q-45 -60 -56 -107q-3 -20 -6 -72q-9 -101 -16 -251h168z" />
<glyph unicode="&#xc1;" d="M1073 1800l-207 -172h-129l205 301h39l27 27l26 -27h39v-37l25 -28l-25 -29v-35zM961 1884l-19 -20l19 -21v-26h28l19 -21l18 21h29v26l18 21l-18 20v25l-29 2l-18 18l-19 -18l-28 -2v-25zM1255 8l115 -4v-4h-717v4l115 4q62 3 97.5 63t35.5 138v381h-375 q-30 -99 -59.5 -175.5t-73.5 -157t-93 -133t-117 -86.5t-146 -34q-151 0 -238.5 76.5t-87.5 185.5q0 83 42.5 133t76.5 50q7 0 -2 -4q-70 -37 -95 -96q-16 -37 -16 -83q0 -99 86 -169t207 -70q76 0 144 53.5t114 146.5q49 100 141.5 381.5t157.5 417.5q60 124 127.5 208 t159.5 134q27 14 27 33q0 7 -13 12.5t-37.5 8.5t-49 5t-59.5 2.5t-56.5 1t-52.5 0t-35 -0.5v4h552v-4h-8v-1223q0 -82 32.5 -139t100.5 -60zM901 662v708q-49 -30 -85.5 -73t-79.5 -127.5t-99 -229.5q-26 -70 -88 -278h352zM1098 1077v281q-4 -2 -17 -15q-37 -40 -69 -102 q-29 -51 -60 -141q-8 -33 19 -39q11 -2 104 12q11 0 23 4zM1075 1294q5 19 23 19q-7 0 -13.5 -7t-5.5 -22q0 -8 5.5 -32.5t-1.5 -26.5q-8 -11 -22 -15q1 -1 8 -7.5t8 -12.5v-2q0 -6 -6 -10t-14 -4q-5 0 -10 5t-5 9q0 -3 6 -7.5t13 -4.5q9 0 13 6t-1 12q-2 2 -5.5 5t-5.5 5 t-3 6l-12 -4t-13.5 -5t-10 -5.5t-9.5 -7.5q-10 -12 -6.5 -28.5t14.5 -22.5q16 -7 28 -6t20 5l7 5l-7.5 -5t-20 -7t-29.5 4q-16 7 -20.5 24.5t10.5 40.5q13 14 37 21t30 22q2 7 2 29q-1 -4 -10 -13q-4 -1 -15 0.5t-12 -2.5q-8 -3 -6.5 -13.5t6.5 -12.5q-12 5 -11 18t13 15 q5 1 12.5 -1.5t12.5 -0.5q8 3 8 14q-4 12 -2 20zM1083 1188q-2 -2 -6 2h6l2 2q0 -2 -2 -4zM1098 973v96q-11 0 -27 -4q-72 -15 -139 -25h-4h-4h-2v-45q32 -45 59 -137q0 -1 1 -2t1 -2v-2q10 -30 10 -37q-2 4 -6.5 16.5t-7.5 18.5v4l-2 2q-27 68 -55 127v-57l65 -158l6 10v2 q2 0 4 2q4 2 20 11t27 16q10 3 28 10.5t26 9.5v127q-5 15 -13 31l-2 2l-2 4l-16 35q4 -4 7.5 -9.5t7.5 -12.5t7 -11q3 -2 3 -4t2 -2zM1040 979l2 -2q0 -1 1 -2t1 -2q21 -46 31 -84l2 -4l6 -35q-2 6 -5 17t-5 16v4q-2 0 -2 4q-5 19 -35 80v6l-22 45q18 -22 26 -43zM1028 874 q0 -2 2 -6q6 -21 6 -37q0 16 -12 37v4q-15 40 -35 82v4q-2 2 -2 5l-22 51q13 -16 28 -49q2 -2 2 -4l2 -3q26 -62 31 -84zM1098 694v117q-52 -16 -54 -16q-30 -16 -38 -31q15 -48 24 -59l6 -9q6 -2 23 -2h24h15zM1098 629v53q0 -4 -2 -6q-4 -16 -4 -25q0 -13 6 -22zM1098 510 v84h-4q-6 -11 -15 -30.5t-10 -22.5v-2q-4 -4 -4 -15q4 0 6 -2zM1098 23v464q-13 0 -19 -2q-12 -1 -35.5 -12t-35.5 -20q-45 -60 -56 -107q-3 -20 -6 -72q-9 -101 -16 -251h168z" />
<glyph unicode="&#xc2;" d="M639 1591v41l-29 33l29 31v39l43 2l29 28l118 117h179l147 -145l41 -2v-39l29 -31l-29 -33v-41h-43l-29 -30l-30 30h-43v41l-27 33l27 31v2l-133 67l-134 -67v-2l27 -31l-27 -33v-41h-43l-30 -30l-29 30h-43zM1255 8l115 -4v-4h-717v4l115 4q62 3 97.5 63t35.5 138v381 h-375q-30 -99 -59.5 -175.5t-73.5 -157t-93 -133t-117 -86.5t-146 -34q-151 0 -238.5 76.5t-87.5 185.5q0 83 42.5 133t76.5 50q7 0 -2 -4q-70 -37 -95 -96q-16 -37 -16 -83q0 -99 86 -169t207 -70q76 0 144 53.5t114 146.5q49 100 141.5 381.5t157.5 417.5 q60 124 127.5 208t159.5 134q27 14 27 33q0 7 -13 12.5t-37.5 8.5t-49 5t-59.5 2.5t-56.5 1t-52.5 0t-35 -0.5v4h552v-4h-8v-1223q0 -82 32.5 -139t100.5 -60zM901 662v708q-49 -30 -85.5 -73t-79.5 -127.5t-99 -229.5q-26 -70 -88 -278h352zM1098 1077v281q-4 -2 -17 -15 q-37 -40 -69 -102q-29 -51 -60 -141q-8 -33 19 -39q11 -2 104 12q11 0 23 4zM1075 1294q5 19 23 19q-7 0 -13.5 -7t-5.5 -22q0 -8 5.5 -32.5t-1.5 -26.5q-8 -11 -22 -15q1 -1 8 -7.5t8 -12.5v-2q0 -6 -6 -10t-14 -4q-5 0 -10 5t-5 9q0 -3 6 -7.5t13 -4.5q9 0 13 6t-1 12 q-2 2 -5.5 5t-5.5 5t-3 6l-12 -4t-13.5 -5t-10 -5.5t-9.5 -7.5q-10 -12 -6.5 -28.5t14.5 -22.5q16 -7 28 -6t20 5l7 5l-7.5 -5t-20 -7t-29.5 4q-16 7 -20.5 24.5t10.5 40.5q13 14 37 21t30 22q2 7 2 29q-1 -4 -10 -13q-4 -1 -15 0.5t-12 -2.5q-8 -3 -6.5 -13.5t6.5 -12.5 q-12 5 -11 18t13 15q5 1 12.5 -1.5t12.5 -0.5q8 3 8 14q-4 12 -2 20zM1083 1188q-2 -2 -6 2h6l2 2q0 -2 -2 -4zM1098 973v96q-11 0 -27 -4q-72 -15 -139 -25h-4h-4h-2v-45q32 -45 59 -137q0 -1 1 -2t1 -2v-2q10 -30 10 -37q-2 4 -6.5 16.5t-7.5 18.5v4l-2 2q-27 68 -55 127 v-57l65 -158l6 10v2q2 0 4 2q4 2 20 11t27 16q10 3 28 10.5t26 9.5v127q-5 15 -13 31l-2 2l-2 4l-16 35q4 -4 7.5 -9.5t7.5 -12.5t7 -11q3 -2 3 -4t2 -2zM1040 979l2 -2q0 -1 1 -2t1 -2q21 -46 31 -84l2 -4l6 -35q-2 6 -5 17t-5 16v4q-2 0 -2 4q-5 19 -35 80v6l-22 45 q18 -22 26 -43zM1028 874q0 -2 2 -6q6 -21 6 -37q0 16 -12 37v4q-15 40 -35 82v4q-2 2 -2 5l-22 51q13 -16 28 -49q2 -2 2 -4l2 -3q26 -62 31 -84zM1098 694v117q-52 -16 -54 -16q-30 -16 -38 -31q15 -48 24 -59l6 -9q6 -2 23 -2h24h15zM1098 629v53q0 -4 -2 -6 q-4 -16 -4 -25q0 -13 6 -22zM1098 510v84h-4q-6 -11 -15 -30.5t-10 -22.5v-2q-4 -4 -4 -15q4 0 6 -2zM1098 23v464q-13 0 -19 -2q-12 -1 -35.5 -12t-35.5 -20q-45 -60 -56 -107q-3 -20 -6 -72q-9 -101 -16 -251h168z" />
<glyph unicode="&#xc3;" d="M680 1688q-45 0 -82 -8.5t-57.5 -20.5t-35 -24t-19.5 -21l-5 -8q3 7 10 19.5t33 43.5t56.5 54.5t82 43t109.5 19.5q57 0 100 -15t70.5 -37t54 -44t66.5 -37t92 -15q49 0 87 8t58 19t32.5 22t15.5 19l4 8q-2 -7 -6.5 -19.5t-23.5 -43.5t-45 -54.5t-73.5 -43t-105.5 -19.5 q-66 0 -118.5 16t-87 38.5t-65 45t-67.5 38.5t-80 16zM1255 8l115 -4v-4h-717v4l115 4q62 3 97.5 63t35.5 138v381h-375q-30 -99 -59.5 -175.5t-73.5 -157t-93 -133t-117 -86.5t-146 -34q-151 0 -238.5 76.5t-87.5 185.5q0 83 42.5 133t76.5 50q7 0 -2 -4q-70 -37 -95 -96 q-16 -37 -16 -83q0 -99 86 -169t207 -70q76 0 144 53.5t114 146.5q49 100 141.5 381.5t157.5 417.5q60 124 127.5 208t159.5 134q27 14 27 33q0 7 -13 12.5t-37.5 8.5t-49 5t-59.5 2.5t-56.5 1t-52.5 0t-35 -0.5v4h552v-4h-8v-1223q0 -82 32.5 -139t100.5 -60zM901 662v708 q-49 -30 -85.5 -73t-79.5 -127.5t-99 -229.5q-26 -70 -88 -278h352zM1098 1077v281q-4 -2 -17 -15q-37 -40 -69 -102q-29 -51 -60 -141q-8 -33 19 -39q11 -2 104 12q11 0 23 4zM1075 1294q5 19 23 19q-7 0 -13.5 -7t-5.5 -22q0 -8 5.5 -32.5t-1.5 -26.5q-8 -11 -22 -15 q1 -1 8 -7.5t8 -12.5v-2q0 -6 -6 -10t-14 -4q-5 0 -10 5t-5 9q0 -3 6 -7.5t13 -4.5q9 0 13 6t-1 12q-2 2 -5.5 5t-5.5 5t-3 6l-12 -4t-13.5 -5t-10 -5.5t-9.5 -7.5q-10 -12 -6.5 -28.5t14.5 -22.5q16 -7 28 -6t20 5l7 5l-7.5 -5t-20 -7t-29.5 4q-16 7 -20.5 24.5t10.5 40.5 q13 14 37 21t30 22q2 7 2 29q-1 -4 -10 -13q-4 -1 -15 0.5t-12 -2.5q-8 -3 -6.5 -13.5t6.5 -12.5q-12 5 -11 18t13 15q5 1 12.5 -1.5t12.5 -0.5q8 3 8 14q-4 12 -2 20zM1083 1188q-2 -2 -6 2h6l2 2q0 -2 -2 -4zM1098 973v96q-11 0 -27 -4q-72 -15 -139 -25h-4h-4h-2v-45 q32 -45 59 -137q0 -1 1 -2t1 -2v-2q10 -30 10 -37q-2 4 -6.5 16.5t-7.5 18.5v4l-2 2q-27 68 -55 127v-57l65 -158l6 10v2q2 0 4 2q4 2 20 11t27 16q10 3 28 10.5t26 9.5v127q-5 15 -13 31l-2 2l-2 4l-16 35q4 -4 7.5 -9.5t7.5 -12.5t7 -11q3 -2 3 -4t2 -2zM1040 979l2 -2 q0 -1 1 -2t1 -2q21 -46 31 -84l2 -4l6 -35q-2 6 -5 17t-5 16v4q-2 0 -2 4q-5 19 -35 80v6l-22 45q18 -22 26 -43zM1028 874q0 -2 2 -6q6 -21 6 -37q0 16 -12 37v4q-15 40 -35 82v4q-2 2 -2 5l-22 51q13 -16 28 -49q2 -2 2 -4l2 -3q26 -62 31 -84zM1098 694v117 q-52 -16 -54 -16q-30 -16 -38 -31q15 -48 24 -59l6 -9q6 -2 23 -2h24h15zM1098 629v53q0 -4 -2 -6q-4 -16 -4 -25q0 -13 6 -22zM1098 510v84h-4q-6 -11 -15 -30.5t-10 -22.5v-2q-4 -4 -4 -15q4 0 6 -2zM1098 23v464q-13 0 -19 -2q-12 -1 -35.5 -12t-35.5 -20 q-45 -60 -56 -107q-3 -20 -6 -72q-9 -101 -16 -251h168z" />
<glyph unicode="&#xc4;" d="M666 1595v43l-29 31l29 29v43h43l28 31l31 -31h43v-43l31 -29l-31 -31v-43h-43l-31 -28l-28 28h-43zM1034 1595v43l-28 31l28 29v43h43l29 31l31 -31h43v-43l30 -29l-30 -31v-43h-43l-31 -28l-29 28h-43zM1255 8l115 -4v-4h-717v4l115 4q62 3 97.5 63t35.5 138v381h-375 q-30 -99 -59.5 -175.5t-73.5 -157t-93 -133t-117 -86.5t-146 -34q-151 0 -238.5 76.5t-87.5 185.5q0 83 42.5 133t76.5 50q7 0 -2 -4q-70 -37 -95 -96q-16 -37 -16 -83q0 -99 86 -169t207 -70q76 0 144 53.5t114 146.5q49 100 141.5 381.5t157.5 417.5q60 124 127.5 208 t159.5 134q27 14 27 33q0 7 -13 12.5t-37.5 8.5t-49 5t-59.5 2.5t-56.5 1t-52.5 0t-35 -0.5v4h552v-4h-8v-1223q0 -82 32.5 -139t100.5 -60zM901 662v708q-49 -30 -85.5 -73t-79.5 -127.5t-99 -229.5q-26 -70 -88 -278h352zM1098 1077v281q-4 -2 -17 -15q-37 -40 -69 -102 q-29 -51 -60 -141q-8 -33 19 -39q11 -2 104 12q11 0 23 4zM1075 1294q5 19 23 19q-7 0 -13.5 -7t-5.5 -22q0 -8 5.5 -32.5t-1.5 -26.5q-8 -11 -22 -15q1 -1 8 -7.5t8 -12.5v-2q0 -6 -6 -10t-14 -4q-5 0 -10 5t-5 9q0 -3 6 -7.5t13 -4.5q9 0 13 6t-1 12q-2 2 -5.5 5t-5.5 5 t-3 6l-12 -4t-13.5 -5t-10 -5.5t-9.5 -7.5q-10 -12 -6.5 -28.5t14.5 -22.5q16 -7 28 -6t20 5l7 5l-7.5 -5t-20 -7t-29.5 4q-16 7 -20.5 24.5t10.5 40.5q13 14 37 21t30 22q2 7 2 29q-1 -4 -10 -13q-4 -1 -15 0.5t-12 -2.5q-8 -3 -6.5 -13.5t6.5 -12.5q-12 5 -11 18t13 15 q5 1 12.5 -1.5t12.5 -0.5q8 3 8 14q-4 12 -2 20zM1083 1188q-2 -2 -6 2h6l2 2q0 -2 -2 -4zM1098 973v96q-11 0 -27 -4q-72 -15 -139 -25h-4h-4h-2v-45q32 -45 59 -137q0 -1 1 -2t1 -2v-2q10 -30 10 -37q-2 4 -6.5 16.5t-7.5 18.5v4l-2 2q-27 68 -55 127v-57l65 -158l6 10v2 q2 0 4 2q4 2 20 11t27 16q10 3 28 10.5t26 9.5v127q-5 15 -13 31l-2 2l-2 4l-16 35q4 -4 7.5 -9.5t7.5 -12.5t7 -11q3 -2 3 -4t2 -2zM1040 979l2 -2q0 -1 1 -2t1 -2q21 -46 31 -84l2 -4l6 -35q-2 6 -5 17t-5 16v4q-2 0 -2 4q-5 19 -35 80v6l-22 45q18 -22 26 -43zM1028 874 q0 -2 2 -6q6 -21 6 -37q0 16 -12 37v4q-15 40 -35 82v4q-2 2 -2 5l-22 51q13 -16 28 -49q2 -2 2 -4l2 -3q26 -62 31 -84zM1098 694v117q-52 -16 -54 -16q-30 -16 -38 -31q15 -48 24 -59l6 -9q6 -2 23 -2h24h15zM1098 629v53q0 -4 -2 -6q-4 -16 -4 -25q0 -13 6 -22zM1098 510 v84h-4q-6 -11 -15 -30.5t-10 -22.5v-2q-4 -4 -4 -15q4 0 6 -2zM1098 23v464q-13 0 -19 -2q-12 -1 -35.5 -12t-35.5 -20q-45 -60 -56 -107q-3 -20 -6 -72q-9 -101 -16 -251h168z" />
<glyph unicode="&#xc5;" d="M770 1645v86l-57 61l57 63v80l88 4l60 62l57 -62l90 -4v-80l57 -63l-57 -61v-86h-90l-57 -66l-60 66h-88zM813 1839l-41 -47l41 -43v-57h66l39 -43l38 43h66v57l41 43l-41 47v55l-66 2l-38 41l-39 -41l-66 -2v-55zM1255 8l115 -4v-4h-717v4l115 4q62 3 97.5 63t35.5 138 v381h-375q-30 -99 -59.5 -175.5t-73.5 -157t-93 -133t-117 -86.5t-146 -34q-151 0 -238.5 76.5t-87.5 185.5q0 83 42.5 133t76.5 50q7 0 -2 -4q-70 -37 -95 -96q-16 -37 -16 -83q0 -99 86 -169t207 -70q76 0 144 53.5t114 146.5q49 100 141.5 381.5t157.5 417.5 q60 124 127.5 208t159.5 134q27 14 27 33q0 7 -13 12.5t-37.5 8.5t-49 5t-59.5 2.5t-56.5 1t-52.5 0t-35 -0.5v4h552v-4h-8v-1223q0 -82 32.5 -139t100.5 -60zM901 662v708q-49 -30 -85.5 -73t-79.5 -127.5t-99 -229.5q-26 -70 -88 -278h352zM1098 1077v281q-4 -2 -17 -15 q-37 -40 -69 -102q-29 -51 -60 -141q-8 -33 19 -39q11 -2 104 12q11 0 23 4zM1075 1294q5 19 23 19q-7 0 -13.5 -7t-5.5 -22q0 -8 5.5 -32.5t-1.5 -26.5q-8 -11 -22 -15q1 -1 8 -7.5t8 -12.5v-2q0 -6 -6 -10t-14 -4q-5 0 -10 5t-5 9q0 -3 6 -7.5t13 -4.5q9 0 13 6t-1 12 q-2 2 -5.5 5t-5.5 5t-3 6l-12 -4t-13.5 -5t-10 -5.5t-9.5 -7.5q-10 -12 -6.5 -28.5t14.5 -22.5q16 -7 28 -6t20 5l7 5l-7.5 -5t-20 -7t-29.5 4q-16 7 -20.5 24.5t10.5 40.5q13 14 37 21t30 22q2 7 2 29q-1 -4 -10 -13q-4 -1 -15 0.5t-12 -2.5q-8 -3 -6.5 -13.5t6.5 -12.5 q-12 5 -11 18t13 15q5 1 12.5 -1.5t12.5 -0.5q8 3 8 14q-4 12 -2 20zM1083 1188q-2 -2 -6 2h6l2 2q0 -2 -2 -4zM1098 973v96q-11 0 -27 -4q-72 -15 -139 -25h-4h-4h-2v-45q32 -45 59 -137q0 -1 1 -2t1 -2v-2q10 -30 10 -37q-2 4 -6.5 16.5t-7.5 18.5v4l-2 2q-27 68 -55 127 v-57l65 -158l6 10v2q2 0 4 2q4 2 20 11t27 16q10 3 28 10.5t26 9.5v127q-5 15 -13 31l-2 2l-2 4l-16 35q4 -4 7.5 -9.5t7.5 -12.5t7 -11q3 -2 3 -4t2 -2zM1040 979l2 -2q0 -1 1 -2t1 -2q21 -46 31 -84l2 -4l6 -35q-2 6 -5 17t-5 16v4q-2 0 -2 4q-5 19 -35 80v6l-22 45 q18 -22 26 -43zM1028 874q0 -2 2 -6q6 -21 6 -37q0 16 -12 37v4q-15 40 -35 82v4q-2 2 -2 5l-22 51q13 -16 28 -49q2 -2 2 -4l2 -3q26 -62 31 -84zM1098 694v117q-52 -16 -54 -16q-30 -16 -38 -31q15 -48 24 -59l6 -9q6 -2 23 -2h24h15zM1098 629v53q0 -4 -2 -6 q-4 -16 -4 -25q0 -13 6 -22zM1098 510v84h-4q-6 -11 -15 -30.5t-10 -22.5v-2q-4 -4 -4 -15q4 0 6 -2zM1098 23v464q-13 0 -19 -2q-12 -1 -35.5 -12t-35.5 -20q-45 -60 -56 -107q-3 -20 -6 -72q-9 -101 -16 -251h168z" />
<glyph unicode="&#xc6;" horiz-adv-x="2314" d="M1599 49h445q74 0 -10 94l-39 39l235 -182h-1577v4l115 4q62 3 97.5 63t35.5 138v381h-375q-30 -99 -59.5 -175.5t-73.5 -157t-93 -133t-117 -86.5t-146 -34q-151 0 -238.5 76.5t-87.5 185.5q0 83 42.5 133t76.5 50q7 0 -2 -4q-70 -37 -95 -96q-16 -37 -16 -83 q0 -99 86 -169t207 -70q76 0 144 53.5t114 146.5q49 100 141.5 381.5t157.5 417.5q60 124 127.5 208t159.5 134q27 14 27 33q0 7 -13 12.5t-37.5 8.5t-49 5t-59.5 2.5t-56.5 1t-52.5 0t-35 -0.5v4h552v-4h-8v-1223q0 -77 29 -133t90 -64q164 22 164 160v1073 q0 105 -28.5 146t-104.5 41h-115v4h1073l-235 -181l40 40q79 90 9 91h-445v-616h314q16 0 26.5 1t28.5 7.5t29 18.5t19.5 37t8.5 61q0 3 2.5 3t2.5 -3q0 -137 127 -137q6 0 6 -2t-6 -2q-127 0 -127 -142q0 -3 -2 -4q-2 1 -3 4q0 37 -8.5 63t-19.5 38.5t-29 19t-28.5 7.5 t-26.5 1h-314v-690zM901 662v708q-49 -30 -85.5 -73t-79.5 -127.5t-99 -229.5q-26 -70 -88 -278h352zM1098 1077v281q-4 -2 -17 -15q-37 -40 -69 -102q-29 -51 -60 -141q-8 -33 19 -39q11 -2 104 12q11 0 23 4zM1075 1294q5 19 23 19q-7 0 -13.5 -7t-5.5 -22q0 -8 5.5 -32.5 t-1.5 -26.5q-8 -11 -22 -15q1 -1 8 -7.5t8 -12.5v-2q0 -6 -6 -10t-14 -4q-5 0 -10 5t-5 9q0 -3 6 -7.5t13 -4.5q9 0 13 6t-1 12q-2 2 -5.5 5t-5.5 5t-3 6l-12 -4t-13.5 -5t-10 -5.5t-9.5 -7.5q-10 -12 -6.5 -28.5t14.5 -22.5q16 -7 28 -6t20 5l7 5l-7.5 -5t-20 -7t-29.5 4 q-16 7 -20.5 24.5t10.5 40.5q13 14 37 21t30 22q2 7 2 29q-1 -4 -10 -13q-4 -1 -15 0.5t-12 -2.5q-8 -3 -6.5 -13.5t6.5 -12.5q-12 5 -11 18t13 15q5 1 12.5 -1.5t12.5 -0.5q8 3 8 14q-4 12 -2 20zM1083 1188q-2 -2 -6 2h6l2 2q0 -2 -2 -4zM1098 973v96q-11 0 -27 -4 q-72 -15 -139 -25h-4h-4h-2v-45q32 -45 59 -137q0 -1 1 -2t1 -2v-2q10 -30 10 -37q-2 4 -6.5 16.5t-7.5 18.5v4l-2 2q-27 68 -55 127v-57l65 -158l6 10v2q2 0 4 2q4 2 20 11t27 16q10 3 28 10.5t26 9.5v127q-5 15 -13 31l-2 2l-2 4l-16 35q4 -4 7.5 -9.5t7.5 -12.5t7 -11 q3 -2 3 -4t2 -2zM1040 979l2 -2q0 -1 1 -2t1 -2q21 -46 31 -84l2 -4l6 -35q-2 6 -5 17t-5 16v4q-2 0 -2 4q-5 19 -35 80v6l-22 45q18 -22 26 -43zM1028 874q0 -2 2 -6q6 -21 6 -37q0 16 -12 37v4q-15 40 -35 82v4q-2 2 -2 5l-22 51q13 -16 28 -49q2 -2 2 -4l2 -3 q26 -62 31 -84zM1098 694v117q-52 -16 -54 -16q-30 -16 -38 -31q15 -48 24 -59l6 -9q6 -2 23 -2h24h15zM1098 629v53q0 -4 -2 -6q-4 -16 -4 -25q0 -13 6 -22zM1098 510v84h-4q-6 -11 -15 -30.5t-10 -22.5v-2q-4 -4 -4 -15q4 0 6 -2zM1098 23v464q-13 0 -19 -2 q-12 -1 -35.5 -12t-35.5 -20q-45 -60 -56 -107q-3 -20 -6 -72q-9 -101 -16 -251h168z" />
<glyph unicode="&#xc7;" horiz-adv-x="983" d="M907 1042q2 -12 48 -14t91 2l46 4q-1 -3 -4 -7.5t-11.5 -18.5t-17.5 -24.5t-22.5 -24.5t-26 -19.5t-28.5 -9.5t-30 6q-58 30 -125.5 38t-114 1t-97 -18.5t-62.5 -12.5q-25 -1 -62 30t-61 62l-24 31q13 -4 35 -10t74.5 -15t88.5 -6q30 3 70 13l22 45q0 -33 -8 -41 q6 -17 55 -17v2q0 11 2 15q-14 0 -30 8q-4 0 -6 2q2 -2 8 -2q10 -4 31 -4v4q0 6 -3 6q-1 2 -2 5.5t-2 4.5q-21 7 -45 19q18 38 25 68.5t-2 69.5t-41 73q-74 80 -165.5 81t-160.5 -71q-168 -168 -168 -582q0 -59 1 -96t5.5 -99.5t15.5 -107.5t29 -97t48.5 -93t70.5 -72 q170 -128 357 -8q194 128 194 487q0 3 2 3t2 -3q0 -74 -3 -132.5t-12.5 -129.5t-26.5 -125t-48 -108t-72.5 -88.5t-103.5 -56t-139 -21.5h-12l-76 -115q1 0 15 0.5t26.5 0.5t32.5 -1t37 -5.5t37 -11t35.5 -19t28.5 -28.5t20 -40t7 -54q0 -52 -29 -85t-69 -43.5t-89 -10.5 t-81 5t-55 11l-15 78q218 -40 218 49q0 52 -74.5 65t-196.5 -1l142 217q-181 42 -286.5 235.5t-105.5 499.5q0 318 132.5 511.5t357.5 193.5q97 0 172.5 -34.5t116.5 -81.5t68.5 -107t35.5 -101t10 -74zM801 1030l4 4q0 1 1 2t1 2v2v2h-4q-6 0 -10 -4l-15 -10q2 6 6 10 q1 0 3.5 1t3.5 1l18 9v4q0 1 -1 3t-1 3h-14q-7 0 -15 8q-2 5 0 10h2q13 0 23 -10l-2 2v2l-4 4q0 1 -1 2t-1 2h-2q0 6 -11 13q-15 15 -41 18q-2 -4 -2 -12q0 -5 6 -17l5 -6v-6q0 -1 1 -3.5t1 -4.5q0 -4 -2 -6v-17v-2v-8q2 -5 5.5 -9t6 -6t2.5 -3q27 8 35 16q0 1 1 2t1 2z M829 1081l-2 -4q9 -9 9 -14q7 7 8 10q0 1 1 3t1 3q4 8 8 2q2 0 2 -6l-6 -8q-6 -6 -14 -8q2 -4 2 -8q0 2 5 2.5t7 -0.5h2q8 -8 12 -6q-6 -3 -12 -3q-1 0 -2.5 2t-3.5 3q-4 2 -8 -5v-6h4q6 -2 14 -2h8l4 2q4 0 4 17q0 8 -2 14q-6 15 -24 39q-2 0 -8 -6l-7 -15q0 -1 -1 -3 t-1 -3zM895 1096l-21 -15l3 -14l2 -4v-16h14l4 6l4 2zM821 1073h-4q-8 0 -10 -2q0 -4 2 -4v-2q0 -1 1 -2t1 -2l4 -8v-11q-2 0 -2 -4l-2 -2l-2 -2q8 0 12 2q1 0 4 1t6 1t3 2q2 0 2 4q0 2 -5 17q-2 6 -6 10h-2h-2v2zM864 1047q0 4 2 4q-2 -2 -2 -4zM807 1028q0 -15 20 -22 q4 -2 46 -8t63 -23q-2 4 -8.5 9t-12.5 8l-6 3q-11 7 -51 11q-23 3 -35 26q-8 -4 -14 -4h-2zM967 954q17 1 29.5 7.5t15.5 12.5l4 7q-7 5 -19.5 12t-43 18.5t-52.5 10.5q-35 -3 -41 8h-4h-10q12 -18 47 -20q25 -1 49 -8t37 -16t10 -15q-5 -14 -22 -17zM946 965q2 -1 5 2t5 7 l2 3q-1 0 -2 -1t-4.5 -2.5t-6 -2.5t-5.5 -2t-4 0q-2 0 -3 1l-4.5 4.5t-8.5 6.5q-4 1 -9 3.5t-8.5 4t-7.5 2.5q25 -12 27 -20l18 -15q0 9 6 9zM956 965q-1 -4 3.5 -5t9.5 1q16 5 16 10q1 3 -2 4.5t-10 3.5q-4 1 -8 -2.5t-7 -7.5z" />
<glyph unicode="&#xc8;" horiz-adv-x="1085" d="M383 1886l25 29v37h38l27 26l27 -26h39l204 -301h-129l-206 172v35zM408 1886l18 -20v-27h29l18 -20l19 20h28v27l19 20l-19 21v24l-28 2l-19 19l-18 -19l-29 -2v-24zM371 49h444q74 0 -10 94l-39 39l235 -182h-1073v4q248 0 248 166v1073q0 105 -28.5 146t-104.5 41 h-115v4h1073l-235 -181l40 40q79 90 9 91h-444v-616h313q21 0 34.5 2.5t34.5 12.5t32.5 38t11.5 72q0 3 2 3t2 -3q0 -137 127 -137q6 0 6 -2t-6 -2q-127 0 -127 -142q0 -4 -2 -4t-2 4q0 45 -11.5 74t-32.5 39.5t-34.5 13t-34.5 2.5h-313v-690z" />
<glyph unicode="&#xc9;" horiz-adv-x="1085" d="M719 1913l24 -29l-24 -29v-34l-207 -172h-129l205 301h39l26 26l27 -26h39v-37zM700 1864l19 20l-19 21v24l-28 2l-19 19l-18 -19l-29 -2v-24l-18 -21l18 -20v-27h29l18 -20l19 20h28v27zM371 49h444q74 0 -10 94l-39 39l235 -182h-1073v4q248 0 248 166v1073 q0 105 -28.5 146t-104.5 41h-115v4h1073l-235 -181l40 40q79 90 9 91h-444v-616h313q21 0 34.5 2.5t34.5 12.5t32.5 38t11.5 72q0 3 2 3t2 -3q0 -137 127 -137q6 0 6 -2t-6 -2q-127 0 -127 -142q0 -4 -2 -4t-2 4q0 45 -11.5 74t-32.5 39.5t-34.5 13t-34.5 2.5h-313v-690z " />
<glyph unicode="&#xca;" horiz-adv-x="1085" d="M285 1612v41l-29 33l29 30v39l43 2l28 29l119 117h178l148 -146l41 -2v-39l28 -30l-28 -33v-41h-43l-29 -31l-31 31h-43v41l-26 33l26 30v2l-133 68l-133 -68v-2l27 -30l-27 -33v-41h-43l-31 -31l-28 31h-43zM371 49h444q74 0 -10 94l-39 39l235 -182h-1073v4 q248 0 248 166v1073q0 105 -28.5 146t-104.5 41h-115v4h1073l-235 -181l40 40q79 90 9 91h-444v-616h313q21 0 34.5 2.5t34.5 12.5t32.5 38t11.5 72q0 3 2 3t2 -3q0 -137 127 -137q6 0 6 -2t-6 -2q-127 0 -127 -142q0 -4 -2 -4t-2 4q0 45 -11.5 74t-32.5 39.5t-34.5 13 t-34.5 2.5h-313v-690z" />
<glyph unicode="&#xcb;" horiz-adv-x="1085" d="M487 1690l-30 28v43h-43l-31 31l-29 -31h-43v-43l-28 -28l28 -31v-43h43l29 -29l31 29h43v43zM856 1690l-31 28v43h-43l-30 31l-29 -31h-43v-43l-29 -28l29 -31v-43h43l29 -29l30 29h43v43zM371 49h444q74 0 -10 94l-39 39l235 -182h-1073v4q248 0 248 166v1073 q0 105 -28.5 146t-104.5 41h-115v4h1073l-235 -181l40 40q79 90 9 91h-444v-616h313q21 0 34.5 2.5t34.5 12.5t32.5 38t11.5 72q0 3 2 3t2 -3q0 -137 127 -137q6 0 6 -2t-6 -2q-127 0 -127 -142q0 -4 -2 -4t-2 4q0 45 -11.5 74t-32.5 39.5t-34.5 13t-34.5 2.5h-313v-690z " />
<glyph unicode="&#xcc;" horiz-adv-x="614" d="M127 1886l25 29v37h38l27 26l27 -26h39l204 -301h-129l-206 172v35zM152 1886l18 -20v-27h29l18 -20l19 20h28v27l19 20l-19 21v24l-28 2l-19 19l-18 -19l-29 -2v-24zM377 1147v-940q0 -194 127 -199l110 -4v-4h-618v4l115 4q131 5 131 201v952q-2 2 0.5 27.5t-5 65.5 t-18.5 78t-40 65.5t-70 27.5q-37 0 -66 1.5t-39 2.5l-10 1v4h620v-4l-129 -5q-27 0 -47.5 -9.5t-32 -29.5t-18.5 -40t-9 -51t-2.5 -51t0.5 -52.5t1 -44.5zM315 1159l23 6q18 14 20 45l-1 3q0 -2 -1 -5q-4 -16 -41 -22h-10l10 33l7 22q-5 -4 -7 -8q-8 -8 -12 -10h-4 q-5 1 -3.5 14.5t7.5 26.5q4 4 4 10q8 8 -4 20q-4 9 -11 12v-1q1 -1 3 -2q10 -11 6 -17.5t-33 -28.5q-3 -2 -6 -6.5t-8.5 -18.5t2.5 -28q1 -6 2 -22.5t2 -24.5q0 -9 -1 -23t-1 -18q5 30 35 37q2 0 5.5 1t4.5 1q2 1 6 2t6 2zM326 1087q-20 -15 -25 -20q-12 -4 -14 -12 q6 6 14 12q4 2 21 4.5t22 9.5q13 15 8 54q-1 11 -2 2q-3 -33 -24 -50zM330 758q25 44 26 91t-26 81q-29 32 -43.5 61t-15 49.5t6.5 37t19.5 25t26.5 11.5q-39 -1 -56 -19t-14 -35l2 -18l2 -67q0 -2 2 -2l12 -12q21 -17 29 -58q14 -41 14 -86q0 -39 -6 -59q-4 -17 -11.5 -30 t-20 -26.5t-13.5 -15.5q33 17 66 72zM258 961l6 -254l4 4q20 17 31 51q6 54 6 55q0 33 -14 82q-11 40 -33 62zM330 633q-9 -3 -10 -1.5t6 11.5q19 27 22 45q3 16 -8 3l-12 -16q-21 -30 -27 -30q-6 1 -8 7.5t3.5 18t18.5 23.5l-17 -16q-23 -27 -28 -55q-8 -37 4.5 -108.5 t38.5 -111.5q30 -53 2 -108q-15 -26 -45 -45q50 29 62.5 82t-15.5 119q-42 101 -2 112q10 1 19.5 -3t13.5 -8l4 -5q0 2 -0.5 5t-2.5 11t-5 12t-9.5 8t-15.5 -1q-9 -4 -9 0q0 3 12 21q27 41 30 61l-1 -2q-10 -26 -21 -29z" />
<glyph unicode="&#xcd;" horiz-adv-x="614" d="M463 1913l24 -29l-24 -29v-34l-207 -172h-129l205 301h39l26 26l27 -26h39v-37zM444 1864l19 20l-19 21v24l-28 2l-19 19l-18 -19l-29 -2v-24l-18 -21l18 -20v-27h29l18 -20l19 20h28v27zM377 1147v-940q0 -194 127 -199l110 -4v-4h-618v4l115 4q131 5 131 201v952 q-2 2 0.5 27.5t-5 65.5t-18.5 78t-40 65.5t-70 27.5q-37 0 -66 1.5t-39 2.5l-10 1v4h620v-4l-129 -5q-27 0 -47.5 -9.5t-32 -29.5t-18.5 -40t-9 -51t-2.5 -51t0.5 -52.5t1 -44.5zM315 1159l23 6q18 14 20 45l-1 3q0 -2 -1 -5q-4 -16 -41 -22h-10l10 33l7 22q-5 -4 -7 -8 q-8 -8 -12 -10h-4q-5 1 -3.5 14.5t7.5 26.5q4 4 4 10q8 8 -4 20q-4 9 -11 12v-1q1 -1 3 -2q10 -11 6 -17.5t-33 -28.5q-3 -2 -6 -6.5t-8.5 -18.5t2.5 -28q1 -6 2 -22.5t2 -24.5q0 -9 -1 -23t-1 -18q5 30 35 37q2 0 5.5 1t4.5 1q2 1 6 2t6 2zM326 1087q-20 -15 -25 -20 q-12 -4 -14 -12q6 6 14 12q4 2 21 4.5t22 9.5q13 15 8 54q-1 11 -2 2q-3 -33 -24 -50zM330 758q25 44 26 91t-26 81q-29 32 -43.5 61t-15 49.5t6.5 37t19.5 25t26.5 11.5q-39 -1 -56 -19t-14 -35l2 -18l2 -67q0 -2 2 -2l12 -12q21 -17 29 -58q14 -41 14 -86q0 -39 -6 -59 q-4 -17 -11.5 -30t-20 -26.5t-13.5 -15.5q33 17 66 72zM258 961l6 -254l4 4q20 17 31 51q6 54 6 55q0 33 -14 82q-11 40 -33 62zM330 633q-9 -3 -10 -1.5t6 11.5q19 27 22 45q3 16 -8 3l-12 -16q-21 -30 -27 -30q-6 1 -8 7.5t3.5 18t18.5 23.5l-17 -16q-23 -27 -28 -55 q-8 -37 4.5 -108.5t38.5 -111.5q30 -53 2 -108q-15 -26 -45 -45q50 29 62.5 82t-15.5 119q-42 101 -2 112q10 1 19.5 -3t13.5 -8l4 -5q0 2 -0.5 5t-2.5 11t-5 12t-9.5 8t-15.5 -1q-9 -4 -9 0q0 3 12 21q27 41 30 61l-1 -2q-10 -26 -21 -29z" />
<glyph unicode="&#xce;" horiz-adv-x="614" d="M29 1612v41l-29 33l29 30v39l43 2l28 29l119 117h178l148 -146l41 -2v-39l28 -30l-28 -33v-41h-43l-29 -31l-31 31h-43v41l-26 33l26 30v2l-133 68l-133 -68v-2l27 -30l-27 -33v-41h-43l-31 -31l-28 31h-43zM-6 1430v4h620v-4l-129 -5q-27 0 -47.5 -9.5t-32 -29.5 t-18.5 -40t-9 -51t-2.5 -51t0.5 -52.5t1 -44.5v-940q0 -194 127 -199l110 -4v-4h-618v4l115 4q131 5 131 201v952q-2 2 0.5 27.5t-5 65.5t-18.5 78t-40 65.5t-70 27.5q-37 0 -66 1.5t-39 2.5zM268 1257q-3 -2 -6 -6.5t-8.5 -18.5t2.5 -28q1 -6 2 -22.5t2 -24.5q0 -9 -1 -23 t-1 -18q5 30 35 37q2 0 5.5 1t4.5 1q2 1 6 2t6 2l23 6q18 14 20 45l-1 3q0 -2 -1 -5q-4 -16 -41 -22h-10l10 33l7 22q-5 -4 -7 -8q-8 -8 -12 -10h-4q-5 1 -3.5 14.5t7.5 26.5q4 4 4 10q8 8 -4 20q-4 9 -11 12v-1q1 -1 3 -2q10 -11 6 -17.5t-33 -28.5zM326 1087 q-20 -15 -25 -20q-12 -4 -14 -12q6 6 14 12q4 2 21 4.5t22 9.5q13 15 8 54q-1 11 -2 2q-3 -33 -24 -50zM330 758q25 44 26 91t-26 81q-29 32 -43.5 61t-15 49.5t6.5 37t19.5 25t26.5 11.5q-39 -1 -56 -19t-14 -35l2 -18l2 -67q0 -2 2 -2l12 -12q21 -17 29 -58q14 -41 14 -86 q0 -39 -6 -59q-4 -17 -11.5 -30t-20 -26.5t-13.5 -15.5q33 17 66 72zM258 961l6 -254l4 4q20 17 31 51q6 54 6 55q0 33 -14 82q-11 40 -33 62zM319 582q-9 -4 -9 0q0 3 12 21q27 41 30 61l-1 -2q-10 -26 -21 -29q-9 -3 -10 -1.5t6 11.5q19 27 22 45q3 16 -8 3l-12 -16 q-21 -30 -27 -30q-6 1 -8 7.5t3.5 18t18.5 23.5l-17 -16q-23 -27 -28 -55q-8 -37 4.5 -108.5t38.5 -111.5q30 -53 2 -108q-15 -26 -45 -45q50 29 62.5 82t-15.5 119q-42 101 -2 112q10 1 19.5 -3t13.5 -8l4 -5q0 2 -0.5 5t-2.5 11t-5 12t-9.5 8t-15.5 -1z" />
<glyph unicode="&#xcf;" horiz-adv-x="614" d="M231 1690l-30 28v43h-43l-31 31l-29 -31h-43v-43l-28 -28l28 -31v-43h43l29 -29l31 29h43v43zM600 1690l-31 28v43h-43l-30 31l-29 -31h-43v-43l-29 -28l29 -31v-43h43l29 -29l30 29h43v43zM377 1147v-940q0 -194 127 -199l110 -4v-4h-618v4l115 4q131 5 131 201v952 q-2 2 0.5 27.5t-5 65.5t-18.5 78t-40 65.5t-70 27.5q-37 0 -66 1.5t-39 2.5l-10 1v4h620v-4l-129 -5q-27 0 -47.5 -9.5t-32 -29.5t-18.5 -40t-9 -51t-2.5 -51t0.5 -52.5t1 -44.5zM315 1159l23 6q18 14 20 45l-1 3q0 -2 -1 -5q-4 -16 -41 -22h-10l10 33l7 22q-5 -4 -7 -8 q-8 -8 -12 -10h-4q-5 1 -3.5 14.5t7.5 26.5q4 4 4 10q8 8 -4 20q-4 9 -11 12v-1q1 -1 3 -2q10 -11 6 -17.5t-33 -28.5q-3 -2 -6 -6.5t-8.5 -18.5t2.5 -28q1 -6 2 -22.5t2 -24.5q0 -9 -1 -23t-1 -18q5 30 35 37q2 0 5.5 1t4.5 1q2 1 6 2t6 2zM326 1087q-20 -15 -25 -20 q-12 -4 -14 -12q6 6 14 12q4 2 21 4.5t22 9.5q13 15 8 54q-1 11 -2 2q-3 -33 -24 -50zM330 758q25 44 26 91t-26 81q-29 32 -43.5 61t-15 49.5t6.5 37t19.5 25t26.5 11.5q-39 -1 -56 -19t-14 -35l2 -18l2 -67q0 -2 2 -2l12 -12q21 -17 29 -58q14 -41 14 -86q0 -39 -6 -59 q-4 -17 -11.5 -30t-20 -26.5t-13.5 -15.5q33 17 66 72zM258 961l6 -254l4 4q20 17 31 51q6 54 6 55q0 33 -14 82q-11 40 -33 62zM330 633q-9 -3 -10 -1.5t6 11.5q19 27 22 45q3 16 -8 3l-12 -16q-21 -30 -27 -30q-6 1 -8 7.5t3.5 18t18.5 23.5l-17 -16q-23 -27 -28 -55 q-8 -37 4.5 -108.5t38.5 -111.5q30 -53 2 -108q-15 -26 -45 -45q50 29 62.5 82t-15.5 119q-42 101 -2 112q10 1 19.5 -3t13.5 -8l4 -5q0 2 -0.5 5t-2.5 11t-5 12t-9.5 8t-15.5 -1q-9 -4 -9 0q0 3 12 21q27 41 30 61l-1 -2q-10 -26 -21 -29z" />
<glyph unicode="&#xd0;" horiz-adv-x="1085" d="M8 1434h332q98 0 173.5 -7t153.5 -26.5t134.5 -53t108 -88.5t83 -131t50 -182t18.5 -239q0 -189 -48.5 -326t-143.5 -220t-224.5 -122t-300.5 -39h-336v4q72 0 116 62.5t44 201.5q0 30 -4 453t-4 545q0 164 -105 164h-47v4zM178 1235q0 -4 1 -12.5t1 -12.5q6 -36 31 -65 q31 -36 35 -45q12 -27 12 -56q0 -14 -2 -22q10 20 10 41q0 49 -41 94q-14 14 -14 35q0 23 14 37q13 16 29 16h8q4 -2 10 -2q20 0 35 12q19 11 19 31q0 4 -2 4l-7 -6q-22 -22 -49 -22q-12 0 -14 6q-2 2 -2 6l4 4q1 0 4.5 -1t5.5 -1q16 0 27 18q4 8 4 23q0 7 -1.5 15.5 t-3.5 17t-3 12.5q0 8 6 14q4 4 14 4h17q-9 15 -21 15q-6 0 -18 -6q-7 -5 -13 -10.5t-9.5 -9.5t-6.5 -10.5t-3.5 -9t-2.5 -9t-2 -7.5q-1 -1 -2.5 -4.5t-3.5 -5.5q-1 0 -2 -1t-2 -1v12q4 8 4 10l-4 -8q-7 -7 -9 -8h-2q-5 0 -8 6q-2 0 -2 10q0 13 8 21q11 12 9 14q0 6 -3 6 q-5 5 -8 5q-11 0 -39 -17l-2 -2h4q18 6 19 6q2 0 3.5 -1t2.5 -1q4 -4 4 -8l-2 -4q-2 -4 -4 -12q-9 -13 -14 -29q-19 -44 -19 -86zM901 700l-2 168q-2 106 -25.5 190.5t-55.5 137.5t-85.5 90.5t-95 55.5t-104.5 28t-94 11t-83 1h-14v-682h559zM182 1364v-2q6 -6 11 -6v2 q-7 0 -7 4zM250 1356l-2 -4zM229 965q7 -7 -2 -13q-5 -5 -14 -8q6 2 14 2q13 3 13 -6v-8l4 6q3 9 12 6l2 -2q1 0 2 -1t2 -1q2 0 2 -2q2 -1 4 -3t4 -3q-4 2 -8 10l-2 2l-2 2q-2 0 -2 2q-3 3 0 6q0 5 4 7l12 4q-6 -2 -12 -2h-2h-4q-2 0 -2 4q-2 0 -2 6q-2 5 2 31 q-4 -25 -8 -29q-6 -11 -13 -6q-18 12 -26 20q18 -18 22 -24zM281 932l2 -2q4 4 24 16q-20 -12 -26 -14zM211 944l-8 -2q6 0 8 2zM236 928v2q-19 6 -25 10q5 -3 13.5 -6.5t11.5 -5.5zM242 905l-11 -8q3 1 5.5 2.5t4.5 2.5t3 1q10 0 12 -2q0 -1 1 -3t1 -3q4 -8 4 -23v17 q0 4 2 6v4q3 6 12 4h5q1 0 3.5 -1t4.5 -1l-10 6q-8 8 -5 11q0 4 2 6h-2q0 2 -2 2q0 2 -2 2q-6 -3 -10 8q-1 0 -2 1t-2 1v-4q-3 -8 -12 -8q0 -2 -2 -6q8 -3 0 -15zM225 618l21 -14q6 -2 16 -12l6 18q-6 6 -15.5 12.5t-12.5 8.5q-9 3 -15 12q-6 18 -6 31v4q0 18 10 35 q4 7 12 14t19 16t16 13q20 20 21 22q12 20 12 33v8q0 34 -18 70l-6 8q-4 4 -13 4h-4v-8q25 -38 25 -74v-6q-3 -20 -14 -33q-4 -6 -12.5 -13t-19 -15t-16.5 -13l-20 -24q-10 -20 -10 -37v-4q3 -20 10 -39q3 -10 14 -17zM311 889l-16 10q4 -4 16 -10zM307 528q-9 34 -14 47 h-19q12 -24 15 -47l6 -28q2 -12 2 -35v-4v-2v-4v-6v-5h8h2q4 0 6 2v13v2v8v4q-2 8 -2 29q-1 4 -2 12.5t-2 13.5zM342 575v-514q7 -1 19 -2t49.5 -1.5t73.5 4t85.5 18t92 35.5t87 62t76 92.5t52.5 131t24 174.5h-559zM326 430v41q-5 -2 -7 -2v-8v-2l3 -8v-7h-5q-8 -4 -12 -4 l-12 4v2v5v2v6q-13 -3 -21 -15q-2 0 -6 -4q0 -4 -2 -4q0 -4 -2 -4v-6l6 -6q6 -2 17 -2q18 0 34 8q7 0 7 4zM326 283v141l-4 -4q-18 -6 -37 -6q-13 0 -17 2q-2 0 -4 2z" />
<glyph unicode="&#xd1;" d="M377 1790q-45 0 -82 -8.5t-57.5 -20.5t-35 -24t-19.5 -21l-5 -8q3 7 10 19.5t33 43.5t56.5 54.5t82 43t109.5 19.5q57 0 100 -15t70.5 -37t54 -43.5t66.5 -36.5t92 -15q49 0 87 8t58 19t32.5 22t16.5 19l3 8q-2 -7 -6.5 -19.5t-23.5 -43.5t-45 -55t-73.5 -43.5 t-105.5 -19.5q-66 0 -118.5 16t-87 38.5t-65 45t-67.5 38.5t-80 16zM1356 1430l-115 -5q-25 0 -45.5 -11t-34 -25.5t-23.5 -41.5t-15 -44t-8.5 -50t-4 -43.5t-2.5 -38.5v-1003q1 -35 5.5 -58t17 -48t40 -38.5t70.5 -15.5l72 -4v-4h-613v4q73 0 116.5 28t25.5 72l-445 1156 q-15 43 -45 43q-23 0 -29 -25.5t-6 -85.5v-987q0 -83 31 -138.5t101 -58.5l112 -4v-4h-581v4l69 4q49 3 80 34t42 72t11 93v960q0 51 -6.5 93.5t-21.5 80t-42.5 60t-64.5 24.5l-67 5v4h577v-4q-19 0 -38 -4.5t-37.5 -22.5t-18.5 -47q0 -51 200.5 -574t239.5 -602 q13 -28 22.5 -38.5t20.5 -10.5t20 9.5t9 29.5v1004q-2 2 0.5 25.5t-5 61t-18.5 73.5t-40 62.5t-70 28.5q-78 5 -115 5v4h629v-4zM371 1374q13 -10 18 -22q-2 6 -16 24q-11 11 -17 15q-28 22 -65 22q-5 0 -35 -6q-4 0 -12 -4q-16 -8 -33 -25q-19 -19 -29 -45q-4 -24 -4 -35 q0 -8 4 -32q17 -51 62 -70q8 -4 12 -4q15 -6 35 -6q10 0 14 2q0 2 1 10t1 12q-28 3 -51 19l-12 8q-29 29 -29 70q0 34 29 67q4 4 6 4l6 4q27 19 53 19q19 0 43 -12q12 -8 19 -15zM430 1362l25 -21l-21 23h8l-6 4l27 39l-4 -4l-25 -31q-2 0 -4 2l-6 17l4 -19l-2 -2l-27 4 l27 -8l2 -2l-10 -25l10 23h2zM440 1272l-2 16l2 2l-2 2l-8 17l4 -17v-2l-16 -14l18 12zM260 1108l-16 -2l6 4l-8 -2l-2 -2v-4l2 -2l8 -19l-6 21v2zM287 1018l-15 6q0 2 -2 2l6 16l-8 -14h-2l-12 16l10 -16v-2l-6 2l4 -4l-20 -25l22 23h2l4 -14l-2 14h2zM258 795l43 18v107 l-31 -50q-4 -20 -12 -75zM258 856l-65 -96q-3 -53 -3 -98q3 0 3 2l16 26q27 44 35 78q11 50 14 88zM250 760l47 6l4 6v33l-45 -21q-4 -8 -4 -18q-2 0 -2 -6zM240 733l30 -12q18 26 21 35l-45 -4q-4 -17 -6 -19zM225 700l25 -12l16 25l-28 12q-2 -2 -13 -25zM246 680l-27 12 q-4 -12 -8 -16l18 -25q2 5 8.5 14.5t8.5 14.5zM223 645l-18 23q-11 -21 -15 -21q0 -51 3 -51q10 10 30 49zM309 580v49l-76 8h-4l-34 -51l2 -31zM197 358l34 -28q28 -20 72 -35v29l-27 30l-79 23v-19zM197 338l8 2l-8 8v-10zM213 334l-16 -6v-33l36 24q-1 0 -6 5 q-8 4 -14 10zM246 283l12 22q-12 4 -16 8l-39 -24l16 -4t19 -4l6 -5l2 5v2zM256 283l-4 -9q1 0 3 -1t3 -1q3 -2 21 -6l4 4l2 6l6 13q-2 2 -11.5 5.5t-13.5 6.5zM293 274l-6 -12l16 -6v31h-2l-6 -6zM190 137l115 64l-2 43q-9 5 -39 14l-6 -4l-14 -12l-45 -31v-23 q0 -27 -9 -51z" />
<glyph unicode="&#xd2;" horiz-adv-x="1105" d="M1143 1534q-45 -76 -108 -159t-120 -134q81 -110 122 -248.5t39.5 -279.5t-40.5 -273q-28 -94 -79 -179t-121 -152.5t-163.5 -100.5t-193.5 -18q-78 12 -147.5 52.5t-121 97t-92 128t-65 145.5t-35.5 150q-33 210 22.5 417.5t199.5 342.5q70 67 158 101.5t182 25.5 q93 -9 175.5 -59.5t145.5 -130.5q126 113 207 244.5t97 253t-52 210.5q-20 26 -63.5 39.5t-84.5 12.5t-75 -7q-10 -3 -12 -2l10 4q49 15 96 17q69 5 115.5 -13t68 -50.5t28 -78t-1 -93t-23 -98.5t-33 -91t-35.5 -74zM373 1886l24 29v37h39l27 26l26 -26h39l205 -301h-129 l-207 172v35zM397 1886l19 -20v-27h28l19 -20l18 20h29v27l18 20l-18 21v24l-29 2l-18 19l-19 -19l-28 -2v-24zM504 1343l45 21h-2v49h6v-51l43 -19v60l-18 6v-55l-7 2v55q-10 4 -30 4q-2 0 -5.5 -1t-5.5 -1l-4 -2v-55l-4 -2v57l-18 -8v-60zM600 1341l21 -6v58l-21 8v-60z M477 1333l21 8v58l-19 -6zM455 1325l20 6v60l-20 -9v-57zM625 1331l20 -8v53l-20 15v-60zM440 1376l-10 -22v-41l19 8v59zM651 1321l19 -8v41l-19 18v-51zM549 1350l-133 -56q-2 -12 -2 -41q1 -3 2 -10t2 -10l131 55l225 -96q-17 44 -39 80zM674 1313l20 -8v24l-20 21v-37z M424 1311v28q-6 -15 -6 -30zM698 1303l25 -11l-4 2v4l-21 25v-20zM782 1169q0 7 -2 9l-231 98l-127 -55q15 -34 37 -56l90 37l170 -69q41 20 63 36zM362 1272l-20 -8q-32 -58 -41 -80l70 30q-12 27 -9 58zM375 1202l-80 -33q-15 -41 -27 -84l150 62q-31 25 -43 55zM526 1161 v-33l-8 -4l25 -12v74l-76 -31l18 -12zM571 1124v35l109 -45q4 1 12.5 5t12.5 5l-148 62v-78q6 0 14 -4v4l17 -6q6 -2 18 -2h25zM811 1094l-18 55q-4 -2 -23.5 -11.5t-30.5 -13.5zM274 1020l-18 18q-1 -3 -2 -10t-2 -10l92 -92l199 84v86q-3 1 -9 2t-8 2v-25l-217 -90l-24 25 l223 94q-9 0 -21 4l-79 -31l-13 29l49 22q-8 2 -16 11l-164 -68l-6 -20l119 49l12 -31zM815 1079l-92 37q-4 -2 -13.5 -5t-13.5 -5l125 -49zM825 1020l-184 76q-10 -2 -31 -2l205 -84l-24 -25l-220 88v21q-10 0 -14 2v-88l197 -82l80 78q-5 15 -5 20zM344 950l-22 25l204 86 v-35zM571 1059l207 -84l-24 -27l-183 76v35zM219 719h33l82 201l-86 86q-1 -8 -4 -26.5t-4 -29.5l10 31l24 -27l-43 -102l-6 2q0 -2 -1 -7.5t-1 -8.5h2l-2 -9q-2 -14 -2 -43l64 158l24 -24l-76 -183h-14v-18zM383 889l160 63v43l-191 -77zM715 887l30 28l-190 80v-45z M860 737l-33 82l27 12l2 -6q0 15 -4 43l-33 80l21 23q-1 3 -2 9.5t-2 10.5l-74 -73l82 -201h16v20zM547 477l166 70l65 162l-65 161l-4 4l-162 68l-164 -70l-66 -163l66 -162zM848 846l-27 -12l-35 81l23 25zM547 487l-152 66h-6l-61 156l61 157l158 66l155 -66l66 -157 l-66 -156zM401 563l146 -59l147 59l62 146l-62 147l-147 62l-146 -62l-61 -147zM342 911l-78 -192h41l68 160zM831 717l-77 190l-31 -30l68 -160h40zM723 711q0 -71 -51.5 -122.5t-124.5 -51.5q-72 0 -123 51.5t-51 122.5q0 73 51 124.5t123 51.5q73 0 124.5 -51.5 t51.5 -124.5zM432 598q46 -49 115 -49t115 49q49 49 49 113t-49 116q-47 47 -115 47t-115 -47q-47 -50 -47 -116t47 -113zM705 711q0 -65 -46 -111.5t-112 -46.5t-112 46.5t-46 111.5q0 66 46 111.5t112 45.5t112 -45.5t46 -111.5zM434 616q36 -38 78.5 -48t76 1t58.5 35 l-6 -4q-50 -24 -82.5 -2.5t-34.5 61.5q0 26 23 56t20 57q-3 29 -27.5 49.5t-56.5 16.5l-20 -7q-49 -24 -63.5 -90.5t34.5 -124.5zM481 776q4 6 12.5 6.5t12.5 -4.5q6 -6 6 -14t-6 -12q-4 -6 -12.5 -6t-12.5 6q-7 5 -7 12.5t7 11.5zM250 449l-8 20q1 -7 4 -21.5t4 -21.5 l82 82l-82 199h-31v-17h12l76 -180l-22 -27l-64 152q0 -15 4 -43v-23l6 6l43 -102zM262 707l78 -191l31 29l-68 162h-41zM754 514l77 191h-40l-68 -162zM860 705h-14l-82 -197l70 -72l4 17l-19 16l33 80q0 19 4 47l-2 -4l-29 12l35 84v17zM586 674q-10 -13 0 -29 q13 -10 26 0q10 16 0 29q-15 11 -26 0zM819 588l29 -13l-39 -96l-23 27zM348 506l191 -80v43l-162 68zM553 426l192 80l-30 29l-162 -68v-41zM268 352l271 -112v172l-197 84l-88 -88l4 -17l10 12l121 -47l-12 -32l-115 49zM821 403l4 -6q4 16 4 23l-75 76l-197 -84v-174 l254 106l6 23l-248 -103v33zM414 410l-97 41l23 22l86 -33zM752 473l22 -22l-94 -41l-12 30zM395 369l-116 47l26 24l103 -43zM686 397l100 43l25 -24l-113 -49zM440 434l82 -35v-32l-94 36zM666 403l-97 -38v32l84 37zM424 391l98 -39v-37l-110 47zM670 391l12 -31 l-113 -49v37zM406 350l116 -49v-35l-131 51zM549 150l225 94q21 40 33 84l-258 -105l-277 115q2 -8 29 -86zM549 74l176 71q25 44 43 82l-219 -90l-242 99q8 -16 23 -43t20 -37zM401 90v33l-39 16l13 -18v12l6 -2v-16l-2 2zM713 129l-15 -6v-10zM424 113h4l-22 8v-35l18 -16 v43zM694 121l-20 -8v-27l20 23v12zM596 80l-47 -19l-74 31l-20 8v-53l-6 4v51l-19 9v-48q16 -13 45 -26v55l4 -2v-55l19 -4v51l4 -2h2v-53l18 -4v49l4 -2v-47l15 -3l6 3v38h6v-38q6 0 22 4h-4v43l7 2v-45l18 6v47zM670 111l-19 -9v-39l19 19v29zM645 100l-20 -8l-25 -10v-47 l-2 -2q20 10 23 12v45l4 2v-45l20 12v41z" />
<glyph unicode="&#xd3;" horiz-adv-x="1105" d="M1143 1534q-45 -76 -108 -159t-120 -134q81 -110 122 -248.5t39.5 -279.5t-40.5 -273q-28 -94 -79 -179t-121 -152.5t-163.5 -100.5t-193.5 -18q-78 12 -147.5 52.5t-121 97t-92 128t-65 145.5t-35.5 150q-33 210 22.5 417.5t199.5 342.5q70 67 158 101.5t182 25.5 q93 -9 175.5 -59.5t145.5 -130.5q126 113 207 244.5t97 253t-52 210.5q-20 26 -63.5 39.5t-84.5 12.5t-75 -7q-10 -3 -12 -2l10 4q49 15 96 17q69 5 115.5 -13t68 -50.5t28 -78t-1 -93t-23 -98.5t-33 -91t-35.5 -74zM709 1913l24 -29l-24 -29v-34l-207 -172h-129l205 301h38 l27 26l27 -26h39v-37zM690 1864l19 20l-19 21v24l-28 2l-19 19l-18 -19l-29 -2v-24l-18 -21l18 -20v-27h29l18 -20l19 20h28v27zM504 1343l45 21h-2v49h6v-51l43 -19v60l-18 6v-55l-7 2v55q-10 4 -30 4q-2 0 -5.5 -1t-5.5 -1l-4 -2v-55l-4 -2v57l-18 -8v-60zM600 1341l21 -6 v58l-21 8v-60zM477 1333l21 8v58l-19 -6zM455 1325l20 6v60l-20 -9v-57zM625 1331l20 -8v53l-20 15v-60zM440 1376l-10 -22v-41l19 8v59zM651 1321l19 -8v41l-19 18v-51zM549 1350l-133 -56q-2 -12 -2 -41q1 -3 2 -10t2 -10l131 55l225 -96q-17 44 -39 80zM674 1313l20 -8 v24l-20 21v-37zM424 1311v28q-6 -15 -6 -30zM698 1303l25 -11l-4 2v4l-21 25v-20zM782 1169q0 7 -2 9l-231 98l-127 -55q15 -34 37 -56l90 37l170 -69q41 20 63 36zM362 1272l-20 -8q-32 -58 -41 -80l70 30q-12 27 -9 58zM375 1202l-80 -33q-15 -41 -27 -84l150 62 q-31 25 -43 55zM526 1161v-33l-8 -4l25 -12v74l-76 -31l18 -12zM571 1124v35l109 -45q4 1 12.5 5t12.5 5l-148 62v-78q6 0 14 -4v4l17 -6q6 -2 18 -2h25zM811 1094l-18 55q-4 -2 -23.5 -11.5t-30.5 -13.5zM274 1020l-18 18q-1 -3 -2 -10t-2 -10l92 -92l199 84v86q-3 1 -9 2 t-8 2v-25l-217 -90l-24 25l223 94q-9 0 -21 4l-79 -31l-13 29l49 22q-8 2 -16 11l-164 -68l-6 -20l119 49l12 -31zM815 1079l-92 37q-4 -2 -13.5 -5t-13.5 -5l125 -49zM825 1020l-184 76q-10 -2 -31 -2l205 -84l-24 -25l-220 88v21q-10 0 -14 2v-88l197 -82l80 78 q-5 15 -5 20zM344 950l-22 25l204 86v-35zM571 1059l207 -84l-24 -27l-183 76v35zM219 719h33l82 201l-86 86q-1 -8 -4 -26.5t-4 -29.5l10 31l24 -27l-43 -102l-6 2q0 -2 -1 -7.5t-1 -8.5h2l-2 -9q-2 -14 -2 -43l64 158l24 -24l-76 -183h-14v-18zM383 889l160 63v43 l-191 -77zM715 887l30 28l-190 80v-45zM860 737l-33 82l27 12l2 -6q0 15 -4 43l-33 80l21 23q-1 3 -2 9.5t-2 10.5l-74 -73l82 -201h16v20zM547 477l166 70l65 162l-65 161l-4 4l-162 68l-164 -70l-66 -163l66 -162zM848 846l-27 -12l-35 81l23 25zM547 487l-152 66h-6 l-61 156l61 157l158 66l155 -66l66 -157l-66 -156zM401 563l146 -59l147 59l62 146l-62 147l-147 62l-146 -62l-61 -147zM342 911l-78 -192h41l68 160zM831 717l-77 190l-31 -30l68 -160h40zM723 711q0 -71 -51.5 -122.5t-124.5 -51.5q-72 0 -123 51.5t-51 122.5 q0 73 51 124.5t123 51.5q73 0 124.5 -51.5t51.5 -124.5zM432 598q46 -49 115 -49t115 49q49 49 49 113t-49 116q-47 47 -115 47t-115 -47q-47 -50 -47 -116t47 -113zM705 711q0 -65 -46 -111.5t-112 -46.5t-112 46.5t-46 111.5q0 66 46 111.5t112 45.5t112 -45.5t46 -111.5z M434 616q36 -38 78.5 -48t76 1t58.5 35l-6 -4q-50 -24 -82.5 -2.5t-34.5 61.5q0 26 23 56t20 57q-3 29 -27.5 49.5t-56.5 16.5l-20 -7q-49 -24 -63.5 -90.5t34.5 -124.5zM481 776q4 6 12.5 6.5t12.5 -4.5q6 -6 6 -14t-6 -12q-4 -6 -12.5 -6t-12.5 6q-7 5 -7 12.5t7 11.5z M250 449l-8 20q1 -7 4 -21.5t4 -21.5l82 82l-82 199h-31v-17h12l76 -180l-22 -27l-64 152q0 -15 4 -43v-23l6 6l43 -102zM262 707l78 -191l31 29l-68 162h-41zM754 514l77 191h-40l-68 -162zM860 705h-14l-82 -197l70 -72l4 17l-19 16l33 80q0 19 4 47l-2 -4l-29 12l35 84 v17zM586 674q-10 -13 0 -29q13 -10 26 0q10 16 0 29q-15 11 -26 0zM819 588l29 -13l-39 -96l-23 27zM348 506l191 -80v43l-162 68zM553 426l192 80l-30 29l-162 -68v-41zM268 352l271 -112v172l-197 84l-88 -88l4 -17l10 12l121 -47l-12 -32l-115 49zM821 403l4 -6 q4 16 4 23l-75 76l-197 -84v-174l254 106l6 23l-248 -103v33zM414 410l-97 41l23 22l86 -33zM752 473l22 -22l-94 -41l-12 30zM395 369l-116 47l26 24l103 -43zM686 397l100 43l25 -24l-113 -49zM440 434l82 -35v-32l-94 36zM666 403l-97 -38v32l84 37zM424 391l98 -39v-37 l-110 47zM670 391l12 -31l-113 -49v37zM406 350l116 -49v-35l-131 51zM549 150l225 94q21 40 33 84l-258 -105l-277 115q2 -8 29 -86zM549 74l176 71q25 44 43 82l-219 -90l-242 99q8 -16 23 -43t20 -37zM401 90v33l-39 16l13 -18v12l6 -2v-16l-2 2zM713 129l-15 -6v-10z M424 113h4l-22 8v-35l18 -16v43zM694 121l-20 -8v-27l20 23v12zM596 80l-47 -19l-74 31l-20 8v-53l-6 4v51l-19 9v-48q16 -13 45 -26v55l4 -2v-55l19 -4v51l4 -2h2v-53l18 -4v49l4 -2v-47l15 -3l6 3v38h6v-38q6 0 22 4h-4v43l7 2v-45l18 6v47zM670 111l-19 -9v-39l19 19v29z M645 100l-20 -8l-25 -10v-47l-2 -2q20 10 23 12v45l4 2v-45l20 12v41z" />
<glyph unicode="&#xd4;" horiz-adv-x="1105" d="M1143 1534q-45 -76 -108 -159t-120 -134q81 -110 122 -248.5t39.5 -279.5t-40.5 -273q-28 -94 -79 -179t-121 -152.5t-163.5 -100.5t-193.5 -18q-78 12 -147.5 52.5t-121 97t-92 128t-65 145.5t-35.5 150q-33 210 22.5 417.5t199.5 342.5q70 67 158 101.5t182 25.5 q93 -9 175.5 -59.5t145.5 -130.5q126 113 207 244.5t97 253t-52 210.5q-20 26 -63.5 39.5t-84.5 12.5t-75 -7q-10 -3 -12 -2l10 4q49 15 96 17q69 5 115.5 -13t68 -50.5t28 -78t-1 -93t-23 -98.5t-33 -91t-35.5 -74zM274 1612v41l-28 33l28 30v39l43 2l29 29l119 117h178 l148 -146l40 -2v-39l29 -30l-29 -33v-41h-43l-28 -31l-31 31h-43v41l-27 33l27 30v2l-133 68l-133 -68v-2l26 -30l-26 -33v-41h-43l-31 -31l-29 31h-43zM504 1403v-60l45 21h-2v49h6v-51l43 -19v60l-18 6v-55l-7 2v55q-10 4 -30 4q-2 0 -5.5 -1t-5.5 -1l-4 -2v-55l-4 -2v57z M600 1401v-60l21 -6v58zM479 1393l-2 -60l21 8v58zM455 1382v-57l20 6v60zM625 1391v-60l20 -8v53zM430 1354v-41l19 8v59l-9 -4zM651 1372v-51l19 -8v41zM549 1350l-133 -56q-2 -12 -2 -41q1 -3 2 -10t2 -10l131 55l225 -96q-17 44 -39 80zM674 1350v-37l20 -8v24z M424 1311v28q-6 -15 -6 -30zM698 1323v-20l25 -11l-4 2v4zM782 1169q0 7 -2 9l-231 98l-127 -55q15 -34 37 -56l90 37l170 -69q41 20 63 36zM362 1272l-20 -8q-32 -58 -41 -80l70 30q-12 27 -9 58zM375 1202l-80 -33q-15 -41 -27 -84l150 62q-31 25 -43 55zM485 1143l41 18 v-33l-8 -4l25 -12v74l-76 -31zM631 1100l-60 24v35l109 -45q4 1 12.5 5t12.5 5l-148 62v-78q6 0 14 -4v4l17 -6q6 -2 18 -2h25zM811 1094l-18 55q-4 -2 -23.5 -11.5t-30.5 -13.5zM274 1020l-18 18q-1 -3 -2 -10t-2 -10l92 -92l199 84v86q-3 1 -9 2t-8 2v-25l-217 -90l-24 25 l223 94q-9 0 -21 4l-79 -31l-13 29l49 22q-8 2 -16 11l-164 -68l-6 -20l119 49l12 -31zM821 1057l-6 22l-92 37q-4 -2 -13.5 -5t-13.5 -5zM829 1024l-4 -4l-184 76q-10 -2 -31 -2l205 -84l-24 -25l-220 88v21q-10 0 -14 2v-88l197 -82l80 78q-5 15 -5 20zM526 1026l-182 -76 l-22 25l204 86v-35zM571 1024v35l207 -84l-24 -27zM219 737v-18h33l82 201l-86 86q-1 -8 -4 -26.5t-4 -29.5l10 31l24 -27l-43 -102l-6 2q0 -2 -1 -7.5t-1 -8.5h2l-2 -9q-2 -14 -2 -43l64 158l24 -24l-76 -183h-14zM352 918l31 -29l160 63v43zM555 950l160 -63l30 28 l-190 80v-45zM860 717v20l-33 82l27 12l2 -6q0 15 -4 43l-33 80l21 23q-1 3 -2 9.5t-2 10.5l-74 -73l82 -201h16zM383 547l164 -70l166 70l65 162l-65 161l-4 4l-162 68l-164 -70l-66 -163zM809 940l39 -94l-27 -12l-35 81zM702 553l-155 -66l-152 66h-6l-61 156l61 157 l158 66l155 -66l66 -157zM340 709l61 -146l146 -59l147 59l62 146l-62 147l-147 62l-146 -62zM373 879l-31 32l-78 -192h41zM791 717h40l-77 190l-31 -30zM723 711q0 -71 -51.5 -122.5t-124.5 -51.5q-72 0 -123 51.5t-51 122.5q0 73 51 124.5t123 51.5q73 0 124.5 -51.5 t51.5 -124.5zM432 598q46 -49 115 -49t115 49q49 49 49 113t-49 116q-47 47 -115 47t-115 -47q-47 -50 -47 -116t47 -113zM705 711q0 -65 -46 -111.5t-112 -46.5t-112 46.5t-46 111.5q0 66 46 111.5t112 45.5t112 -45.5t46 -111.5zM434 616q36 -38 78.5 -48t76 1t58.5 35 l-6 -4q-50 -24 -82.5 -2.5t-34.5 61.5q0 26 23 56t20 57q-3 29 -27.5 49.5t-56.5 16.5l-20 -7q-49 -24 -63.5 -90.5t34.5 -124.5zM481 776q4 6 12.5 6.5t12.5 -4.5q6 -6 6 -14t-6 -12q-4 -6 -12.5 -6t-12.5 6q-7 5 -7 12.5t7 11.5zM250 449l-8 20q1 -7 4 -21.5t4 -21.5 l82 82l-82 199h-31v-17h12l76 -180l-22 -27l-64 152q0 -15 4 -43v-23l6 6l43 -102zM303 707h-41l78 -191l31 29zM723 543l31 -29l77 191h-40zM860 688v17h-14l-82 -197l70 -72l4 17l-19 16l33 80q0 19 4 47l-2 -4l-29 12zM586 674q-10 -13 0 -29q13 -10 26 0q10 16 0 29 q-15 11 -26 0zM786 506l33 82l29 -13l-39 -96zM377 537l-29 -31l191 -80v43zM553 467v-41l192 80l-30 29zM262 373l6 -21l271 -112v172l-197 84l-88 -88l4 -17l10 12l121 -47l-12 -32zM821 403l4 -6q4 16 4 23l-75 76l-197 -84v-174l254 106l6 23l-248 -103v33zM426 440 l-12 -30l-97 41l23 22zM668 440l84 33l22 -22l-94 -41zM408 397l-13 -28l-116 47l26 24zM698 367l-12 30l100 43l25 -24zM428 403l12 31l82 -35v-32zM653 434l13 -31l-97 -38v32zM412 362l12 29l98 -39v-37zM569 348l101 43l12 -31l-113 -49v37zM391 317l15 33l116 -49v-35z M549 150l225 94q21 40 33 84l-258 -105l-277 115q2 -8 29 -86zM549 74l176 71q25 44 43 82l-219 -90l-242 99q8 -16 23 -43t20 -37zM401 90v33l-39 16l13 -18v12l6 -2v-16l-2 2zM698 113l15 16l-15 -6v-10zM424 113h4l-22 8v-35l18 -16v43zM694 109v12l-20 -8v-27zM596 33 v47l-47 -19l-74 31l-20 8v-53l-6 4v51l-19 9v-48q16 -13 45 -26v55l4 -2v-55l19 -4v51l4 -2h2v-53l18 -4v49l4 -2v-47l15 -3l6 3v38h6v-38q6 0 22 4h-4v43l7 2v-45zM670 82v29l-19 -9v-39zM645 59v41l-20 -8l-25 -10v-47l-2 -2q20 10 23 12v45l4 2v-45z" />
<glyph unicode="&#xd5;" horiz-adv-x="1105" d="M1143 1534q-45 -76 -108 -159t-120 -134q81 -110 122 -248.5t39.5 -279.5t-40.5 -273q-28 -94 -79 -179t-121 -152.5t-163.5 -100.5t-193.5 -18q-78 12 -147.5 52.5t-121 97t-92 128t-65 145.5t-35.5 150q-33 210 22.5 417.5t199.5 342.5q70 67 158 101.5t182 25.5 q93 -9 175.5 -59.5t145.5 -130.5q126 113 207 244.5t97 253t-52 210.5q-20 26 -63.5 39.5t-84.5 12.5t-75 -7q-10 -3 -12 -2l10 4q49 15 96 17q69 5 115.5 -13t68 -50.5t28 -78t-1 -93t-23 -98.5t-33 -91t-35.5 -74zM117 1626q2 3 5.5 8.5t18.5 20t35 25t57 19.5t82 9 q43 0 80 -16t67.5 -38.5t65 -45t87 -38.5t118.5 -16q58 0 105.5 18.5t74 45t44.5 53.5t24 45l6 19q-1 -3 -3.5 -8t-15.5 -18.5t-32.5 -23.5t-57.5 -18t-87 -8q-52 0 -92 15t-66.5 36.5t-54 43.5t-70.5 37t-100 15q-58 0 -109.5 -18.5t-83 -45t-55 -53t-33.5 -45.5zM504 1343 l45 21h-2v49h6v-51l43 -19v60l-18 6v-55l-7 2v55q-10 4 -30 4q-2 0 -5.5 -1t-5.5 -1l-4 -2v-55l-4 -2v57l-18 -8v-60zM600 1341l21 -6v58l-21 8v-60zM477 1333l21 8v58l-19 -6zM455 1325l20 6v60l-20 -9v-57zM625 1331l20 -8v53l-20 15v-60zM440 1376l-10 -22v-41l19 8v59z M651 1321l19 -8v41l-19 18v-51zM549 1350l-133 -56q-2 -12 -2 -41q1 -3 2 -10t2 -10l131 55l225 -96q-17 44 -39 80zM674 1313l20 -8v24l-20 21v-37zM424 1311v28q-6 -15 -6 -30zM698 1303l25 -11l-4 2v4l-21 25v-20zM782 1169q0 7 -2 9l-231 98l-127 -55q15 -34 37 -56 l90 37l170 -69q41 20 63 36zM362 1272l-20 -8q-32 -58 -41 -80l70 30q-12 27 -9 58zM375 1202l-80 -33q-15 -41 -27 -84l150 62q-31 25 -43 55zM526 1161v-33l-8 -4l25 -12v74l-76 -31l18 -12zM571 1124v35l109 -45q4 1 12.5 5t12.5 5l-148 62v-78q6 0 14 -4v4l17 -6 q6 -2 18 -2h25zM811 1094l-18 55q-4 -2 -23.5 -11.5t-30.5 -13.5zM274 1020l-18 18q-1 -3 -2 -10t-2 -10l92 -92l199 84v86q-3 1 -9 2t-8 2v-25l-217 -90l-24 25l223 94q-9 0 -21 4l-79 -31l-13 29l49 22q-8 2 -16 11l-164 -68l-6 -20l119 49l12 -31zM815 1079l-92 37 q-4 -2 -13.5 -5t-13.5 -5l125 -49zM825 1020l-184 76q-10 -2 -31 -2l205 -84l-24 -25l-220 88v21q-10 0 -14 2v-88l197 -82l80 78q-5 15 -5 20zM344 950l-22 25l204 86v-35zM571 1059l207 -84l-24 -27l-183 76v35zM219 719h33l82 201l-86 86q-1 -8 -4 -26.5t-4 -29.5l10 31 l24 -27l-43 -102l-6 2q0 -2 -1 -7.5t-1 -8.5h2l-2 -9q-2 -14 -2 -43l64 158l24 -24l-76 -183h-14v-18zM383 889l160 63v43l-191 -77zM715 887l30 28l-190 80v-45zM860 737l-33 82l27 12l2 -6q0 15 -4 43l-33 80l21 23q-1 3 -2 9.5t-2 10.5l-74 -73l82 -201h16v20zM547 477 l166 70l65 162l-65 161l-4 4l-162 68l-164 -70l-66 -163l66 -162zM848 846l-27 -12l-35 81l23 25zM547 487l-152 66h-6l-61 156l61 157l158 66l155 -66l66 -157l-66 -156zM401 563l146 -59l147 59l62 146l-62 147l-147 62l-146 -62l-61 -147zM342 911l-78 -192h41l68 160z M831 717l-77 190l-31 -30l68 -160h40zM723 711q0 -71 -51.5 -122.5t-124.5 -51.5q-72 0 -123 51.5t-51 122.5q0 73 51 124.5t123 51.5q73 0 124.5 -51.5t51.5 -124.5zM432 598q46 -49 115 -49t115 49q49 49 49 113t-49 116q-47 47 -115 47t-115 -47q-47 -50 -47 -116 t47 -113zM705 711q0 -65 -46 -111.5t-112 -46.5t-112 46.5t-46 111.5q0 66 46 111.5t112 45.5t112 -45.5t46 -111.5zM434 616q36 -38 78.5 -48t76 1t58.5 35l-6 -4q-50 -24 -82.5 -2.5t-34.5 61.5q0 26 23 56t20 57q-3 29 -27.5 49.5t-56.5 16.5l-20 -7q-49 -24 -63.5 -90.5 t34.5 -124.5zM481 776q4 6 12.5 6.5t12.5 -4.5q6 -6 6 -14t-6 -12q-4 -6 -12.5 -6t-12.5 6q-7 5 -7 12.5t7 11.5zM250 449l-8 20q1 -7 4 -21.5t4 -21.5l82 82l-82 199h-31v-17h12l76 -180l-22 -27l-64 152q0 -15 4 -43v-23l6 6l43 -102zM262 707l78 -191l31 29l-68 162h-41z M754 514l77 191h-40l-68 -162zM860 705h-14l-82 -197l70 -72l4 17l-19 16l33 80q0 19 4 47l-2 -4l-29 12l35 84v17zM586 674q-10 -13 0 -29q13 -10 26 0q10 16 0 29q-15 11 -26 0zM819 588l29 -13l-39 -96l-23 27zM348 506l191 -80v43l-162 68zM553 426l192 80l-30 29 l-162 -68v-41zM268 352l271 -112v172l-197 84l-88 -88l4 -17l10 12l121 -47l-12 -32l-115 49zM821 403l4 -6q4 16 4 23l-75 76l-197 -84v-174l254 106l6 23l-248 -103v33zM414 410l-97 41l23 22l86 -33zM752 473l22 -22l-94 -41l-12 30zM395 369l-116 47l26 24l103 -43z M686 397l100 43l25 -24l-113 -49zM440 434l82 -35v-32l-94 36zM666 403l-97 -38v32l84 37zM424 391l98 -39v-37l-110 47zM670 391l12 -31l-113 -49v37zM406 350l116 -49v-35l-131 51zM549 150l225 94q21 40 33 84l-258 -105l-277 115q2 -8 29 -86zM549 74l176 71 q25 44 43 82l-219 -90l-242 99q8 -16 23 -43t20 -37zM401 90v33l-39 16l13 -18v12l6 -2v-16l-2 2zM713 129l-15 -6v-10zM424 113h4l-22 8v-35l18 -16v43zM694 121l-20 -8v-27l20 23v12zM596 80l-47 -19l-74 31l-20 8v-53l-6 4v51l-19 9v-48q16 -13 45 -26v55l4 -2v-55l19 -4 v51l4 -2h2v-53l18 -4v49l4 -2v-47l15 -3l6 3v38h6v-38q6 0 22 4h-4v43l7 2v-45l18 6v47zM670 111l-19 -9v-39l19 19v29zM645 100l-20 -8l-25 -10v-47l-2 -2q20 10 23 12v45l4 2v-45l20 12v41z" />
<glyph unicode="&#xd6;" horiz-adv-x="1105" d="M1143 1534q-45 -76 -108 -159t-120 -134q81 -110 122 -248.5t39.5 -279.5t-40.5 -273q-28 -94 -79 -179t-121 -152.5t-163.5 -100.5t-193.5 -18q-78 12 -147.5 52.5t-121 97t-92 128t-65 145.5t-35.5 150q-33 210 22.5 417.5t199.5 342.5q70 67 158 101.5t182 25.5 q93 -9 175.5 -59.5t145.5 -130.5q126 113 207 244.5t97 253t-52 210.5q-20 26 -63.5 39.5t-84.5 12.5t-75 -7q-10 -3 -12 -2l10 4q49 15 96 17q69 5 115.5 -13t68 -50.5t28 -78t-1 -93t-23 -98.5t-33 -91t-35.5 -74zM477 1690l-31 28v43h-43l-30 31l-29 -31h-43v-43l-29 -28 l29 -31v-43h43l29 -29l30 29h43v43zM846 1690l-31 28v43h-43l-31 31l-28 -31h-43v-43l-29 -28l29 -31v-43h43l28 -29l31 29h43v43zM504 1343l45 21h-2v49h6v-51l43 -19v60l-18 6v-55l-7 2v55q-10 4 -30 4q-2 0 -5.5 -1t-5.5 -1l-4 -2v-55l-4 -2v57l-18 -8v-60zM600 1341 l21 -6v58l-21 8v-60zM477 1333l21 8v58l-19 -6zM455 1325l20 6v60l-20 -9v-57zM625 1331l20 -8v53l-20 15v-60zM440 1376l-10 -22v-41l19 8v59zM651 1321l19 -8v41l-19 18v-51zM549 1350l-133 -56q-2 -12 -2 -41q1 -3 2 -10t2 -10l131 55l225 -96q-17 44 -39 80zM674 1313 l20 -8v24l-20 21v-37zM424 1311v28q-6 -15 -6 -30zM698 1303l25 -11l-4 2v4l-21 25v-20zM782 1169q0 7 -2 9l-231 98l-127 -55q15 -34 37 -56l90 37l170 -69q41 20 63 36zM362 1272l-20 -8q-32 -58 -41 -80l70 30q-12 27 -9 58zM375 1202l-80 -33q-15 -41 -27 -84l150 62 q-31 25 -43 55zM526 1161v-33l-8 -4l25 -12v74l-76 -31l18 -12zM571 1124v35l109 -45q4 1 12.5 5t12.5 5l-148 62v-78q6 0 14 -4v4l17 -6q6 -2 18 -2h25zM811 1094l-18 55q-4 -2 -23.5 -11.5t-30.5 -13.5zM274 1020l-18 18q-1 -3 -2 -10t-2 -10l92 -92l199 84v86q-3 1 -9 2 t-8 2v-25l-217 -90l-24 25l223 94q-9 0 -21 4l-79 -31l-13 29l49 22q-8 2 -16 11l-164 -68l-6 -20l119 49l12 -31zM815 1079l-92 37q-4 -2 -13.5 -5t-13.5 -5l125 -49zM825 1020l-184 76q-10 -2 -31 -2l205 -84l-24 -25l-220 88v21q-10 0 -14 2v-88l197 -82l80 78 q-5 15 -5 20zM344 950l-22 25l204 86v-35zM571 1059l207 -84l-24 -27l-183 76v35zM219 719h33l82 201l-86 86q-1 -8 -4 -26.5t-4 -29.5l10 31l24 -27l-43 -102l-6 2q0 -2 -1 -7.5t-1 -8.5h2l-2 -9q-2 -14 -2 -43l64 158l24 -24l-76 -183h-14v-18zM383 889l160 63v43 l-191 -77zM715 887l30 28l-190 80v-45zM860 737l-33 82l27 12l2 -6q0 15 -4 43l-33 80l21 23q-1 3 -2 9.5t-2 10.5l-74 -73l82 -201h16v20zM547 477l166 70l65 162l-65 161l-4 4l-162 68l-164 -70l-66 -163l66 -162zM848 846l-27 -12l-35 81l23 25zM547 487l-152 66h-6 l-61 156l61 157l158 66l155 -66l66 -157l-66 -156zM401 563l146 -59l147 59l62 146l-62 147l-147 62l-146 -62l-61 -147zM342 911l-78 -192h41l68 160zM831 717l-77 190l-31 -30l68 -160h40zM723 711q0 -71 -51.5 -122.5t-124.5 -51.5q-72 0 -123 51.5t-51 122.5 q0 73 51 124.5t123 51.5q73 0 124.5 -51.5t51.5 -124.5zM432 598q46 -49 115 -49t115 49q49 49 49 113t-49 116q-47 47 -115 47t-115 -47q-47 -50 -47 -116t47 -113zM705 711q0 -65 -46 -111.5t-112 -46.5t-112 46.5t-46 111.5q0 66 46 111.5t112 45.5t112 -45.5t46 -111.5z M434 616q36 -38 78.5 -48t76 1t58.5 35l-6 -4q-50 -24 -82.5 -2.5t-34.5 61.5q0 26 23 56t20 57q-3 29 -27.5 49.5t-56.5 16.5l-20 -7q-49 -24 -63.5 -90.5t34.5 -124.5zM481 776q4 6 12.5 6.5t12.5 -4.5q6 -6 6 -14t-6 -12q-4 -6 -12.5 -6t-12.5 6q-7 5 -7 12.5t7 11.5z M250 449l-8 20q1 -7 4 -21.5t4 -21.5l82 82l-82 199h-31v-17h12l76 -180l-22 -27l-64 152q0 -15 4 -43v-23l6 6l43 -102zM262 707l78 -191l31 29l-68 162h-41zM754 514l77 191h-40l-68 -162zM860 705h-14l-82 -197l70 -72l4 17l-19 16l33 80q0 19 4 47l-2 -4l-29 12l35 84 v17zM586 674q-10 -13 0 -29q13 -10 26 0q10 16 0 29q-15 11 -26 0zM819 588l29 -13l-39 -96l-23 27zM348 506l191 -80v43l-162 68zM553 426l192 80l-30 29l-162 -68v-41zM268 352l271 -112v172l-197 84l-88 -88l4 -17l10 12l121 -47l-12 -32l-115 49zM821 403l4 -6 q4 16 4 23l-75 76l-197 -84v-174l254 106l6 23l-248 -103v33zM414 410l-97 41l23 22l86 -33zM752 473l22 -22l-94 -41l-12 30zM395 369l-116 47l26 24l103 -43zM686 397l100 43l25 -24l-113 -49zM440 434l82 -35v-32l-94 36zM666 403l-97 -38v32l84 37zM424 391l98 -39v-37 l-110 47zM670 391l12 -31l-113 -49v37zM406 350l116 -49v-35l-131 51zM549 150l225 94q21 40 33 84l-258 -105l-277 115q2 -8 29 -86zM549 74l176 71q25 44 43 82l-219 -90l-242 99q8 -16 23 -43t20 -37zM401 90v33l-39 16l13 -18v12l6 -2v-16l-2 2zM713 129l-15 -6v-10z M424 113h4l-22 8v-35l18 -16v43zM694 121l-20 -8v-27l20 23v12zM596 80l-47 -19l-74 31l-20 8v-53l-6 4v51l-19 9v-48q16 -13 45 -26v55l4 -2v-55l19 -4v51l4 -2h2v-53l18 -4v49l4 -2v-47l15 -3l6 3v38h6v-38q6 0 22 4h-4v43l7 2v-45l18 6v47zM670 111l-19 -9v-39l19 19v29z M645 100l-20 -8l-25 -10v-47l-2 -2q20 10 23 12v45l4 2v-45l20 12v41z" />
<glyph unicode="&#xd7;" d="M1130 1090q-97 -97 -140.5 -139t-103 -115t-81 -96.5t-41.5 -84t-20 -77.5t20 -77.5t41.5 -84t81 -96.5t103 -115t140.5 -139l-2 2q-213 213 -290 277q-125 102 -214 105t-209 -93q-80 -63 -287 -270l-1 -1l-1 -1l-1 -1l-1 -1l-1 -1l-1 -1l-1 -1l-1 -1l-1 -1l-1 -1l-1 -1 l-1 -1l-1 -1l-1 -1l-1 -1l-1 -1l-2 -2l-1 -1q96 96 139.5 138.5t102.5 114.5t81 95.5t41.5 83.5t19.5 77.5t-20 78t-41.5 84t-81 96t-102.5 114t-140 138.5l-2 2q97 -97 139 -140.5t115 -103t96.5 -81t84 -41.5t77.5 -20t77.5 20t84 41.5t96.5 81t115 103t139 140.5z" />
<glyph unicode="&#xd8;" horiz-adv-x="1105" d="M1143 1534q-45 -76 -108 -159t-120 -134q81 -110 122 -248.5t39.5 -279.5t-40.5 -273q-28 -94 -79 -179t-121 -152.5t-163.5 -100.5t-193.5 -18q-89 15 -160 59l-22 -51h-94l45 104q-92 82 -151 206t-79 255q-33 210 22.5 417.5t199.5 342.5q70 67 158 101.5t182 25.5 q115 -12 213 -84l67 152q16 34 37.5 58.5t40.5 35.5t35.5 17t26.5 7h10l-146 -333q6 -7 18.5 -21.5t18.5 -21.5q126 113 207 244.5t97 253t-52 210.5q-20 26 -63.5 39.5t-84.5 12.5t-75 -7q-10 -3 -12 -2l10 4q49 15 96 17q69 5 115.5 -13t68 -50.5t28 -78t-1 -93t-23 -98.5 t-33 -91t-35.5 -74zM504 1403v-60l45 21h-2v49h6v-51l43 -19v60l-18 6v-55l-7 2v55q-10 4 -30 4q-2 0 -5.5 -1t-5.5 -1l-4 -2v-55l-4 -2v57zM600 1401v-60l21 -6v58zM479 1393l-2 -60l21 8v58zM455 1382v-57l20 6v60zM625 1391v-60l20 -8v53zM430 1354v-41l19 8v59l-9 -4z M651 1372v-51l19 -8v41zM549 1350l-133 -56q-2 -12 -2 -41q1 -3 2 -10t2 -10l131 55l178 -76l18 43q-2 3 -5 8.5t-5 8.5zM674 1350v-37l20 -8v24zM424 1311v28q-6 -15 -6 -30zM698 1323v-20l25 -11l-4 2v4zM549 1202l147 -61l27 61l-174 74l-127 -55q15 -34 37 -56z M362 1272l-20 -8q-32 -58 -41 -80l70 30q-12 27 -9 58zM375 1202l-80 -33q-15 -41 -27 -84l150 62q-31 25 -43 55zM485 1143l41 18v-33l-8 -4l25 -12v74l-76 -31zM680 1114l6 2l6 14l-135 56v-78q6 0 14 -4v4l17 -6q6 -2 18 -2h25l-60 24v35zM811 1094l-16 49l-15 -35z M274 1020l-18 18q-1 -3 -2 -10t-2 -10l92 -92l199 84v86q-3 1 -9 2t-8 2v-25l-217 -90l-24 25l223 94q-9 0 -21 4l-79 -31l-13 29l49 22q-8 2 -16 11l-164 -68l-6 -20l119 49l12 -31zM635 997l-64 27v35l76 -31l6 12l-82 33v21q-10 0 -14 2v-88l70 -29zM610 1094l56 -23 l6 12l-31 13q-10 -2 -31 -2zM774 1096l-8 -19l55 -20l-6 22zM526 1026l-182 -76l-22 25l204 86v-35zM709 944l45 -18l80 78q-5 15 -5 20l-4 -4l-71 29l-4 -13l65 -26l-24 -25l-56 23l-4 -15l47 -18l-24 -27l-37 15zM219 737v-18h33l82 201l-86 86q-1 -8 -4 -26.5t-4 -29.5 l10 31l24 -27l-43 -102l-6 2q0 -2 -1 -7.5t-1 -8.5h2l-2 -9q-2 -14 -2 -43l64 158l24 -24l-76 -183h-14zM543 952v43l-191 -77l31 -29zM555 950l49 -20l17 37l-66 28v-45zM860 717v20l-33 82l27 12l2 -6q0 15 -4 43l-33 80l21 23q-1 3 -2 9.5t-2 10.5l-74 -73l82 -201h16z M547 942l-164 -70l-66 -163l66 -162l47 -21l4 11l-39 16h-6l-61 156l61 157l158 66l49 -21l4 9zM809 940l39 -94l-27 -12l-35 81zM705 934l-17 -37l27 -10l30 28zM584 883l8 16l-45 19l-146 -62l-61 -147l61 -146l39 -16l9 20q-76 56 -76 144q0 73 51 124.5t123 51.5 q13 0 37 -4zM373 879l-31 32l-78 -192h41zM791 717h40l-77 190l-31 -30zM512 492l35 -15l166 70l65 162l-65 161l-4 4l-25 11l-4 -8l22 -11l66 -157l-66 -156l-155 -66l-31 15zM547 868q21 0 31 -2l2 4q-20 4 -33 4q-68 0 -115 -47q-47 -50 -47 -116t47 -113q3 -3 10.5 -9 t10.5 -9l2 2q-66 52 -66 129q0 66 46 111.5t112 45.5zM547 537h-15l-10 -23l25 -10l147 59l62 146l-62 147l-20 8l-8 -22q57 -50 57 -131q0 -71 -51.5 -122.5t-124.5 -51.5zM459 594l94 215q-31 34 -70 29l-20 -7q-49 -24 -63.5 -90.5t34.5 -124.5q13 -13 25 -22zM539 553 l-2 -4h10q69 0 115 49q49 49 49 113t-49 116l-3 2l-2 -4q48 -48 48 -114q0 -65 -46 -111.5t-112 -46.5h-8zM481 776q4 6 12.5 6.5t12.5 -4.5q6 -6 6 -14t-6 -12q-4 -6 -12.5 -6t-12.5 6q-7 5 -7 12.5t7 11.5zM231 575l43 -102l-24 -24l-8 20q1 -7 4 -21.5t4 -21.5l82 82 l-82 199h-31v-17h12l76 -180l-22 -27l-64 152q0 -15 4 -43v-23zM303 707h-41l78 -191l31 29zM723 543l31 -29l77 191h-40zM860 688v17h-14l-82 -197l70 -72l4 17l-19 16l33 80q0 19 4 47l-2 -4l-29 12zM612 674q-11 7 -20 4l-10 -25l4 -8q13 -10 26 0q10 16 0 29zM557 598 l-14 -35q63 0 104 41l-6 -4q-44 -27 -84 -2zM786 506l33 82l29 -13l-39 -96zM426 516l-49 21l-29 -31l62 -27zM553 467v-41l192 80l-30 29zM342 496l-88 -88l4 -17l10 12l94 -36l5 12l-88 37l26 24l76 -30l4 12l-68 29l23 22l57 -22l9 18zM821 403l4 -6q4 16 4 23l-75 76 l-197 -84v-174l254 106l6 23l-248 -103v33zM492 446l47 -20v43l-31 12zM668 440l84 33l22 -22l-94 -41zM698 367l-12 30l100 43l25 -24zM653 434l13 -31l-97 -38v32zM430 303l-6 -14l115 -49v172l-52 22l-6 -16l41 -19v-32l-55 22l-4 -12l59 -25v-37l-71 31l-7 -12l78 -33 v-35zM569 348l101 43l12 -31l-113 -49v37zM348 336l-86 37l6 -21l74 -30zM301 252l10 -4l27 63l-66 27q2 -8 29 -86zM549 150l225 94q21 40 33 84l-258 -105l-131 53l-27 -61zM549 74l176 71q25 44 43 82l-219 -90l-164 66l-23 -53zM401 90v33l-39 16l13 -18v12l6 -2v-16 l-2 2zM698 113l15 16l-15 -6v-10zM424 113h4l-22 8v-35l18 -16v43zM694 109v12l-20 -8v-27zM596 33v47l-47 -19l-74 31l-20 8v-53l-6 4v51l-19 9v-48q16 -13 45 -26v55l4 -2v-55l19 -4v51l4 -2h2v-53l18 -4v49l4 -2v-47l15 -3l6 3v38h6v-38q6 0 22 4h-4v43l7 2v-45zM670 82 v29l-19 -9v-39zM645 59v41l-20 -8l-25 -10v-47l-2 -2q20 10 23 12v45l4 2v-45z" />
<glyph unicode="&#xd9;" d="M459 1823v35l-25 28l25 29v37h39l26 26l27 -26h39l205 -301h-129zM477 1907l-18 -21l18 -20v-27h29l18 -20l19 20h28v27l19 20l-19 21v24l-28 2l-19 19l-18 -19l-29 -2v-24zM709 1430v4h626q-36 0 -112 -4q-39 -2 -67 -27.5t-41.5 -67.5t-19 -84t-5.5 -90v-729 q0 -49 -3.5 -89.5t-15 -89.5t-31 -87.5t-54 -76t-81 -62.5t-115.5 -40.5t-155 -15.5q-85 0 -155.5 15t-121 41t-89 62.5t-62.5 76.5t-39 87t-21 90t-6 89l-2 733q0 260 -133 262l-112 3v4h626v-4q-30 -1 -114 -5q-39 -2 -67 -26t-41 -60.5t-18.5 -69.5t-5.5 -65v-772 q0 -193 101 -302.5t254 -109.5q141 0 234 109.5t93 302.5v733q-2 2 0.5 27t-4 64t-16.5 76.5t-35.5 64.5t-62.5 28q-39 1 -78.5 3t-50.5 2z" />
<glyph unicode="&#xda;" d="M770 1821l-207 -172h-129l205 301h39l27 26l26 -26h39v-37l25 -29l-25 -29v-34zM657 1905l-18 -21l18 -20v-27h29l19 -20l18 20h29v27l18 20l-18 21v24l-29 2l-18 19l-19 -19l-29 -2v-24zM709 1430v4h626q-36 0 -112 -4q-39 -2 -67 -27.5t-41.5 -67.5t-19 -84t-5.5 -90 v-729q0 -49 -3.5 -89.5t-15 -89.5t-31 -87.5t-54 -76t-81 -62.5t-115.5 -40.5t-155 -15.5q-85 0 -155.5 15t-121 41t-89 62.5t-62.5 76.5t-39 87t-21 90t-6 89l-2 733q0 260 -133 262l-112 3v4h626v-4q-30 -1 -114 -5q-39 -2 -67 -26t-41 -60.5t-18.5 -69.5t-5.5 -65v-772 q0 -193 101 -302.5t254 -109.5q141 0 234 109.5t93 302.5v733q-2 2 0.5 27t-4 64t-16.5 76.5t-35.5 64.5t-62.5 28q-39 1 -78.5 3t-50.5 2z" />
<glyph unicode="&#xdb;" d="M336 1612v41l-29 33l29 30v39l43 2l29 29l118 117h179l147 -146l41 -2v-39l29 -30l-29 -33v-41h-43l-29 -31l-30 31h-43v41l-27 33l27 30v2l-134 68l-133 -68v-2l27 -30l-27 -33v-41h-43l-30 -31l-29 31h-43zM709 1430v4h626q-36 0 -112 -4q-39 -2 -67 -27.5t-41.5 -67.5 t-19 -84t-5.5 -90v-729q0 -49 -3.5 -89.5t-15 -89.5t-31 -87.5t-54 -76t-81 -62.5t-115.5 -40.5t-155 -15.5q-85 0 -155.5 15t-121 41t-89 62.5t-62.5 76.5t-39 87t-21 90t-6 89l-2 733q0 260 -133 262l-112 3v4h626v-4q-30 -1 -114 -5q-39 -2 -67 -26t-41 -60.5 t-18.5 -69.5t-5.5 -65v-772q0 -193 101 -302.5t254 -109.5q141 0 234 109.5t93 302.5v733q-2 2 0.5 27t-4 64t-16.5 76.5t-35.5 64.5t-62.5 28q-39 1 -78.5 3t-50.5 2z" />
<glyph unicode="&#xdc;" d="M362 1616v43l-28 31l28 28v43h44l28 31l31 -31h43v-43l31 -28l-31 -31v-43h-43l-31 -29l-28 29h-44zM731 1616v43l-29 31l29 28v43h43l29 31l31 -31h43v-43l30 -28l-30 -31v-43h-43l-31 -29l-29 29h-43zM709 1430v4h626q-36 0 -112 -4q-39 -2 -67 -27.5t-41.5 -67.5 t-19 -84t-5.5 -90v-729q0 -49 -3.5 -89.5t-15 -89.5t-31 -87.5t-54 -76t-81 -62.5t-115.5 -40.5t-155 -15.5q-85 0 -155.5 15t-121 41t-89 62.5t-62.5 76.5t-39 87t-21 90t-6 89l-2 733q0 260 -133 262l-112 3v4h626v-4q-30 -1 -114 -5q-39 -2 -67 -26t-41 -60.5 t-18.5 -69.5t-5.5 -65v-772q0 -193 101 -302.5t254 -109.5q141 0 234 109.5t93 302.5v733q-2 2 0.5 27t-4 64t-16.5 76.5t-35.5 64.5t-62.5 28q-39 1 -78.5 3t-50.5 2z" />
<glyph unicode="&#xdd;" d="M770 1913l25 -29l-25 -29v-34l-207 -172h-129l205 301h39l27 26l26 -26h39v-37zM752 1864l18 20l-18 21v24l-29 2l-18 19l-19 -19l-29 -2v-24l-18 -21l18 -20v-27h29l19 -20l18 20h29v27zM1370 389q0 3 2 3t2 -3q0 -123 -82 -218t-215 -144.5t-293 -51.5 q-151 -2 -255.5 23.5t-206.5 107.5q-108 -129 -226 -129q-58 0 -100.5 17t-64 44.5t-34.5 59t-14 64t1 55.5t7 37v-18q0 -61 38.5 -113t89 -77.5t94.5 -25.5q49 0 104 24t96 69q18 18 29 37l2 2q57 91 66 180q4 35 10 49q4 16 35 37q90 53 131 147q16 47 20 70l10 12l-6 8 q8 44 8 93v43q0 2 -1 5.5t-1 4.5q-6 25 -30 43v-2q23 -23 26 -43q2 -2 2 -8q0 -5 1 -18t1 -21q0 -2 -1 -5.5t-1 -5.5q0 -39 -6 -82l-20 35l-13 23l-20 -17l18 -32l25 -45l4 6q-2 -13 -18 -60q-43 -98 -129 -149q-25 -13 -39 -37q-5 -14 -8 -48t-17 -80t-49 -101l-2 -2 q-8 -16 -29 -37q-41 -44 -96 -68t-102 -24q-68 0 -143.5 63t-75.5 150q0 44 39.5 86t105.5 43q24 0 44.5 -3.5t41.5 -13.5t34 -17t36 -26.5t32 -28t36.5 -36.5t37.5 -37q15 22 28 45t19 35l6 12l201 342l-231 555q-2 6 -12 30t-15.5 36.5t-19 37t-25.5 38.5t-32 33.5 t-41.5 30t-51.5 19.5t-64 10q-76 3 -145 3v4h748v-4q-12 0 -55.5 -2t-73.5 -3q-121 -4 -72 -148q5 -14 18 -48q38 -93 97.5 -234t76.5 -184l248 426q19 34 26.5 64.5t3.5 58t-30.5 45t-73.5 20.5q-76 5 -98 5v4h637v-4q-22 0 -145 -5q-67 -3 -111.5 -22.5t-75.5 -71.5 q-212 -371 -450 -787q-145 -255 -176.5 -308t-51.5 -78q78 -65 190 -108.5t234 -47.5q121 -5 229.5 17.5t176.5 70.5q48 33 84.5 75.5t53.5 80.5t27.5 71t12.5 53zM266 1389l31 -76l10 6l-33 70l-14 26l-8 4zM311 1257l15 3l18 10v6q-2 2 -2 8l-8 14l4 7q6 8 14 14 q2 0 6.5 1t6.5 1h2q8 0 12 -2q12 -2 22 -23q1 -2 6 -10t7 -14l4 -4l-2 -2q4 -8 4 -11l4 5q-9 24 -18 36q-13 23 -25 25q-12 4 -14 4h-2q-14 -5 -15 -6q-13 -3 -16 -16q-8 15 -21 10q-22 -6 -20 -10zM381 1249l-45 11l-8 -7l55 -12h2l4 8h-8zM389 1229l-43 -58q4 -4 4 -8 l19 25l26 33l4 8l9 10q-1 0 -3.5 1t-3.5 1l-2 2l-4 -4zM324 1231l45 -8l6 6l-58 12zM383 1186l-27 -35q4 -4 4 -10l35 43l4 12l11 12l14 19q0 2 -4 2l-2 2l-12 -12l-11 -13zM362 1212l-32 9q0 -3 4 -11l22 -6zM371 1118l47 64v2l2 2l12 16l6 6l-4 4l-2 5h-2l-14 -21l-10 -12 l-41 -56zM434 1186l-59 -80q2 -4 6 -8l57 76l4 4l7 8l4 6q-6 6 -7 8l-6 -8zM340 1188l8 8l-12 2l2 -8zM442 1161l-55 -78l4 -8l53 72l5 4l14 20q-4 8 -4 9l-13 -17zM449 1130l-54 -69q0 -8 2 -10l54 67l2 4l24 35l-6 6l-20 -28zM453 1102l-50 -64q3 -6 5 -8l47 60l34 51 q-3 0 -6 6l-28 -41zM457 1073l-43 -55q1 -2 2 -6t2 -6l41 53v4l45 57q-4 4 -6 8l-39 -51zM473 1059l51 14q-2 6 -7 18.5t-7 18.5zM528 1061l-65 -17h-2l-2 -2l-4 -10l6 2h4l67 17zM469 1014l74 18l-4 8l-74 -16l-2 -2l-21 -4l-10 -14l33 10h4zM467 999l-43 -8q0 -2 4 -10 l41 10h4l80 19q-4 8 -4 12l-78 -21zM473 979l-41 -8q4 -8 6 -10l39 8l4 2l76 16v4q0 1 -1 3t-1 3l-78 -18h-4zM483 958l-41 -10q4 -4 7 -10l36 10h4l74 17q0 2 -1 5t-1 5l-76 -14zM494 936l-41 -8q2 -4 2 -10l45 10h4l67 14q0 2 -1 4.5t-1 3.5t-1 2t-1 2l-69 -16zM463 897 l51 10h4l55 13v12l-61 -14l-4 -3l-49 -8zM522 899l-53 -14q0 -1 1 -3.5t1 -4.5h100q2 10 2 30l-47 -8h-4zM567 866h-90q0 -1 1 -3t1 -3l82 2h6v4zM582 850l-7 -2q3 0 3 -2h6q-2 2 -2 4zM563 848h-80l2 -4zM578 838l-3 6l-4 -6l-2 -4l-14 -15l-39 -43l14 -33l15 -28l57 41 l-10 26zM551 836l-59 -5q2 -2 2 -4zM524 817l2 -4q1 0 13 6zM500 813l18 4l-18 -2v-2zM518 805l-12 -4q0 -4 2 -4q2 1 5 4t5 4zM92 45q79 0 174 111q-14 13 -58 54.5t-61.5 56.5t-49 40t-54 34t-43.5 9q-54 0 -73 -63q-21 -68 12 -141q39 -87 127 -99z" />
<glyph unicode="&#xe0;" horiz-adv-x="860" d="M203 1456l24 29v37h39l27 26l26 -26h39l205 -301h-129l-207 172v34zM227 1456l19 -20v-27h28l19 -20l18 20h29v27l18 20l-18 21v24l-29 2l-18 19l-19 -19l-28 -2v-24zM741 1024v-729q0 -163 38 -218t149 -20q13 4 14 3t-10 -7q-81 -47 -151 -57t-114.5 9t-70.5 58 q-78 -71 -225 -71q-135 0 -219 72.5t-84 197.5v336q0 175 84 259.5t231 84.5q98 0 182 -41q-29 112 -125 115l-123 4v4h424zM373 4q65 0 116 42t84 120v604q0 67 -58.5 105t-129.5 38q-31 0 -56 -7t-43.5 -17t-33 -30.5t-23.5 -37t-15.5 -48t-9.5 -52.5t-5 -60.5t-2 -62 v-68.5v-6q0 -93 3.5 -163.5t14.5 -141t30 -115t51.5 -72.5t76.5 -28z" />
<glyph unicode="&#xe1;" horiz-adv-x="860" d="M539 1483l24 -29l-24 -29v-34l-207 -172h-129l205 301h38l27 26l27 -26h39v-37zM520 1434l19 20l-19 21v24l-28 2l-19 19l-18 -19l-29 -2v-24l-18 -21l18 -20v-27h29l18 -21l19 21h28v27zM741 1024v-729q0 -163 38 -218t149 -20q13 4 14 3t-10 -7q-81 -47 -151 -57 t-114.5 9t-70.5 58q-78 -71 -225 -71q-135 0 -219 72.5t-84 197.5v336q0 175 84 259.5t231 84.5q98 0 182 -41q-29 112 -125 115l-123 4v4h424zM373 4q65 0 116 42t84 120v604q0 67 -58.5 105t-129.5 38q-31 0 -56 -7t-43.5 -17t-33 -30.5t-23.5 -37t-15.5 -48t-9.5 -52.5 t-5 -60.5t-2 -62v-68.5v-6q0 -93 3.5 -163.5t14.5 -141t30 -115t51.5 -72.5t76.5 -28z" />
<glyph unicode="&#xe2;" horiz-adv-x="860" d="M104 1182v41l-28 32l28 31v39l43 2l29 29l119 117h178l148 -146l41 -2v-39l28 -31l-28 -32v-41h-44l-28 -31l-31 31h-43v41l-27 32l27 31v2l-133 68l-133 -68v-2l26 -31l-26 -32v-41h-43l-31 -31l-29 31h-43zM928 57q13 4 14 3t-10 -7q-81 -47 -151 -57t-114.5 9 t-70.5 58q-78 -71 -225 -71q-135 0 -219 72.5t-84 197.5v336q0 175 84 259.5t231 84.5q98 0 182 -41q-29 112 -125 115l-123 4v4h424v-729q0 -163 38 -218t149 -20zM573 166v604q0 67 -58.5 105t-129.5 38q-31 0 -56 -7t-43.5 -17t-33 -30.5t-23.5 -37t-15.5 -48t-9.5 -52.5 t-5 -60.5t-2 -62v-68.5v-6q0 -93 3.5 -163.5t14.5 -141t30 -115t51.5 -72.5t76.5 -28q65 0 116 42t84 120z" />
<glyph unicode="&#xe3;" horiz-adv-x="860" d="M-53 1196q2 3 5.5 8.5t18.5 20t35 25t57 19.5t82 9q43 0 80 -16t67.5 -38.5t65 -45t87 -38.5t118.5 -16q58 0 105.5 18.5t74 45t44.5 53.5t24 45l6 19q-1 -3 -3.5 -8t-15.5 -18.5t-32.5 -23.5t-57.5 -18t-87 -8q-52 0 -92 15t-66.5 36.5t-54 43.5t-70.5 37t-100 15 q-58 0 -109.5 -18.5t-83 -45t-55 -53t-33.5 -45.5zM741 1024v-729q0 -163 38 -218t149 -20q13 4 14 3t-10 -7q-81 -47 -151 -57t-114.5 9t-70.5 58q-78 -71 -225 -71q-135 0 -219 72.5t-84 197.5v336q0 175 84 259.5t231 84.5q98 0 182 -41q-29 112 -125 115l-123 4v4h424z M373 4q65 0 116 42t84 120v604q0 67 -58.5 105t-129.5 38q-31 0 -56 -7t-43.5 -17t-33 -30.5t-23.5 -37t-15.5 -48t-9.5 -52.5t-5 -60.5t-2 -62v-68.5v-6q0 -93 3.5 -163.5t14.5 -141t30 -115t51.5 -72.5t76.5 -28z" />
<glyph unicode="&#xe4;" horiz-adv-x="860" d="M307 1260l-31 28v43h-43l-30 31l-29 -31h-43v-43l-29 -28l29 -31v-43h43l29 -29l30 29h43v43zM676 1260l-31 28v43h-43l-31 31l-28 -31h-43v-43l-29 -28l29 -31v-43h43l28 -29l31 29h43v43zM741 1024v-729q0 -163 38 -218t149 -20q13 4 14 3t-10 -7q-81 -47 -151 -57 t-114.5 9t-70.5 58q-78 -71 -225 -71q-135 0 -219 72.5t-84 197.5v336q0 175 84 259.5t231 84.5q98 0 182 -41q-29 112 -125 115l-123 4v4h424zM373 4q65 0 116 42t84 120v604q0 67 -58.5 105t-129.5 38q-31 0 -56 -7t-43.5 -17t-33 -30.5t-23.5 -37t-15.5 -48t-9.5 -52.5 t-5 -60.5t-2 -62v-68.5v-6q0 -93 3.5 -163.5t14.5 -141t30 -115t51.5 -72.5t76.5 -28z" />
<glyph unicode="&#xe5;" horiz-adv-x="860" d="M383 1169l57 66h90v86l58 61l-58 64v80l-90 4l-57 61l-59 -61l-88 -4v-80l-58 -64l58 -61v-86h88zM279 1282v57l-41 43l41 48v55l65 2l39 41l39 -41l65 -2v-55l41 -48l-41 -43v-57h-65l-39 -43l-39 43h-65zM741 1024v-729q0 -163 38 -218t149 -20q13 4 14 3t-10 -7 q-81 -47 -151 -57t-114.5 9t-70.5 58q-78 -71 -225 -71q-135 0 -219 72.5t-84 197.5v336q0 175 84 259.5t231 84.5q98 0 182 -41q-29 112 -125 115l-123 4v4h424zM373 4q65 0 116 42t84 120v604q0 67 -58.5 105t-129.5 38q-31 0 -56 -7t-43.5 -17t-33 -30.5t-23.5 -37 t-15.5 -48t-9.5 -52.5t-5 -60.5t-2 -62v-68.5v-6q0 -93 3.5 -163.5t14.5 -141t30 -115t51.5 -72.5t76.5 -28z" />
<glyph unicode="&#xe6;" horiz-adv-x="1777" d="M741 1024v-729q0 -163 38 -218t149 -20q13 4 14 3t-10 -7q-81 -47 -151 -57t-114.5 9t-70.5 58q-78 -71 -225 -71q-135 0 -219 72.5t-84 197.5v336q0 175 84 259.5t231 84.5q98 0 182 -41q-29 112 -125 115l-123 4v4h424zM1368 0q66 0 129.5 24t118.5 71.5t89 128.5 t34 184q0 3 1 3t1 -3q0 -53 -9.5 -106.5t-35.5 -112t-66 -102t-108 -72.5t-154 -29q-446 0 -446 516q0 234 113 349.5t319 115.5q76 0 138 -24.5t101 -63t68 -86t43.5 -94.5t23 -85.5t10.5 -63.5l1 -24h-619q4 0 9.5 0.5t21 2.5t27 5.5t21 10.5t9.5 16h375q0 32 -0.5 54 t-5 65t-13 74t-25.5 68.5t-40.5 61t-60.5 40t-84 16.5q-56 0 -100 -15t-72.5 -37.5t-49 -60t-31 -71t-16.5 -84t-7 -85t-1 -85.5q0 -54 4 -103.5t14 -110.5t31 -109t51.5 -90t79.5 -65.5t111 -23.5zM373 4q65 0 116 42t84 120v604q0 67 -58.5 105t-129.5 38q-31 0 -56 -7 t-43.5 -17t-33 -30.5t-23.5 -37t-15.5 -48t-9.5 -52.5t-5 -60.5t-2 -62v-68.5v-6q0 -93 3.5 -163.5t14.5 -141t30 -115t51.5 -72.5t76.5 -28z" />
</font>
</defs>
</svg>
