<?xml version="1.0" standalone="no"?>
<!DOCTYPE svg PUBLIC "-//W3C//DTD SVG 20010904//EN"
 "http://www.w3.org/TR/2001/REC-SVG-20010904/DTD/svg10.dtd">
<svg version="1.0" xmlns="http://www.w3.org/2000/svg"
 width="512.000000pt" height="512.000000pt" viewBox="0 0 512.000000 512.000000"
 preserveAspectRatio="xMidYMid meet">

<g transform="translate(0.000000,512.000000) scale(0.100000,-0.100000)"
fill="#000000" stroke="none">
<path d="M2445 4949 c-21 -85 -243 -1024 -242 -1024 1 0 126 2 278 5 l276 5
-148 513 c-81 283 -150 516 -153 519 -3 3 -8 -5 -11 -18z"/>
<path d="M3293 4320 c-123 -236 -223 -431 -223 -434 0 -3 14 -6 32 -6 88 0
322 -49 338 -71 5 -6 113 -58 117 -55 4 3 -33 985 -37 989 -3 3 -105 -188
-227 -423z"/>
<path d="M1280 4617 c0 -18 159 -900 163 -903 1 -1 32 13 70 31 80 39 200 84
242 92 17 3 62 7 100 10 39 3 71 6 72 7 2 2 -605 736 -633 766 -12 12 -14 12
-14 -3z"/>
<path d="M4333 3852 c-199 -147 -362 -270 -362 -274 -1 -4 9 -10 22 -14 65
-20 243 -108 273 -135 11 -10 25 -19 30 -19 5 0 21 -11 36 -25 15 -14 31 -25
35 -25 4 0 81 164 170 363 182 406 178 397 167 396 -5 0 -172 -121 -371 -267z"/>
<path d="M221 4032 c2 -5 98 -178 214 -384 l210 -375 36 31 c71 60 91 76 96
76 14 0 213 103 224 116 6 8 17 14 24 14 14 0 28 27 17 34 -4 2 -180 109 -392
238 -424 258 -434 264 -429 250z"/>
<path d="M2290 3864 c-14 -2 -92 -16 -175 -30 -542 -90 -1081 -331 -1516 -677
-201 -160 -517 -480 -542 -549 -8 -22 22 -58 277 -323 234 -245 1151 -1166
1203 -1209 l35 -30 42 45 c22 25 66 75 96 112 110 135 306 276 478 344 143 57
195 65 397 61 208 -5 233 -11 430 -107 175 -86 299 -187 430 -351 57 -71 83
-99 95 -100 7 0 1061 1056 1257 1260 223 232 263 276 263 288 0 29 -219 268
-400 437 -76 70 -252 207 -365 282 -402 270 -825 439 -1290 518 -129 22 -189
26 -420 30 -148 2 -281 2 -295 -1z m516 -104 c254 -21 559 -95 823 -200 287
-113 634 -321 873 -522 112 -95 441 -423 437 -436 -7 -19 -509 -534 -1072
-1099 l-320 -322 -49 62 c-173 216 -451 390 -720 451 -145 33 -370 25 -525
-19 -105 -30 -283 -117 -373 -182 -67 -48 -262 -237 -296 -286 l-20 -28 -485
493 c-819 832 -904 919 -907 927 -5 14 201 234 306 328 406 361 873 618 1372
752 92 25 311 68 405 80 100 12 400 13 551 1z"/>
<path d="M2310 3711 c-124 -11 -369 -61 -539 -112 -444 -133 -883 -383 -1236
-705 -106 -97 -275 -271 -275 -283 0 -3 301 -307 670 -676 l670 -670 98 105
c56 59 138 133 188 169 248 176 570 261 824 217 276 -48 485 -160 703 -377
l117 -117 665 671 c366 369 665 675 665 681 0 16 -270 279 -398 388 -178 152
-476 341 -698 443 -260 120 -590 219 -844 254 -102 14 -493 21 -610 12z m282
-585 c31 -16 72 -42 90 -58 l33 -29 -35 8 c-19 4 -73 8 -120 8 -107 -1 -177
-31 -244 -106 -72 -80 -91 -128 -91 -234 0 -76 4 -98 26 -145 37 -78 90 -134
159 -168 54 -28 57 -31 34 -36 -14 -4 -53 -1 -87 5 -312 59 -438 434 -224 666
83 90 169 124 307 120 81 -3 104 -7 152 -31z m92 -181 c131 -40 228 -134 270
-263 13 -39 17 -76 14 -140 -2 -74 -8 -98 -35 -152 -98 -200 -331 -283 -529
-189 l-49 24 55 2 c170 9 293 97 343 247 57 168 -36 361 -206 429 -37 15 -80
27 -95 28 -24 0 -22 2 13 14 55 18 160 18 219 0z"/>
<path d="M336 2058 c-19 -62 -94 -311 -167 -553 -72 -242 -134 -445 -136 -452
-3 -7 12 -19 34 -29 116 -51 267 -113 269 -111 1 1 6 35 12 75 12 83 53 149
122 197 49 34 51 57 4 85 -132 82 -172 284 -80 408 70 96 186 146 286 123 24
-5 46 -8 48 -7 2 2 -20 23 -48 47 -84 71 -160 151 -160 169 0 5 -3 10 -8 10
-4 0 -16 15 -26 34 -19 36 -93 116 -107 116 -5 0 -24 -51 -43 -112z"/>
<path d="M4675 2111 c-3 -12 -11 -21 -16 -21 -5 0 -9 -6 -9 -14 0 -8 -25 -36
-56 -63 -82 -69 -156 -146 -178 -183 l-18 -32 30 7 c49 10 152 -14 200 -49
171 -121 169 -368 -4 -487 -25 -17 -44 -38 -44 -49 0 -10 20 -33 48 -53 26
-20 61 -55 78 -79 39 -54 61 -157 45 -212 -7 -29 -7 -36 2 -33 7 3 55 23 107
45 108 45 190 82 190 85 -6 41 -350 1152 -357 1154 -6 2 -14 -5 -18 -16z"/>
<path d="M539 1752 c-133 -63 -193 -202 -140 -325 27 -63 75 -113 126 -133
l45 -17 0 -52 c0 -50 -2 -53 -32 -66 -126 -50 -191 -200 -139 -321 27 -65 69
-108 128 -135 201 -88 415 109 336 309 -24 63 -68 114 -118 138 -45 22 -45 22
-45 75 0 53 0 53 45 75 108 52 162 190 118 302 -52 135 -205 205 -324 150z"/>
<path d="M4379 1752 c-133 -63 -193 -202 -140 -325 27 -63 75 -113 126 -133
l45 -17 0 -52 c0 -50 -2 -53 -32 -66 -126 -50 -191 -200 -139 -321 27 -65 69
-108 128 -135 201 -88 415 109 336 309 -24 63 -68 114 -118 138 -45 22 -45 22
-45 75 0 53 0 53 45 75 108 52 162 190 118 302 -52 135 -205 205 -324 150z"/>
<path d="M4125 1557 c-33 -39 -73 -90 -89 -112 -16 -22 -40 -51 -54 -64 l-25
-25 56 -21 56 -21 -232 -306 c-128 -169 -313 -413 -411 -543 -98 -129 -176
-238 -174 -241 3 -3 43 10 89 29 118 49 420 175 722 302 l258 108 -39 36 c-62
56 -91 103 -102 164 -24 125 23 236 130 308 27 19 50 41 50 49 0 8 -21 28 -46
44 -104 66 -155 179 -135 302 5 33 8 60 7 61 0 1 -28 -31 -61 -70z"/>
<path d="M922 1558 c22 -96 -38 -233 -125 -287 -52 -32 -52 -46 -1 -83 143
-102 172 -283 68 -420 -39 -51 -42 -59 -26 -67 9 -5 154 -66 322 -136 168 -70
377 -157 465 -195 178 -75 205 -85 205 -74 0 4 -80 113 -177 241 -98 129 -282
372 -410 541 l-232 307 39 13 39 13 -43 57 c-37 48 -120 132 -131 132 -1 0 1
-19 7 -42z"/>
<path d="M529 542 c-132 -62 -193 -202 -140 -324 27 -65 69 -108 128 -135 201
-88 415 109 336 309 -52 135 -205 205 -324 150z"/>
<path d="M4369 542 c-132 -62 -193 -202 -140 -324 27 -65 69 -108 128 -135
201 -88 415 109 336 309 -52 135 -205 205 -324 150z"/>
</g>
</svg>
